<svg width="35" height="26" viewBox="0 0 35 26" fill="none" xmlns="http://www.w3.org/2000/svg">
    <path d="M35 12.3315V13.4838C34.9891 13.5463 34.9752 13.6077 34.968 13.6699C34.9084 14.1711 34.8698 14.6755 34.7874 15.173C34.5184 16.7899 33.9367 18.2928 33.0726 19.6824C31.7601 21.7922 29.9859 23.401 27.7563 24.4997C26.4694 25.1368 25.082 25.5463 23.6554 25.7099C23.3385 25.7465 23.0219 25.7793 22.7051 25.8142H10.4093C10.3473 25.8026 10.2857 25.7842 10.2232 25.7805C8.98333 25.7024 7.79045 25.4198 6.65346 24.9223C4.17811 23.8392 2.33247 22.0837 1.12432 19.6674C0.590461 18.6016 0.244971 17.4515 0.103128 16.2679C0.0682716 15.9802 0.0342798 15.6927 0 15.4052V14.2872C0.0118107 14.2253 0.0299588 14.1633 0.0337037 14.1011C0.0979424 13.0269 0.318313 11.9838 0.706337 10.9814C1.75058 8.28391 3.57086 6.28329 6.1577 4.98844C7.49979 4.31638 8.93033 3.96321 10.4265 3.88486C11.1591 3.84683 11.8911 3.88774 12.6193 3.98539C12.6853 3.99432 12.7803 3.96494 12.8261 3.91798C13.8733 2.8484 15.0656 1.97959 16.41 1.32107C17.714 0.682428 19.0864 0.270782 20.531 0.106008C20.8709 0.0671193 21.2117 0.035144 21.5522 0H22.6005C22.6691 0.0106584 22.7379 0.0227572 22.8065 0.030823C23.3258 0.0913169 23.8481 0.129342 24.3626 0.215473C25.9677 0.484815 27.4619 1.06095 28.8446 1.91679C30.9648 3.22922 32.5805 5.00572 33.6844 7.24226C34.3228 8.52971 34.7327 9.91829 34.8957 11.346C34.9332 11.6747 34.9651 12.0034 35 12.3315ZM15.4302 4.87551C15.4513 4.90317 15.4565 4.91613 15.4654 4.92045C16.1853 5.27528 16.8733 5.69134 17.5219 6.16403C17.5628 6.1937 17.6642 6.18132 17.7137 6.15021C19.4963 5.0207 21.4286 4.63095 23.5044 4.99909C25.5385 5.35975 27.1937 6.37605 28.4583 7.9993C29.8903 9.8363 30.4362 11.9135 30.0409 14.2247C29.7759 15.7736 29.1554 17.1633 28.1008 18.3273C26.1765 20.4495 23.7669 21.3272 20.9303 20.9556C19.184 20.7269 17.6766 19.9736 16.429 18.7128C14.8276 17.0953 13.2159 15.4884 11.6099 13.8753C11.3959 13.6604 11.1577 13.4875 10.8494 13.4498C10.311 13.3838 9.82247 13.6526 9.59 14.1363C9.38259 14.5681 9.40938 15.0549 9.85934 15.4974C11.6497 17.2549 13.4242 19.0285 15.2125 20.7877C15.5185 21.0903 15.8468 21.3697 16.1945 21.6234C17.5009 22.572 18.9737 23.0965 20.5688 23.3077C21.8207 23.473 23.0628 23.4376 24.2955 23.1605C26.6467 22.6325 28.5943 21.4324 30.1282 19.5807C31.3949 18.0505 32.1608 16.2921 32.4279 14.318C32.5826 13.1923 32.5503 12.0487 32.3322 10.9335C31.9765 9.11008 31.205 7.47848 29.9689 6.08971C27.6105 3.44152 24.6435 2.2593 21.1126 2.52317C19.7544 2.62457 18.4696 3.02354 17.2606 3.65642C16.6082 3.99539 15.9945 4.40415 15.4302 4.87551ZM14.5663 23.3624C14.5177 23.3174 14.4694 23.2722 14.4212 23.2267C13.6892 22.5357 12.9532 21.8489 12.2298 21.1489C12.0898 21.0135 11.9611 20.9476 11.7629 20.9522C11.0303 20.97 10.2972 20.9732 9.57531 20.8102C5.98601 19.9984 3.90185 16.096 5.22465 12.6622C6.26802 9.95469 9.15646 8.3058 12.0049 8.81424C13.2816 9.0421 14.4021 9.58251 15.3219 10.5311C16.4437 11.6891 17.5988 12.814 18.7326 13.9602C18.9907 14.2212 19.2872 14.3402 19.6447 14.2892C20.1067 14.2233 20.4746 14.0032 20.6416 13.55C20.8053 13.1041 20.726 12.6818 20.3884 12.3399C19.1984 11.1343 18.0367 9.89852 16.7986 8.74424C14.3972 6.50453 11.5656 5.83852 8.4337 6.79086C4.22132 8.07074 1.75605 12.4205 2.71848 16.7127C3.59564 20.6235 7.01584 23.3682 11.0179 23.3716C12.1354 23.3728 13.253 23.3722 14.3705 23.3716C14.4258 23.3716 14.4811 23.3667 14.5663 23.3624Z" fill="#5368E0" fill-opacity="0.8"/>
</svg>
