<svg width="25" height="38" viewBox="0 0 25 38" fill="none" xmlns="http://www.w3.org/2000/svg">
    <path opacity="0.8" d="M6.23932 37.9996C9.67731 37.9996 12.4786 35.1982 12.4786 31.7602V25.4997H6.23932C2.80133 25.4997 0 28.301 0 31.739C0 35.177 2.80133 37.9996 6.23932 37.9996Z" fill="#5368E0"/>
    <path opacity="0.8" d="M0 19.2391C0 15.8011 2.80133 12.9998 6.23932 12.9998H12.4999V25.4997H6.23932C2.80133 25.4997 0 22.6983 0 19.2391Z" fill="#5368E0"/>
    <path opacity="0.8" d="M0 6.73926C0 3.30127 2.80133 0.499939 6.23932 0.499939H12.4999V12.9998H6.23932C2.80133 12.9998 0 10.1985 0 6.73926Z" fill="#5368E0"/>
    <path opacity="0.6" d="M12.5002 0.499939H18.7396C22.1776 0.499939 25.0001 3.30127 25.0001 6.73926C25.0001 10.1772 22.1988 12.9998 18.7396 12.9998H12.5002V0.499939Z" fill="#5368E0"/>
    <path opacity="0.8" d="M25.0001 19.2391C25.0001 22.6771 22.1988 25.4785 18.7608 25.4785C15.3016 25.4785 12.5002 22.6771 12.5002 19.2391C12.5002 15.8011 15.3016 12.9998 18.7608 12.9998C22.1988 12.9998 25.0001 15.8011 25.0001 19.2391Z" fill="#5368E0"/>
</svg>
