<svg width="235" height="314" viewBox="0 0 235 314" fill="none" xmlns="http://www.w3.org/2000/svg">
    <path d="M39.4502 310.713C39.2056 311.354 39.2289 311.996 39.5317 312.614C39.6714 312.905 39.9161 313.127 40.2538 313.278L35.2805 313.605H0.5L10.0763 288.328H10.088C10.3209 288.445 10.6121 288.375 10.7752 288.165C10.8218 288.118 15.3758 282.72 24.6002 283.257C32.4154 283.723 38.8562 288.013 40.8012 289.448C37.9361 291.569 35.3038 293.773 34.6982 294.298C34.6865 294.298 34.6865 294.309 34.6865 294.309C34.6749 294.309 34.6632 294.321 34.6516 294.333C31.1808 295.86 28.1642 297.445 26.9529 298.518C25.4737 299.847 25.7067 300.862 25.9862 301.351C26.4987 302.261 27.8148 302.657 28.9678 302.657C29.3871 302.657 29.7948 302.599 30.1209 302.505C30.6567 302.342 35.6765 301.141 40.0675 300.104C38.7164 300.85 37.4236 301.561 36.2705 302.191C32.9861 303.974 31.3788 304.86 30.9944 305.234C30.6101 305.618 29.6899 306.808 30.0859 307.857C30.249 308.311 30.7149 308.859 31.996 308.929C32.0543 308.941 32.1242 308.941 32.2057 308.941C34.605 308.941 40.4169 306.877 45.1106 305.222L46.5432 304.721C47.8127 304.278 49.6646 303.963 51.633 303.741C44.6447 306.481 40.3353 308.475 39.4502 310.713Z" fill="white"/>
    <path d="M155.28 152.037C153.288 155.476 143.237 170.073 116.752 170.073C105.384 170.073 97.138 167.462 92.2462 162.297C88.3444 158.193 87.8203 153.634 87.7621 152.119C95.3443 151.64 96.3809 142.01 96.3925 141.952C96.9167 138.839 96.346 135.213 95.7986 131.704C95.6937 131.051 95.5889 130.398 95.5074 129.757C96.742 129.839 98.0348 129.885 99.3975 129.885C101.04 129.885 102.798 129.827 104.65 129.699C117.555 128.801 133.081 121.829 142.328 111.08C141.536 119.672 141.408 127.425 141.956 134.117C141.956 134.292 142.084 138.338 143.866 142.605C146.125 148.026 150.062 151.279 155.28 152.037Z" fill="white"/>
    <path d="M60.2286 38.1421C52.2969 52.9021 55.5464 69.2011 55.5814 69.3643C55.6513 69.6791 55.4533 69.9823 55.1388 70.0522C55.0922 70.0639 55.0573 70.0639 55.0107 70.0639C54.7428 70.0639 54.4982 69.8773 54.44 69.5975C54.4051 69.4343 51.074 52.7272 59.2036 37.5825C59.355 37.3026 59.7161 37.1977 59.9956 37.3493C60.2752 37.5009 60.38 37.8506 60.2286 38.1421Z" fill="white"/>
    <path d="M69.7791 26.1218C65.5746 29.4446 63.1171 33.77 63.0938 33.8166C62.9889 34.0032 62.7909 34.1081 62.5813 34.1081C62.4881 34.1081 62.3833 34.0848 62.3018 34.0382C62.0222 33.8749 61.9174 33.5252 62.0805 33.2454C62.1853 33.0588 64.6661 28.6751 69.057 25.2125C69.3016 25.0143 69.6743 25.0609 69.8723 25.3057C70.0703 25.5622 70.0237 25.9236 69.7791 26.1218Z" fill="white"/>
    <path d="M78.2698 65.1205L77.7806 65.342L78.1417 65.0972C78.1534 65.0972 78.165 65.1089 78.1767 65.1089C78.2 65.1089 78.2349 65.1205 78.2698 65.1205Z" fill="white"/>
    <path d="M80.2033 63.838C80.1567 63.873 80.1101 63.908 80.0635 63.9313L80.0984 63.8147L80.1101 63.8031C80.145 63.8147 80.18 63.8264 80.2033 63.838Z" fill="white"/>
    <path d="M74.2749 63.5932L74.1468 63.7681L70.5129 68.8514L68.4864 69.8307L67.8574 70.5769L71.8058 65.0506L72.5978 63.9546L73.3315 62.917C73.3432 62.9054 73.3548 62.882 73.3781 62.8704L73.7043 62.6955C73.8557 62.6605 74.007 62.6955 74.1468 62.7888C74.2167 62.8471 74.2866 62.917 74.3215 62.9986C74.3215 63.0103 74.3215 63.0103 74.3215 63.0103C74.4147 63.1968 74.4147 63.4183 74.2749 63.5932Z" fill="white"/>
    <path d="M73.7043 62.6955L73.3782 62.8704C73.4597 62.7771 73.5762 62.7072 73.7043 62.6955Z" fill="white"/>
    <path d="M140.523 59.2561C140.407 59.3844 140.244 59.4543 140.081 59.4543C139.941 59.4543 139.813 59.4077 139.696 59.3144C129.261 50.4654 128.352 37.3026 128.34 37.1744C128.329 36.8596 128.573 36.5798 128.888 36.5565C129.214 36.5565 129.482 36.7896 129.505 37.1044C129.517 37.2327 130.402 49.9058 140.453 58.4284C140.698 58.6382 140.733 58.9997 140.523 59.2561Z" fill="white"/>
    <path d="M117.52 4.83286C117.218 4.93779 116.961 5.0194 116.787 5.08936C116.682 5.12433 116.589 5.15931 116.53 5.17097C116.6 5.12433 116.67 5.05438 116.717 4.97277C116.763 4.90282 116.787 4.8212 116.787 4.73959C116.891 4.77457 116.973 4.8212 117.031 4.85618C117.136 4.90281 117.183 4.92614 117.183 4.92614C117.287 4.89116 117.392 4.85618 117.497 4.8212C117.509 4.8212 117.52 4.83286 117.52 4.83286Z" fill="white"/>
    <path d="M123.111 13.5886C123.099 13.577 123.088 13.5653 123.088 13.5536C123.064 13.4953 123.041 13.4254 123.041 13.3671C123.076 13.4371 123.088 13.5187 123.111 13.5886Z" fill="white"/>
    <path d="M180.205 57.8921C180.158 56.9127 180.135 55.8868 180.123 54.7908C180.17 55.8868 180.205 56.9361 180.205 57.8921Z" fill="white"/>
    <path d="M93.1197 96.7975C93.0731 97.089 92.8285 97.2988 92.5373 97.2988C92.514 97.2988 92.4791 97.2872 92.4558 97.2872C92.0598 97.2289 88.6006 96.6343 87.8086 94.6173C87.4476 93.6963 87.6922 92.6819 88.5424 91.6093C92.2695 86.8642 90.5107 72.4422 90.4874 72.2907C90.4525 71.9759 90.6738 71.6844 90.9999 71.6495C91.3144 71.6145 91.6056 71.836 91.6405 72.1508C91.7221 72.7687 93.4808 87.2023 89.4509 92.3322C88.8802 93.055 88.6938 93.6846 88.8918 94.1859C89.3577 95.3751 91.8152 96.0047 92.6305 96.1329C92.945 96.1912 93.1663 96.4827 93.1197 96.7975Z" fill="white"/>
    <path d="M103.637 108.072C101.284 109.587 97.8251 110.298 94.762 110.298C92.9683 110.298 91.3145 110.054 90.0799 109.587C89.7887 109.471 89.6373 109.133 89.7421 108.829C89.8586 108.526 90.1963 108.375 90.4991 108.491C93.5623 109.657 99.5605 109.307 103.008 107.092C103.276 106.917 103.637 106.999 103.812 107.267C103.986 107.535 103.905 107.897 103.637 108.072Z" fill="white"/>
    <path d="M117.439 76.278C117.567 78.4116 116.146 80.242 114.271 80.3586H114.084C112.291 80.3586 110.753 78.7497 110.637 76.686C110.509 74.5408 111.93 72.7104 113.805 72.6055C115.668 72.4772 117.311 74.1328 117.439 76.278Z" fill="#21232E"/>
    <path d="M129.097 105.565C123.029 105.926 117.811 101.298 117.439 95.2119C117.078 89.1377 121.702 83.9029 127.781 83.5414C133.849 83.18 139.079 87.8086 139.44 93.8945C139.801 99.9687 135.177 105.192 129.097 105.565Z" fill="white"/>
    <path d="M152.916 69.0612C146.486 71.4629 146.114 78.1551 146.172 80.4169C146.545 80.3469 146.987 80.3353 147.442 80.5451C148.164 80.8716 148.63 81.6294 148.839 82.8069C149.072 84.136 148.909 85.1387 148.373 85.7799C147.838 86.4095 147.139 86.4328 147.034 86.4328C146.708 86.4212 146.452 86.1647 146.452 85.8382C146.452 85.5118 146.719 85.232 147.046 85.2669C147.046 85.2669 147.302 85.2553 147.5 84.9988C147.779 84.649 147.849 83.9378 147.686 83.0051C147.593 82.4805 147.395 81.8043 146.952 81.6061C146.521 81.3962 145.939 81.7227 145.939 81.7343C145.764 81.8276 145.555 81.8392 145.38 81.746C145.205 81.6644 145.077 81.4895 145.054 81.2913C145.054 81.1864 144.029 71.1365 152.508 67.9653C152.811 67.8487 153.149 68.0119 153.253 68.3151C153.37 68.6065 153.218 68.9446 152.916 69.0612Z" fill="white"/>
    <path d="M77.4544 65.5053V65.5519L77.5825 65.4586L77.4544 65.5053ZM78.1766 65.1089C78.1649 65.1089 78.1533 65.0972 78.1416 65.0972L77.7806 65.342L78.2697 65.1205C78.2348 65.1205 78.1998 65.1089 78.1766 65.1089ZM80.11 63.8031L80.0983 63.8147L80.0634 63.9313C80.11 63.908 80.1565 63.873 80.2031 63.838C80.1798 63.8264 80.1449 63.8147 80.11 63.8031ZM60.706 79.7523L60.6943 79.7873C60.6943 79.8223 60.706 79.8689 60.7176 79.9272C60.706 79.8456 60.706 79.7873 60.706 79.7523ZM141.56 69.411L141.257 70.0755C141.35 69.9006 141.467 69.6791 141.606 69.4343C141.595 69.4343 141.571 69.4343 141.56 69.411ZM77.9319 98.7328C77.5592 92.6586 72.3414 88.0184 66.2616 88.3798C64.8523 88.4731 63.5246 88.8229 62.3133 89.3825C62.4298 89.9654 62.5579 90.56 62.6976 91.1779C62.6976 91.1896 62.6976 91.2013 62.7093 91.2129C62.8025 91.6443 62.9073 92.0873 63.0121 92.5304C63.5362 94.7922 64.1768 97.1939 64.9339 99.6306C65.0736 100.085 65.225 100.54 65.3764 101.006C65.5278 101.496 65.6909 101.974 65.8656 102.464C66.0403 102.953 66.215 103.431 66.3898 103.909C67.1934 106.066 68.0902 108.188 69.1152 110.193C74.4262 109.132 78.2581 104.294 77.9319 98.7328Z" fill="white"/>
    <path d="M141.56 69.411L141.257 70.0755C141.35 69.9006 141.467 69.6791 141.606 69.4343C141.595 69.4343 141.571 69.4343 141.56 69.411Z" fill="#534D56"/>
    <path d="M60.2286 38.1421C52.2969 52.9021 55.5464 69.2011 55.5814 69.3643C55.6513 69.6791 55.4533 69.9823 55.1388 70.0522C55.0922 70.0639 55.0573 70.0639 55.0107 70.0639C54.7428 70.0639 54.4982 69.8773 54.44 69.5975C54.4051 69.4343 51.074 52.7272 59.2036 37.5825C59.355 37.3026 59.7161 37.1977 59.9956 37.3493C60.2752 37.5009 60.38 37.8506 60.2286 38.1421Z" fill="#21232E"/>
    <path d="M69.7791 26.1218C65.5746 29.4446 63.1171 33.77 63.0938 33.8166C62.9889 34.0032 62.7909 34.1081 62.5813 34.1081C62.4881 34.1081 62.3833 34.0848 62.3018 34.0382C62.0222 33.8749 61.9174 33.5252 62.0805 33.2454C62.1853 33.0588 64.6661 28.6751 69.057 25.2125C69.3016 25.0143 69.6743 25.0609 69.8723 25.3057C70.0703 25.5622 70.0237 25.9236 69.7791 26.1218Z" fill="#21232E"/>
    <path d="M78.2698 65.1205L77.7806 65.342L78.1417 65.0972C78.1534 65.0972 78.165 65.1089 78.1767 65.1089C78.2 65.1089 78.2349 65.1205 78.2698 65.1205Z" fill="#21232E"/>
    <path d="M80.2033 63.838C80.1567 63.873 80.1101 63.908 80.0635 63.9313L80.0984 63.8147L80.1101 63.8031C80.145 63.8147 80.18 63.8264 80.2033 63.838Z" fill="#21232E"/>
    <path d="M73.7043 62.6955L73.3782 62.8704C73.4597 62.7771 73.5762 62.7072 73.7043 62.6955Z" fill="#21232E"/>
    <path d="M140.523 59.2561C140.407 59.3844 140.244 59.4543 140.081 59.4543C139.941 59.4543 139.813 59.4077 139.696 59.3144C129.261 50.4654 128.352 37.3026 128.34 37.1744C128.329 36.8596 128.573 36.5798 128.888 36.5565C129.214 36.5565 129.482 36.7896 129.505 37.1044C129.517 37.2327 130.402 49.9058 140.453 58.4284C140.698 58.6382 140.733 58.9997 140.523 59.2561Z" fill="#21232E"/>
    <path d="M117.52 4.83286C117.218 4.93779 116.961 5.0194 116.787 5.08936C116.682 5.12433 116.589 5.15931 116.53 5.17097C116.6 5.12433 116.67 5.05438 116.717 4.97277C116.763 4.90282 116.787 4.8212 116.787 4.73959C116.891 4.77457 116.973 4.8212 117.031 4.85618C117.136 4.90281 117.183 4.92614 117.183 4.92614C117.287 4.89116 117.392 4.85618 117.497 4.8212C117.509 4.8212 117.52 4.83286 117.52 4.83286Z" fill="#21232E"/>
    <path d="M123.111 13.5886C123.099 13.577 123.088 13.5653 123.088 13.5536C123.064 13.4953 123.041 13.4254 123.041 13.3671C123.076 13.4371 123.088 13.5187 123.111 13.5886Z" fill="#21232E"/>
    <path d="M180.205 57.8921C180.158 56.9127 180.135 55.8868 180.123 54.7908C180.17 55.8868 180.205 56.9361 180.205 57.8921Z" fill="#21232E"/>
    <path d="M93.1197 96.7975C93.0731 97.089 92.8285 97.2988 92.5373 97.2988C92.514 97.2988 92.4791 97.2872 92.4558 97.2872C92.0598 97.2289 88.6006 96.6343 87.8086 94.6173C87.4476 93.6963 87.6922 92.682 88.5424 91.6093C92.2695 86.8642 90.5107 72.4423 90.4874 72.2907C90.4525 71.9759 90.6738 71.6845 90.9999 71.6495C91.3144 71.6145 91.6056 71.836 91.6405 72.1508C91.7221 72.7687 93.4808 87.2023 89.4509 92.3322C88.8802 93.055 88.6938 93.6846 88.8918 94.1859C89.3577 95.3751 91.8152 96.0047 92.6305 96.133C92.945 96.1913 93.1663 96.4827 93.1197 96.7975Z" fill="#21232E"/>
    <path d="M103.637 108.072C101.284 109.587 97.8251 110.298 94.762 110.298C92.9683 110.298 91.3145 110.054 90.0799 109.587C89.7887 109.471 89.6373 109.133 89.7421 108.829C89.8586 108.526 90.1963 108.375 90.4991 108.491C93.5623 109.657 99.5605 109.307 103.008 107.092C103.276 106.917 103.637 106.999 103.812 107.267C103.986 107.535 103.905 107.897 103.637 108.072Z" fill="#21232E"/>
    <path d="M79.0734 78.8546C79.0734 80.8716 77.6874 82.5504 75.8937 82.667H75.7074C74.8455 82.667 74.0302 82.3173 73.378 81.641C72.7141 80.9532 72.3181 80.0088 72.2599 78.9945C72.19 77.9802 72.4811 76.9892 73.0518 76.2314C73.6575 75.4386 74.4961 74.9722 75.4162 74.9139C77.3031 74.7973 78.9336 76.4412 79.0617 78.5864C79.0617 78.6797 79.0734 78.7613 79.0734 78.8546Z" fill="#21232E"/>
    <path d="M129.097 105.565C123.029 105.926 117.811 101.298 117.439 95.2119C117.078 89.1377 121.702 83.9029 127.781 83.5414C133.849 83.18 139.079 87.8086 139.44 93.8945C139.801 99.9687 135.177 105.192 129.097 105.565Z" fill="#FCCFC6"/>
    <path d="M69.1152 110.193C68.0903 108.188 67.1935 106.066 66.3898 103.909C66.2151 103.431 66.0404 102.953 65.8657 102.464C65.691 101.974 65.5279 101.496 65.3765 101.006C65.2251 100.54 65.0737 100.085 64.9339 99.6306C64.1769 97.1939 63.5363 94.7922 63.0121 92.5304C62.9073 92.0873 62.8025 91.6443 62.7093 91.2129C62.6977 91.2013 62.6977 91.1896 62.6977 91.178C62.5579 90.56 62.4298 89.9654 62.3134 89.3825C63.5246 88.8229 64.8524 88.4731 66.2617 88.3798C72.3414 88.0184 77.5593 92.6586 77.932 98.7329C78.2581 104.294 74.4263 109.132 69.1152 110.193Z" fill="#FCCFC6"/>
    <path d="M17.1067 312.537L10.1067 287.537L18.6067 278.537L57.1067 283.037L66.1067 306.537L40.1067 312.537H17.1067Z" fill="white"/>
    <path d="M127.048 62.8937C126.791 63.4183 126.302 63.3367 124.485 63.0453C122.552 62.7188 119.628 62.2408 117.311 62.5789C115.226 62.882 112.745 63.6282 110.567 64.2927C108.179 65.0156 106.863 65.3887 106.083 65.3887C105.699 65.3887 105.442 65.3071 105.244 65.1205C105.035 64.9107 104.953 64.5959 105.046 64.2694C105.302 63.3251 105.361 63.2085 105.838 62.7072L105.978 62.5789C106.164 62.4507 110.509 59.5826 116.682 59.7808C123.775 60.0023 126.127 61.4363 126.815 62.0426C127.211 62.404 127.106 62.7538 127.048 62.8937Z" fill="#21232E"/>
    <path d="M80.2031 63.838C80.1565 63.873 80.1099 63.908 80.0634 63.9313L80.0983 63.8147L80.1099 63.8031C80.1449 63.8147 80.1798 63.8264 80.2031 63.838Z" fill="#21232E"/>
    <path d="M78.2697 65.1205L77.7805 65.342L78.1416 65.0972C78.1532 65.0972 78.1649 65.1089 78.1765 65.1089C78.1998 65.1089 78.2347 65.1205 78.2697 65.1205Z" fill="#21232E"/>
    <path d="M83.0916 66.3913C82.8703 66.6595 82.5209 66.7761 81.892 66.7761C81.1699 66.7761 80.0867 66.6129 78.4211 66.3214C78.689 66.1815 78.9453 66.0183 79.2015 65.8667C79.4461 65.7151 79.6907 65.5636 79.9352 65.4003C80.2847 65.1905 80.6224 64.969 80.9602 64.7358C81.1582 64.6075 81.3562 64.4793 81.5425 64.351C81.7289 64.2228 81.9036 64.0945 82.0783 63.9663L82.1598 64.0246C82.7538 64.5026 82.8237 64.6192 83.1964 65.5286C83.3246 65.8317 83.2896 66.1465 83.0916 66.3913Z" fill="#21232E"/>
    <path d="M77.5826 65.4586L77.4545 65.5519V65.5053L77.5826 65.4586Z" fill="#21232E"/>
    <path d="M78.2697 65.1205L77.7805 65.342L78.1416 65.0972C78.1532 65.0972 78.1649 65.1089 78.1765 65.1089C78.1998 65.1089 78.2347 65.1205 78.2697 65.1205Z" fill="#21232E"/>
    <path d="M80.2031 63.838C80.1565 63.873 80.1099 63.908 80.0634 63.9313L80.0983 63.8147L80.1099 63.8031C80.1449 63.8147 80.1798 63.8264 80.2031 63.838Z" fill="#21232E"/>
    <path d="M60.2286 38.1421C52.2969 52.9021 55.5464 69.2011 55.5814 69.3643C55.6513 69.6791 55.4533 69.9823 55.1388 70.0522C55.0922 70.0639 55.0573 70.0639 55.0107 70.0639C54.7428 70.0639 54.4982 69.8773 54.44 69.5975C54.4051 69.4343 51.074 52.7272 59.2036 37.5825C59.355 37.3026 59.7161 37.1977 59.9956 37.3493C60.2752 37.5009 60.38 37.8506 60.2286 38.1421Z" fill="white"/>
    <path d="M72.8422 136.95C71.794 137.16 70.6642 137.324 69.4995 137.428C55.0688 133.429 51.2369 118.716 51.202 118.553C51.1205 118.238 51.3068 117.923 51.6213 117.842C51.9357 117.772 52.2502 117.958 52.3318 118.273C52.3667 118.436 56.5829 134.525 72.8422 136.95Z" fill="white"/>
    <path d="M220.538 217.758C220.503 217.664 211.78 191.992 208.018 180.811C202.218 163.521 186.704 159.382 186.552 159.335L156.538 151.104C156.701 151.209 156.794 151.407 156.771 151.617C156.771 151.687 156.748 151.745 156.724 151.804C156.724 151.804 156.724 151.815 156.713 151.827C156.654 151.967 156.293 152.667 155.56 153.739C155.501 153.844 155.431 153.949 155.35 154.066C155.245 154.229 155.129 154.404 155 154.59C151.122 159.965 140.209 171.239 116.752 171.239C105.035 171.239 96.509 168.499 91.3843 163.078C90.8486 162.507 90.371 161.935 89.9401 161.352C89.9168 161.329 89.9051 161.294 89.8818 161.271C86.4693 156.607 86.5624 152.025 86.5857 151.559C86.5857 151.547 86.5857 151.536 86.5857 151.536C86.5974 151.372 86.6789 151.221 86.7954 151.128C82.6374 152.41 56.152 160.793 50.5032 167.531C44.3768 174.83 36.8529 203.849 36.783 204.14L11.4274 279.887C14.4207 278.174 21.8748 274.618 30.5751 275.818C30.6217 275.818 30.6683 275.83 30.7149 275.842C31.6583 275.947 32.59 276.122 33.5102 276.378C34.0809 276.541 34.6283 276.705 35.1524 276.903C35.6765 277.078 36.1773 277.264 36.6548 277.462C40.2771 278.908 42.8394 280.785 44.5516 282.406C44.5865 282.429 44.6331 282.464 44.668 282.499C45.4833 283.21 46.2986 283.991 47.1022 284.842C47.242 284.982 47.2886 285.18 47.2537 285.355C47.6147 285.204 47.9292 285.099 48.2087 285.052C51.0972 284.528 54.7427 284.516 59.0638 285.006C55.0106 275.166 52.9607 260.184 52.9607 240.481C52.9607 230.034 53.6362 221.593 54.172 214.82C54.6262 209.188 55.0106 204.327 54.8825 200.036C54.6263 190.907 44.5865 184.274 44.4817 184.204C44.2138 184.029 44.1439 183.667 44.3186 183.399C44.4933 183.131 44.8544 183.049 45.1223 183.224C45.5532 183.504 55.7677 190.266 56.0472 200.001C56.1753 204.362 55.7909 209.247 55.3367 214.913C54.8009 221.675 54.1254 230.081 54.1254 240.481C54.1254 260.475 56.2335 275.504 60.3915 285.18C61.894 285.367 63.4663 285.623 65.1202 285.938C65.4347 285.997 65.6443 286.032 65.7375 286.043C66.0636 286.09 69.2666 286.766 74.9154 287.967C81.4727 289.366 89.6373 291.091 92.8402 291.709C97.895 292.665 122.831 286.859 126.244 286.055C126.733 283.455 131.252 282.767 133.057 282.592C133.046 282.231 133.092 281.764 133.314 281.216C134.35 278.582 138.928 274.384 154.849 269.394C156.561 268.858 158.739 268.112 161.255 267.261C168.092 264.941 177.875 261.618 188.73 258.832C186.645 255.439 178.388 240.749 180.624 224.31C180.671 223.983 180.962 223.75 181.288 223.809C181.602 223.855 181.824 224.147 181.777 224.461C179.517 241.145 188.311 255.998 189.907 258.528C191.479 258.132 193.086 257.747 194.694 257.386C195.008 257.316 195.323 257.514 195.392 257.829C195.462 258.144 195.264 258.447 194.95 258.517C193.296 258.89 191.654 259.286 190.035 259.694C189.872 259.741 189.72 259.776 189.569 259.811C178.539 262.621 168.569 266.002 161.639 268.357C159.1 269.22 156.922 269.966 155.198 270.502C139.114 275.55 135.294 279.573 134.443 281.531C134.117 282.266 134.234 282.709 134.269 282.814C134.304 282.86 134.327 282.93 134.339 283L139.102 304.709C146.661 307.39 192.481 307.612 220.76 291.068C250.11 273.895 220.841 218.317 220.538 217.758ZM167.3 157.913C167.137 158.344 163.037 168.534 149.503 176.532C140.826 181.662 129.901 184.308 118.394 184.308C112.128 184.308 105.699 183.527 99.3509 181.93C78.0717 176.567 74.9736 157.971 74.9387 157.785C74.8921 157.47 75.1134 157.178 75.4279 157.12C75.7423 157.074 76.0452 157.295 76.0917 157.61C76.1034 157.656 76.8255 162.168 80.0867 167.263C83.0916 171.95 88.9151 178.094 99.6304 180.799C117.346 185.253 135.771 183.283 148.909 175.529C162.07 167.753 166.182 157.587 166.217 157.482C166.333 157.19 166.671 157.039 166.974 157.155C167.276 157.272 167.416 157.61 167.3 157.913ZM207.272 184.297C207.156 184.297 195.125 185.055 187.647 204.21C187.554 204.443 187.344 204.583 187.111 204.583C187.042 204.583 186.96 204.571 186.89 204.537C186.599 204.42 186.447 204.082 186.564 203.779C194.344 183.877 206.702 183.154 207.226 183.131C207.564 183.143 207.82 183.364 207.831 183.691C207.843 184.005 207.599 184.285 207.272 184.297Z" fill="#FFC980"/>
    <path d="M167.3 157.913C167.137 158.344 163.037 168.534 149.503 176.532C140.826 181.662 129.901 184.308 118.394 184.308C112.128 184.308 105.699 183.527 99.3509 181.93C78.0717 176.567 74.9736 157.971 74.9387 157.785C74.8921 157.47 75.1134 157.178 75.4278 157.12C75.7423 157.073 76.0452 157.295 76.0917 157.61C76.1034 157.656 76.8255 162.168 80.0867 167.263C83.0916 171.95 88.9151 178.094 99.6304 180.799C117.346 185.253 135.771 183.282 148.909 175.529C162.07 167.753 166.182 157.586 166.217 157.482C166.333 157.19 166.671 157.039 166.974 157.155C167.276 157.272 167.416 157.61 167.3 157.913Z" fill="#FFC980"/>
    <path d="M207.831 183.691C207.843 184.005 207.598 184.285 207.272 184.297C207.156 184.297 195.125 185.055 187.647 204.21C187.554 204.443 187.344 204.583 187.111 204.583C187.041 204.583 186.96 204.571 186.89 204.536C186.599 204.42 186.447 204.082 186.564 203.779C194.344 183.877 206.702 183.154 207.226 183.131C207.564 183.143 207.82 183.364 207.831 183.691Z" fill="#FFC980"/>
    <path d="M47.2537 285.355C47.2537 285.355 47.2537 285.355 47.2537 285.367H47.2188C47.2304 285.367 47.242 285.355 47.2537 285.355Z" fill="#FFC980"/>
    <path d="M129.575 305.094H129.563C128.946 302.261 126.558 291.056 126.221 287.267C126.256 287.256 126.279 287.256 126.302 287.244L129.575 305.094Z" fill="#FFC980"/>
    <path d="M137.949 304.86H137.937C133.873 307.309 131.392 305.758 130.81 305.315L127.35 286.533V286.498C127.397 284.667 131.345 283.921 133.302 283.746H133.314L137.949 304.86Z" fill="#FFC980"/>
    <path d="M81.9619 133.896C81.7988 133.977 81.263 134.246 80.4477 134.607C63.9439 128.428 58.7377 105.95 58.6794 105.705C58.6096 105.39 58.8076 105.087 59.122 105.017C59.4365 104.947 59.751 105.145 59.8209 105.46C59.8674 105.693 65.1785 128.579 81.9619 133.896Z" fill="white"/>
    <path d="M152.916 69.0612C146.486 71.4629 146.114 78.155 146.172 80.4169C146.545 80.3469 146.987 80.3352 147.442 80.5451C148.164 80.8715 148.63 81.6294 148.839 82.8069C149.072 84.136 148.909 85.1387 148.373 85.7799C147.838 86.4095 147.139 86.4328 147.034 86.4328C146.708 86.4211 146.452 86.1647 146.452 85.8382C146.452 85.5118 146.719 85.2319 147.046 85.2669C147.046 85.2669 147.302 85.2553 147.5 84.9988C147.779 84.649 147.849 83.9378 147.686 83.0051C147.593 82.4805 147.395 81.8043 146.952 81.6061C146.521 81.3962 145.939 81.7226 145.939 81.7343C145.764 81.8276 145.555 81.8392 145.38 81.746C145.205 81.6643 145.077 81.4895 145.054 81.2913C145.054 81.1863 144.029 71.1365 152.508 67.9653C152.811 67.8487 153.149 68.0119 153.253 68.315C153.37 68.6065 153.219 68.9446 152.916 69.0612Z" fill="#21232E"/>
    <path d="M137.949 304.86H137.938L133.302 283.746H133.314L137.949 304.86Z" fill="#21232E"/>
    <path d="M138.147 305.502C138.136 305.49 138.124 305.478 138.112 305.467H138.124C138.136 305.478 138.136 305.49 138.147 305.502Z" fill="#21232E"/>
    <path d="M138.823 305.688C138.765 305.723 138.706 305.758 138.66 305.782C138.566 305.758 138.508 305.723 138.438 305.7C138.497 305.712 138.543 305.723 138.601 305.723C138.648 305.723 138.683 305.723 138.73 305.712C138.765 305.7 138.799 305.7 138.823 305.688Z" fill="#21232E"/>
    <path d="M156.2 150.988V151.011L156.037 150.964C156.084 150.976 156.142 150.976 156.2 150.988Z" fill="#21232E"/>
    <path d="M156.2 150.988V151.011L156.037 150.964C156.084 150.976 156.142 150.976 156.2 150.988Z" fill="#21232E"/>
    <path d="M43.0957 282.685C41.6981 281.555 40.312 280.599 38.926 279.817C40.6381 280.738 42.0125 281.741 43.0957 282.685Z" fill="#21232E"/>
    <path d="M47.2537 285.355C47.2537 285.355 47.2537 285.355 47.2537 285.367H47.2188C47.2304 285.367 47.242 285.355 47.2537 285.355Z" fill="#21232E"/>
    <path d="M140.523 59.2561C140.407 59.3844 140.244 59.4543 140.081 59.4543C139.941 59.4543 139.813 59.4077 139.696 59.3144C129.26 50.4654 128.352 37.3026 128.34 37.1744C128.329 36.8596 128.573 36.5798 128.888 36.5565C129.214 36.5565 129.482 36.7896 129.505 37.1044C129.517 37.2327 130.402 49.9058 140.453 58.4284C140.698 58.6382 140.733 58.9997 140.523 59.2561Z" fill="white"/>
    <path d="M178.83 130.643C178.213 130.771 177.677 130.83 177.2 130.853C179.296 128.171 184.631 120.022 184.13 106.987C183.513 90.7932 172.087 77.2223 171.97 77.0824C171.761 76.8376 171.796 76.4762 172.04 76.2663C172.285 76.0565 172.646 76.0798 172.855 76.3246C172.972 76.4645 184.654 90.3385 185.295 106.941C185.772 119.217 181.335 127.169 178.83 130.643Z" fill="white"/>
    <path d="M69.779 26.1218C65.5745 29.4446 63.1169 33.77 63.0936 33.8166C62.9888 34.0032 62.7908 34.1081 62.5812 34.1081C62.488 34.1081 62.3832 34.0848 62.3016 34.0382C62.0221 33.8749 61.9173 33.5252 62.0804 33.2454C62.1852 33.0588 64.666 28.6751 69.0569 25.2125C69.3015 25.0143 69.6742 25.0609 69.8722 25.3057C70.0702 25.5622 70.0236 25.9236 69.779 26.1218Z" fill="white"/>
    <path d="M123.111 13.5886C123.099 13.577 123.088 13.5653 123.088 13.5536C123.064 13.4953 123.041 13.4254 123.041 13.3671C123.076 13.4371 123.088 13.5187 123.111 13.5886Z" fill="white"/>
    <path d="M170.456 131.004C169.932 131.121 169.373 131.273 168.744 131.459C176.221 121.036 174.043 105.635 174.02 105.472C173.973 105.157 174.183 104.865 174.509 104.819C174.824 104.772 175.127 104.982 175.173 105.308C175.266 105.938 177.293 120.302 170.456 131.004Z" fill="white"/>
    <path d="M147.267 133.756C146.778 133.674 146.323 133.581 145.892 133.499C154.36 124.872 152.065 111.056 152.042 110.916C151.984 110.602 152.194 110.298 152.52 110.252C152.834 110.182 153.137 110.403 153.184 110.718C153.288 111.301 155.525 124.697 147.267 133.756Z" fill="white"/>
    <path d="M159.671 125.14L154.733 134.432H154.721C154.278 134.432 153.847 134.42 153.428 134.409L158.646 124.592C158.797 124.301 159.147 124.196 159.426 124.347C159.718 124.499 159.822 124.849 159.671 125.14Z" fill="white"/>
    <path d="M77.5826 65.4586L77.4545 65.5519V65.5286C77.4894 65.5169 77.536 65.4936 77.5826 65.4586Z" fill="white"/>
    <path d="M78.2697 65.1205L77.7805 65.3421C77.9086 65.2721 78.0484 65.1905 78.1765 65.1089C78.1998 65.1089 78.2347 65.1205 78.2697 65.1205Z" fill="white"/>
    <path d="M73.7042 62.6955L73.3781 62.8704C73.4596 62.7771 73.576 62.7072 73.7042 62.6955Z" fill="white"/>
    <path d="M60.7176 79.9272C60.706 79.8689 60.6943 79.8223 60.6943 79.7873L60.706 79.7523C60.706 79.7873 60.706 79.8456 60.7176 79.9272Z" fill="#21232E"/>
    <path d="M167.3 157.913C167.137 158.344 163.037 168.534 149.503 176.532C140.826 181.662 129.901 184.308 118.394 184.308C112.128 184.308 105.699 183.527 99.351 181.93C78.0719 176.567 74.9738 157.971 74.9388 157.785C74.8922 157.47 75.1135 157.178 75.428 157.12C75.7424 157.074 76.0453 157.295 76.0919 157.61C76.1035 157.656 76.8256 162.168 80.0868 167.263C83.0917 171.95 88.9152 178.094 99.6305 180.799C117.346 185.253 135.771 183.283 148.909 175.529C162.07 167.753 166.182 157.586 166.217 157.482C166.333 157.19 166.671 157.039 166.974 157.155C167.277 157.272 167.416 157.61 167.3 157.913Z" fill="#21232E"/>
    <path d="M207.831 183.691C207.843 184.005 207.599 184.285 207.272 184.297C207.156 184.297 195.125 185.055 187.647 204.21C187.554 204.443 187.344 204.583 187.111 204.583C187.041 204.583 186.96 204.571 186.89 204.536C186.599 204.42 186.447 204.082 186.564 203.779C194.344 183.877 206.702 183.154 207.226 183.131C207.564 183.143 207.82 183.364 207.831 183.691Z" fill="#21232E"/>
    <path d="M137.949 304.86H137.938C133.873 307.309 131.392 305.758 130.81 305.315L127.35 286.533V286.498C127.397 284.667 131.345 283.921 133.302 283.746H133.314L137.949 304.86Z" fill="#E8B679"/>
    <path d="M138.73 305.712C138.683 305.723 138.648 305.723 138.602 305.723C138.543 305.723 138.497 305.712 138.438 305.7C138.508 305.723 138.567 305.758 138.66 305.782C138.706 305.758 138.765 305.723 138.823 305.688C138.8 305.7 138.765 305.7 138.73 305.712ZM138.124 305.467H138.112C138.124 305.478 138.136 305.49 138.147 305.502C138.136 305.49 138.136 305.478 138.124 305.467ZM126.302 287.244C126.279 287.256 126.256 287.256 126.221 287.267C126.558 291.056 128.946 302.261 129.563 305.094H129.575L126.302 287.244Z" fill="#21232E"/>
    <path d="M126.302 287.244C126.279 287.256 126.256 287.256 126.221 287.267C126.558 291.056 128.946 302.261 129.563 305.094H129.575L126.302 287.244Z" fill="white"/>
    <path d="M47.2537 285.355C47.2537 285.355 47.2537 285.355 47.2537 285.367H47.2188C47.2304 285.367 47.242 285.355 47.2537 285.355Z" fill="#21232E"/>
    <path d="M221.61 217.291C221.61 217.291 212.886 191.619 209.124 180.438C203.103 162.53 186.995 158.251 186.844 158.204L156.352 149.833C156.037 149.752 155.723 149.938 155.629 150.241C155.548 150.556 155.734 150.871 156.037 150.964C156.084 150.976 156.142 150.976 156.2 150.988V151.011L156.037 150.964C150.901 150.416 147.162 147.467 144.949 142.185C143.249 138.116 143.12 134.129 143.12 134.059C143.086 133.663 143.062 133.266 143.027 132.858C143.656 133.021 144.646 133.266 145.893 133.499C154.36 124.872 152.065 111.056 152.042 110.916C151.984 110.602 152.194 110.298 152.52 110.252C152.834 110.182 153.137 110.403 153.184 110.718C153.288 111.301 155.525 124.697 147.267 133.756C149.037 134.047 151.157 134.316 153.428 134.409L158.646 124.592C158.797 124.301 159.147 124.196 159.426 124.347C159.718 124.499 159.822 124.849 159.671 125.14L154.733 134.432C158.308 134.479 162.152 134.047 165.541 132.637C166.764 132.124 167.812 131.751 168.732 131.459H168.744C176.221 121.036 174.043 105.635 174.02 105.472C173.974 105.157 174.183 104.865 174.509 104.819C174.824 104.772 175.127 104.982 175.173 105.308C175.266 105.938 177.293 120.302 170.456 131.004C173.612 130.317 174.917 130.981 177.188 130.853H177.2C179.296 128.171 184.631 120.022 184.13 106.987C183.512 90.7932 172.087 77.2224 171.97 77.0825C171.761 76.8376 171.796 76.4762 172.04 76.2663C172.285 76.0565 172.646 76.0798 172.855 76.3246C172.972 76.4646 184.654 90.3385 185.294 106.941C185.772 119.217 181.334 127.169 178.83 130.643C180.473 130.317 182.651 129.547 185.935 127.95C185.935 127.95 186.541 127.46 187.461 126.609C187.542 126.656 187.636 126.679 187.729 126.679C187.857 126.679 187.985 126.644 188.09 126.551C204.605 113.4 194.985 96.0164 188.626 84.5208C187.321 82.154 186.086 79.9156 185.26 78.0501C181.498 69.5042 180.508 65.0506 180.205 58.0203V57.8921C180.158 56.9127 180.135 55.8868 180.123 54.7908C180.112 54.6509 180.112 54.5227 180.112 54.3828C180.088 53.3685 180.088 52.2959 180.077 51.1533C179.972 36.195 171.749 22.4143 155.606 10.1726C137.984 -3.20005 118.743 3.13068 116.262 4.04006C105.897 -1.9409 88.0417 -2.34896 71.2117 10.1959C47.9875 27.5209 34.1042 40.1241 41.2555 79.3093C43.0142 88.9045 41.9427 96.9491 40.9876 104.038C39.3454 116.291 38.0526 125.968 53.9391 134.374C54.0207 134.42 54.1138 134.444 54.207 134.444C54.3235 134.444 54.4399 134.409 54.5331 134.339C59.5413 137.3 64.8757 137.848 69.4996 137.428C55.0689 133.429 51.237 118.716 51.2021 118.553C51.1206 118.238 51.3069 117.923 51.6214 117.842C51.9358 117.772 52.2503 117.958 52.3318 118.273C52.3668 118.436 56.583 134.525 72.8423 136.95C76.15 136.309 78.8521 135.295 80.4478 134.607C63.9439 128.428 58.7377 105.95 58.6795 105.705C58.6096 105.39 58.8076 105.087 59.1221 105.017C59.4365 104.947 59.751 105.145 59.8209 105.46C59.8675 105.693 65.1785 128.579 81.9619 133.896C81.9969 133.872 82.0201 133.861 82.0201 133.861C82.0201 133.861 82.3113 133.966 82.8238 134.141C82.8937 134.176 82.9752 134.187 83.0567 134.211C83.08 134.222 83.115 134.234 83.1382 134.234C83.5692 134.374 84.105 134.537 84.7223 134.712C87.5175 135.481 91.9318 136.449 95.2163 135.936C95.4608 138 95.5424 140.005 95.2395 141.8C95.2279 141.882 94.2612 150.871 87.2846 150.976C87.3195 150.964 87.3312 150.953 87.3428 150.953C87.6457 150.859 87.8204 150.545 87.7272 150.23C87.634 149.927 87.3079 149.752 87.0051 149.845C85.7355 150.218 55.9424 159.242 49.6064 166.785C43.317 174.282 35.9561 202.648 35.6649 203.814L9.85509 280.902V280.913C9.37756 281.403 7.37425 283.56 7.72366 285.67C7.91001 286.801 8.70203 287.699 10.0764 288.328H10.088C10.3209 288.445 10.6122 288.375 10.7752 288.165C10.8218 288.118 15.3758 282.72 24.6002 283.257C32.4154 283.723 38.8562 288.014 40.8013 289.448C37.9361 291.569 35.3039 293.773 34.6982 294.298C34.6866 294.298 34.6866 294.309 34.6866 294.309C34.6749 294.309 34.6633 294.321 34.6516 294.333C31.1808 295.86 28.1642 297.445 26.9529 298.518C25.4738 299.847 25.7067 300.862 25.9862 301.351C26.4987 302.261 27.8148 302.657 28.9679 302.657C29.3872 302.657 29.7948 302.599 30.1209 302.505C30.6567 302.342 35.6766 301.141 40.0675 300.104C38.7165 300.85 37.4236 301.561 36.2706 302.191C32.9861 303.974 31.3788 304.861 30.9945 305.234C30.6101 305.618 29.69 306.808 30.086 307.857C30.249 308.311 30.7149 308.859 31.9961 308.929C32.0543 308.941 32.1242 308.941 32.2058 308.941C34.605 308.941 40.4169 306.877 45.1107 305.222L46.5433 304.721C47.8128 304.278 49.6647 303.963 51.633 303.741C44.6448 306.481 40.3354 308.475 39.4502 310.713C39.2056 311.354 39.2289 311.996 39.5317 312.614C39.6715 312.905 39.9161 313.127 40.2539 313.278C40.7197 313.511 41.372 313.605 42.2106 313.605C44.4119 313.605 47.8827 312.917 52.5764 311.937C58.2369 310.76 64.6428 309.431 66.7276 310.398C74.2399 313.908 87.3079 310.398 87.7621 310.27L130.087 306.225C130.565 306.598 131.811 307.379 133.71 307.379C135.049 307.379 136.703 306.994 138.66 305.782C138.567 305.758 138.508 305.723 138.438 305.7C138.497 305.712 138.543 305.723 138.601 305.723C138.648 305.723 138.683 305.723 138.73 305.712C138.765 305.7 138.799 305.7 138.823 305.688C138.765 305.723 138.706 305.758 138.66 305.782C140.931 306.598 146.615 307.192 154.22 307.192C172.285 307.192 201.239 303.846 221.342 292.071C251.659 274.338 221.866 217.769 221.61 217.291ZM116.717 4.97277C116.763 4.90282 116.787 4.8212 116.787 4.73959C116.891 4.77457 116.973 4.8212 117.031 4.85618C117.171 4.77457 117.346 4.76291 117.497 4.8212C117.509 4.8212 117.52 4.83286 117.52 4.83286C117.555 4.84452 117.59 4.85618 117.625 4.8795C119.139 5.88216 120.42 7.02472 121.469 8.23723C122.435 7.61932 124.788 6.45344 128.503 6.82652C128.818 6.84984 129.051 7.14131 129.028 7.45609C128.993 7.78254 128.713 8.01571 128.387 7.98074C125.149 7.65429 123.053 8.63363 122.191 9.15828C122.994 10.2542 123.612 11.3968 124.008 12.586C127.059 11.6766 141.315 8.5287 156.876 23.7318C157.097 23.965 157.109 24.3264 156.876 24.5596C156.771 24.6761 156.619 24.7344 156.468 24.7344C156.317 24.7344 156.165 24.6878 156.06 24.5712C140.873 9.72956 127.141 12.8541 124.357 13.7052C126.652 22.3327 122.936 31.753 120.467 36.6964C120.362 36.8946 120.153 37.0112 119.943 37.0112C119.85 37.0112 119.768 36.9995 119.687 36.9529C119.395 36.813 119.279 36.4632 119.419 36.1717C121.387 32.2427 125.627 22.2744 123.111 13.5886C123.099 13.577 123.088 13.5653 123.088 13.5537C123.064 13.4954 123.041 13.4254 123.041 13.3671V13.3321C123.018 13.2855 123.006 13.2389 122.994 13.1922C122.563 11.8631 121.876 10.5923 120.921 9.40311C119.896 8.10898 118.569 6.91979 116.973 5.84718C116.717 5.68396 116.647 5.34585 116.787 5.08936C116.682 5.12434 116.589 5.15931 116.53 5.17097C116.6 5.12433 116.67 5.05438 116.717 4.97277ZM140.523 59.2562C140.407 59.3844 140.244 59.4544 140.081 59.4544C139.941 59.4544 139.813 59.4077 139.696 59.3145C129.261 50.4654 128.352 37.3026 128.34 37.1744C128.329 36.8596 128.573 36.5798 128.888 36.5565C129.214 36.5565 129.482 36.7896 129.505 37.1044C129.517 37.2327 130.402 49.9058 140.453 58.4284C140.698 58.6382 140.733 58.9997 140.523 59.2562ZM62.0804 33.2454C62.1852 33.0588 64.666 28.6751 69.057 25.2125C69.3016 25.0143 69.6743 25.0609 69.8723 25.3057C70.0703 25.5622 70.0237 25.9236 69.7791 26.1218C65.5745 29.4446 63.117 33.77 63.0937 33.8166C62.9889 34.0032 62.7909 34.1081 62.5812 34.1081C62.4881 34.1081 62.3832 34.0848 62.3017 34.0382C62.0222 33.8749 61.9174 33.5252 62.0804 33.2454ZM60.2285 38.1421C52.2969 52.9021 55.5464 69.2011 55.5813 69.3643C55.6512 69.6791 55.4533 69.9822 55.1388 70.0522C55.0922 70.0639 55.0572 70.0639 55.0107 70.0639C54.7428 70.0639 54.4982 69.8773 54.44 69.5975C54.405 69.4343 51.074 52.7272 59.2036 37.5824C59.355 37.3026 59.7161 37.1977 59.9956 37.3493C60.2751 37.5008 60.38 37.8506 60.2285 38.1421ZM72.5162 115.778C71.6543 114.624 70.8506 113.376 70.1052 112.059C69.7558 111.453 69.4297 110.835 69.1152 110.193C68.0903 108.188 67.1935 106.066 66.3898 103.909C66.2151 103.431 66.0404 102.953 65.8657 102.464C65.691 101.974 65.5279 101.496 65.3765 101.006C65.2251 100.54 65.0737 100.085 64.934 99.6306C64.1769 97.1939 63.5363 94.7922 63.0122 92.5304C62.9073 92.0873 62.8025 91.6443 62.7094 91.2129C62.6977 91.2013 62.6977 91.1896 62.6977 91.178C62.5579 90.5601 62.4298 89.9654 62.3134 89.3825C62.2551 89.1143 62.1969 88.8579 62.1503 88.6014C62.0804 88.2399 62.0105 87.8785 61.9407 87.5288C61.929 87.4821 61.9173 87.4355 61.9173 87.3889C61.8475 87.0508 61.7893 86.7243 61.731 86.4095C61.6844 86.1763 61.6378 85.9315 61.6029 85.71C61.5679 85.5234 61.533 85.3486 61.5097 85.1853C61.4282 84.7423 61.3583 84.3109 61.2884 83.9145C61.2535 83.693 61.2185 83.4832 61.1952 83.2733C61.1603 83.0634 61.1254 82.8536 61.0904 82.6554C61.0671 82.4455 61.0322 82.259 61.0089 82.0724C60.8924 81.3146 60.8225 80.72 60.7643 80.312C60.7526 80.242 60.741 80.1954 60.741 80.1371C60.741 80.0904 60.7294 80.0555 60.7294 80.0205C60.7294 79.9855 60.7293 79.9622 60.7177 79.9389V79.9272C60.706 79.8689 60.6944 79.8223 60.6944 79.7873L60.7061 79.7523C60.7061 79.7873 60.706 79.8456 60.7177 79.9272C61.6611 78.6098 62.5579 77.2457 63.4198 75.8466C63.4198 75.8466 63.4315 75.8466 63.4315 75.835L67.8457 70.5885L67.8573 70.5769L71.8057 65.0506L72.5977 63.9547L73.3315 62.917C73.3431 62.9054 73.3548 62.8821 73.3781 62.8704C73.4596 62.7771 73.5761 62.7072 73.7042 62.6955C73.8556 62.6605 74.007 62.6955 74.1467 62.7888C74.2166 62.8471 74.2865 62.917 74.3215 62.9986C74.3215 63.0103 74.3215 63.0103 74.3215 63.0103C74.4146 63.1968 74.4146 63.4184 74.2749 63.5932L74.1467 63.7681L70.5129 68.8513L77.4545 65.5053L77.5826 65.4586C77.5943 65.447 77.6175 65.4353 77.6408 65.4237C77.6874 65.4003 77.734 65.377 77.7806 65.3421L78.1417 65.0972C78.1533 65.0972 78.165 65.1089 78.1766 65.1089C78.8172 64.7358 79.4462 64.3394 80.0634 63.9313L80.0984 63.8148L80.11 63.8031C80.145 63.8147 80.1799 63.8264 80.2032 63.8381C80.4129 63.7098 80.6108 63.5699 80.8088 63.43C84.501 60.9001 87.6689 57.9854 90.3827 54.9074C90.7438 54.4877 91.1048 54.068 91.4542 53.6483C91.7804 53.2635 92.0948 52.8671 92.3977 52.4824C102.635 39.4828 105.326 24.8044 105.361 24.5945C105.407 24.2797 105.71 24.0699 106.036 24.1282C106.351 24.1748 106.56 24.478 106.502 24.7927C106.467 25.0026 104.01 38.4568 94.8552 51.1416C94.5989 51.503 94.3311 51.8645 94.0632 52.2259C93.7604 52.6223 93.4575 53.007 93.1431 53.4034C91.1281 55.9567 88.822 58.4284 86.1898 60.7368C85.7705 61.0983 85.3279 61.4713 84.8853 61.8328C84.7921 61.9144 84.6989 61.996 84.5941 62.0776L84.7805 61.9843C84.7805 61.9843 99.9449 63.7564 111.79 49.8475C114.585 46.9561 116.402 44.2629 117.346 42.689C118.848 47.5041 125.056 63.7565 141.56 69.411C141.571 69.4343 141.595 69.4343 141.606 69.4343C141.467 69.6791 141.35 69.9006 141.257 70.0755C141.222 70.1455 141.199 70.2154 141.175 70.2621C141.152 70.3087 141.129 70.3553 141.117 70.3903C141.059 70.5069 141.036 70.5652 141.024 70.5885C140.908 70.8916 141.047 71.2297 141.35 71.3463C141.641 71.4746 141.979 71.323 142.107 71.0316C142.107 71.0199 142.259 70.6468 142.585 70.0988C142.62 70.0289 142.655 69.9706 142.701 69.889C142.783 69.7607 142.864 69.6325 142.969 69.4809C142.969 69.4809 142.969 69.4693 142.981 69.4576C143.051 69.341 143.132 69.2244 143.225 69.0962C143.691 68.4433 144.332 67.6971 145.135 67.0209C145.31 66.881 145.485 66.7411 145.671 66.6012C145.858 66.4613 146.044 66.333 146.242 66.2281C146.661 65.96 147.115 65.7268 147.605 65.5286C150.144 64.5143 153.09 64.7591 156.375 66.2514C160.114 67.9536 161.942 71.2064 161.814 75.9166C161.604 83.763 156.107 92.3671 154.092 93.1483C151.18 94.2909 148.967 94.4891 148.944 94.4891C148.641 94.5124 148.397 94.7805 148.408 95.0837C148.49 97.3921 148.105 98.6396 148.094 98.6629C146.859 102.697 144.693 106.428 141.909 109.797C132.941 120.605 117.439 127.647 104.569 128.533C101.669 128.731 99.0481 128.766 96.6721 128.649C84.2797 128.055 78.1533 123.333 72.5162 115.778ZM96.3926 141.952C96.9167 138.839 96.346 135.213 95.7986 131.704C95.6938 131.051 95.589 130.398 95.5074 129.757C96.742 129.839 98.0348 129.885 99.3975 129.885C101.04 129.885 102.798 129.827 104.65 129.699C117.555 128.801 133.081 121.829 142.329 111.08C141.537 119.672 141.408 127.425 141.956 134.117C141.956 134.292 142.084 138.338 143.866 142.605C146.125 148.026 150.062 151.279 155.28 152.037C153.288 155.476 143.237 170.073 116.752 170.073C105.384 170.073 97.138 167.462 92.2462 162.297C88.3445 158.193 87.8204 153.634 87.7621 152.119C95.3443 151.641 96.3809 142.01 96.3926 141.952ZM24.6701 282.103C24.1926 282.068 23.7267 282.056 23.2725 282.056C15.6087 282.056 11.3459 285.88 10.1929 287.081C9.42416 286.649 8.98156 286.113 8.87674 285.484C8.6438 284.085 10.0647 282.336 10.7053 281.706C10.7286 281.694 10.7519 281.683 10.7752 281.659C12.0214 280.773 24.4721 272.542 37.8196 279.246C38.204 279.433 38.565 279.619 38.9261 279.817C40.6382 280.738 42.0126 281.741 43.0957 282.685C43.2588 282.825 43.4219 282.965 43.5616 283.094C44.8079 284.248 45.6115 285.25 46.0424 285.845C44.4352 286.568 42.5483 288.048 41.768 288.701C40.1024 287.419 33.2889 282.604 24.6701 282.103ZM129.563 305.094L129.109 305.14L87.5525 309.128C87.4244 309.163 74.3447 312.66 67.2284 309.349C64.7942 308.207 58.4582 309.524 52.3435 310.795C49.257 311.436 45.0874 312.299 42.6182 312.439C41.5117 312.509 40.743 312.427 40.58 312.101C40.4286 311.774 40.4053 311.471 40.5334 311.145C41.4186 308.906 48.6048 306.143 55.5464 303.473C55.6046 303.45 55.6512 303.426 55.6978 303.392C57.6079 303.287 59.3434 303.228 60.5081 303.217C61.335 303.193 61.8708 303.193 61.9639 303.193C61.9756 303.193 61.9756 303.193 61.9756 303.193C62.3017 303.193 62.5579 302.937 62.5579 302.61C62.5579 302.284 62.3017 302.027 61.9756 302.027H61.7077C61.2418 302.027 60.2518 302.039 58.959 302.074C57.5148 302.121 55.7095 302.191 53.8576 302.342C51.0041 302.564 48.0341 302.948 46.1589 303.613L44.7263 304.126C40.4868 305.618 34.0576 307.845 32.0543 307.775C31.5652 307.74 31.239 307.624 31.1692 307.449C31.0643 307.134 31.4254 306.446 31.7981 306.073C32.1009 305.782 34.3954 304.534 36.8296 303.217C38.9843 302.039 41.6748 300.582 44.2605 299.089C44.2721 299.078 44.2837 299.078 44.2954 299.066C44.4934 298.961 44.703 298.845 44.901 298.74C44.9127 298.74 44.9127 298.74 44.9127 298.74C47.0674 297.679 49.6181 297.154 51.9475 296.921C55.7444 296.536 58.9823 296.898 59.0289 296.909C59.1454 296.921 59.2502 296.898 59.3434 296.851C59.5297 296.769 59.6578 296.606 59.6811 296.396C59.7161 296.07 59.4831 295.778 59.1687 295.743C58.9241 295.708 54.9408 295.277 50.5615 295.907C49.4783 296.058 48.3602 296.291 47.2654 296.594C46.0424 296.956 44.8428 297.422 43.7596 298.04C43.748 298.04 43.7247 298.052 43.713 298.052C43.6315 298.063 43.5267 298.087 43.3869 298.122C43.3869 298.122 43.3753 298.122 43.3636 298.122C40.9643 298.693 30.6217 301.118 29.7832 301.386C28.8281 301.678 27.3256 301.351 26.9995 300.78C26.7549 300.337 27.4305 299.661 27.7333 299.393C28.9329 298.32 32.1708 296.653 35.8047 295.09C38.8679 293.75 42.2222 292.491 44.8544 291.709C46.0424 291.348 47.0907 291.091 47.8943 290.975C51.5399 290.427 55.3251 290.637 56.9324 290.765C57.4216 290.8 57.7128 290.835 57.7244 290.835C58.0505 290.87 58.3301 290.648 58.365 290.322C58.3999 290.007 58.1786 289.716 57.8525 289.681C57.6429 289.657 52.6463 289.086 47.7196 289.821C46.683 289.972 45.2737 290.334 43.6781 290.847C42.0825 291.348 40.3004 291.989 38.4952 292.7C39.6715 291.768 40.976 290.765 42.2804 289.821C44.0624 288.515 45.8095 287.349 47.0907 286.696C47.1489 286.673 47.2071 286.649 47.2654 286.614C47.7196 286.393 48.104 286.253 48.4068 286.195C48.9076 286.102 49.4317 286.032 49.9791 285.985C53.8459 285.577 58.8542 285.938 64.9106 287.081C65.26 287.151 65.493 287.197 65.5862 287.209C65.9123 287.244 70.1751 288.153 74.6709 289.109C81.2398 290.509 89.4044 292.234 92.6189 292.852C97.8368 293.843 121.783 288.317 126.221 287.267C126.256 287.256 126.279 287.256 126.302 287.244L129.575 305.094H129.563ZM137.938 304.86C133.873 307.309 131.392 305.758 130.81 305.315L127.35 286.533V286.498C127.397 284.667 131.345 283.921 133.302 283.746H133.314L137.949 304.86H137.938ZM138.112 305.467H138.124C138.136 305.478 138.136 305.49 138.147 305.502C138.136 305.49 138.124 305.478 138.112 305.467ZM220.76 291.068C192.481 307.612 146.661 307.39 139.102 304.709L134.339 283C134.327 282.93 134.304 282.86 134.269 282.814C134.234 282.709 134.117 282.266 134.443 281.531C135.294 279.573 139.114 275.55 155.199 270.502C156.922 269.966 159.1 269.22 161.639 268.357C168.569 266.002 178.539 262.621 189.569 259.811C189.72 259.776 189.872 259.741 190.035 259.694C191.654 259.286 193.296 258.89 194.95 258.517C195.264 258.447 195.462 258.144 195.392 257.829C195.323 257.514 195.008 257.316 194.694 257.386C193.086 257.747 191.479 258.132 189.907 258.528C188.311 255.998 179.518 241.145 181.777 224.461C181.824 224.147 181.602 223.855 181.288 223.809C180.962 223.75 180.671 223.983 180.624 224.31C178.388 240.749 186.646 255.439 188.73 258.832C177.875 261.618 168.092 264.941 161.255 267.261C158.739 268.112 156.561 268.858 154.849 269.394C138.928 274.384 134.35 278.582 133.314 281.216C133.092 281.764 133.046 282.231 133.057 282.592C131.252 282.767 126.733 283.455 126.244 286.055C122.831 286.859 97.8951 292.665 92.8402 291.709C89.6373 291.091 81.4727 289.366 74.9154 287.967C69.2666 286.766 66.0637 286.09 65.7376 286.043C65.6444 286.032 65.4347 285.997 65.1203 285.938C63.4664 285.623 61.894 285.367 60.3916 285.18C56.2336 275.504 54.1255 260.475 54.1255 240.481C54.1255 230.081 54.801 221.675 55.3368 214.913C55.791 209.247 56.1754 204.362 56.0473 200.001C55.7677 190.266 45.5533 183.504 45.1223 183.224C44.8544 183.049 44.4934 183.131 44.3187 183.399C44.144 183.667 44.2138 184.029 44.4817 184.204C44.5865 184.273 54.6263 190.907 54.8826 200.036C55.0107 204.327 54.6263 209.188 54.1721 214.82C53.6363 221.593 52.9608 230.034 52.9608 240.481C52.9608 260.184 55.0107 275.166 59.0638 285.006C54.7428 284.516 51.0973 284.528 48.2088 285.052C47.9293 285.099 47.6148 285.204 47.2537 285.355C47.2537 285.355 47.2537 285.355 47.2537 285.367H47.2188C47.2304 285.367 47.2421 285.355 47.2537 285.355C47.2887 285.18 47.2421 284.982 47.1023 284.842C46.2987 283.991 45.4834 283.21 44.6681 282.499C44.6331 282.464 44.5866 282.429 44.5516 282.406C42.8395 280.785 40.2771 278.908 36.6549 277.462C36.1774 277.264 35.6766 277.078 35.1525 276.903C34.6283 276.704 34.0809 276.541 33.5102 276.378C32.5901 276.122 31.6583 275.947 30.7149 275.842C30.6684 275.83 30.6218 275.818 30.5752 275.818C21.8748 274.618 14.4207 278.173 11.4274 279.887L36.783 204.14C36.8529 203.849 44.3769 174.83 50.5033 167.531C56.1521 160.793 82.6374 152.41 86.7954 151.128C86.679 151.221 86.5974 151.372 86.5858 151.536C86.5858 151.536 86.5858 151.547 86.5858 151.559C86.5625 152.025 86.4693 156.607 89.8819 161.271C89.9052 161.294 89.9168 161.329 89.9401 161.352C90.3711 161.935 90.8486 162.507 91.3844 163.078C96.5091 168.499 105.035 171.239 116.752 171.239C140.209 171.239 151.122 159.965 155.001 154.59C155.129 154.404 155.245 154.229 155.35 154.066C155.431 153.949 155.501 153.844 155.56 153.739C156.293 152.666 156.654 151.967 156.713 151.827C156.724 151.815 156.724 151.804 156.724 151.804C156.748 151.745 156.771 151.687 156.771 151.617C156.794 151.407 156.701 151.209 156.538 151.104L186.552 159.335C186.704 159.382 202.218 163.521 208.018 180.811C211.78 191.992 220.503 217.664 220.538 217.758C220.841 218.317 250.11 273.895 220.76 291.068Z" fill="#21232E"/>
    <path d="M129.563 305.094L129.109 305.14L87.5526 309.128C87.4245 309.163 74.3448 312.66 67.2285 309.349C64.7942 308.207 58.4582 309.524 52.3435 310.795C49.2571 311.436 45.0875 312.299 42.6183 312.439C41.5118 312.509 40.7431 312.427 40.5801 312.101C40.4286 311.774 40.4053 311.471 40.5335 311.145C41.4186 308.906 48.6048 306.143 55.5465 303.473C55.6047 303.45 55.6513 303.426 55.6979 303.391C57.608 303.287 59.3434 303.228 60.5081 303.217C61.3351 303.193 61.8708 303.193 61.964 303.193C61.9757 303.193 61.9757 303.193 61.9757 303.193C62.3018 303.193 62.558 302.937 62.558 302.61C62.558 302.284 62.3018 302.027 61.9757 302.027H61.7078C61.2419 302.027 60.2519 302.039 58.9591 302.074C57.5149 302.121 55.7096 302.191 53.8577 302.342C51.0041 302.564 48.0341 302.948 46.159 303.613L44.7264 304.126C40.4869 305.618 34.0577 307.845 32.0544 307.775C31.5652 307.74 31.2391 307.624 31.1692 307.449C31.0644 307.134 31.4255 306.446 31.7982 306.073C32.101 305.782 34.3955 304.534 36.8297 303.217C38.9844 302.039 41.6749 300.582 44.2605 299.089C44.2722 299.078 44.2838 299.078 44.2955 299.066C44.4935 298.961 44.7031 298.845 44.9011 298.74C44.9127 298.74 44.9128 298.74 44.9128 298.74C47.0675 297.679 49.6181 297.154 51.9475 296.921C55.7445 296.536 58.9824 296.898 59.029 296.909C59.1454 296.921 59.2502 296.898 59.3434 296.851C59.5298 296.769 59.6579 296.606 59.6812 296.396C59.7161 296.07 59.4832 295.778 59.1687 295.743C58.9241 295.708 54.9408 295.277 50.5615 295.907C49.4784 296.058 48.3603 296.291 47.2654 296.594C46.0425 296.956 44.8428 297.422 43.7597 298.04C43.748 298.04 43.7248 298.052 43.7131 298.052C43.6316 298.063 43.5268 298.087 43.387 298.122C43.387 298.122 43.3753 298.122 43.3637 298.122C40.9644 298.693 30.6218 301.118 29.7832 301.386C28.8282 301.678 27.3257 301.351 26.9996 300.78C26.755 300.337 27.4305 299.661 27.7334 299.392C28.933 298.32 32.1709 296.653 35.8048 295.09C38.8679 293.75 42.2223 292.49 44.8545 291.709C46.0425 291.348 47.0907 291.091 47.8944 290.975C51.5399 290.427 55.3252 290.637 56.9325 290.765C57.4217 290.8 57.7129 290.835 57.7245 290.835C58.0506 290.87 58.3301 290.648 58.3651 290.322C58.4 290.007 58.1787 289.716 57.8526 289.681C57.643 289.657 52.6464 289.086 47.7197 289.821C46.6831 289.972 45.2738 290.334 43.6782 290.847C42.0825 291.348 40.3005 291.989 38.4952 292.7C39.6716 291.768 40.976 290.765 42.2805 289.821C44.0625 288.515 45.8096 287.349 47.0907 286.696C47.149 286.673 47.2072 286.649 47.2654 286.614C47.7197 286.393 48.104 286.253 48.4069 286.195C48.9077 286.101 49.4318 286.031 49.9792 285.985C53.846 285.577 58.8542 285.938 64.9107 287.081C65.2601 287.151 65.4931 287.197 65.5863 287.209C65.9124 287.244 70.1752 288.153 74.6709 289.109C81.2399 290.509 89.4045 292.234 92.619 292.852C97.8369 293.843 121.783 288.317 126.221 287.267C126.559 291.056 128.946 302.261 129.563 305.094Z" fill="white"/>
    <path d="M46.0424 285.845C44.4352 286.568 42.5483 288.048 41.768 288.701C40.1024 287.419 33.2889 282.604 24.6701 282.103C24.1926 282.068 23.7267 282.056 23.2725 282.056C15.6087 282.056 11.3459 285.88 10.1928 287.081C9.42414 286.649 8.98155 286.113 8.87673 285.484C8.64379 284.084 10.0647 282.336 10.7053 281.706C10.7286 281.694 10.7519 281.683 10.7752 281.659C12.0214 280.773 24.4721 272.542 37.8196 279.246C38.204 279.433 38.565 279.619 38.9261 279.817C40.6382 280.738 42.0126 281.741 43.0957 282.685C43.2588 282.825 43.4219 282.965 43.5616 283.094C44.8079 284.248 45.6115 285.25 46.0424 285.845Z" fill="#E8B679"/>
    <path d="M60.7176 79.9272C60.706 79.8689 60.6943 79.8223 60.6943 79.7873L60.706 79.7523C60.706 79.7873 60.706 79.8456 60.7176 79.9272Z" fill="#21232E"/>
    <path d="M106.502 24.7927C106.467 25.0026 104.01 38.4568 94.855 51.1416C94.5988 51.503 94.3309 51.8645 94.063 52.2259C93.7602 52.6223 93.4574 53.007 93.1429 53.4034C91.128 55.9567 88.8219 58.4284 86.1897 60.7368C85.7704 61.0982 85.3278 61.4713 84.8852 61.8328C84.792 61.9144 84.6988 61.996 84.594 62.0776H84.5824L81.3445 63.6399L80.634 63.9896H80.6224L79.9352 64.3161L78.2697 65.1205C78.2347 65.1205 78.1998 65.1089 78.1765 65.1089C78.8171 64.7358 79.446 64.3394 80.0633 63.9313C80.1099 63.908 80.1565 63.873 80.2031 63.838C80.4127 63.7098 80.6107 63.5699 80.8087 63.43C84.5008 60.9 87.6688 57.9853 90.3826 54.9074C90.7436 54.4877 91.1047 54.068 91.4541 53.6483C91.7802 53.2635 92.0947 52.8671 92.3975 52.4824C102.635 39.4828 105.326 24.8044 105.361 24.5945C105.407 24.2797 105.71 24.0699 106.036 24.1282C106.351 24.1748 106.56 24.478 106.502 24.7927Z" fill="white"/>
    <path d="M156.375 66.2514C153.09 64.7591 150.144 64.5143 147.605 65.5286C147.115 65.7268 146.661 65.96 146.242 66.2281C146.044 66.3447 145.858 66.473 145.671 66.6012C145.485 66.7411 145.31 66.881 145.135 67.0209C144.332 67.6971 143.691 68.4433 143.225 69.0962C143.132 69.2244 143.051 69.341 142.981 69.4576C142.969 69.4693 142.969 69.4809 142.969 69.4809C142.864 69.6325 142.783 69.7607 142.701 69.889C142.655 69.9706 142.62 70.0289 142.585 70.0989C142.259 70.6468 142.107 71.0199 142.107 71.0316C141.979 71.323 141.641 71.4746 141.35 71.3463C141.047 71.2297 140.908 70.8916 141.024 70.5885C141.036 70.5652 141.059 70.5069 141.117 70.3903C141.129 70.3553 141.152 70.3087 141.175 70.2621C141.199 70.2154 141.222 70.1455 141.257 70.0755L141.56 69.411C125.056 63.7565 118.848 47.5041 117.346 42.689C116.402 44.2629 114.585 46.9561 111.79 49.8475C99.9449 63.7565 84.7804 61.9843 84.7804 61.9843L84.5941 62.0776H84.5825L81.3446 63.6399L80.6341 63.9896H80.6224L79.9353 64.3161L78.2698 65.1205L77.7806 65.3421C77.734 65.377 77.6874 65.4003 77.6408 65.4237C77.6175 65.4353 77.5942 65.447 77.5826 65.4586L77.4545 65.5519V65.5053L70.5128 68.8514L68.4862 69.8307L67.8573 70.5769L67.8457 70.5885L63.4314 75.835C63.4314 75.8466 63.4198 75.8466 63.4198 75.8466C62.5579 77.2457 61.6611 78.6098 60.7177 79.9272V79.9389C60.7293 79.9622 60.7293 79.9855 60.7293 80.0205C60.7293 80.0555 60.741 80.0904 60.741 80.1371C60.741 80.1954 60.7526 80.242 60.7642 80.312C60.8225 80.72 60.8924 81.3146 61.0088 82.0724C61.0321 82.259 61.0671 82.4455 61.0904 82.6554C61.1253 82.8536 61.1602 83.0634 61.1952 83.2733C61.2185 83.4832 61.2534 83.693 61.2884 83.9145C61.3583 84.3109 61.4281 84.7423 61.5097 85.1853C61.533 85.3486 61.5679 85.5234 61.6028 85.71C61.6378 85.9315 61.6844 86.1763 61.731 86.4095C61.7892 86.7243 61.8474 87.0508 61.9173 87.3889C61.9173 87.4355 61.929 87.4821 61.9406 87.5288C62.0105 87.8785 62.0804 88.2399 62.1503 88.6014C62.1968 88.8579 62.2551 89.1143 62.3133 89.3825C63.5246 88.8229 64.8524 88.4731 66.2617 88.3798C72.3414 88.0184 77.5593 92.6586 77.932 98.7329C78.2581 104.294 74.4262 109.133 69.1152 110.193C69.4297 110.823 69.7674 111.453 70.1052 112.059C70.8506 113.376 71.6542 114.624 72.5161 115.778C78.1533 123.333 84.2797 128.055 96.6721 128.649C99.0481 128.766 101.669 128.731 104.569 128.533C117.439 127.647 132.941 120.605 141.909 109.797C144.693 106.428 146.859 102.697 148.094 98.6629C148.105 98.6396 148.49 97.3921 148.408 95.0837C148.397 94.7805 148.641 94.5124 148.944 94.4891C148.967 94.4891 151.18 94.2909 154.092 93.1483C156.107 92.3671 161.604 83.763 161.814 75.9166C161.942 71.2064 160.114 67.9536 156.375 66.2514ZM75.8937 82.667H75.7074C74.8455 82.667 74.0303 82.3173 73.378 81.6411C72.7141 80.9532 72.3181 80.0088 72.2599 78.9945C72.19 77.9802 72.4812 76.9892 73.0519 76.2314C73.6575 75.4386 74.4961 74.9722 75.4163 74.9139C77.3031 74.7973 78.9336 76.4412 79.0617 78.5865C79.0617 78.6797 79.0734 78.7613 79.0734 78.8546C79.0734 80.8716 77.6874 82.5504 75.8937 82.667ZM83.0917 66.3913C82.8704 66.6595 82.5209 66.7761 81.892 66.7761C81.1699 66.7761 80.0867 66.6129 78.4212 66.3214C78.6891 66.1815 78.9453 66.0183 79.2015 65.8667C79.4461 65.7151 79.6907 65.5636 79.9353 65.4004C80.2847 65.1905 80.6225 64.969 80.9602 64.7358C81.1582 64.6075 81.3562 64.4793 81.5426 64.3511C81.7289 64.2228 81.9036 64.0946 82.0783 63.9663L82.1599 64.0246C82.7539 64.5026 82.8238 64.6192 83.1965 65.5286C83.3246 65.8317 83.2896 66.1465 83.0917 66.3913ZM87.8087 94.6173C87.4476 93.6963 87.6922 92.6819 88.5425 91.6093C92.2695 86.8642 90.5108 72.4423 90.4875 72.2907C90.4526 71.9759 90.6738 71.6845 91 71.6495C91.3144 71.6145 91.6056 71.836 91.6406 72.1508C91.7221 72.7687 93.4808 87.2023 89.4509 92.3322C88.8802 93.055 88.6939 93.6846 88.8919 94.1859C89.3577 95.3751 91.8153 96.0047 92.6306 96.133C92.9451 96.1912 93.1663 96.4827 93.1197 96.7975C93.0732 97.089 92.8286 97.2988 92.5374 97.2988C92.5141 97.2988 92.4791 97.2872 92.4558 97.2872C92.0598 97.2289 88.6007 96.6343 87.8087 94.6173ZM103.637 108.072C101.284 109.587 97.8251 110.298 94.762 110.298C92.9683 110.298 91.3145 110.054 90.0799 109.587C89.7887 109.471 89.6373 109.133 89.7421 108.829C89.8586 108.526 90.1963 108.375 90.4992 108.491C93.5623 109.657 99.5605 109.307 103.008 107.092C103.276 106.917 103.637 106.999 103.812 107.267C103.986 107.535 103.905 107.897 103.637 108.072ZM106.083 65.3887C105.699 65.3887 105.442 65.3071 105.244 65.1205C105.035 64.9107 104.953 64.5959 105.046 64.2694C105.303 63.3251 105.361 63.2085 105.838 62.7072L105.978 62.5789C106.164 62.4507 110.509 59.5826 116.682 59.7808C123.775 60.0023 126.127 61.4364 126.815 62.0426C127.211 62.404 127.106 62.7538 127.048 62.8937C126.791 63.4183 126.302 63.3367 124.485 63.0453C122.552 62.7188 119.628 62.2408 117.311 62.5789C115.226 62.8821 112.745 63.6282 110.567 64.2928C108.179 65.0156 106.863 65.3887 106.083 65.3887ZM114.271 80.3586H114.084C112.291 80.3586 110.753 78.7497 110.637 76.6861C110.509 74.5408 111.93 72.7104 113.805 72.6055C115.668 72.4772 117.311 74.1328 117.439 76.278C117.567 78.4116 116.146 80.242 114.271 80.3586ZM129.097 105.565C123.029 105.926 117.811 101.298 117.439 95.2119C117.078 89.1377 121.702 83.9029 127.781 83.5414C133.849 83.18 139.079 87.8086 139.44 93.8945C139.801 99.9687 135.177 105.192 129.097 105.565ZM152.916 69.0612C146.486 71.4629 146.114 78.1551 146.172 80.4169C146.545 80.3469 146.987 80.3353 147.442 80.5451C148.164 80.8716 148.63 81.6294 148.839 82.8069C149.072 84.136 148.909 85.1387 148.373 85.7799C147.838 86.4095 147.139 86.4328 147.034 86.4328C146.708 86.4212 146.452 86.1647 146.452 85.8382C146.452 85.5118 146.719 85.232 147.046 85.2669C147.046 85.2669 147.302 85.2553 147.5 84.9988C147.779 84.649 147.849 83.9378 147.686 83.0051C147.593 82.4805 147.395 81.8043 146.952 81.6061C146.521 81.3962 145.939 81.7227 145.939 81.7343C145.764 81.8276 145.555 81.8393 145.38 81.746C145.205 81.6644 145.077 81.4895 145.054 81.2913C145.054 81.1864 144.029 71.1365 152.508 67.9653C152.811 67.8487 153.149 68.0119 153.253 68.3151C153.37 68.6065 153.218 68.9446 152.916 69.0612Z" fill="white"/>
    <path d="M117.52 4.83286C117.218 4.93779 116.961 5.0194 116.787 5.08936C116.682 5.12433 116.589 5.15931 116.53 5.17097C116.6 5.12433 116.67 5.05438 116.717 4.97277C116.763 4.90282 116.787 4.8212 116.787 4.73959C116.891 4.77457 116.973 4.8212 117.031 4.85618C117.171 4.77457 117.346 4.76291 117.497 4.8212C117.509 4.8212 117.52 4.83286 117.52 4.83286Z" fill="#21232E"/>
    <path d="M156.876 24.5596C156.771 24.6761 156.619 24.7344 156.468 24.7344C156.317 24.7344 156.165 24.6878 156.06 24.5712C140.873 9.72956 127.141 12.8541 124.357 13.7052C126.652 22.3327 122.936 31.753 120.467 36.6964C120.362 36.8946 120.153 37.0112 119.943 37.0112C119.85 37.0112 119.768 36.9995 119.687 36.9529C119.396 36.813 119.279 36.4632 119.419 36.1717C121.387 32.2427 125.627 22.2744 123.111 13.5886C123.088 13.5187 123.076 13.4371 123.041 13.3671V13.3321C123.018 13.2855 123.006 13.2389 122.994 13.1922C122.564 11.8631 121.876 10.5923 120.921 9.40311C119.896 8.10898 118.569 6.91978 116.973 5.84717C116.717 5.68395 116.647 5.34584 116.787 5.08935C116.961 5.0194 117.218 4.93778 117.52 4.83286C117.555 4.84451 117.59 4.85617 117.625 4.87949C119.139 5.88215 120.42 7.02471 121.469 8.23722C122.435 7.61931 124.788 6.45343 128.504 6.82651C128.818 6.84983 129.051 7.1413 129.028 7.45609C128.993 7.78253 128.713 8.01571 128.387 7.98073C125.149 7.65428 123.053 8.63363 122.191 9.15827C122.994 10.2542 123.612 11.3968 124.008 12.586C127.059 11.6766 141.315 8.5287 156.876 23.7318C157.097 23.965 157.109 24.3264 156.876 24.5596Z" fill="white"/>
    <path d="M117.52 4.83286C117.218 4.93779 116.961 5.0194 116.787 5.08936C116.787 5.0777 116.798 5.05438 116.81 5.04272C116.868 4.96111 116.938 4.90281 117.031 4.85618C117.171 4.77456 117.346 4.76291 117.497 4.8212C117.509 4.8212 117.52 4.83286 117.52 4.83286Z" fill="white"/>
</svg>
