<svg width="920" height="414" viewBox="0 0 920 414" fill="none" xmlns="http://www.w3.org/2000/svg">
    <path d="M792.022 411.905C806.849 390.943 820.185 366.494 830.213 337.697C839.892 309.926 858.667 253.637 841.347 186.634C820.08 104.37 749.837 26.9784 660.748 12.0318C579.429 -1.59729 513.18 41.96 473.953 67.7609C365.624 138.996 384.993 204.787 290.873 260.936C184.722 324.255 100.06 276.384 68.2051 330.282C56.1271 350.732 54.811 380.298 62.137 411.917H792.022V411.905Z" fill="#F8F1FF"/>
    <path d="M353.558 88.8517H123.202V111.796H353.558V88.8517Z" fill="#21232E"/>
    <path d="M228.899 1.16589H215.459V88.8518H228.899V1.16589Z" fill="#4899EC"/>
    <path d="M214.294 16.0192H194.11V88.8517H214.294V16.0192Z" fill="#5368E0"/>
    <path d="M243.493 1.16589H230.064V88.8518H243.493V1.16589Z" fill="#5368E0"/>
    <path d="M258.099 6.59888H244.658V88.8517H258.099V6.59888Z" fill="#5368E0"/>
    <path d="M287.123 88.7002L273.519 88.8518L260.137 9.95663L273.379 7.70648L287.123 88.7002Z" fill="#4899EC"/>
    <path d="M244.658 5.433V0H214.294V14.8533H192.945V90.0176H259.263V11.8104L272.541 90.0293L288.497 89.8544L274.334 6.36571L259.263 8.91898V5.433H244.658ZM214.294 88.8517H194.11V16.0192H214.294V88.8517ZM228.899 88.8517H215.459V1.16588H228.899V88.8517ZM243.493 88.8517H230.064V1.16588H243.493V88.8517ZM258.099 88.8517H244.658V6.59888H258.099V88.8517ZM260.137 9.95662L273.379 7.70647L287.123 88.7002L273.519 88.8517L260.137 9.95662Z" fill="#21232E"/>
    <path d="M229.773 197.628H0.582352C0.256235 197.628 0 197.885 0 198.211V219.99C0 220.316 0.256235 220.573 0.582352 220.573H229.773C230.099 220.573 230.355 220.316 230.355 219.99V198.211C230.355 197.885 230.087 197.628 229.773 197.628Z" fill="#21232E"/>
    <path d="M919.418 412.314H627.857C627.531 412.314 627.275 412.057 627.275 411.731C627.275 411.404 627.531 411.148 627.857 411.148H919.418C919.744 411.148 920 411.404 920 411.731C920 412.057 919.744 412.314 919.418 412.314Z" fill="#21232E"/>
    <path d="M209.973 413.421H0.582352C0.256235 413.421 0 413.165 0 412.838C0 412.512 0.256235 412.255 0.582352 412.255H209.973C210.299 412.255 210.555 412.512 210.555 412.838C210.555 413.165 210.299 413.421 209.973 413.421Z" fill="#21232E"/>
    <path d="M307.587 41.7502C307.261 41.8201 307.051 41.8784 307.016 41.8901L306.911 41.9134L306.69 41.9717C305.956 42.1815 305.164 42.4614 304.337 42.8461C304.116 41.8201 303.312 40.6076 301.216 40.1762C300.901 40.1179 300.599 40.3161 300.529 40.6309C300.47 40.9574 300.668 41.2605 300.983 41.3188C302.963 41.7152 303.219 42.8927 303.231 43.429C301.67 44.3268 300.039 45.5976 298.537 47.4163C298.211 45.481 297.908 41.6919 300.203 40.013C302.497 38.3575 305.525 40.6426 306.9 41.9017C307.133 41.8434 307.354 41.7852 307.563 41.7269C307.575 41.7385 307.587 41.7502 307.587 41.7502Z" fill="white"/>
    <path d="M308.274 41.6103C308.006 41.6569 307.773 41.7036 307.587 41.7502C307.261 41.8202 307.051 41.8784 307.016 41.8901L306.911 41.9134L306.9 41.9018C307.132 41.8435 307.354 41.7852 307.563 41.7269C307.808 41.6802 308.041 41.6336 308.262 41.5986C308.274 41.6103 308.274 41.6103 308.274 41.6103Z" fill="#21232E"/>
    <path d="M324.114 47.7078C324.091 47.6612 324.044 47.6145 324.009 47.5679C322.542 45.7725 320.969 44.49 319.443 43.5806C319.42 43.1609 319.502 41.7735 321.691 41.3188C322.006 41.2605 322.204 40.9574 322.146 40.6309C322.076 40.3161 321.773 40.1179 321.458 40.1762C319.28 40.6193 318.5 41.9134 318.314 42.9627C317.661 42.6362 317.021 42.3797 316.415 42.1815C316.404 42.1699 316.404 42.1699 316.392 42.1699C316.194 42.0766 315.996 41.995 315.786 41.9251C317.149 40.6776 320.212 38.3458 322.507 40.013C324.918 41.7618 324.452 45.889 324.114 47.7078Z" fill="white"/>
    <path d="M331.23 59.6814C330.671 58.3756 329.716 57.6761 328.4 57.6178C328.33 57.6061 328.26 57.6061 328.19 57.6061C328.051 57.6061 327.922 57.6178 327.794 57.6528C327.585 57.6994 327.387 57.781 327.224 57.8743C326.63 58.2357 326.257 58.8769 326.14 59.3316C325.954 60.0079 326.047 60.4742 327.037 61.1388C327.305 61.3136 327.375 61.6751 327.2 61.9432C327.026 62.2114 326.665 62.2813 326.397 62.1064C325.104 61.2553 324.685 60.311 325.011 59.0402C325.22 58.2241 325.919 57.1048 327.084 56.6501C326.746 54.5399 325.744 51.5785 323.101 48.3141C322.774 47.906 322.437 47.5213 322.076 47.1715C320.41 45.4343 318.616 44.3501 316.986 43.6739C316.998 43.7205 316.998 43.7555 316.998 43.8021C317.009 44.5483 316.858 45.516 316.229 46.3554C315.367 47.4863 313.876 48.0576 311.791 48.0576C311.593 48.0576 311.395 48.0576 311.209 48.0343C309.474 47.941 308.192 47.3697 307.389 46.3554C306.585 45.3294 306.457 44.1052 306.492 43.2775C305.712 43.534 304.873 43.8837 304.011 44.3501C303.999 44.3501 303.999 44.3501 303.999 44.3501C302.625 45.1196 301.193 46.1805 299.853 47.6845C299.678 47.8827 299.492 48.0926 299.317 48.3141C294.449 54.295 295.159 59.32 295.253 59.798C296.988 63.4472 302.695 67.3412 311.209 67.3879H311.36C320.736 67.3879 323.997 65.0328 324.021 65.0095C324.277 64.8113 324.65 64.8696 324.836 65.1261C325.034 65.3826 324.987 65.744 324.731 65.9422C324.603 66.0355 321.831 68.0874 314.062 68.4955C314.785 69.195 315.227 70.186 315.227 71.2703C315.227 73.4038 313.492 75.141 311.36 75.141C311.314 75.141 311.256 75.141 311.209 75.1293C309.136 75.0594 307.482 73.3572 307.482 71.2703C307.482 70.151 307.959 69.1367 308.717 68.4372C301.577 67.7843 296.685 64.5198 294.624 61.0688C293.599 62.736 291.444 67.1314 292.306 73.6137C293.412 81.8564 301.484 84.9111 301.565 84.946L301.903 85.0743L301.95 85.424C301.961 85.5523 302.322 88.4087 305.316 88.4087C306.399 88.4087 307.179 88.1639 307.622 87.6742C308.076 87.1495 308.029 86.52 308.029 86.52L307.948 85.8321L311.186 86.007H311.244L314.47 85.8321L314.4 86.52C314.389 86.5433 314.342 87.1729 314.82 87.6859C315.262 88.1639 316.031 88.4087 317.114 88.4087C320.119 88.4087 320.457 85.5523 320.48 85.4357L320.515 85.0743L320.853 84.946C320.934 84.9111 329.006 81.8564 330.112 73.6137C330.322 72.0631 330.357 70.629 330.264 69.3232L330.019 69.9645C329.926 70.1976 329.704 70.3376 329.472 70.3376C329.402 70.3376 329.332 70.3259 329.262 70.3026C328.971 70.186 328.819 69.8479 328.936 69.5448L329.961 66.8749L330.345 65.8489L330.706 64.9162L331.23 63.5405C331.23 63.5172 331.533 62.5028 331.533 61.3719C331.533 60.8006 331.463 60.206 331.23 59.6814ZM317.37 52.0565C317.37 51.7301 317.638 51.4736 317.953 51.4736C318.279 51.4736 318.535 51.7301 318.535 52.0565V52.8493C318.535 53.1758 318.279 53.4323 317.953 53.4323C317.638 53.4323 317.37 53.1758 317.37 52.8493V52.0565ZM315.961 51.9166C316.264 51.8117 316.59 51.9749 316.706 52.2781L316.963 53.0359C317.067 53.339 316.916 53.6655 316.613 53.7704C316.543 53.7937 316.485 53.8054 316.415 53.8054C316.171 53.8054 315.949 53.6538 315.868 53.4206L315.6 52.6628C315.495 52.3597 315.658 52.0332 315.961 51.9166ZM311.186 57.816C311.197 57.816 311.197 57.816 311.209 57.816C311.826 57.8626 312.315 58.1891 312.292 58.5505C312.269 58.9003 311.791 59.1568 311.209 59.1568H311.104C310.475 59.1218 309.974 58.7837 309.998 58.4223C310.021 58.0492 310.557 57.781 311.186 57.816ZM305.397 53.0359L305.653 52.2781C305.77 51.9749 306.096 51.8117 306.399 51.9166C306.702 52.0332 306.865 52.3597 306.76 52.6628L306.492 53.4206C306.41 53.6538 306.189 53.8054 305.945 53.8054C305.875 53.8054 305.816 53.7937 305.747 53.7704C305.444 53.6655 305.292 53.339 305.397 53.0359ZM303.767 52.0565C303.767 51.7301 304.034 51.4736 304.349 51.4736C304.675 51.4736 304.931 51.7301 304.931 52.0565V52.8493C304.931 53.1758 304.675 53.4323 304.349 53.4323C304.034 53.4323 303.767 53.1758 303.767 52.8493V52.0565ZM303.009 53.7704C302.94 53.7937 302.881 53.8054 302.811 53.8054C302.579 53.8054 302.346 53.6538 302.264 53.4206L301.996 52.6628C301.891 52.3597 302.054 52.0332 302.357 51.9166C302.66 51.8117 302.986 51.9749 303.103 52.2781L303.359 53.0359C303.475 53.339 303.312 53.6655 303.009 53.7704ZM303.231 56.2537C303.277 55.5192 303.825 54.9479 304.454 54.9829C305.094 55.0179 305.572 55.6475 305.525 56.3936C305.479 57.1281 304.931 57.6994 304.302 57.6644C303.662 57.6295 303.184 56.9999 303.231 56.2537ZM318.069 60.4509C317.871 61.4535 316.928 63.3656 314.761 63.4589C313.166 63.5405 311.908 62.8643 311.209 62.3629C311.151 62.3163 311.104 62.2813 311.058 62.2463C310.499 62.771 309.392 63.4822 307.4 63.4822C307.249 63.4822 307.086 63.4822 306.911 63.4705C306.061 63.4239 305.385 63.1208 304.908 62.5611C304.104 61.6284 304.209 60.3343 304.221 60.2877C304.244 59.9612 304.535 59.728 304.85 59.7514C305.176 59.7863 305.409 60.0661 305.374 60.3926C305.374 60.3926 305.316 61.2553 305.793 61.8033C306.061 62.1181 306.445 62.2813 306.981 62.3046C309.672 62.4562 310.475 61.1621 310.475 61.1504C310.568 60.9872 310.731 60.8706 310.906 60.8473C311.023 60.8356 311.127 60.8473 311.209 60.8939C311.291 60.9172 311.349 60.9639 311.407 61.0222C311.419 61.0338 312.735 62.3746 314.715 62.293C316.52 62.2114 316.928 60.241 316.928 60.2294C316.998 59.9029 317.3 59.7047 317.615 59.763C317.929 59.8213 318.139 60.1361 318.069 60.4509ZM317.417 57.6644C316.788 57.6295 316.31 56.9999 316.357 56.2537C316.392 55.5192 316.951 54.9479 317.58 54.9829C318.209 55.0179 318.686 55.6475 318.651 56.3936C318.605 57.1281 318.057 57.6994 317.417 57.6644ZM320.364 52.6628L320.096 53.4206C320.014 53.6538 319.781 53.8054 319.548 53.8054C319.478 53.8054 319.42 53.7937 319.35 53.7704C319.047 53.6655 318.884 53.339 319.001 53.0359L319.257 52.2781C319.362 51.9749 319.7 51.8117 320.002 51.9166C320.305 52.0332 320.468 52.3597 320.364 52.6628ZM302.823 75.4441C302.742 76.2136 302.357 76.8548 301.693 77.2979C301.193 77.636 300.657 77.7759 300.133 77.7759C297.792 77.7759 295.462 75.0477 295.346 74.8961C295.136 74.6513 295.171 74.2899 295.416 74.08C295.66 73.8702 296.033 73.9051 296.231 74.15C296.266 74.185 299.201 77.5777 301.041 76.3302C301.425 76.0737 301.612 75.7589 301.658 75.3275C301.833 73.5787 299.399 70.7223 298.455 69.7779C298.223 69.5564 298.223 69.1833 298.455 68.9502C298.677 68.7286 299.049 68.7286 299.282 68.9502C299.667 69.3466 303.068 72.8209 302.823 75.4441Z" fill="white"/>
    <path d="M311.36 68.5538C311.314 68.5538 311.256 68.5538 311.209 68.5654V68.5538H311.36Z" fill="white"/>
    <path d="M311.36 67.3879C311.314 67.3879 311.256 67.3879 311.209 67.3995V67.3879H311.36Z" fill="white"/>
    <path d="M316.613 53.7704C316.543 53.7937 316.485 53.8054 316.415 53.8054C316.171 53.8054 315.949 53.6538 315.868 53.4206L315.6 52.6628C315.495 52.3597 315.658 52.0332 315.961 51.9167C316.264 51.8117 316.59 51.975 316.706 52.2781L316.963 53.0359C317.067 53.339 316.916 53.6655 316.613 53.7704Z" fill="white"/>
    <path d="M318.535 52.0566V52.8494C318.535 53.1758 318.279 53.4323 317.953 53.4323C317.638 53.4323 317.37 53.1758 317.37 52.8494V52.0566C317.37 51.7301 317.638 51.4736 317.953 51.4736C318.279 51.4736 318.535 51.7301 318.535 52.0566Z" fill="white"/>
    <path d="M318.651 56.3936C318.605 57.1281 318.057 57.6994 317.417 57.6644C316.788 57.6295 316.31 56.9999 316.357 56.2537C316.392 55.5192 316.951 54.9479 317.58 54.9829C318.209 55.0179 318.686 55.6475 318.651 56.3936Z" fill="white"/>
    <path d="M320.364 52.6628L320.096 53.4206C320.014 53.6538 319.781 53.8054 319.548 53.8054C319.478 53.8054 319.42 53.7937 319.35 53.7704C319.047 53.6655 318.884 53.339 319.001 53.0359L319.257 52.2781C319.362 51.975 319.7 51.8117 320.003 51.9167C320.305 52.0332 320.468 52.3597 320.364 52.6628Z" fill="white"/>
    <path d="M303.009 53.7703C302.94 53.7937 302.881 53.8053 302.811 53.8053C302.578 53.8053 302.346 53.6538 302.264 53.4206L301.996 52.6628C301.891 52.3596 302.054 52.0332 302.357 51.9166C302.66 51.8117 302.986 51.9749 303.103 52.278L303.359 53.0358C303.475 53.339 303.312 53.6654 303.009 53.7703Z" fill="white"/>
    <path d="M304.931 52.0565V52.8493C304.931 53.1758 304.675 53.4322 304.349 53.4322C304.034 53.4322 303.766 53.1758 303.766 52.8493V52.0565C303.766 51.7301 304.034 51.4736 304.349 51.4736C304.675 51.4736 304.931 51.7301 304.931 52.0565Z" fill="white"/>
    <path d="M305.525 56.3936C305.479 57.1281 304.931 57.6993 304.302 57.6644C303.662 57.6294 303.184 56.9998 303.231 56.2537C303.277 55.5192 303.825 54.9479 304.454 54.9828C305.094 55.0178 305.572 55.6474 305.525 56.3936Z" fill="white"/>
    <path d="M306.76 52.6628L306.492 53.4206C306.41 53.6538 306.189 53.8053 305.945 53.8053C305.875 53.8053 305.816 53.7937 305.747 53.7703C305.444 53.6654 305.292 53.339 305.397 53.0358L305.653 52.278C305.77 51.9749 306.096 51.8117 306.399 51.9166C306.702 52.0332 306.865 52.3596 306.76 52.6628Z" fill="white"/>
    <path d="M308.716 41.5286C308.553 41.5636 308.402 41.5869 308.274 41.6102C308.006 41.6569 307.773 41.7035 307.587 41.7501C307.261 41.8201 307.051 41.8784 307.016 41.8901L306.911 41.9134L306.69 41.9717C306.76 41.9367 306.83 41.925 306.9 41.9017C307.133 41.8434 307.354 41.7851 307.563 41.7268C307.808 41.6802 308.041 41.6336 308.262 41.5986C308.414 41.5636 308.565 41.5403 308.716 41.5286Z" fill="#21232E"/>
    <path d="M315.297 45.6442C314.668 46.4719 313.492 46.8917 311.791 46.8917C311.593 46.8917 311.395 46.88 311.209 46.8683C309.87 46.7867 308.891 46.367 308.309 45.6325C307.587 44.7231 307.622 43.5106 307.68 42.9277C307.761 42.916 307.843 42.8927 307.948 42.8694C308.064 42.846 308.181 42.8227 308.286 42.7994C308.309 42.7994 308.344 42.7994 308.367 42.7878C308.53 42.7644 308.717 42.7295 308.915 42.6945C309.124 42.6712 309.334 42.6362 309.567 42.6012C309.986 42.5546 310.464 42.5079 310.953 42.4846H310.964C311.046 42.4846 311.127 42.473 311.209 42.473C311.302 42.473 311.395 42.4613 311.489 42.4613C312.909 42.438 314.459 42.5896 315.775 43.1725C315.775 43.1842 315.775 43.2075 315.786 43.2308C315.856 43.7438 315.926 44.8164 315.297 45.6442Z" fill="#FFC980"/>
    <path d="M305.525 56.3936C305.479 57.1281 304.931 57.6994 304.302 57.6644C303.662 57.6295 303.184 56.9999 303.231 56.2537C303.277 55.5192 303.825 54.9479 304.454 54.9829C305.094 55.0179 305.572 55.6475 305.525 56.3936Z" fill="#21232E"/>
    <path d="M318.651 56.3936C318.605 57.1281 318.057 57.6994 317.417 57.6644C316.788 57.6295 316.31 56.9999 316.357 56.2537C316.392 55.5192 316.951 54.9479 317.58 54.9829C318.209 55.0179 318.686 55.6475 318.651 56.3936Z" fill="#21232E"/>
    <path d="M302.823 75.4441C302.742 76.2136 302.357 76.8548 301.693 77.2978C301.192 77.6359 300.657 77.7758 300.133 77.7758C297.792 77.7758 295.462 75.0477 295.346 74.8961C295.136 74.6513 295.171 74.2899 295.416 74.08C295.66 73.8701 296.033 73.9051 296.231 74.15C296.266 74.1849 299.201 77.5776 301.041 76.3302C301.425 76.0737 301.612 75.7589 301.658 75.3275C301.833 73.5787 299.399 70.7223 298.455 69.7779C298.222 69.5564 298.222 69.1833 298.455 68.9501C298.677 68.7286 299.049 68.7286 299.282 68.9501C299.667 69.3465 303.068 72.8209 302.823 75.4441Z" fill="#21232E"/>
    <path d="M318.535 52.0565V52.8493C318.535 53.1758 318.279 53.4322 317.953 53.4322C317.638 53.4322 317.37 53.1758 317.37 52.8493V52.0565C317.37 51.7301 317.638 51.4736 317.953 51.4736C318.279 51.4736 318.535 51.7301 318.535 52.0565Z" fill="#21232E"/>
    <path d="M320.364 52.6628L320.096 53.4206C320.014 53.6538 319.781 53.8053 319.548 53.8053C319.478 53.8053 319.42 53.7937 319.35 53.7703C319.047 53.6654 318.884 53.339 319.001 53.0358L319.257 52.278C319.362 51.9749 319.7 51.8117 320.003 51.9166C320.305 52.0332 320.468 52.3596 320.364 52.6628Z" fill="#21232E"/>
    <path d="M316.613 53.7703C316.543 53.7937 316.485 53.8053 316.415 53.8053C316.171 53.8053 315.949 53.6538 315.868 53.4206L315.6 52.6628C315.495 52.3596 315.658 52.0332 315.961 51.9166C316.264 51.8117 316.59 51.9749 316.706 52.278L316.963 53.0358C317.067 53.339 316.916 53.6654 316.613 53.7703Z" fill="#21232E"/>
    <path d="M304.931 52.0565V52.8493C304.931 53.1758 304.675 53.4322 304.349 53.4322C304.034 53.4322 303.766 53.1758 303.766 52.8493V52.0565C303.766 51.7301 304.034 51.4736 304.349 51.4736C304.675 51.4736 304.931 51.7301 304.931 52.0565Z" fill="#21232E"/>
    <path d="M306.76 52.6628L306.492 53.4206C306.41 53.6538 306.189 53.8053 305.945 53.8053C305.875 53.8053 305.816 53.7937 305.747 53.7703C305.444 53.6654 305.292 53.339 305.397 53.0358L305.653 52.278C305.77 51.9749 306.096 51.8117 306.399 51.9166C306.702 52.0332 306.865 52.3596 306.76 52.6628Z" fill="#21232E"/>
    <path d="M303.009 53.7703C302.94 53.7937 302.881 53.8053 302.811 53.8053C302.578 53.8053 302.346 53.6538 302.264 53.4206L301.996 52.6628C301.891 52.3596 302.054 52.0332 302.357 51.9166C302.66 51.8117 302.986 51.9749 303.103 52.278L303.359 53.0358C303.475 53.339 303.312 53.6654 303.009 53.7703Z" fill="#21232E"/>
    <path d="M311.209 68.5537V68.5654C311.256 68.5537 311.314 68.5537 311.36 68.5537H311.209Z" fill="#FFC980"/>
    <path d="M311.209 68.5537V68.5654C311.256 68.5537 311.314 68.5537 311.36 68.5537H311.209ZM311.209 68.5537V68.5654C311.256 68.5537 311.314 68.5537 311.36 68.5537H311.209Z" fill="#21232E"/>
    <path d="M332.302 59.215C331.533 57.4429 330.101 56.4636 328.26 56.4402C327.934 54.4699 327.084 51.835 325.011 48.9086H325.034C325.116 48.6288 326.979 41.8201 323.194 39.0686C319.793 36.5969 315.612 40.4094 314.493 41.5519C312.77 41.1789 310.953 41.2488 309.543 41.4237C309.427 41.4354 309.322 41.447 309.206 41.4587C309.031 41.482 308.868 41.5053 308.717 41.5286C308.553 41.5636 308.402 41.5869 308.274 41.6102C308.006 41.6569 307.773 41.7035 307.587 41.7501C307.261 41.8201 307.051 41.8784 307.016 41.89L306.911 41.9134L306.69 41.9717C305.956 42.1815 305.164 42.4613 304.337 42.8461C304.116 41.8201 303.312 40.6076 301.216 40.1762C300.901 40.1179 300.599 40.3161 300.529 40.6309C300.47 40.9573 300.668 41.2605 300.983 41.3188C302.963 41.7152 303.219 42.8927 303.231 43.429C301.67 44.3267 300.039 45.5975 298.537 47.4163C298.211 45.481 297.908 41.6918 300.203 40.013C302.497 38.3574 305.525 40.6426 306.9 41.9017C307.133 41.8434 307.354 41.7851 307.563 41.7268C307.808 41.6802 308.041 41.6336 308.262 41.5986C307.226 40.526 302.963 36.562 299.515 39.0686C296.114 41.5403 297.279 47.2881 297.594 48.6288C293.599 54.1318 293.901 58.6437 294.065 59.798C293.273 60.8822 290.093 65.8023 291.153 73.7652C292.236 81.8448 299.224 85.2375 300.843 85.9137C301.134 87.3477 302.334 89.5746 305.316 89.5746C306.748 89.5746 307.808 89.2015 308.484 88.4436C308.903 87.9773 309.078 87.4643 309.147 87.0679L311.186 87.1728H311.244L313.271 87.0679C313.34 87.4643 313.515 87.9773 313.934 88.4436C314.61 89.2015 315.681 89.5746 317.114 89.5746C320.084 89.5746 321.284 87.3477 321.575 85.9137C323.194 85.2375 330.182 81.8448 331.265 73.7652C331.615 71.1653 331.51 68.8918 331.16 66.9681L332.325 63.9252C332.36 63.8086 333.175 61.1854 332.302 59.215ZM322.507 40.013C324.918 41.7618 324.452 45.889 324.114 47.7078C324.091 47.6612 324.044 47.6145 324.009 47.5679C322.542 45.7724 320.969 44.49 319.443 43.5806C319.42 43.1609 319.502 41.7735 321.691 41.3188C322.006 41.2605 322.204 40.9573 322.146 40.6309C322.076 40.3161 321.773 40.1179 321.458 40.1762C319.28 40.6192 318.5 41.9134 318.314 42.9627C317.661 42.6362 317.021 42.3797 316.415 42.1815C316.404 42.1699 316.404 42.1699 316.392 42.1699C316.194 42.0766 315.996 41.995 315.786 41.925C317.149 40.6775 320.212 38.3458 322.507 40.013ZM307.68 42.9277C307.761 42.916 307.843 42.8927 307.948 42.8694C308.064 42.8461 308.181 42.8228 308.286 42.7994C308.309 42.7994 308.344 42.7994 308.367 42.7878C308.53 42.7645 308.717 42.7295 308.915 42.6945C309.124 42.6712 309.334 42.6362 309.567 42.6012C309.986 42.5546 310.464 42.508 310.953 42.4846H310.964C311.046 42.4846 311.127 42.473 311.209 42.473C311.302 42.473 311.395 42.4613 311.489 42.4613C312.909 42.438 314.459 42.5896 315.775 43.1725C315.775 43.1842 315.775 43.2075 315.786 43.2308C315.856 43.7438 315.926 44.8164 315.297 45.6442C314.668 46.472 313.492 46.8917 311.791 46.8917C311.593 46.8917 311.395 46.88 311.209 46.8684C309.87 46.7867 308.891 46.367 308.309 45.6325C307.587 44.7231 307.622 43.5106 307.68 42.9277ZM331.23 63.5404L330.706 64.9162L330.345 65.8489L329.961 66.8749L328.936 69.5447C328.819 69.8479 328.971 70.186 329.262 70.3026C329.332 70.3259 329.402 70.3375 329.472 70.3375C329.705 70.3375 329.926 70.1976 330.019 69.9644L330.264 69.3232C330.357 70.629 330.322 72.063 330.112 73.6137C329.006 81.8564 320.934 84.911 320.853 84.946L320.515 85.0743L320.48 85.4357C320.457 85.5523 320.119 88.4087 317.114 88.4087C316.031 88.4087 315.262 88.1638 314.82 87.6858C314.342 87.1728 314.389 86.5433 314.4 86.5199L314.47 85.8321L311.244 86.007H311.186L307.948 85.8321L308.029 86.5199C308.029 86.5199 308.076 87.1495 307.622 87.6742C307.179 88.1638 306.399 88.4087 305.316 88.4087C302.322 88.4087 301.961 85.5523 301.95 85.424L301.903 85.0743L301.565 84.946C301.484 84.911 293.412 81.8564 292.306 73.6137C291.444 67.1314 293.599 62.736 294.624 61.0688C296.685 64.5198 301.577 67.7843 308.717 68.4371C307.959 69.1367 307.482 70.151 307.482 71.2702C307.482 73.3572 309.136 75.0593 311.209 75.1293C311.256 75.141 311.314 75.1409 311.36 75.1409C313.492 75.1409 315.227 73.4038 315.227 71.2702C315.227 70.186 314.785 69.195 314.063 68.4954C321.831 68.0874 324.603 66.0354 324.731 65.9422C324.987 65.744 325.034 65.3825 324.836 65.126C324.65 64.8695 324.277 64.8113 324.021 65.0095C323.997 65.0328 320.736 67.3878 311.36 67.3878C311.314 67.3878 311.256 67.3879 311.209 67.3995V67.3878C302.695 67.3412 296.988 63.4472 295.253 59.798C295.159 59.32 294.449 54.295 299.317 48.314C299.492 48.0925 299.678 47.8827 299.853 47.6845C301.193 46.1805 302.625 45.1195 303.999 44.3501C303.999 44.3501 303.999 44.3501 304.011 44.3501C304.873 43.8837 305.712 43.5339 306.492 43.2774C306.457 44.1052 306.585 45.3294 307.389 46.3554C308.192 47.3697 309.474 47.941 311.209 48.0342C311.395 48.0576 311.593 48.0576 311.791 48.0576C313.876 48.0576 315.367 47.4863 316.229 46.3554C316.858 45.5159 317.009 44.5483 316.998 43.8021C316.998 43.7555 316.998 43.7205 316.986 43.6738C318.617 44.3501 320.41 45.4343 322.076 47.1715C322.437 47.5212 322.775 47.906 323.101 48.314C325.745 51.5785 326.746 54.5399 327.084 56.6501C325.919 57.1048 325.22 58.224 325.011 59.0401C324.685 60.311 325.104 61.2553 326.397 62.1064C326.665 62.2813 327.026 62.2113 327.2 61.9432C327.375 61.675 327.305 61.3136 327.037 61.1387C326.047 60.4742 325.954 60.0078 326.14 59.3316C326.257 58.8769 326.63 58.2357 327.224 57.8743C327.387 57.781 327.585 57.6994 327.794 57.6528C327.923 57.6178 328.051 57.6061 328.19 57.6061C328.26 57.6061 328.33 57.6061 328.4 57.6178C329.716 57.6761 330.671 58.3756 331.23 59.6814C331.463 60.206 331.533 60.8006 331.533 61.3719C331.533 62.5028 331.23 63.5171 331.23 63.5404ZM311.372 70.2443C311.314 70.2443 311.267 70.2443 311.209 70.2676C310.731 70.3375 310.347 70.7572 310.347 71.2702C310.347 71.62 310.522 71.9231 310.79 72.1097V73.9168C309.567 73.6486 308.647 72.5644 308.647 71.2702C308.647 69.8129 309.776 68.6353 311.209 68.5654V68.5537H311.36C312.851 68.5537 314.063 69.7662 314.063 71.2702C314.063 72.5644 313.154 73.637 311.954 73.9051V72.1097C312.222 71.9231 312.397 71.62 312.397 71.2702C312.397 70.699 311.943 70.2443 311.372 70.2443Z" fill="#21232E"/>
    <path d="M312.292 58.5505C312.269 58.9003 311.791 59.1568 311.209 59.1568H311.104C310.475 59.1218 309.974 58.7837 309.998 58.4223C310.021 58.0492 310.557 57.781 311.186 57.816C311.197 57.816 311.197 57.816 311.209 57.816C311.826 57.8626 312.315 58.1891 312.292 58.5505Z" fill="#21232E"/>
    <path d="M318.069 60.4509C317.871 61.4535 316.928 63.3656 314.761 63.4589C313.166 63.5405 311.908 62.8643 311.209 62.3629C311.151 62.3163 311.104 62.2813 311.058 62.2463C310.498 62.771 309.392 63.4822 307.4 63.4822C307.249 63.4822 307.086 63.4822 306.911 63.4705C306.061 63.4239 305.385 63.1208 304.908 62.5611C304.104 61.6284 304.209 60.3343 304.221 60.2877C304.244 59.9612 304.535 59.728 304.85 59.7514C305.176 59.7863 305.409 60.0661 305.374 60.3926C305.374 60.3926 305.316 61.2553 305.793 61.8033C306.061 62.1181 306.445 62.2813 306.981 62.3046C309.672 62.4562 310.475 61.1621 310.475 61.1504C310.568 60.9872 310.731 60.8706 310.906 60.8473C311.023 60.8356 311.127 60.8473 311.209 60.8939C311.29 60.9172 311.349 60.9639 311.407 61.0222C311.419 61.0338 312.735 62.3746 314.715 62.293C316.52 62.2114 316.928 60.241 316.928 60.2294C316.998 59.9029 317.3 59.7047 317.615 59.763C317.929 59.8213 318.139 60.1361 318.069 60.4509Z" fill="#21232E"/>
    <path d="M314.062 71.2702C314.062 72.5643 313.154 73.6369 311.954 73.9051V72.1096C312.222 71.9231 312.397 71.62 312.397 71.2702C312.397 70.6989 311.943 70.2442 311.372 70.2442C311.314 70.2442 311.267 70.2442 311.209 70.2676C310.731 70.3375 310.347 70.7572 310.347 71.2702C310.347 71.62 310.522 71.9231 310.79 72.1096V73.9168C309.567 73.6486 308.647 72.5643 308.647 71.2702C308.647 69.8129 309.776 68.6353 311.209 68.5654C311.256 68.5537 311.314 68.5537 311.36 68.5537C312.851 68.5537 314.062 69.7662 314.062 71.2702Z" fill="#FFC980"/>
    <path d="M311.36 67.3878C311.314 67.3878 311.256 67.3878 311.209 67.3995V67.3878H311.36Z" fill="#21232E"/>
    <path d="M42.0108 182.344C42.0108 182.355 42.0108 182.379 41.9992 182.39C41.9642 182.449 41.9409 182.507 41.9177 182.565L41.906 182.554C41.9409 182.484 41.9759 182.414 42.0108 182.344Z" fill="#21232E"/>
    <path d="M19.1011 174.043C18.8449 173.856 18.4838 173.903 18.2858 174.159C18.0878 174.416 18.1344 174.777 18.3907 174.975C18.5188 175.069 21.2908 177.132 29.071 177.54C29.7698 176.852 30.7132 176.433 31.7731 176.433C22.4322 176.433 19.1594 174.089 19.1011 174.043Z" fill="#21232E"/>
    <path d="M23.0378 153.033C23.2475 152.894 23.4688 152.754 23.6901 152.637V152.625C23.4688 152.742 23.2591 152.882 23.0378 153.033ZM39.8911 152.485C40.5084 152.835 41.1024 153.232 41.6848 153.663C41.0791 153.197 40.4851 152.812 39.8911 152.485Z" fill="#21232E"/>
    <path d="M28.7449 195.425C28.7332 195.472 28.7332 195.506 28.7332 195.553C28.7332 195.553 28.7332 195.576 28.7332 195.6C28.7332 195.693 28.7216 195.915 28.6284 196.171C28.5702 196.346 28.477 196.532 28.3139 196.719C27.8713 197.209 27.091 197.454 26.0195 197.454C24.0628 197.454 23.2358 196.229 22.8864 195.355C22.7816 195.087 22.7233 194.842 22.6884 194.69C22.6768 194.655 22.6768 194.632 22.6768 194.609L28.7449 195.425Z" fill="white"/>
    <path d="M41.1606 194.609C41.149 194.644 41.149 194.679 41.1373 194.725C41.1024 194.889 41.0442 195.122 40.9393 195.378C40.5899 196.253 39.763 197.454 37.8179 197.454C36.7348 197.454 35.9661 197.209 35.5235 196.719C35.3488 196.521 35.2439 196.311 35.1857 196.124C35.0809 195.821 35.0925 195.576 35.1042 195.553C35.1042 195.506 35.1042 195.46 35.0925 195.413L41.1606 194.609Z" fill="white"/>
    <path d="M41.1606 194.609C41.149 194.644 41.149 194.679 41.1373 194.725C41.1024 194.889 41.0442 195.122 40.9394 195.378C40.5899 196.253 39.763 197.454 37.8179 197.454C36.7348 197.454 35.9661 197.209 35.5235 196.719C35.3488 196.521 35.2439 196.311 35.1857 196.124C35.0809 195.821 35.0925 195.576 35.1042 195.553C35.1042 195.506 35.1042 195.46 35.0925 195.413L41.1606 194.609Z" fill="white"/>
    <path d="M41.6848 153.663C41.1024 153.232 40.5084 152.835 39.8911 152.485C40.4851 152.812 41.0791 153.197 41.6848 153.663Z" fill="#21232E"/>
    <path d="M23.6901 152.625V152.637C23.4688 152.754 23.2475 152.894 23.0378 153.033C23.2591 152.882 23.4688 152.742 23.6901 152.625Z" fill="#21232E"/>
    <path d="M28.745 195.425C28.7333 195.472 28.7333 195.506 28.7333 195.553C28.7333 195.553 28.7333 195.576 28.7333 195.6C28.7333 195.693 28.7217 195.915 28.6285 196.171C28.5703 196.346 28.4771 196.532 28.3141 196.719C27.8715 197.209 27.0911 197.454 26.0196 197.454C24.0629 197.454 23.2359 196.229 22.8865 195.355C22.7817 195.087 22.7235 194.842 22.6885 194.69C22.6769 194.655 22.6769 194.632 22.6769 194.609L28.745 195.425Z" fill="white"/>
    <path d="M47.7878 183.941C47.7063 184.034 46.6464 185.282 45.2604 186.109H45.2488C45.0624 186.214 44.8877 186.308 44.7247 186.389C44.5849 186.448 44.4568 186.506 44.317 186.564C44.1656 186.622 44.0142 186.669 43.8744 186.704C43.7347 186.739 43.5833 186.774 43.4435 186.786C43.2921 186.809 43.1523 186.821 43.0009 186.821C42.8495 186.821 42.7097 186.809 42.57 186.786C42.4419 186.774 42.3254 186.739 42.2089 186.704C42.1041 186.681 41.9993 186.646 41.8944 186.599C41.7197 186.518 41.5683 186.436 41.4286 186.343C41.2655 186.238 41.1141 186.109 40.9743 185.958C40.788 185.771 40.6366 185.561 40.5201 185.293C40.4735 185.2 40.4269 185.083 40.4036 184.967C40.392 184.955 40.3803 184.932 40.3803 184.909C40.3803 184.897 40.3803 184.897 40.3803 184.885C40.357 184.815 40.3454 184.734 40.3337 184.652C40.2872 184.372 40.2755 184.058 40.3337 183.696C40.3687 183.44 40.4386 183.16 40.5434 182.857C40.5783 182.752 40.6133 182.647 40.6599 182.542C40.7414 182.332 40.8462 182.099 40.9627 181.866C41.9061 179.977 43.5833 178.263 43.8511 177.995C44.0724 177.762 44.4451 177.762 44.6664 177.995C44.8994 178.216 44.8994 178.59 44.6664 178.823C44.0491 179.441 42.768 180.898 42.0226 182.32C42.0226 182.332 42.0226 182.332 42.0109 182.344C41.976 182.414 41.941 182.484 41.9061 182.554L41.9177 182.565L44.5267 185.177C44.5733 185.153 44.6082 185.13 44.6548 185.107C44.6664 185.107 44.6664 185.095 44.6781 185.095C45.8777 184.372 46.8677 183.218 46.891 183.195C47.1007 182.95 47.4617 182.915 47.7063 183.113C47.9626 183.323 47.9858 183.696 47.7878 183.941Z" fill="white"/>
    <path d="M42.011 182.344C42.011 182.355 42.011 182.379 41.9993 182.39C41.9644 182.449 41.9411 182.507 41.9178 182.565L41.9061 182.554C41.9411 182.484 41.976 182.414 42.011 182.344Z" fill="white"/>
    <path d="M38.9128 169.379C38.9128 170.393 38.61 171.256 38.051 171.804C37.5851 172.271 36.9212 172.527 36.1758 172.515C36.0127 172.527 35.8497 172.527 35.6866 172.527C33.7183 172.527 32.6118 171.816 32.076 171.291C31.4005 171.792 30.096 172.574 28.3606 172.504C25.2858 172.364 25.0529 170.079 25.0529 169.379C25.0529 168.983 25.2043 168.237 25.6934 167.572C26.1943 166.907 27.0096 166.325 28.3606 166.266C29.2807 166.22 30.0844 166.418 30.7366 166.686C30.5503 166.814 30.4105 166.989 30.3406 167.176C30.2707 167.316 30.2358 167.467 30.2474 167.63C30.2474 167.677 30.2591 167.724 30.2824 167.77C30.3406 168.097 30.5736 168.388 30.9346 168.575C31.1908 168.703 31.4937 168.773 31.8081 168.785H31.9013C31.9479 168.785 32.0061 168.785 32.0527 168.773C32.2274 168.761 32.4021 168.738 32.5652 168.68C32.9263 168.598 33.2291 168.423 33.4271 168.19C33.5319 168.073 33.6134 167.933 33.66 167.782C33.7066 167.665 33.7183 167.549 33.7066 167.42C33.7066 167.327 33.6833 167.234 33.6484 167.152C33.5901 166.977 33.4737 166.803 33.3223 166.674C34.0094 166.371 34.9645 166.173 36.2224 166.231C36.9095 166.231 37.457 166.488 37.9461 166.966C38.5401 167.56 38.9128 168.481 38.9128 169.379Z" fill="white"/>
    <path d="M48.6846 168.47C48.6264 168.446 48.5682 168.423 48.5099 168.423C48.2653 168.388 48.0207 168.516 47.9159 168.75C47.9043 168.773 47.8926 168.808 47.881 168.831C46.1223 172.504 40.3686 176.433 31.7731 176.433C30.7132 176.433 29.7698 176.852 29.071 177.54C28.3372 178.24 27.8947 179.219 27.8947 180.303C27.8947 182.437 29.6301 184.174 31.7731 184.174C33.9045 184.174 35.6399 182.437 35.6399 180.303C35.6399 179.196 35.1741 178.193 34.417 177.482C41.545 176.817 46.4367 173.553 48.5099 170.114C48.6264 169.927 48.7312 169.729 48.8244 169.542C48.8826 169.449 48.9292 169.344 48.9758 169.239C49.1039 168.948 48.9758 168.598 48.6846 168.47ZM34.4752 180.303C34.4752 181.609 33.5551 182.693 32.3322 182.95V181.143C32.6001 180.968 32.7748 180.653 32.7748 180.303C32.7748 179.744 32.3205 179.277 31.7498 179.277C31.1791 179.277 30.7249 179.744 30.7249 180.303C30.7249 180.653 30.8996 180.968 31.1675 181.143V182.938C29.9678 182.67 29.0594 181.586 29.0594 180.303C29.0594 178.811 30.2823 177.599 31.7731 177.599C33.2639 177.599 34.4752 178.811 34.4752 180.303Z" fill="white"/>
    <path d="M31.7731 176.433C30.7132 176.433 29.7698 176.852 29.071 177.54C21.2908 177.132 18.5188 175.069 18.3907 174.975C18.1344 174.777 18.0878 174.416 18.2858 174.159C18.4838 173.903 18.8449 173.856 19.1011 174.043C19.1594 174.089 22.4322 176.433 31.7731 176.433Z" fill="white"/>
    <path d="M34.4753 180.303C34.4753 181.609 33.5552 182.693 32.3323 182.95V181.143C32.6001 180.968 32.7749 180.653 32.7749 180.303C32.7749 179.744 32.3206 179.277 31.7499 179.277C31.1792 179.277 30.725 179.744 30.725 180.303C30.725 180.653 30.8997 180.968 31.1676 181.143V182.938C29.9679 182.67 29.0594 181.586 29.0594 180.303C29.0594 178.811 30.2824 177.599 31.7732 177.599C33.264 177.599 34.4753 178.811 34.4753 180.303Z" fill="#21232E"/>
    <path d="M43.56 156.158L43.5483 156.17C43.4318 156.263 43.3037 156.321 43.1523 156.321C43.0009 156.321 42.8495 156.263 42.7447 156.146C42.6748 156.076 42.6166 156.018 42.5467 155.96C42.4069 155.82 42.2671 155.68 42.1157 155.552C41.976 155.412 41.8246 155.284 41.6731 155.167C41.5334 155.027 41.3936 154.911 41.2422 154.806C40.9627 154.572 40.6715 154.351 40.3687 154.164C40.0891 153.954 39.798 153.768 39.4951 153.616C39.3554 153.511 39.204 153.43 39.0526 153.348C38.9011 153.267 38.7963 153.115 38.7614 152.94C38.7497 152.905 38.7497 152.87 38.7497 152.835C38.7381 152.742 38.7264 152.637 38.7264 152.52C38.7264 152.334 38.7381 152.124 38.7963 151.903C38.9943 150.877 39.798 149.652 41.9061 149.221C42.2206 149.163 42.535 149.361 42.5933 149.676C42.6631 149.991 42.4535 150.294 42.139 150.364C40.1241 150.772 39.9028 151.973 39.8911 152.485C40.5084 152.835 41.1024 153.232 41.6848 153.663C41.9527 153.873 42.2089 154.083 42.4651 154.293C42.535 154.351 42.5933 154.409 42.6515 154.456C42.966 154.736 43.2688 155.027 43.5716 155.33C43.7929 155.563 43.7929 155.937 43.56 156.158Z" fill="white"/>
    <path d="M24.8432 152.649C24.8432 152.754 24.8315 152.847 24.8199 152.94C24.8082 152.987 24.7966 153.033 24.7733 153.068C24.7616 153.243 24.6685 153.407 24.5054 153.511H24.4938C24.2958 153.616 24.1094 153.733 23.9231 153.861C23.8881 153.873 23.8532 153.896 23.8182 153.931C23.7018 154.001 23.5853 154.071 23.4688 154.153C23.4572 154.164 23.4455 154.176 23.4455 154.176C23.2592 154.293 23.0728 154.433 22.8865 154.572C22.374 154.957 21.8848 155.377 21.4073 155.832C21.3025 155.937 21.1511 155.995 21.0113 155.995C20.8482 155.995 20.7085 155.936 20.6037 155.82H20.592C20.394 155.622 20.3707 155.307 20.5221 155.085C20.5454 155.05 20.5804 155.015 20.6037 154.992C20.8133 154.794 21.0229 154.596 21.2442 154.409C21.4655 154.223 21.6752 154.036 21.9081 153.861C22.0712 153.733 22.2226 153.605 22.3856 153.488C22.5953 153.325 22.8166 153.185 23.0379 153.033C23.2475 152.894 23.4688 152.754 23.6901 152.637V152.625C23.7134 152.182 23.6086 150.807 21.4422 150.364C21.1161 150.294 20.9181 149.991 20.988 149.676C21.0462 149.361 21.3491 149.163 21.6635 149.221C23.8415 149.676 24.6335 150.958 24.8082 152.007C24.8548 152.241 24.8665 152.451 24.8432 152.649Z" fill="white"/>
    <path d="M28.9662 163.655C28.9313 163.713 27.8947 165.264 25.0179 165.264C22.141 165.264 21.1045 163.713 21.0695 163.655C20.953 163.468 20.9414 163.247 21.0462 163.06C21.1394 162.873 21.3374 162.757 21.547 162.757H23.8415V162.85C23.8532 163.025 23.8881 163.188 23.958 163.34C24.0512 163.585 24.2026 163.783 24.4006 163.923C24.5054 163.993 24.6102 164.051 24.7267 164.074C24.8315 164.109 24.948 164.133 25.0644 164.121C25.146 164.121 25.2275 164.098 25.309 164.074C25.4139 164.039 25.5187 163.993 25.6002 163.923C25.7982 163.783 25.9496 163.585 26.0312 163.34C26.101 163.165 26.136 162.967 26.136 162.757H28.477C28.6983 162.757 28.8963 162.873 28.9895 163.06C29.0943 163.247 29.0827 163.468 28.9662 163.655Z" fill="white"/>
    <path d="M42.6981 163.655C42.6631 163.713 41.6265 165.264 38.7497 165.264C35.8729 165.264 34.8363 163.713 34.7897 163.655C34.6733 163.468 34.6733 163.247 34.7664 163.06C34.8713 162.873 35.0693 162.757 35.2789 162.757H37.5617V162.85C37.5734 163.025 37.6083 163.188 37.6782 163.34C37.7714 163.585 37.9344 163.783 38.1324 163.923C38.2256 163.993 38.3304 164.039 38.4469 164.074C38.5634 164.109 38.6798 164.133 38.7963 164.121C38.8778 164.121 38.9594 164.098 39.0409 164.074C39.1457 164.039 39.2389 163.993 39.3321 163.923C39.5184 163.795 39.6698 163.585 39.763 163.34C39.8329 163.165 39.8678 162.967 39.8562 162.757H42.2089C42.4302 162.757 42.6165 162.873 42.7214 163.06C42.8262 163.247 42.8145 163.468 42.6981 163.655Z" fill="white"/>
    <path d="M49.0574 168.843C49.2205 167.689 49.5233 163.177 45.5283 157.674C45.8428 156.321 47.0075 150.585 43.6066 148.113C40.159 145.595 35.9079 149.571 34.8596 150.643C33.2873 150.352 32.1808 150.41 31.9129 150.422C31.6334 150.399 30.4105 150.352 28.7217 150.678C27.7433 149.676 23.4223 145.56 19.9281 148.113C16.1428 150.865 18.0064 157.662 18.0879 157.953H18.1112C16.038 160.868 15.1878 163.503 14.8617 165.473C14.7452 165.473 14.6287 165.485 14.5239 165.485C14.4307 165.497 14.3492 165.508 14.256 165.52C14.0347 165.555 13.8251 165.59 13.6154 165.66C13.4291 165.707 13.2544 165.777 13.0913 165.846C13.068 165.858 13.0447 165.87 13.0214 165.881C12.8351 165.975 12.6487 166.08 12.474 166.196C12.3226 166.301 12.1712 166.406 12.0314 166.534C11.9965 166.558 11.9616 166.593 11.9266 166.628C11.7985 166.756 11.6704 166.896 11.5539 167.036C11.5423 167.047 11.5306 167.059 11.519 167.082C11.484 167.106 11.4607 167.141 11.4374 167.176C11.4258 167.199 11.4141 167.211 11.4025 167.234C11.3909 167.257 11.3792 167.281 11.3676 167.292C11.3559 167.304 11.3559 167.327 11.3443 167.339C11.1346 167.619 10.9716 167.922 10.8201 168.248C9.95827 170.23 10.7619 172.853 10.8085 172.993L11.9616 176.001C11.6121 177.925 11.5073 180.198 11.8567 182.798C12.9283 190.843 19.8466 194.236 21.5471 194.947C21.8383 196.381 23.0379 198.619 26.0195 198.619C27.4521 198.619 28.512 198.235 29.1875 197.488C29.5602 197.069 29.7466 196.614 29.8281 196.229C30.3522 196.241 30.8764 196.253 31.4005 196.253C32.2856 196.253 33.1592 196.229 33.9978 196.183C34.0793 196.567 34.254 197.045 34.6384 197.488C35.3139 198.235 36.3854 198.619 37.818 198.619C40.788 198.619 41.9876 196.381 42.2788 194.947C43.8978 194.271 50.886 190.89 51.9692 182.798C53.029 174.835 49.8494 169.915 49.0574 168.843ZM16.0846 170.172C16.0147 170.219 15.9565 170.277 15.9216 170.347L12.3809 167.863C12.4041 167.84 12.4158 167.817 12.4391 167.794C12.509 167.689 12.5905 167.607 12.6837 167.514C12.7303 167.467 12.7885 167.42 12.8467 167.374C13.0331 167.199 13.2427 167.059 13.4757 166.954C13.5456 166.919 13.6038 166.896 13.6737 166.872C13.7319 166.837 13.7901 166.814 13.8484 166.803C13.9299 166.779 14.0114 166.756 14.1046 166.733C14.3026 166.686 14.5006 166.651 14.7219 166.651C14.7918 166.639 14.8617 166.639 14.9316 166.639C15.0713 166.639 15.1994 166.651 15.3276 166.686C15.5372 166.721 15.7236 166.803 15.8983 166.907C16.5039 167.269 16.8766 167.91 16.9931 168.365C17.1678 169.053 17.0746 169.519 16.0846 170.172ZM38.7963 151.903C38.9943 150.877 39.798 149.652 41.9061 149.221C42.2206 149.163 42.535 149.361 42.5933 149.676C42.6632 149.991 42.4535 150.294 42.139 150.364C40.1241 150.772 39.9028 151.973 39.8912 152.485C40.4852 152.812 41.0792 153.197 41.6848 153.663C41.9527 153.873 42.2089 154.083 42.4652 154.293C42.535 154.351 42.5933 154.409 42.6515 154.456C42.966 154.724 43.2688 155.015 43.5716 155.33C43.7929 155.563 43.7929 155.937 43.56 156.158L43.5483 156.17C43.4319 156.263 43.3038 156.321 43.1523 156.321C43.0009 156.321 42.8495 156.263 42.7447 156.146C42.6748 156.076 42.6166 156.018 42.5467 155.96C42.4069 155.82 42.2672 155.68 42.1158 155.552C41.976 155.412 41.8246 155.284 41.6732 155.167C41.5334 155.027 41.3936 154.911 41.2422 154.806C40.951 154.584 40.6599 154.363 40.3687 154.164C40.0775 153.966 39.7863 153.791 39.4952 153.616C39.3554 153.511 39.204 153.43 39.0526 153.348C38.9012 153.267 38.7963 153.115 38.7614 152.94C38.7498 152.905 38.7498 152.87 38.7498 152.835C38.7381 152.742 38.7265 152.637 38.7265 152.52C38.7265 152.334 38.7381 152.124 38.7963 151.903ZM34.7665 163.06C34.8713 162.873 35.0693 162.757 35.2789 162.757H37.5618V162.85C37.5734 163.025 37.6083 163.188 37.6782 163.34C37.7714 163.585 37.9345 163.783 38.1325 163.923C38.2256 163.993 38.3305 164.039 38.4469 164.074C38.5634 164.109 38.6799 164.133 38.7963 164.121C38.8779 164.121 38.9594 164.098 39.0409 164.074C39.1458 164.039 39.2389 163.993 39.3321 163.923C39.5185 163.795 39.6699 163.585 39.7631 163.34C39.8329 163.165 39.8679 162.967 39.8562 162.757H42.2089C42.4302 162.757 42.6166 162.873 42.7214 163.06C42.8262 163.247 42.8146 163.468 42.6981 163.655C42.6632 163.713 41.6266 165.264 38.7498 165.264C35.8729 165.264 34.8364 163.713 34.7898 163.655C34.6733 163.468 34.6733 163.247 34.7665 163.06ZM30.2824 167.77C30.3406 168.097 30.5735 168.388 30.9346 168.575C31.1908 168.703 31.4937 168.773 31.8081 168.785H31.9013C31.9479 168.785 32.0061 168.784 32.0527 168.773C32.2274 168.761 32.4021 168.738 32.5652 168.68C32.9262 168.598 33.2291 168.423 33.4271 168.19C33.5319 168.073 33.6134 167.933 33.66 167.782C33.7066 167.665 33.7182 167.549 33.7066 167.42C33.7066 167.327 33.6833 167.234 33.6484 167.152C33.5901 166.977 33.4736 166.803 33.3222 166.674C34.0094 166.371 34.9645 166.173 36.2224 166.231C36.9095 166.231 37.4569 166.488 37.9461 166.966C38.5401 167.56 38.9128 168.481 38.9128 169.379C38.9128 170.393 38.61 171.256 38.0509 171.804C37.5851 172.27 36.9212 172.527 36.1758 172.515C36.0127 172.527 35.8496 172.527 35.6866 172.527C33.7182 172.527 32.6118 171.816 32.076 171.291C31.4005 171.792 30.096 172.574 28.3606 172.504C25.2858 172.364 25.0528 170.079 25.0528 169.379C25.0528 168.983 25.2042 168.237 25.6934 167.572C26.1942 166.907 27.0095 166.324 28.3606 166.266C29.2807 166.22 30.0844 166.418 30.7366 166.686C30.5502 166.814 30.4105 166.989 30.3406 167.176C30.2707 167.315 30.2358 167.467 30.2474 167.63C30.2474 167.677 30.2591 167.724 30.2824 167.77ZM25.3091 164.074C25.4139 164.039 25.5187 163.993 25.6002 163.923C25.7982 163.783 25.9497 163.585 26.0312 163.34C26.1011 163.165 26.136 162.967 26.136 162.757H28.4771C28.6984 162.757 28.8964 162.873 28.9895 163.06C29.0944 163.247 29.0827 163.468 28.9662 163.655C28.9313 163.713 27.8947 165.264 25.0179 165.264C22.1411 165.264 21.1045 163.713 21.0695 163.655C20.9531 163.468 20.9414 163.247 21.0463 163.06C21.1394 162.873 21.3374 162.757 21.5471 162.757H23.8415V162.85C23.8532 163.025 23.8881 163.188 23.958 163.34C24.0512 163.585 24.2026 163.783 24.4006 163.923C24.5054 163.993 24.6102 164.051 24.7267 164.074C24.8315 164.109 24.948 164.133 25.0645 164.121C25.146 164.121 25.2275 164.098 25.3091 164.074ZM20.5221 155.085C20.5454 155.05 20.5804 155.015 20.6037 154.992C20.8133 154.794 21.023 154.596 21.2443 154.409C21.4655 154.223 21.6752 154.036 21.9081 153.861C22.0595 153.721 22.2226 153.605 22.3857 153.488C22.5953 153.325 22.8166 153.185 23.0379 153.033C23.2592 152.882 23.4688 152.742 23.6901 152.625C23.7134 152.182 23.6086 150.807 21.4423 150.364C21.1161 150.294 20.9181 149.991 20.988 149.676C21.0463 149.361 21.3491 149.163 21.6635 149.221C23.8415 149.676 24.6335 150.958 24.8082 152.007C24.8548 152.241 24.8665 152.451 24.8432 152.649C24.8432 152.754 24.8315 152.847 24.8199 152.94C24.8082 152.987 24.7966 153.033 24.7733 153.068C24.7617 153.243 24.6685 153.407 24.5054 153.511H24.4938C24.2958 153.616 24.1094 153.733 23.9231 153.861C23.8881 153.873 23.8532 153.896 23.8183 153.931C23.7018 154.001 23.5853 154.071 23.4688 154.153C23.4572 154.164 23.4455 154.176 23.4455 154.176C23.2592 154.293 23.0728 154.433 22.8865 154.572C22.374 154.957 21.8848 155.377 21.4073 155.832C21.3025 155.937 21.1511 155.995 21.0113 155.995C20.8483 155.995 20.7085 155.936 20.6037 155.82H20.592C20.394 155.622 20.3707 155.307 20.5221 155.085ZM28.7333 195.553C28.7333 195.553 28.7333 195.576 28.7333 195.6C28.7333 195.693 28.7217 195.915 28.6285 196.171C28.5702 196.346 28.4771 196.532 28.314 196.719C27.8714 197.209 27.0911 197.454 26.0195 197.454C24.0628 197.454 23.2359 196.229 22.8865 195.355C22.7817 195.087 22.7234 194.842 22.6885 194.69C22.6768 194.655 22.6768 194.632 22.6768 194.609L28.7449 195.425C28.7333 195.472 28.7333 195.506 28.7333 195.553ZM41.1374 194.725C41.1025 194.889 41.0442 195.122 40.9394 195.378C40.59 196.253 39.7631 197.454 37.818 197.454C36.7348 197.454 35.9661 197.209 35.5235 196.719C35.3488 196.521 35.244 196.311 35.1858 196.124C35.0809 195.821 35.0926 195.576 35.1042 195.553C35.1042 195.506 35.1042 195.46 35.0926 195.413L41.1607 194.609C41.149 194.644 41.149 194.679 41.1374 194.725ZM47.7879 183.941C47.7063 184.034 46.6465 185.282 45.2605 186.109H45.2488C45.0625 186.214 44.8878 186.308 44.7247 186.389C44.5849 186.448 44.4568 186.506 44.317 186.564C44.1656 186.622 44.0142 186.669 43.8745 186.704C43.7347 186.739 43.5833 186.774 43.4435 186.786C43.2921 186.809 43.1523 186.821 43.0009 186.821C42.8495 186.821 42.7098 186.809 42.57 186.786C42.4419 186.774 42.3254 186.739 42.2089 186.704C42.1041 186.681 41.9993 186.646 41.8945 186.599C41.7198 186.518 41.5683 186.436 41.4286 186.343C41.2655 186.238 41.1141 186.109 40.9743 185.958C40.788 185.771 40.6366 185.562 40.5201 185.293C40.4735 185.2 40.4269 185.084 40.4036 184.967C40.392 184.955 40.3803 184.932 40.3803 184.909C40.3803 184.897 40.3803 184.897 40.3803 184.885C40.357 184.815 40.3454 184.734 40.3338 184.652C40.2755 184.372 40.2755 184.058 40.3338 183.696C40.3687 183.44 40.4386 183.16 40.5434 182.857C40.5667 182.752 40.6133 182.647 40.6599 182.542C40.7414 182.332 40.8462 182.099 40.9627 181.866C41.9061 179.977 43.5833 178.263 43.8512 177.995C44.0725 177.762 44.4452 177.762 44.6665 177.995C44.8994 178.216 44.8994 178.59 44.6665 178.823C44.0492 179.441 42.768 180.898 42.0226 182.32C42.0226 182.332 42.0226 182.332 42.0109 182.344C42.0109 182.355 42.0109 182.379 41.9993 182.39C41.9643 182.449 41.9411 182.507 41.9178 182.565L44.5267 185.177C44.5733 185.153 44.6082 185.13 44.6548 185.107C44.6665 185.107 44.6665 185.095 44.6781 185.095C45.8778 184.372 46.8677 183.218 46.891 183.195C47.1007 182.95 47.4618 182.915 47.7063 183.113C47.9626 183.323 47.9859 183.696 47.7879 183.941ZM48.9759 169.239C48.9293 169.344 48.8827 169.449 48.8245 169.542C48.7313 169.729 48.6265 169.927 48.51 170.114C46.4368 173.553 41.545 176.817 34.4171 177.482C35.1741 178.193 35.64 179.196 35.64 180.303C35.64 182.437 33.9046 184.174 31.7732 184.174C29.6301 184.174 27.8947 182.437 27.8947 180.303C27.8947 179.219 28.3373 178.24 29.0711 177.54C21.2908 177.132 18.5188 175.069 18.3907 174.975C18.1345 174.777 18.0879 174.416 18.2859 174.159C18.4839 173.903 18.845 173.856 19.1012 174.043C19.1594 174.089 22.4323 176.433 31.7732 176.433C40.3687 176.433 46.1223 172.504 47.881 168.831C47.8927 168.808 47.9043 168.773 47.916 168.75C48.0208 168.516 48.2654 168.388 48.51 168.423C48.5682 168.423 48.6265 168.446 48.6847 168.47C48.9759 168.598 49.104 168.948 48.9759 169.239Z" fill="#21232E"/>
    <path d="M16.0846 170.172C16.0147 170.219 15.9565 170.277 15.9216 170.347L12.3809 167.863C12.4042 167.84 12.4158 167.817 12.4391 167.794C12.509 167.689 12.5905 167.607 12.6837 167.514C12.7303 167.467 12.7885 167.42 12.8467 167.374C13.0331 167.199 13.2427 167.059 13.4757 166.954C13.5456 166.919 13.6038 166.896 13.6737 166.872C13.7319 166.837 13.7902 166.814 13.8484 166.803C13.9299 166.779 14.0114 166.756 14.1046 166.733C14.3026 166.686 14.5006 166.651 14.7219 166.651C14.7918 166.639 14.8617 166.639 14.9316 166.639C15.0713 166.639 15.1994 166.651 15.3276 166.686C15.5372 166.721 15.7236 166.803 15.8983 166.907C16.5039 167.269 16.8766 167.91 16.9931 168.365C17.1678 169.053 17.0746 169.519 16.0846 170.172Z" fill="white"/>
    <path d="M114.595 151.681H69.7891V162.908H114.595V151.681Z" fill="#FFC980"/>
    <path d="M110.286 164.074L105.371 191.158H80.155L74.1218 164.074H110.286Z" fill="#FFC980"/>
    <path d="M110.076 192.324L107.817 197.325H76.5676L74.3081 192.324H110.076Z" fill="#E8B679"/>
    <path d="M116.843 130.24C116.133 129.156 115.201 128.538 114.048 128.398C111.94 128.142 109.68 129.576 108.539 130.439C108.481 129.098 108.154 126.183 106.466 124.656C105.604 123.875 104.509 123.572 103.239 123.747C101.108 124.026 100.817 125.204 100.828 125.88C100.875 127.909 103.868 130.614 106.71 131.465C105.534 132.141 104.486 132.969 103.531 133.855C103.542 133.855 103.554 133.843 103.566 133.843C103.542 133.855 103.519 133.878 103.496 133.89C103.484 133.901 103.472 133.913 103.461 133.925C103.426 133.936 103.402 133.971 103.379 133.995C97.5556 139.556 95.5989 148.323 95.1913 150.515H92.4542C93.3045 146.19 97.2645 123.991 91.7787 113.627C92.3611 113.312 93.0366 112.717 93.8169 111.831C95.4359 110.001 95.7271 106.923 95.0632 105.011C94.7021 103.95 94.0615 103.285 93.2695 103.145C92.3611 102.971 91.3827 103.495 90.3927 104.684C89.228 106.083 88.6806 107.366 88.4942 108.497C87.6091 107.984 86.4676 107.599 84.9652 107.471C83.4161 107.343 82.3679 107.669 81.8438 108.439C81.3895 109.103 81.4128 110.024 81.902 111.027C82.7988 112.846 85.1748 114.816 87.6091 114.956C87.9235 114.967 88.2031 114.979 88.4709 114.979C89.6123 114.979 90.416 114.816 90.9052 114.489C96.0066 124.738 91.9418 147.052 91.2662 150.515H87.1082C87.1665 148.347 86.9452 139.964 80.9469 135.813C82.9502 135.056 84.8836 134.03 84.8371 132.934C84.8021 132.013 83.5908 131.721 83.1948 131.628C81.8671 131.313 80.8072 131.488 80.0618 132.164C79.2931 132.852 79.0601 133.925 79.0135 134.717C78.1051 134.309 77.0918 133.983 75.962 133.761C77.2082 131.511 80.0618 125.903 78.6758 123.886C78.373 123.455 77.744 122.977 76.4745 123.175C74.4363 123.513 73.0968 124.399 72.4795 125.822C71.4895 128.13 72.7591 131.243 73.7025 133.05C72.1534 132.665 69.9987 132.537 68.9621 134.438C68.0187 136.163 67.844 137.842 68.4846 138.915C68.7874 139.439 69.2533 139.731 69.7774 139.731C70.7441 139.731 73.3414 137.131 75.4379 134.857C76.8588 135.091 78.14 135.522 79.2814 136.14C79.2931 136.151 79.3047 136.151 79.3164 136.163C79.328 136.163 79.328 136.175 79.3397 136.175C81.9952 137.62 83.8937 140.057 84.9885 143.473C85.9552 146.504 85.9785 149.443 85.9435 150.515H69.2067C68.8806 150.515 68.6244 150.772 68.6244 151.098V163.491C68.6244 163.818 68.8806 164.074 69.2067 164.074H72.9338L78.9553 191.158H73.3997C73.2017 191.158 73.0153 191.251 72.9105 191.426C72.8057 191.589 72.7824 191.799 72.8639 191.974L75.6592 198.153C75.764 198.363 75.962 198.491 76.195 198.491H108.189C108.422 198.491 108.62 198.363 108.725 198.153L111.52 191.974C111.602 191.799 111.579 191.589 111.474 191.426C111.369 191.251 111.183 191.158 110.985 191.158H106.559L111.474 164.074H115.178C115.504 164.074 115.76 163.818 115.76 163.491V151.098C115.76 150.772 115.504 150.515 115.178 150.515H96.3909C96.8335 148.277 98.6388 140.815 103.391 135.662C103.798 137.842 105.243 139.253 106.617 139.276C106.629 139.276 106.629 139.276 106.64 139.276C107.502 139.276 108.504 138.646 108.562 136.851C108.585 135.767 108.259 134.939 107.572 134.379C106.978 133.89 106.221 133.715 105.534 133.668C106.291 133.074 107.106 132.537 107.98 132.094C109.505 133.423 112.021 134.204 114.083 134.204C115.201 134.204 116.191 133.971 116.808 133.458C117.332 133.027 118.019 132.036 116.843 130.24ZM90.1015 113.603C89.7871 113.72 89.1232 113.872 87.6789 113.79C85.6989 113.673 83.6724 111.994 82.9502 110.514C82.6474 109.908 82.6008 109.395 82.7988 109.091C83.0201 108.777 83.5559 108.613 84.3362 108.613C84.4993 108.613 84.6857 108.625 84.872 108.637C86.5142 108.777 87.644 109.255 88.436 109.849C88.6922 110.036 88.9135 110.246 89.0999 110.444C89.8686 111.295 90.1015 112.216 90.1831 112.694C90.2064 112.881 90.218 112.997 90.218 113.02C90.218 113.125 90.2529 113.242 90.3112 113.324C90.3228 113.359 90.3461 113.428 90.3345 113.452C90.3345 113.452 90.2879 113.522 90.1015 113.603ZM89.5891 109.301C89.6123 108.229 90.0316 106.911 91.2779 105.431C91.9534 104.626 92.6173 104.206 93.0599 104.288C93.4209 104.358 93.7471 104.754 93.9683 105.396C94.5041 106.958 94.2712 109.569 92.955 111.062C92.198 111.924 91.6622 112.333 91.3361 112.542C91.208 111.843 90.8353 110.455 89.5891 109.301ZM69.7774 138.565C69.6843 138.565 69.5678 138.483 69.4863 138.32C69.1601 137.795 69.1019 136.606 69.9871 134.986C70.4064 134.228 71.1751 133.983 71.9787 133.983C72.794 133.983 73.6443 134.228 74.2266 134.438C72.3747 136.431 70.2666 138.437 69.7774 138.565ZM75.0302 133.039C74.1917 131.546 72.6543 128.375 73.5511 126.288C74.0053 125.25 75.0419 124.598 76.6608 124.329C76.8239 124.306 76.952 124.294 77.0685 124.294C77.5344 124.294 77.6625 124.481 77.7207 124.551C78.4894 125.682 76.7307 129.914 75.0302 133.039ZM80.8421 133.027C81.1333 132.77 81.5177 132.642 82.0068 132.642C82.2864 132.642 82.5892 132.677 82.9269 132.759C83.3579 132.864 83.5559 132.969 83.6491 133.027C83.3579 133.447 81.8787 134.216 80.1782 134.857C80.2132 134.239 80.3646 133.458 80.8421 133.027ZM110.076 192.324L107.817 197.325H76.5677L74.3081 192.324H110.076ZM105.371 191.158H80.1549L74.1218 164.074H110.286L105.371 191.158ZM114.595 151.681V162.908H69.7891V151.681H114.595ZM106.838 135.277C107.234 135.604 107.409 136.105 107.397 136.816C107.386 137.212 107.258 138.157 106.629 138.11C105.907 138.098 104.614 136.968 104.451 134.846C105.138 134.764 106.209 134.764 106.838 135.277ZM101.993 125.857C101.993 125.67 101.982 125.087 103.402 124.901C103.577 124.877 103.74 124.866 103.903 124.866C104.602 124.866 105.196 125.076 105.685 125.519C107.025 126.72 107.316 129.226 107.374 130.427C104.882 129.844 102.028 127.302 101.993 125.857ZM116.063 132.561C114.956 133.482 111.171 132.992 109.086 131.488C110.03 130.753 112.114 129.331 113.896 129.553C114.712 129.658 115.352 130.089 115.865 130.87C116.657 132.071 116.214 132.444 116.063 132.561Z" fill="#21232E"/>
    <path d="M168.102 194.049L166.576 197.43H143.771L142.234 194.049H168.102Z" fill="#E8B679"/>
    <path d="M169.499 193.151C169.395 192.988 169.208 192.883 169.01 192.883H165.889L169.581 163.608C169.604 163.445 169.558 163.282 169.441 163.153C169.336 163.025 169.173 162.955 169.01 162.955H164.433C164.503 161.929 164.619 160.005 164.678 157.709L166.203 156.181C166.425 155.96 166.425 155.587 166.203 155.365C165.97 155.132 165.609 155.132 165.376 155.365L164.712 156.03C164.724 155.225 164.724 154.398 164.712 153.558L165.644 152.625C165.866 152.404 165.866 152.031 165.644 151.809C165.411 151.576 165.039 151.576 164.817 151.809L164.678 151.949C164.596 149.827 164.433 147.74 164.107 145.968L165.167 144.907C165.388 144.674 165.388 144.313 165.167 144.079C164.934 143.858 164.573 143.858 164.34 144.079L163.816 144.604C163.653 143.94 163.443 143.345 163.21 142.844L164.538 141.526C164.759 141.293 164.759 140.92 164.538 140.698C164.305 140.465 163.944 140.465 163.711 140.698L162.581 141.829C162.558 141.806 162.534 141.771 162.511 141.748C162.069 141.258 161.544 141.013 160.95 141.013C160.391 141.013 159.891 141.176 159.425 141.515C159.332 139.917 159.18 138.355 158.982 136.898L160.589 135.289C160.811 135.067 160.811 134.694 160.589 134.473C160.356 134.239 159.995 134.239 159.762 134.473L158.784 135.452C158.633 134.508 158.446 133.622 158.248 132.794L160.31 130.73C160.531 130.509 160.531 130.136 160.31 129.902C160.077 129.681 159.716 129.681 159.483 129.902L157.887 131.5C157.491 130.275 157.037 129.249 156.478 128.515L157.037 127.955C157.258 127.734 157.258 127.361 157.037 127.128C156.804 126.906 156.431 126.906 156.21 127.128L155.663 127.687H155.651C155.115 127.279 154.521 127.081 153.892 127.081C152.739 127.081 151.703 127.571 150.829 128.527C150.445 128.946 150.107 129.448 149.793 130.031L148.686 128.923C148.453 128.69 148.092 128.69 147.859 128.923C147.638 129.145 147.638 129.518 147.859 129.751L149.257 131.15C148.872 132.094 148.546 133.167 148.267 134.333L147.58 133.645C147.358 133.412 146.986 133.412 146.753 133.645C146.531 133.866 146.531 134.239 146.753 134.473L147.976 135.697C147.545 137.947 147.277 140.465 147.125 143.053L146.473 142.401C146.252 142.167 145.879 142.167 145.658 142.401C145.425 142.622 145.425 142.995 145.658 143.228L147.044 144.616C146.974 146.166 146.939 147.717 146.939 149.233L145.367 147.67C145.145 147.437 144.773 147.437 144.551 147.67C144.319 147.892 144.319 148.265 144.551 148.486L146.753 150.702C146.811 150.76 146.881 150.807 146.951 150.83C146.997 156.461 147.382 161.311 147.521 162.955H141.337C141.162 162.955 140.999 163.037 140.894 163.165C140.778 163.293 140.731 163.456 140.755 163.631L145.285 192.883H141.337C141.139 192.883 140.953 192.988 140.848 193.151C140.731 193.326 140.72 193.536 140.801 193.711L142.863 198.258C142.956 198.468 143.165 198.596 143.387 198.596H166.949C167.182 198.596 167.391 198.468 167.484 198.258L169.534 193.711C169.616 193.536 169.604 193.326 169.499 193.151ZM158.982 144.103C159.134 143.718 159.308 143.38 159.518 143.1C159.588 142.972 159.681 142.867 159.774 142.762C160.124 142.366 160.52 142.179 160.95 142.179C161.114 142.179 161.358 142.214 161.661 142.541C161.696 142.575 161.719 142.61 161.754 142.645L161.498 142.902C161.277 143.135 161.277 143.508 161.498 143.73C161.614 143.846 161.766 143.905 161.917 143.905C162.069 143.905 162.208 143.846 162.325 143.73L162.336 143.718C162.546 144.231 162.709 144.861 162.861 145.572L162.138 146.295C161.906 146.516 161.906 146.889 162.138 147.122C162.243 147.227 162.395 147.286 162.546 147.286C162.698 147.286 162.837 147.227 162.954 147.122L163.094 146.983C163.175 147.507 163.233 148.055 163.28 148.626C163.163 148.638 163.07 148.696 162.989 148.778L160.776 150.981C160.543 151.215 160.543 151.576 160.776 151.809C160.892 151.926 161.032 151.972 161.183 151.972C161.335 151.972 161.486 151.926 161.603 151.809L163.396 150.014C163.455 151.016 163.501 152.054 163.513 153.103L162.604 154.013C162.383 154.246 162.383 154.619 162.604 154.841C162.721 154.957 162.872 155.015 163.024 155.015C163.163 155.015 163.315 154.957 163.431 154.841L163.536 154.736C163.548 155.575 163.536 156.414 163.513 157.219L162.604 158.128C162.383 158.362 162.383 158.735 162.604 158.956C162.721 159.073 162.872 159.131 163.024 159.131C163.163 159.131 163.315 159.073 163.431 158.956L163.466 158.921C163.42 160.472 163.35 161.871 163.268 162.955H158.004V162.908H157.969C157.911 162.209 157.852 161.393 157.794 160.472C157.864 160.507 157.934 160.518 158.004 160.518C158.05 160.518 158.109 160.507 158.155 160.483C158.26 160.472 158.342 160.425 158.423 160.343C158.644 160.11 158.644 159.749 158.423 159.516L157.724 158.816C157.666 157.394 157.631 155.832 157.654 154.258L158.388 155.004L158.97 155.575V155.587L159.53 156.146L159.611 156.228C159.728 156.345 159.879 156.403 160.03 156.403C160.182 156.403 160.322 156.345 160.438 156.228C160.671 155.995 160.671 155.633 160.438 155.4L157.689 152.649C157.701 151.996 157.736 151.343 157.771 150.713C157.887 150.818 158.015 150.877 158.167 150.877C158.272 150.877 158.376 150.853 158.47 150.772C158.516 150.76 158.551 150.737 158.586 150.702C158.807 150.468 158.807 150.107 158.586 149.874L158.481 149.769L157.899 149.198V149.186C158.027 147.95 158.202 146.819 158.446 145.817C158.586 145.175 158.772 144.592 158.982 144.103ZM148.174 145.583C148.209 145.607 148.244 145.607 148.278 145.607C148.418 145.607 148.57 145.548 148.686 145.432C148.907 145.21 148.907 144.837 148.686 144.616L148.232 144.161C148.29 142.925 148.36 141.713 148.477 140.535L150.433 142.482C150.55 142.599 150.701 142.657 150.841 142.657C150.992 142.657 151.144 142.599 151.26 142.482C151.481 142.261 151.481 141.888 151.26 141.666L149.047 139.451C148.931 139.334 148.768 139.276 148.605 139.299C148.698 138.39 148.826 137.516 148.966 136.676C149.082 136.793 149.234 136.851 149.373 136.851C149.525 136.851 149.676 136.793 149.793 136.676C150.014 136.455 150.014 136.082 149.793 135.848L149.222 135.289V135.277C149.478 134.065 149.781 132.98 150.142 132.024L150.631 132.514C150.748 132.631 150.899 132.689 151.039 132.689C151.19 132.689 151.342 132.631 151.458 132.514C151.679 132.292 151.679 131.919 151.458 131.698L150.655 130.893C150.957 130.275 151.307 129.739 151.691 129.319C152.343 128.597 153.065 128.247 153.892 128.247C154.218 128.247 154.521 128.34 154.812 128.527L153.997 129.343C153.776 129.576 153.776 129.937 153.997 130.171C154.114 130.287 154.265 130.334 154.416 130.334C154.556 130.334 154.708 130.287 154.824 130.171L155.639 129.354C156.664 130.777 157.352 133.342 157.782 136.443L156.99 137.236C156.769 137.469 156.769 137.842 156.99 138.064C157.107 138.18 157.258 138.238 157.41 138.238C157.561 138.238 157.701 138.18 157.817 138.064L157.969 137.912C158.074 138.856 158.155 139.836 158.225 140.838C158.318 140.99 158.33 141.165 158.26 141.328V141.34C158.283 141.818 158.318 142.307 158.33 142.785C157.596 144.068 157.13 145.98 156.851 148.148L156.373 147.67C156.14 147.437 155.779 147.437 155.546 147.67C155.325 147.892 155.325 148.265 155.546 148.486L156.699 149.641C156.455 152.299 156.443 155.167 156.525 157.615L155.651 156.741C155.418 156.519 155.057 156.519 154.824 156.741C154.603 156.974 154.603 157.347 154.824 157.569L156.583 159.329C156.653 160.938 156.746 162.232 156.816 162.943L148.686 162.873C148.511 160.845 147.929 153.185 148.174 145.583ZM142.012 164.121H158.551C158.609 164.121 158.668 164.109 158.714 164.086L163.804 164.121H168.346L164.724 192.883H146.462L142.012 164.121ZM166.576 197.43H143.771L142.234 194.049H168.102L166.576 197.43Z" fill="#21232E"/>
    <path d="M158.598 162.908H158.004V162.955H158.598V162.908Z" fill="#14AABA"/>
    <path d="M155.546 147.67C155.325 147.892 155.325 148.265 155.546 148.487L156.699 149.641C156.455 152.299 156.443 155.167 156.525 157.615L155.651 156.741C155.418 156.519 155.057 156.519 154.824 156.741C154.603 156.974 154.603 157.347 154.824 157.569L156.583 159.329C156.653 160.938 156.746 162.232 156.816 162.943L148.686 162.873C148.511 160.845 147.929 153.185 148.174 145.583C148.209 145.607 148.243 145.607 148.278 145.607C148.418 145.607 148.57 145.548 148.686 145.432C148.907 145.21 148.907 144.837 148.686 144.616L148.232 144.161C148.29 142.925 148.36 141.713 148.476 140.535L150.433 142.482C150.55 142.599 150.701 142.657 150.841 142.657C150.992 142.657 151.144 142.599 151.26 142.482C151.481 142.261 151.481 141.888 151.26 141.666L149.047 139.451C148.931 139.334 148.768 139.276 148.605 139.299C148.698 138.39 148.826 137.516 148.966 136.676C149.082 136.793 149.233 136.851 149.373 136.851C149.525 136.851 149.676 136.793 149.793 136.676C150.014 136.455 150.014 136.082 149.793 135.848L149.222 135.289V135.277C149.478 134.065 149.781 132.98 150.142 132.024L150.631 132.514C150.748 132.631 150.899 132.689 151.039 132.689C151.19 132.689 151.342 132.631 151.458 132.514C151.679 132.292 151.679 131.919 151.458 131.698L150.654 130.893C150.957 130.275 151.307 129.739 151.691 129.319C152.343 128.597 153.065 128.247 153.892 128.247C154.218 128.247 154.521 128.34 154.812 128.527L153.997 129.343C153.776 129.576 153.776 129.937 153.997 130.171C154.114 130.287 154.265 130.334 154.416 130.334C154.556 130.334 154.708 130.287 154.824 130.171L155.639 129.354C156.664 130.777 157.351 133.342 157.782 136.443L156.99 137.236C156.769 137.469 156.769 137.842 156.99 138.064C157.107 138.18 157.258 138.238 157.41 138.238C157.561 138.238 157.701 138.18 157.817 138.064L157.969 137.912C158.074 138.856 158.155 139.836 158.225 140.838C158.318 140.99 158.33 141.165 158.26 141.328V141.34C158.283 141.818 158.318 142.307 158.33 142.785C157.596 144.068 157.13 145.98 156.851 148.148L156.373 147.67C156.14 147.437 155.779 147.437 155.546 147.67Z" fill="#14AABA"/>
    <path d="M158.225 140.838C158.237 141.002 158.248 141.165 158.26 141.328C158.33 141.165 158.318 140.99 158.225 140.838ZM158.598 162.908H158.004V162.955H159.18V162.92L158.598 162.908Z" fill="#21232E"/>
    <path d="M162.604 158.128C162.383 158.362 162.383 158.735 162.604 158.956C162.721 159.073 162.872 159.131 163.024 159.131C163.163 159.131 163.315 159.073 163.431 158.956L163.466 158.921C163.42 160.472 163.35 161.871 163.268 162.955L159.18 162.92L158.598 162.908H157.969C157.911 162.209 157.852 161.393 157.794 160.472C157.864 160.507 157.934 160.518 158.004 160.518C158.05 160.518 158.109 160.507 158.155 160.483C158.26 160.472 158.342 160.425 158.423 160.343C158.644 160.11 158.644 159.749 158.423 159.516L157.724 158.816C157.666 157.394 157.631 155.832 157.654 154.258L158.388 155.004L158.971 155.575V155.587L159.53 156.146L159.611 156.228C159.728 156.345 159.879 156.403 160.03 156.403C160.182 156.403 160.322 156.345 160.438 156.228C160.671 155.995 160.671 155.633 160.438 155.4L157.689 152.649C157.701 151.996 157.736 151.343 157.771 150.713C157.887 150.818 158.015 150.877 158.167 150.877C158.272 150.877 158.377 150.853 158.47 150.772C158.516 150.76 158.551 150.737 158.586 150.702C158.807 150.468 158.807 150.107 158.586 149.874L158.481 149.769L157.899 149.198V149.186C158.027 147.95 158.202 146.819 158.446 145.817C158.586 145.175 158.773 144.592 158.982 144.103C159.134 143.718 159.308 143.38 159.518 143.1C159.588 142.972 159.681 142.867 159.774 142.762C160.124 142.366 160.52 142.179 160.951 142.179C161.114 142.179 161.358 142.214 161.661 142.541C161.696 142.575 161.719 142.61 161.754 142.645L161.498 142.902C161.277 143.135 161.277 143.508 161.498 143.73C161.614 143.846 161.766 143.905 161.917 143.905C162.069 143.905 162.208 143.846 162.325 143.73L162.337 143.718C162.546 144.231 162.709 144.861 162.861 145.572L162.139 146.295C161.906 146.516 161.906 146.889 162.139 147.122C162.243 147.227 162.395 147.286 162.546 147.286C162.698 147.286 162.837 147.227 162.954 147.122L163.094 146.983C163.175 147.507 163.233 148.055 163.28 148.626C163.163 148.638 163.07 148.696 162.989 148.778L160.776 150.981C160.543 151.215 160.543 151.576 160.776 151.809C160.892 151.926 161.032 151.972 161.183 151.972C161.335 151.972 161.486 151.926 161.603 151.809L163.396 150.014C163.455 151.016 163.501 152.054 163.513 153.103L162.604 154.013C162.383 154.246 162.383 154.619 162.604 154.841C162.721 154.957 162.872 155.015 163.024 155.015C163.163 155.015 163.315 154.957 163.431 154.841L163.536 154.736C163.548 155.575 163.536 156.414 163.513 157.219L162.604 158.128Z" fill="#14AABA"/>
    <path d="M163.268 162.955H158.004V162.908H158.598L159.18 162.92L163.268 162.955Z" fill="#14AABA"/>
    <path d="M159.18 162.92L158.598 162.908H158.004V162.955H163.268L159.18 162.92ZM159.18 162.92L158.598 162.908H158.004V162.955H163.268L159.18 162.92ZM159.18 162.92L158.598 162.908H158.004V162.955H163.268L159.18 162.92ZM159.18 162.92L158.598 162.908H158.004V162.955H163.268L159.18 162.92ZM159.18 162.92L158.598 162.908H158.004V162.955H163.268L159.18 162.92ZM159.18 162.92L158.598 162.908H158.004V162.955H163.268L159.18 162.92ZM159.18 162.92L158.598 162.908H158.004V162.955H163.268L159.18 162.92ZM159.18 162.92L158.598 162.908H158.004V162.955H163.268L159.18 162.92ZM159.18 162.92L158.598 162.908H158.004V162.955H163.268L159.18 162.92ZM159.18 162.92L158.598 162.908H158.004V162.955H163.268L159.18 162.92Z" fill="#21232E"/>
    <path d="M158.26 141.328V141.34C158.225 141.41 158.19 141.468 158.132 141.526L155.931 143.73C155.814 143.846 155.663 143.905 155.511 143.905C155.372 143.905 155.22 143.846 155.104 143.73C154.882 143.508 154.882 143.135 155.104 142.902L157.317 140.698C157.538 140.465 157.911 140.465 158.132 140.698C158.179 140.745 158.213 140.792 158.225 140.838C158.318 140.99 158.33 141.165 158.26 141.328Z" fill="#21232E"/>
    <path d="M153.03 138.238C152.879 138.238 152.728 138.18 152.623 138.064C152.39 137.83 152.39 137.469 152.623 137.236L155.395 134.461C155.628 134.228 155.989 134.228 156.222 134.461C156.455 134.694 156.455 135.056 156.222 135.289L153.45 138.064C153.322 138.18 153.17 138.238 153.03 138.238Z" fill="#21232E"/>
    <path d="M103.565 133.843C103.542 133.855 103.519 133.878 103.496 133.89C103.507 133.878 103.519 133.866 103.531 133.855C103.542 133.855 103.554 133.843 103.565 133.843Z" fill="#21232E"/>
    <path d="M116.063 132.561C114.956 133.482 111.171 132.992 109.086 131.488C110.03 130.753 112.114 129.331 113.896 129.553C114.712 129.658 115.352 130.089 115.865 130.87C116.657 132.071 116.214 132.444 116.063 132.561Z" fill="#14AABA"/>
    <path d="M103.531 133.855C103.519 133.866 103.507 133.878 103.496 133.89C103.519 133.878 103.542 133.855 103.565 133.843C103.554 133.843 103.542 133.855 103.531 133.855Z" fill="#21232E"/>
    <path d="M107.374 130.427C104.882 129.844 102.028 127.302 101.993 125.857C101.993 125.67 101.982 125.087 103.402 124.901C103.577 124.877 103.74 124.866 103.903 124.866C104.602 124.866 105.196 125.076 105.685 125.519C107.025 126.72 107.316 129.226 107.374 130.427Z" fill="#14AABA"/>
    <path d="M107.397 136.816C107.386 137.212 107.258 138.157 106.629 138.11C105.907 138.098 104.614 136.968 104.451 134.846C105.138 134.764 106.209 134.764 106.838 135.277C107.234 135.604 107.409 136.105 107.397 136.816Z" fill="#14AABA"/>
    <path d="M103.531 133.855C103.519 133.866 103.507 133.878 103.496 133.89C103.519 133.878 103.542 133.855 103.565 133.843C103.554 133.843 103.542 133.855 103.531 133.855Z" fill="#21232E"/>
    <path d="M92.9551 111.062C92.1981 111.925 91.6623 112.333 91.3362 112.542C91.2081 111.843 90.8353 110.455 89.5891 109.301C89.6124 108.229 90.0317 106.911 91.2779 105.431C91.9535 104.626 92.6173 104.206 93.0599 104.288C93.421 104.358 93.7471 104.754 93.9684 105.396C94.5042 106.958 94.2712 109.569 92.9551 111.062Z" fill="#14AABA"/>
    <path d="M90.3345 113.452C90.3345 113.452 90.2879 113.522 90.1016 113.603C89.7871 113.72 89.1232 113.872 87.679 113.79C85.699 113.673 83.6724 111.994 82.9503 110.514C82.6475 109.908 82.6009 109.395 82.7989 109.091C83.0202 108.777 83.556 108.613 84.3363 108.613C84.4994 108.613 84.6857 108.625 84.8721 108.637C86.5143 108.777 87.6441 109.255 88.4361 109.849C88.6923 110.036 88.9136 110.246 89.0999 110.444C89.8687 111.295 90.1016 112.216 90.1831 112.694C90.2064 112.881 90.2181 112.997 90.2181 113.02C90.2181 113.125 90.253 113.242 90.3112 113.324C90.3229 113.359 90.3462 113.428 90.3345 113.452Z" fill="#14AABA"/>
    <path d="M75.0303 133.039C74.1917 131.546 72.6543 128.375 73.5511 126.288C74.0053 125.251 75.0419 124.598 76.6608 124.329C76.8239 124.306 76.952 124.294 77.0685 124.294C77.5344 124.294 77.6625 124.481 77.7207 124.551C78.4894 125.682 76.7307 129.914 75.0303 133.039Z" fill="#14AABA"/>
    <path d="M74.2266 134.438C72.3747 136.431 70.2666 138.437 69.7774 138.565C69.6843 138.565 69.5678 138.483 69.4863 138.32C69.1601 137.795 69.1019 136.606 69.9871 134.986C70.4064 134.228 71.1751 133.983 71.9787 133.983C72.794 133.983 73.6443 134.228 74.2266 134.438Z" fill="#14AABA"/>
    <path d="M83.649 133.027C83.3579 133.447 81.8787 134.216 80.1782 134.857C80.2132 134.239 80.3646 133.458 80.8421 133.027C81.1333 132.77 81.5176 132.642 82.0068 132.642C82.2863 132.642 82.5892 132.677 82.9269 132.759C83.3579 132.864 83.5559 132.969 83.649 133.027Z" fill="#14AABA"/>
    <path d="M202.507 38.8472H205.908C206.549 38.8472 207.073 39.3718 207.073 40.013V81.4601C207.073 82.1013 206.549 82.626 205.908 82.626H202.507C201.867 82.626 201.342 82.1013 201.342 81.4601V40.013C201.342 39.3602 201.855 38.8472 202.507 38.8472Z" fill="white"/>
    <path d="M235.957 6.01593H237.6C238.24 6.01593 238.764 6.54058 238.764 7.18181V48.6172C238.764 49.2584 238.24 49.7831 237.6 49.7831H235.957C235.317 49.7831 234.793 49.2584 234.793 48.6172V7.18181C234.793 6.54058 235.317 6.01593 235.957 6.01593Z" fill="white"/>
    <path d="M251.203 39.7332H252.345C252.985 39.7332 253.51 40.2579 253.51 40.8991V82.3461C253.51 82.9874 252.985 83.512 252.345 83.512H251.203C250.563 83.512 250.039 82.9874 250.039 82.3461V40.8991C250.039 40.2579 250.551 39.7332 251.203 39.7332Z" fill="white"/>
    <path d="M221.107 6.01593H223.251C223.891 6.01593 224.415 6.54058 224.415 7.18181V48.6172C224.415 49.2584 223.891 49.7831 223.251 49.7831H221.107C220.467 49.7831 219.943 49.2584 219.943 48.6172V7.18181C219.943 6.54058 220.467 6.01593 221.107 6.01593Z" fill="white"/>
    <path d="M267.102 13.874L268.103 13.6991C268.732 13.5942 269.338 14.0139 269.454 14.6551L277.805 63.0158C277.91 63.6454 277.491 64.2517 276.85 64.3682L275.849 64.5431C275.22 64.6481 274.614 64.2283 274.498 63.5871L266.147 15.2264C266.042 14.5852 266.473 13.9906 267.102 13.874Z" fill="white"/>
</svg>
