<svg width="306" height="124" viewBox="0 0 306 124" fill="none" xmlns="http://www.w3.org/2000/svg">
    <path d="M29.3451 114.995V120.626C29.3451 121.582 30.1371 122.375 31.0921 122.375H302.096C303.051 122.375 303.843 121.582 303.843 120.626V114.995H29.3451ZM214.673 120.801H201.675V116.93H214.673V120.801Z" fill="#4899EC"/>
    <path d="M304.425 113.829H196.62L168.422 5.9615C167.805 3.00017 165.173 0.85498 162.145 0.85498H9.61501C7.66995 0.85498 5.86465 1.71773 4.64171 3.22172C4.5136 3.38494 4.38548 3.54815 4.28066 3.72303C3.33725 4.11943 2.49867 4.74899 1.83479 5.56511C0.611851 7.06909 0.134321 9.02777 0.541968 10.9515L28.1804 114.517V120.626C28.1804 122.235 29.4965 123.54 31.0922 123.54H302.096C303.691 123.54 305.007 122.235 305.007 120.626V114.412C305.007 114.085 304.74 113.829 304.425 113.829ZM1.67173 10.6833C1.34562 9.13272 1.7416 7.53545 2.7316 6.29962C2.94125 6.04313 3.17419 5.80995 3.43043 5.61175C3.67502 5.39024 3.94291 5.20368 4.22244 5.05212C4.49032 4.8889 4.78149 4.76065 5.07267 4.65572H5.08431C5.63172 4.46918 6.21407 4.36425 6.80807 4.36425H159.338C161.807 4.36425 163.973 6.12475 164.474 8.5731L192.439 113.829H29.2053L1.67173 10.6833ZM303.843 120.626C303.843 121.582 303.051 122.375 302.096 122.375H31.0922C30.1371 122.375 29.3451 121.582 29.3451 120.626V114.995H303.843V120.626Z" fill="#21232E"/>
    <path d="M102.046 67.5317C100.974 68.8142 99.1225 69.4904 96.6883 69.4904C91.2957 69.4904 86.3108 66.3541 84.5637 61.8772H84.5521L84.4473 61.574C84.424 61.5157 84.4007 61.4574 84.389 61.3991C84.2027 60.8628 84.0746 60.2916 83.9814 59.6503L81.3957 49.7403C81.058 48.6444 81.1628 47.5834 81.6753 46.8489C82.0829 46.266 82.7235 45.9279 83.5155 45.8813C85.4489 45.8113 87.592 47.4785 88.2559 49.647L89.0362 52.5851L89.5254 52.5384C90.4222 52.4685 91.4005 52.5268 92.4604 52.76L93.4039 52.9582L92.6118 50.0085C92.2741 48.9242 92.3789 47.8749 92.8914 47.1404C93.3107 46.5342 93.9745 46.196 94.7898 46.1494C96.7465 46.0795 98.9362 47.735 99.6001 49.9035L102.384 60.2915C102.675 61.4574 102.861 62.3785 102.919 63.113L102.931 63.1713C103.257 64.9434 102.943 66.4591 102.046 67.5317Z" fill="#21232E"/>
    <path d="M164.474 8.57311C163.973 6.12476 161.807 4.36426 159.338 4.36426H6.80801C6.21401 4.36426 5.63166 4.46919 5.08425 4.65573H5.07261C4.78143 4.76066 4.49026 4.8889 4.22238 5.05212C3.94285 5.20369 3.67496 5.39024 3.43037 5.61176C3.17414 5.80996 2.94119 6.04313 2.73154 6.29962C1.74154 7.53546 1.34556 9.13272 1.67167 10.6833L29.2053 113.829H192.439L164.474 8.57311ZM102.943 68.2778C101.65 69.8401 99.4835 70.6562 96.6882 70.6562C90.8298 70.6562 85.4023 67.2169 83.4805 62.2969L83.3757 62.0171C83.3407 61.9355 83.3058 61.8538 83.2825 61.7606C83.0729 61.1543 82.9331 60.5247 82.8399 59.8835L80.2776 50.0668C79.835 48.6328 79.998 47.2104 80.7202 46.1844C81.3374 45.2983 82.3042 44.7854 83.4572 44.7154C85.9147 44.5522 88.5586 46.6507 89.3739 49.3206L89.9213 51.3493C90.5037 51.3143 91.1326 51.3609 91.7848 51.4542L91.4937 50.335C91.0627 48.9242 91.2141 47.5018 91.9363 46.4759C92.5652 45.5781 93.5552 45.0535 94.7315 44.9835C97.2124 44.832 99.9028 46.9189 100.718 49.5888L103.502 60.0001C103.816 61.2126 104.003 62.1803 104.084 62.9847C104.457 65.1066 104.061 66.9371 102.943 68.2778Z" fill="#4899EC"/>
    <path d="M102.046 67.5317C100.974 68.8142 99.1224 69.4904 96.6882 69.4904C91.2956 69.4904 86.3107 66.3541 84.5636 61.8772H84.552L84.4472 61.574C84.4239 61.5157 84.4006 61.4574 84.3889 61.3991C84.2026 60.8628 84.0745 60.2916 83.9813 59.6503L81.3956 49.7403C81.0579 48.6444 81.1627 47.5834 81.6752 46.8489C82.0828 46.266 82.7234 45.9279 83.5154 45.8813C85.4488 45.8113 87.5919 47.4785 88.2557 49.647L89.0361 52.5851L89.5253 52.5384C90.4221 52.4685 91.4004 52.5268 92.4603 52.76L93.4038 52.9582L92.6117 50.0085C92.274 48.9242 92.3788 47.8749 92.8913 47.1404C93.3106 46.5342 93.9744 46.196 94.7897 46.1494C96.7464 46.0795 98.9361 47.735 99.6 49.9035L102.384 60.2915C102.675 61.4574 102.861 62.3785 102.919 63.113L102.931 63.1713C103.257 64.9434 102.943 66.4591 102.046 67.5317Z" fill="#4899EC"/>
    <path d="M214.673 116.93H201.675V120.801H214.673V116.93Z" fill="#21232E"/>
    <path d="M102.046 67.5316C100.974 68.8141 99.1226 69.4903 96.6883 69.4903C91.2957 69.4903 86.3108 66.3541 84.5638 61.8771H84.5521L84.4473 61.574C84.424 61.5157 84.4007 61.4574 84.389 61.3991C84.2027 60.8628 84.0746 60.2915 83.9814 59.6503L81.3957 49.7403C81.058 48.6443 81.1628 47.5834 81.6753 46.8489C82.0829 46.2659 82.7235 45.9278 83.5155 45.8812C85.4489 45.8113 87.592 47.4784 88.2559 49.647L89.0362 52.585L89.5254 52.5384C90.4222 52.4684 91.4006 52.5267 92.4604 52.7599L93.4039 52.9581L92.6119 50.0084C92.2741 48.9241 92.3789 47.8749 92.8914 47.1403C93.3107 46.5341 93.9746 46.196 94.7899 46.1493C96.7466 46.0794 98.9362 47.7349 99.6001 49.9035L102.384 60.2915C102.675 61.4574 102.861 62.3784 102.92 63.1129L102.931 63.1712C103.257 64.9433 102.943 66.459 102.046 67.5316Z" fill="white"/>
    <path d="M104.084 62.9847C104.003 62.1802 103.816 61.2125 103.502 60L100.718 49.5887C99.9029 46.9188 97.2124 44.8319 94.7316 44.9835C93.5552 45.0534 92.5653 45.5781 91.9363 46.4758C91.2142 47.5018 91.0628 48.9242 91.4937 50.3349L91.7849 51.4541C91.1327 51.3609 90.5037 51.3142 89.9214 51.3492L89.3739 49.3205C88.5587 46.6507 85.9148 44.5521 83.4573 44.7153C82.3042 44.7853 81.3375 45.2983 80.7202 46.1843C79.9981 47.2103 79.835 48.6327 80.2776 50.0667L82.84 59.8834C82.9331 60.5247 83.0729 61.1543 83.2825 61.7605C83.3058 61.8538 83.3408 61.9354 83.3757 62.017L83.4805 62.2968C85.4023 67.2168 90.8298 70.6562 96.6883 70.6562C99.4836 70.6562 101.65 69.8401 102.943 68.2778C104.061 66.937 104.457 65.1066 104.084 62.9847ZM102.046 67.5316C100.974 68.8141 99.1225 69.4903 96.6883 69.4903C91.2957 69.4903 86.3108 66.3541 84.5637 61.8771H84.5521L84.4473 61.574C84.424 61.5157 84.4007 61.4574 84.389 61.3991C84.2027 60.8628 84.0746 60.2915 83.9814 59.6503L81.3957 49.7403C81.058 48.6444 81.1628 47.5834 81.6753 46.8489C82.0829 46.2659 82.7235 45.9279 83.5155 45.8812C85.4489 45.8113 87.592 47.4785 88.2558 49.647L89.0362 52.585L89.5254 52.5384C90.4222 52.4684 91.4005 52.5267 92.4604 52.7599L93.4038 52.9581L92.6118 50.0084C92.2741 48.9241 92.3789 47.8749 92.8914 47.1404C93.3107 46.5341 93.9745 46.196 94.7898 46.1493C96.7465 46.0794 98.9362 47.7349 99.6 49.9035L102.384 60.2915C102.675 61.4574 102.861 62.3784 102.919 63.1129L102.931 63.1712C103.257 64.9434 102.943 66.459 102.046 67.5316Z" fill="#21232E"/>
    <path d="M92.9963 65.4447C92.938 65.4447 92.8798 65.433 92.8216 65.4214C92.5188 65.3281 92.344 64.99 92.4372 64.6869L92.9147 63.1712C92.973 62.973 93.136 62.8332 93.334 62.7865C93.532 62.7399 93.7417 62.7982 93.8814 62.9497L95.3722 64.4654C95.5935 64.6986 95.5935 65.06 95.3606 65.2932C95.1277 65.5263 94.7666 65.5147 94.5336 65.2815L93.7184 64.4537L93.532 65.0483C93.4738 65.2932 93.2409 65.4447 92.9963 65.4447Z" fill="#21232E"/>
    <path d="M98.9262 62.4983C99.5523 62.3815 99.9499 61.6966 99.8143 60.9686C99.6787 60.2407 99.0612 59.7453 98.4352 59.8621C97.8091 59.9789 97.4116 60.6638 97.5471 61.3918C97.6827 62.1198 98.3002 62.6152 98.9262 62.4983Z" fill="#21232E"/>
    <path d="M88.4088 62.4996C89.0348 62.3828 89.4324 61.6979 89.2968 60.97C89.1612 60.242 88.5438 59.7466 87.9177 59.8634C87.2917 59.9803 86.8941 60.6651 87.0297 61.3931C87.1653 62.1211 87.7827 62.6165 88.4088 62.4996Z" fill="#21232E"/>
</svg>
