<svg width="190" height="197" viewBox="0 0 190 197" fill="none" xmlns="http://www.w3.org/2000/svg">
    <path d="M187.372 84.6867C179.934 102.019 142.942 90.9011 129.083 114.554C115.551 137.678 142.105 163.296 128.902 182.69C116.95 200.245 80.9018 200.245 56.6684 190.173C18.1619 174.161 -7.85175 125.471 2.15104 79.0324C11.5075 35.6163 51.2219 -0.655338 96.0861 0.0104883C153.708 0.855982 196.983 62.3022 187.372 84.6867Z" fill="#F8F1FF"/>
    <path d="M64.7108 79.5187H28.9064L30.8773 135.871H66.6923L64.7108 79.5187ZM64.7108 79.5187H28.9064L30.8773 135.871H66.6923L64.7108 79.5187ZM64.7108 79.5187H28.9064L30.8773 135.871H66.6923L64.7108 79.5187ZM64.7108 79.5187H28.9064L30.8773 135.871H66.6923L64.7108 79.5187ZM64.7108 79.5187H28.9064L30.8773 135.871H66.6923L64.7108 79.5187ZM49.0497 137.689C47.3331 137.689 45.9874 139.073 46.051 140.785C46.104 142.497 47.545 143.892 49.2722 143.892C50.9888 143.892 52.3345 142.497 52.2709 140.785C52.2074 139.073 50.7663 137.689 49.0497 137.689ZM64.7108 79.5187H28.9064L30.8773 135.871H66.6923L64.7108 79.5187ZM64.7108 79.5187H28.9064L30.8773 135.871H66.6923L64.7108 79.5187Z" fill="#21232E"/>
    <path d="M64.7108 79.5187H28.9064L30.8773 135.871H66.6923L64.7108 79.5187ZM64.7108 79.5187H28.9064L30.8773 135.871H66.6923L64.7108 79.5187ZM64.7108 79.5187H28.9064L30.8773 135.871H66.6923L64.7108 79.5187ZM64.7108 79.5187H28.9064L30.8773 135.871H66.6923L64.7108 79.5187ZM64.7108 79.5187H28.9064L30.8773 135.871H66.6923L64.7108 79.5187ZM49.0497 137.689C47.3331 137.689 45.9874 139.073 46.051 140.785C46.104 142.497 47.545 143.892 49.2722 143.892C50.9888 143.892 52.3345 142.497 52.2709 140.785C52.2074 139.073 50.7663 137.689 49.0497 137.689ZM64.7108 79.5187H28.9064L30.8773 135.871H66.6923L64.7108 79.5187ZM64.7108 79.5187H28.9064L30.8773 135.871H66.6923L64.7108 79.5187Z" fill="white"/>
    <path d="M68.5361 74.3717C68.4619 72.2052 66.6287 70.4402 64.4565 70.4402H28.5567C27.4971 70.4402 26.5116 70.8524 25.7911 71.6027L25.1447 72.5751L24.5619 73.484C23.8308 74.2343 23.4493 75.2278 23.4917 76.2847L25.8653 144.294C25.95 146.461 27.7726 148.226 29.9448 148.226H65.8552C66.9042 148.226 67.8897 147.813 68.6208 147.063L69.3202 146.038L69.85 145.182C70.5705 144.431 70.952 143.438 70.9202 142.381L68.5361 74.3717ZM69.6592 143.554V143.565C69.5427 143.861 69.3731 144.136 69.1506 144.368C69.1294 144.389 69.1082 144.421 69.087 144.442C68.9387 144.601 68.7586 144.738 68.5784 144.854C68.1334 145.14 67.6248 145.288 67.0844 145.288H31.1739C29.5739 145.288 28.2176 143.977 28.1646 142.381L25.7805 74.3717C25.7699 74.1815 25.7805 74.0018 25.8123 73.8222C25.8547 73.5685 25.9288 73.3254 26.0348 73.1035C26.1514 72.8498 26.2997 72.6068 26.4904 72.406C26.5116 72.3848 26.5328 72.3637 26.554 72.3425C27.0732 71.8035 27.7832 71.4971 28.5567 71.4971H64.4565C66.0671 71.4971 67.4235 72.8076 67.4764 74.4034L69.8606 142.413C69.8712 142.814 69.8076 143.195 69.6592 143.554Z" fill="#21232E"/>
    <path d="M67.4764 74.4035C67.4235 72.8076 66.0672 71.4971 64.4565 71.4971H28.5567C27.7832 71.4971 27.0732 71.8036 26.554 72.3426C26.5328 72.3637 26.5116 72.3848 26.4904 72.406C26.2997 72.6068 26.1514 72.8499 26.0348 73.1035C25.9288 73.3254 25.8547 73.5685 25.8123 73.8222C25.7805 74.0018 25.7699 74.1815 25.7805 74.3717L28.1646 142.381C28.2176 143.977 29.5739 145.288 31.1739 145.288H67.0844C67.6248 145.288 68.1334 145.14 68.5784 144.854C68.7586 144.738 68.9387 144.601 69.0871 144.442C69.1082 144.421 69.1294 144.389 69.1506 144.368C69.3732 144.136 69.5427 143.861 69.6592 143.565V143.554C69.8076 143.195 69.8712 142.814 69.8606 142.413L67.4764 74.4035ZM52.3875 74.6148C52.3981 74.8473 52.3027 75.0693 52.1438 75.2384C51.9848 75.4075 51.7623 75.5026 51.5292 75.5026H41.7701C41.3039 75.5026 40.9012 75.1221 40.8906 74.6465C40.88 74.414 40.9648 74.1921 41.1238 74.023C41.2933 73.8539 41.5158 73.7588 41.7489 73.7588H51.4974C51.9742 73.7588 52.3663 74.1392 52.3875 74.6148ZM49.2722 143.892C47.545 143.892 46.104 142.497 46.051 140.785C45.9874 139.073 47.3331 137.689 49.0497 137.689C50.7663 137.689 52.2074 139.073 52.2709 140.785C52.3345 142.497 50.9888 143.892 49.2722 143.892ZM67.6142 136.769C67.5188 136.864 67.3811 136.928 67.2327 136.928H30.3686C30.0825 136.928 29.8388 136.706 29.8388 136.42L27.8256 79.0008C27.815 78.8634 27.8679 78.726 27.9739 78.6204C28.0693 78.5147 28.207 78.4618 28.3554 78.4618H65.2301C65.5161 78.4618 65.7493 78.6838 65.7599 78.9691L67.7625 136.378C67.7731 136.526 67.7202 136.663 67.6142 136.769Z" fill="white"/>
    <path d="M66.6923 135.871H30.8773L28.9064 79.5187H64.7108L66.6923 135.871Z" fill="#4899EC"/>
    <path d="M65.7599 78.9691C65.7493 78.6837 65.5162 78.4618 65.2301 78.4618H28.3554C28.207 78.4618 28.0693 78.5146 27.9739 78.6203C27.8679 78.726 27.815 78.8634 27.8256 79.0008L29.8388 136.42C29.8388 136.706 30.0825 136.928 30.3686 136.928H67.2327C67.3811 136.928 67.5188 136.864 67.6142 136.769C67.7202 136.663 67.7731 136.526 67.7625 136.378L65.7599 78.9691ZM30.8773 135.871L28.9064 79.5187H64.7108L66.6923 135.871H30.8773Z" fill="#21232E"/>
    <path d="M52.2709 140.785C52.3345 142.497 50.9888 143.892 49.2722 143.892C47.545 143.892 46.104 142.497 46.051 140.785C45.9874 139.073 47.3331 137.689 49.0497 137.689C50.7663 137.689 52.2074 139.073 52.2709 140.785Z" fill="#21232E"/>
    <path d="M52.3875 74.6149C52.3981 74.8474 52.3027 75.0693 52.1438 75.2384C51.9848 75.4075 51.7623 75.5026 51.5292 75.5026H41.7701C41.3039 75.5026 40.9012 75.1221 40.8906 74.6466C40.88 74.414 40.9648 74.1921 41.1238 74.023C41.2933 73.8539 41.5158 73.7588 41.7489 73.7588H51.4974C51.9742 73.7588 52.3663 74.1393 52.3875 74.6149Z" fill="#21232E"/>
    <path d="M172.167 134.793H105.379L116.251 49.1021H183.038L172.167 134.793Z" fill="#21232E"/>
    <path d="M150.233 44.399C149.798 44.399 149.427 44.7478 149.406 45.1811C149.385 45.6144 149.713 45.9738 150.148 45.9738C150.582 45.9738 150.953 45.6144 150.974 45.1811C150.995 44.7478 150.667 44.399 150.233 44.399ZM136.034 136.78C134.317 136.78 132.844 138.164 132.759 139.876C132.664 141.599 133.989 142.984 135.705 142.984C137.422 142.984 138.895 141.599 138.979 139.876C139.075 138.164 137.75 136.78 136.034 136.78ZM104.288 135.49L105.909 122.248L104.256 135.258C104.245 135.332 104.256 135.416 104.288 135.49Z" fill="#21232E"/>
    <path d="M104.256 135.258C104.245 135.332 104.256 135.416 104.288 135.49L105.909 122.248L104.256 135.258Z" fill="#21232E"/>
    <path d="M188.887 44.769L187.976 43.6698L187.044 42.6552C185.931 41.3976 184.162 40.6895 182.169 40.6895H119.175C115.604 40.6895 112.415 43.0251 112.065 45.9104L100.484 140.595C100.335 141.821 100.717 143.026 101.564 143.977L102.412 144.939L103.419 146.091C104.521 147.348 106.301 148.057 108.282 148.057H171.277C174.847 148.057 178.037 145.721 178.397 142.836L189.968 48.1509C190.117 46.925 189.735 45.7201 188.887 44.769ZM187.075 45.9104L175.494 140.595C175.208 142.962 172.485 144.886 169.433 144.886H106.439C105.347 144.886 104.341 144.643 103.514 144.178C103.281 144.062 103.069 143.914 102.868 143.745C102.688 143.618 102.518 143.449 102.359 143.28C102.338 143.258 102.327 143.237 102.306 143.216C101.702 142.487 101.427 141.641 101.543 140.722L113.114 46.0372C113.411 43.6698 116.123 41.7463 119.175 41.7463H182.169C183.674 41.7463 185.009 42.2113 185.931 43.0463C186.048 43.1308 186.154 43.2365 186.249 43.3528C186.387 43.5007 186.503 43.6592 186.609 43.8178C186.758 44.0609 186.874 44.3039 186.948 44.5682C187.086 44.9909 187.128 45.4454 187.075 45.9104Z" fill="#21232E"/>
    <path d="M116.251 49.1022H183.038L172.167 134.793H105.379L116.251 49.1022Z" fill="white"/>
    <path d="M150.233 44.399C149.798 44.399 149.427 44.7478 149.406 45.1811C149.385 45.6144 149.713 45.9738 150.148 45.9738C150.582 45.9738 150.953 45.6144 150.974 45.1811C150.995 44.7478 150.667 44.399 150.233 44.399ZM136.034 136.78C134.317 136.78 132.844 138.164 132.759 139.876C132.664 141.599 133.989 142.984 135.705 142.984C137.422 142.984 138.895 141.599 138.979 139.876C139.075 138.164 137.75 136.78 136.034 136.78ZM104.288 135.49L105.909 122.248L104.256 135.258C104.245 135.332 104.256 135.416 104.288 135.49Z" fill="white"/>
    <path d="M186.948 44.5682C186.874 44.304 186.758 44.0609 186.609 43.8178C186.503 43.6593 186.387 43.5007 186.249 43.3528C186.154 43.2365 186.048 43.1308 185.931 43.0463C185.009 42.2114 183.674 41.7463 182.169 41.7463H119.175C116.123 41.7463 113.411 43.6698 113.114 46.0372L101.543 140.722C101.427 141.641 101.702 142.487 102.306 143.216C102.327 143.237 102.338 143.258 102.359 143.28C102.518 143.449 102.688 143.618 102.868 143.745C103.069 143.914 103.281 144.062 103.514 144.178C104.341 144.643 105.347 144.886 106.439 144.886H169.433C172.485 144.886 175.208 142.962 175.494 140.595L187.075 45.9104C187.128 45.4454 187.086 44.9909 186.948 44.5682ZM150.974 45.1812C150.953 45.6145 150.582 45.9738 150.148 45.9738C149.713 45.9738 149.385 45.6145 149.406 45.1812C149.427 44.7478 149.798 44.3991 150.233 44.3991C150.667 44.3991 150.995 44.7478 150.974 45.1812ZM135.705 142.984C133.989 142.984 132.664 141.599 132.759 139.876C132.844 138.164 134.317 136.78 136.034 136.78C137.75 136.78 139.075 138.164 138.979 139.876C138.895 141.599 137.422 142.984 135.705 142.984ZM173.163 135.395C173.131 135.66 172.898 135.85 172.633 135.85H104.786C104.627 135.85 104.489 135.786 104.383 135.681C104.341 135.638 104.309 135.575 104.288 135.512C104.288 135.501 104.288 135.501 104.288 135.49C104.256 135.416 104.245 135.332 104.256 135.258L105.909 122.248L115.255 48.4997C115.286 48.2355 115.519 48.0453 115.784 48.0453H183.632C183.791 48.0453 183.928 48.1087 184.034 48.2249C184.13 48.3306 184.183 48.4891 184.162 48.6371L173.163 135.395Z" fill="white"/>
    <path d="M183.038 49.1022L172.167 134.793H105.379L116.251 49.1022H183.038Z" fill="#5368E0"/>
    <path d="M104.256 135.258C104.245 135.332 104.256 135.416 104.288 135.49L105.909 122.248L104.256 135.258Z" fill="#21232E"/>
    <path d="M184.034 48.225C183.928 48.1087 183.791 48.0453 183.632 48.0453H115.784C115.519 48.0453 115.286 48.2355 115.255 48.4997L105.909 122.248L104.288 135.49C104.288 135.501 104.288 135.501 104.288 135.512C104.309 135.575 104.341 135.638 104.383 135.681C104.489 135.786 104.627 135.85 104.786 135.85H172.633C172.898 135.85 173.131 135.66 173.163 135.395L184.162 48.6371C184.183 48.4892 184.13 48.3306 184.034 48.225ZM172.167 134.793H105.379L116.251 49.1022H183.038L172.167 134.793Z" fill="#21232E"/>
    <path d="M138.979 139.876C138.895 141.599 137.422 142.984 135.705 142.984C133.989 142.984 132.664 141.599 132.759 139.876C132.844 138.164 134.317 136.78 136.034 136.78C137.75 136.78 139.075 138.164 138.979 139.876Z" fill="#21232E"/>
    <path d="M150.974 45.1811C150.953 45.6144 150.582 45.9738 150.148 45.9738C149.713 45.9738 149.385 45.6144 149.406 45.1811C149.427 44.7478 149.798 44.399 150.233 44.399C150.667 44.399 150.995 44.7478 150.974 45.1811Z" fill="#21232E"/>
</svg>
