<svg width="190" height="198" viewBox="0 0 190 198" fill="none" xmlns="http://www.w3.org/2000/svg">
    <path d="M1.51294 110.156C9.34468 92.9884 46.0312 104.96 60.4092 81.6192C74.4608 58.8018 48.533 32.5668 62.1595 13.4733C74.5004 -3.81265 110.495 -2.98293 134.465 7.64543C172.555 24.5461 197.425 73.8455 186.36 120.063C176.016 163.268 135.523 198.64 90.7275 196.951C33.2058 194.768 -8.60305 132.321 1.51294 110.156Z" fill="#F8F1FF"/>
    <path d="M136.808 119.5H120.809V128.558H136.808V119.5Z" fill="#4899EC"/>
    <path d="M120.809 105.345V114.413H136.808V105.345H120.809ZM140.645 94.47H116.982C116.161 94.47 115.498 95.1417 115.498 95.9516V98.2531H142.128V95.9516C142.128 95.1417 141.456 94.47 140.645 94.47ZM120.809 105.345V114.413H136.808V105.345H120.809ZM120.809 105.345V114.413H136.808V105.345H120.809ZM120.809 105.345V114.413H136.808V105.345H120.809ZM120.809 105.345V114.413H136.808V105.345H120.809ZM120.809 105.345V114.413H136.808V105.345H120.809ZM120.809 105.345V114.413H136.808V105.345H120.809ZM120.809 105.345V114.413H136.808V105.345H120.809ZM120.809 105.345V114.413H136.808V105.345H120.809ZM120.809 105.345V114.413H136.808V105.345H120.809ZM115.498 99.2409V133.19C115.498 134.01 116.161 134.672 116.982 134.672H140.645C141.456 134.672 142.128 134.01 142.128 133.19V99.2409H115.498ZM137.797 129.052C137.797 129.328 137.58 129.546 137.303 129.546H120.314C120.037 129.546 119.82 129.328 119.82 129.052V119.006C119.82 118.73 120.037 118.512 120.314 118.512H137.303C137.58 118.512 137.797 118.73 137.797 119.006V129.052ZM137.797 114.907C137.797 115.183 137.58 115.401 137.303 115.401H120.314C120.037 115.401 119.82 115.183 119.82 114.907V104.851C119.82 104.585 120.037 104.358 120.314 104.358H137.303C137.58 104.358 137.797 104.585 137.797 104.851V114.907ZM120.809 114.413H136.808V105.345H120.809V114.413ZM120.809 105.345V114.413H136.808V105.345H120.809ZM120.809 105.345V114.413H136.808V105.345H120.809ZM120.809 105.345V114.413H136.808V105.345H120.809ZM120.809 105.345V114.413H136.808V105.345H120.809ZM120.809 105.345V114.413H136.808V105.345H120.809ZM120.809 105.345V114.413H136.808V105.345H120.809ZM120.809 105.345V114.413H136.808V105.345H120.809ZM120.809 105.345V114.413H136.808V105.345H120.809ZM120.809 105.345V114.413H136.808V105.345H120.809ZM120.809 105.345V114.413H136.808V105.345H120.809ZM120.809 105.345V114.413H136.808V105.345H120.809ZM120.809 105.345V114.413H136.808V105.345H120.809ZM120.809 105.345V114.413H136.808V105.345H120.809ZM120.809 105.345V114.413H136.808V105.345H120.809ZM120.809 105.345V114.413H136.808V105.345H120.809ZM120.809 105.345V114.413H136.808V105.345H120.809ZM115.498 99.2409V133.19C115.498 134.01 116.161 134.672 116.982 134.672H140.645C141.456 134.672 142.128 134.01 142.128 133.19V99.2409H115.498ZM137.797 129.052C137.797 129.328 137.58 129.546 137.303 129.546H120.314C120.037 129.546 119.82 129.328 119.82 129.052V119.006C119.82 118.73 120.037 118.512 120.314 118.512H137.303C137.58 118.512 137.797 118.73 137.797 119.006V129.052ZM137.797 114.907C137.797 115.183 137.58 115.401 137.303 115.401H120.314C120.037 115.401 119.82 115.183 119.82 114.907V104.851C119.82 104.585 120.037 104.358 120.314 104.358H137.303C137.58 104.358 137.797 104.585 137.797 104.851V114.907ZM120.809 114.413H136.808V105.345H120.809V114.413ZM120.809 105.345V114.413H136.808V105.345H120.809ZM120.809 105.345V114.413H136.808V105.345H120.809ZM120.809 105.345V114.413H136.808V105.345H120.809ZM120.809 105.345V114.413H136.808V105.345H120.809ZM120.809 105.345V114.413H136.808V105.345H120.809ZM120.809 105.345V114.413H136.808V105.345H120.809ZM120.809 105.345V114.413H136.808V105.345H120.809ZM140.645 94.47H116.982C116.161 94.47 115.498 95.1417 115.498 95.9516V98.2531H142.128V95.9516C142.128 95.1417 141.456 94.47 140.645 94.47ZM120.809 105.345V114.413H136.808V105.345H120.809ZM120.809 105.345V114.413H136.808V105.345H120.809ZM140.645 94.47H116.982C116.161 94.47 115.498 95.1417 115.498 95.9516V98.2531H142.128V95.9516C142.128 95.1417 141.456 94.47 140.645 94.47ZM120.809 105.345V114.413H136.808V105.345H120.809ZM120.809 105.345V114.413H136.808V105.345H120.809ZM120.809 105.345V114.413H136.808V105.345H120.809ZM120.809 105.345V114.413H136.808V105.345H120.809ZM120.809 105.345V114.413H136.808V105.345H120.809ZM120.809 105.345V114.413H136.808V105.345H120.809ZM120.809 105.345V114.413H136.808V105.345H120.809ZM115.498 99.2409V133.19C115.498 134.01 116.161 134.672 116.982 134.672H140.645C141.456 134.672 142.128 134.01 142.128 133.19V99.2409H115.498ZM137.797 129.052C137.797 129.328 137.58 129.546 137.303 129.546H120.314C120.037 129.546 119.82 129.328 119.82 129.052V119.006C119.82 118.73 120.037 118.512 120.314 118.512H137.303C137.58 118.512 137.797 118.73 137.797 119.006V129.052ZM137.797 114.907C137.797 115.183 137.58 115.401 137.303 115.401H120.314C120.037 115.401 119.82 115.183 119.82 114.907V104.851C119.82 104.585 120.037 104.358 120.314 104.358H137.303C137.58 104.358 137.797 104.585 137.797 104.851V114.907ZM120.809 114.413H136.808V105.345H120.809V114.413ZM120.809 105.345V114.413H136.808V105.345H120.809ZM120.809 105.345V114.413H136.808V105.345H120.809ZM120.809 105.345V114.413H136.808V105.345H120.809ZM120.809 105.345V114.413H136.808V105.345H120.809ZM120.809 105.345V114.413H136.808V105.345H120.809ZM120.809 105.345V114.413H136.808V105.345H120.809ZM120.809 105.345V114.413H136.808V105.345H120.809ZM120.809 105.345V114.413H136.808V105.345H120.809ZM120.809 105.345V114.413H136.808V105.345H120.809ZM120.809 105.345V114.413H136.808V105.345H120.809ZM120.809 105.345V114.413H136.808V105.345H120.809ZM120.809 105.345V114.413H136.808V105.345H120.809ZM115.498 99.2409V133.19C115.498 134.01 116.161 134.672 116.982 134.672H140.645C141.456 134.672 142.128 134.01 142.128 133.19V99.2409H115.498ZM137.797 129.052C137.797 129.328 137.58 129.546 137.303 129.546H120.314C120.037 129.546 119.82 129.328 119.82 129.052V119.006C119.82 118.73 120.037 118.512 120.314 118.512H137.303C137.58 118.512 137.797 118.73 137.797 119.006V129.052ZM137.797 114.907C137.797 115.183 137.58 115.401 137.303 115.401H120.314C120.037 115.401 119.82 115.183 119.82 114.907V104.851C119.82 104.585 120.037 104.358 120.314 104.358H137.303C137.58 104.358 137.797 104.585 137.797 104.851V114.907ZM120.809 114.413H136.808V105.345H120.809V114.413ZM120.809 105.345V114.413H136.808V105.345H120.809ZM120.809 105.345V114.413H136.808V105.345H120.809ZM120.809 105.345V114.413H136.808V105.345H120.809ZM120.809 105.345V114.413H136.808V105.345H120.809ZM120.809 105.345V114.413H136.808V105.345H120.809ZM140.645 94.47H116.982C116.161 94.47 115.498 95.1417 115.498 95.9516V98.2531H142.128V95.9516C142.128 95.1417 141.456 94.47 140.645 94.47ZM120.809 105.345V114.413H136.808V105.345H120.809ZM84.913 78.1422V97.2555H100.913V78.1422H84.913ZM103.761 67.0101H44.3106C43.4899 67.0101 42.8273 67.6818 42.8273 68.4918V70.7932H105.244V68.4918C105.244 67.6818 104.581 67.0101 103.761 67.0101ZM84.913 78.1422V97.2555H100.913V78.1422H84.913ZM84.913 78.1422V97.2555H100.913V78.1422H84.913ZM84.913 78.1422V97.2555H100.913V78.1422H84.913ZM84.913 78.1422V97.2555H100.913V78.1422H84.913ZM84.913 78.1422V97.2555H100.913V78.1422H84.913ZM42.8273 71.781V105.731C42.8273 106.55 43.4899 107.212 44.3106 107.212H103.761C104.581 107.212 105.244 106.55 105.244 105.731V71.781H42.8273ZM78.4954 98.2531H46.9113C46.6344 98.2531 46.4169 98.0259 46.4169 97.7593C46.4169 97.4827 46.6344 97.2555 46.9113 97.2555H78.4954C78.7722 97.2555 78.9898 97.4728 78.9898 97.7494C78.9898 98.0161 78.7722 98.2531 78.4954 98.2531ZM78.4954 93.2847H46.9113C46.6344 93.2847 46.4169 93.0674 46.4169 92.7908C46.4169 92.5142 46.6344 92.287 46.9113 92.287H78.4954C78.7722 92.287 78.9898 92.5142 78.9898 92.7809C78.9898 93.0575 78.7722 93.2847 78.4954 93.2847ZM78.4954 88.3261H46.9113C46.6344 88.3261 46.4169 88.0989 46.4169 87.8322C46.4169 87.5556 46.6344 87.3186 46.9113 87.3186H78.4954C78.7722 87.3186 78.9898 87.5458 78.9898 87.8125C78.9898 88.089 78.7722 88.3261 78.4954 88.3261ZM101.902 97.7494C101.902 98.0259 101.684 98.2433 101.407 98.2433H84.4186C84.1516 98.2433 83.9242 98.0259 83.9242 97.7494V77.6483C83.9242 77.3718 84.1516 77.1545 84.4186 77.1545H101.407C101.684 77.1545 101.902 77.3718 101.902 77.6483V97.7494ZM84.913 97.2555H100.913V78.1422H84.913V97.2555ZM84.913 78.1422V97.2555H100.913V78.1422H84.913ZM84.913 78.1422V97.2555H100.913V78.1422H84.913ZM84.913 78.1422V97.2555H100.913V78.1422H84.913ZM84.913 78.1422V97.2555H100.913V78.1422H84.913ZM120.809 105.345V114.413H136.808V105.345H120.809ZM140.645 94.47H116.982C116.161 94.47 115.498 95.1417 115.498 95.9516V98.2531H142.128V95.9516C142.128 95.1417 141.456 94.47 140.645 94.47ZM120.809 105.345V114.413H136.808V105.345H120.809ZM120.809 105.345V114.413H136.808V105.345H120.809ZM120.809 105.345V114.413H136.808V105.345H120.809ZM120.809 105.345V114.413H136.808V105.345H120.809ZM120.809 105.345V114.413H136.808V105.345H120.809ZM115.498 99.2409V133.19C115.498 134.01 116.161 134.672 116.982 134.672H140.645C141.456 134.672 142.128 134.01 142.128 133.19V99.2409H115.498ZM137.797 129.052C137.797 129.328 137.58 129.546 137.303 129.546H120.314C120.037 129.546 119.82 129.328 119.82 129.052V119.006C119.82 118.73 120.037 118.512 120.314 118.512H137.303C137.58 118.512 137.797 118.73 137.797 119.006V129.052ZM137.797 114.907C137.797 115.183 137.58 115.401 137.303 115.401H120.314C120.037 115.401 119.82 115.183 119.82 114.907V104.851C119.82 104.585 120.037 104.358 120.314 104.358H137.303C137.58 104.358 137.797 104.585 137.797 104.851V114.907ZM120.809 114.413H136.808V105.345H120.809V114.413ZM120.809 105.345V114.413H136.808V105.345H120.809ZM120.809 105.345V114.413H136.808V105.345H120.809ZM120.809 105.345V114.413H136.808V105.345H120.809ZM120.809 105.345V114.413H136.808V105.345H120.809ZM120.809 105.345V114.413H136.808V105.345H120.809ZM120.809 105.345V114.413H136.808V105.345H120.809ZM120.809 105.345V114.413H136.808V105.345H120.809ZM120.809 105.345V114.413H136.808V105.345H120.809ZM115.498 99.2409V133.19C115.498 134.01 116.161 134.672 116.982 134.672H140.645C141.456 134.672 142.128 134.01 142.128 133.19V99.2409H115.498ZM137.797 129.052C137.797 129.328 137.58 129.546 137.303 129.546H120.314C120.037 129.546 119.82 129.328 119.82 129.052V119.006C119.82 118.73 120.037 118.512 120.314 118.512H137.303C137.58 118.512 137.797 118.73 137.797 119.006V129.052ZM137.797 114.907C137.797 115.183 137.58 115.401 137.303 115.401H120.314C120.037 115.401 119.82 115.183 119.82 114.907V104.851C119.82 104.585 120.037 104.358 120.314 104.358H137.303C137.58 104.358 137.797 104.585 137.797 104.851V114.907ZM120.809 114.413H136.808V105.345H120.809V114.413ZM120.809 105.345V114.413H136.808V105.345H120.809ZM120.809 105.345V114.413H136.808V105.345H120.809ZM120.809 105.345V114.413H136.808V105.345H120.809ZM140.645 94.47H116.982C116.161 94.47 115.498 95.1417 115.498 95.9516V98.2531H142.128V95.9516C142.128 95.1417 141.456 94.47 140.645 94.47ZM120.809 105.345V114.413H136.808V105.345H120.809ZM84.913 78.1422V97.2555H100.913V78.1422H84.913ZM84.913 78.1422V97.2555H100.913V78.1422H84.913ZM84.913 78.1422V97.2555H100.913V78.1422H84.913ZM84.913 78.1422V97.2555H100.913V78.1422H84.913ZM42.8273 71.781V105.731C42.8273 106.55 43.4899 107.212 44.3106 107.212H103.761C104.581 107.212 105.244 106.55 105.244 105.731V71.781H42.8273ZM78.4954 98.2531H46.9113C46.6344 98.2531 46.4169 98.0259 46.4169 97.7593C46.4169 97.4827 46.6344 97.2555 46.9113 97.2555H78.4954C78.7722 97.2555 78.9898 97.4728 78.9898 97.7494C78.9898 98.0161 78.7722 98.2531 78.4954 98.2531ZM78.4954 93.2847H46.9113C46.6344 93.2847 46.4169 93.0674 46.4169 92.7908C46.4169 92.5142 46.6344 92.287 46.9113 92.287H78.4954C78.7722 92.287 78.9898 92.5142 78.9898 92.7809C78.9898 93.0575 78.7722 93.2847 78.4954 93.2847ZM78.4954 88.3261H46.9113C46.6344 88.3261 46.4169 88.0989 46.4169 87.8322C46.4169 87.5556 46.6344 87.3186 46.9113 87.3186H78.4954C78.7722 87.3186 78.9898 87.5458 78.9898 87.8125C78.9898 88.089 78.7722 88.3261 78.4954 88.3261ZM101.902 97.7494C101.902 98.0259 101.684 98.2433 101.407 98.2433H84.4186C84.1516 98.2433 83.9242 98.0259 83.9242 97.7494V77.6483C83.9242 77.3718 84.1516 77.1545 84.4186 77.1545H101.407C101.684 77.1545 101.902 77.3718 101.902 77.6483V97.7494ZM84.913 97.2555H100.913V78.1422H84.913V97.2555ZM84.913 78.1422V97.2555H100.913V78.1422H84.913ZM84.913 78.1422V97.2555H100.913V78.1422H84.913ZM84.913 78.1422V97.2555H100.913V78.1422H84.913ZM103.761 67.0101H44.3106C43.4899 67.0101 42.8273 67.6818 42.8273 68.4918V70.7932H105.244V68.4918C105.244 67.6818 104.581 67.0101 103.761 67.0101ZM84.913 78.1422V97.2555H100.913V78.1422H84.913ZM84.913 78.1422V97.2555H100.913V78.1422H84.913ZM103.761 67.0101H44.3106C43.4899 67.0101 42.8273 67.6818 42.8273 68.4918V70.7932H105.244V68.4918C105.244 67.6818 104.581 67.0101 103.761 67.0101ZM84.913 78.1422V97.2555H100.913V78.1422H84.913ZM84.913 78.1422V97.2555H100.913V78.1422H84.913ZM84.913 78.1422V97.2555H100.913V78.1422H84.913ZM42.8273 71.781V105.731C42.8273 106.55 43.4899 107.212 44.3106 107.212H103.761C104.581 107.212 105.244 106.55 105.244 105.731V71.781H42.8273ZM78.4954 98.2531H46.9113C46.6344 98.2531 46.4169 98.0259 46.4169 97.7593C46.4169 97.4827 46.6344 97.2555 46.9113 97.2555H78.4954C78.7722 97.2555 78.9898 97.4728 78.9898 97.7494C78.9898 98.0161 78.7722 98.2531 78.4954 98.2531ZM78.4954 93.2847H46.9113C46.6344 93.2847 46.4169 93.0674 46.4169 92.7908C46.4169 92.5142 46.6344 92.287 46.9113 92.287H78.4954C78.7722 92.287 78.9898 92.5142 78.9898 92.7809C78.9898 93.0575 78.7722 93.2847 78.4954 93.2847ZM78.4954 88.3261H46.9113C46.6344 88.3261 46.4169 88.0989 46.4169 87.8322C46.4169 87.5556 46.6344 87.3186 46.9113 87.3186H78.4954C78.7722 87.3186 78.9898 87.5458 78.9898 87.8125C78.9898 88.089 78.7722 88.3261 78.4954 88.3261ZM101.902 97.7494C101.902 98.0259 101.684 98.2433 101.407 98.2433H84.4186C84.1516 98.2433 83.9242 98.0259 83.9242 97.7494V77.6483C83.9242 77.3718 84.1516 77.1545 84.4186 77.1545H101.407C101.684 77.1545 101.902 77.3718 101.902 77.6483V97.7494ZM84.913 97.2555H100.913V78.1422H84.913V97.2555ZM84.913 78.1422V97.2555H100.913V78.1422H84.913ZM84.913 78.1422V97.2555H100.913V78.1422H84.913ZM120.809 105.345V114.413H136.808V105.345H120.809ZM140.645 94.47H116.982C116.161 94.47 115.498 95.1417 115.498 95.9516V98.2531H142.128V95.9516C142.128 95.1417 141.456 94.47 140.645 94.47ZM120.809 105.345V114.413H136.808V105.345H120.809ZM120.809 105.345V114.413H136.808V105.345H120.809ZM120.809 105.345V114.413H136.808V105.345H120.809ZM115.498 99.2409V133.19C115.498 134.01 116.161 134.672 116.982 134.672H140.645C141.456 134.672 142.128 134.01 142.128 133.19V99.2409H115.498ZM137.797 129.052C137.797 129.328 137.58 129.546 137.303 129.546H120.314C120.037 129.546 119.82 129.328 119.82 129.052V119.006C119.82 118.73 120.037 118.512 120.314 118.512H137.303C137.58 118.512 137.797 118.73 137.797 119.006V129.052ZM137.797 114.907C137.797 115.183 137.58 115.401 137.303 115.401H120.314C120.037 115.401 119.82 115.183 119.82 114.907V104.851C119.82 104.585 120.037 104.358 120.314 104.358H137.303C137.58 104.358 137.797 104.585 137.797 104.851V114.907ZM120.809 114.413H136.808V105.345H120.809V114.413ZM120.809 105.345V114.413H136.808V105.345H120.809ZM120.809 105.345V114.413H136.808V105.345H120.809ZM120.809 105.345V114.413H136.808V105.345H120.809ZM120.809 105.345V114.413H136.808V105.345H120.809ZM115.498 99.2409V133.19C115.498 134.01 116.161 134.672 116.982 134.672H140.645C141.456 134.672 142.128 134.01 142.128 133.19V99.2409H115.498ZM137.797 129.052C137.797 129.328 137.58 129.546 137.303 129.546H120.314C120.037 129.546 119.82 129.328 119.82 129.052V119.006C119.82 118.73 120.037 118.512 120.314 118.512H137.303C137.58 118.512 137.797 118.73 137.797 119.006V129.052ZM137.797 114.907C137.797 115.183 137.58 115.401 137.303 115.401H120.314C120.037 115.401 119.82 115.183 119.82 114.907V104.851C119.82 104.585 120.037 104.358 120.314 104.358H137.303C137.58 104.358 137.797 104.585 137.797 104.851V114.907ZM120.809 114.413H136.808V105.345H120.809V114.413ZM120.809 105.345V114.413H136.808V105.345H120.809ZM140.645 94.47H116.982C116.161 94.47 115.498 95.1417 115.498 95.9516V98.2531H142.128V95.9516C142.128 95.1417 141.456 94.47 140.645 94.47ZM120.809 105.345V114.413H136.808V105.345H120.809ZM84.913 78.1422V97.2555H100.913V78.1422H84.913ZM84.913 78.1422V97.2555H100.913V78.1422H84.913ZM42.8273 71.781V105.731C42.8273 106.55 43.4899 107.212 44.3106 107.212H103.761C104.581 107.212 105.244 106.55 105.244 105.731V71.781H42.8273ZM78.4954 98.2531H46.9113C46.6344 98.2531 46.4169 98.0259 46.4169 97.7593C46.4169 97.4827 46.6344 97.2555 46.9113 97.2555H78.4954C78.7722 97.2555 78.9898 97.4728 78.9898 97.7494C78.9898 98.0161 78.7722 98.2531 78.4954 98.2531ZM78.4954 93.2847H46.9113C46.6344 93.2847 46.4169 93.0674 46.4169 92.7908C46.4169 92.5142 46.6344 92.287 46.9113 92.287H78.4954C78.7722 92.287 78.9898 92.5142 78.9898 92.7809C78.9898 93.0575 78.7722 93.2847 78.4954 93.2847ZM78.4954 88.3261H46.9113C46.6344 88.3261 46.4169 88.0989 46.4169 87.8322C46.4169 87.5556 46.6344 87.3186 46.9113 87.3186H78.4954C78.7722 87.3186 78.9898 87.5458 78.9898 87.8125C78.9898 88.089 78.7722 88.3261 78.4954 88.3261ZM101.902 97.7494C101.902 98.0259 101.684 98.2433 101.407 98.2433H84.4186C84.1516 98.2433 83.9242 98.0259 83.9242 97.7494V77.6483C83.9242 77.3718 84.1516 77.1545 84.4186 77.1545H101.407C101.684 77.1545 101.902 77.3718 101.902 77.6483V97.7494ZM84.913 97.2555H100.913V78.1422H84.913V97.2555ZM84.913 78.1422V97.2555H100.913V78.1422H84.913ZM103.761 67.0101H44.3106C43.4899 67.0101 42.8273 67.6818 42.8273 68.4918V70.7932H105.244V68.4918C105.244 67.6818 104.581 67.0101 103.761 67.0101ZM84.913 78.1422V97.2555H100.913V78.1422H84.913ZM84.913 78.1422V97.2555H100.913V78.1422H84.913ZM103.761 67.0101H44.3106C43.4899 67.0101 42.8273 67.6818 42.8273 68.4918V70.7932H105.244V68.4918C105.244 67.6818 104.581 67.0101 103.761 67.0101ZM84.913 78.1422V97.2555H100.913V78.1422H84.913ZM42.8273 71.781V105.731C42.8273 106.55 43.4899 107.212 44.3106 107.212H103.761C104.581 107.212 105.244 106.55 105.244 105.731V71.781H42.8273ZM78.4954 98.2531H46.9113C46.6344 98.2531 46.4169 98.0259 46.4169 97.7593C46.4169 97.4827 46.6344 97.2555 46.9113 97.2555H78.4954C78.7722 97.2555 78.9898 97.4728 78.9898 97.7494C78.9898 98.0161 78.7722 98.2531 78.4954 98.2531ZM78.4954 93.2847H46.9113C46.6344 93.2847 46.4169 93.0674 46.4169 92.7908C46.4169 92.5142 46.6344 92.287 46.9113 92.287H78.4954C78.7722 92.287 78.9898 92.5142 78.9898 92.7809C78.9898 93.0575 78.7722 93.2847 78.4954 93.2847ZM78.4954 88.3261H46.9113C46.6344 88.3261 46.4169 88.0989 46.4169 87.8322C46.4169 87.5556 46.6344 87.3186 46.9113 87.3186H78.4954C78.7722 87.3186 78.9898 87.5458 78.9898 87.8125C78.9898 88.089 78.7722 88.3261 78.4954 88.3261ZM101.902 97.7494C101.902 98.0259 101.684 98.2433 101.407 98.2433H84.4186C84.1516 98.2433 83.9242 98.0259 83.9242 97.7494V77.6483C83.9242 77.3718 84.1516 77.1545 84.4186 77.1545H101.407C101.684 77.1545 101.902 77.3718 101.902 77.6483V97.7494ZM84.913 97.2555H100.913V78.1422H84.913V97.2555ZM120.809 105.345V114.413H136.808V105.345H120.809ZM140.645 94.47H116.982C116.161 94.47 115.498 95.1417 115.498 95.9516V98.2531H142.128V95.9516C142.128 95.1417 141.456 94.47 140.645 94.47ZM120.809 105.345V114.413H136.808V105.345H120.809ZM115.498 99.2409V133.19C115.498 134.01 116.161 134.672 116.982 134.672H140.645C141.456 134.672 142.128 134.01 142.128 133.19V99.2409H115.498ZM137.797 129.052C137.797 129.328 137.58 129.546 137.303 129.546H120.314C120.037 129.546 119.82 129.328 119.82 129.052V119.006C119.82 118.73 120.037 118.512 120.314 118.512H137.303C137.58 118.512 137.797 118.73 137.797 119.006V129.052ZM137.797 114.907C137.797 115.183 137.58 115.401 137.303 115.401H120.314C120.037 115.401 119.82 115.183 119.82 114.907V104.851C119.82 104.585 120.037 104.358 120.314 104.358H137.303C137.58 104.358 137.797 104.585 137.797 104.851V114.907ZM120.809 114.413H136.808V105.345H120.809V114.413ZM115.498 133.19C115.498 134.01 116.161 134.672 116.982 134.672H140.645C141.456 134.672 142.128 134.01 142.128 133.19V99.2409H115.498V133.19ZM119.82 104.851C119.82 104.585 120.037 104.358 120.314 104.358H137.303C137.58 104.358 137.797 104.585 137.797 104.851V114.907C137.797 115.183 137.58 115.401 137.303 115.401H120.314C120.037 115.401 119.82 115.183 119.82 114.907V104.851ZM119.82 119.006C119.82 118.73 120.037 118.512 120.314 118.512H137.303C137.58 118.512 137.797 118.73 137.797 119.006V129.052C137.797 129.328 137.58 129.546 137.303 129.546H120.314C120.037 129.546 119.82 129.328 119.82 129.052V119.006ZM140.645 94.47H116.982C116.161 94.47 115.498 95.1417 115.498 95.9516V98.2531H142.128V95.9516C142.128 95.1417 141.456 94.47 140.645 94.47ZM136.808 105.345H120.809V114.413H136.808V105.345ZM42.8273 105.731C42.8273 106.55 43.4899 107.212 44.3106 107.212H103.761C104.581 107.212 105.244 106.55 105.244 105.731V71.781H42.8273V105.731ZM83.9242 77.6483C83.9242 77.3718 84.1516 77.1545 84.4186 77.1545H101.407C101.684 77.1545 101.902 77.3718 101.902 77.6483V97.7494C101.902 98.0259 101.684 98.2433 101.407 98.2433H84.4186C84.1516 98.2433 83.9242 98.0259 83.9242 97.7494V77.6483ZM46.9113 87.3186H78.4954C78.7722 87.3186 78.9898 87.5458 78.9898 87.8125C78.9898 88.089 78.7722 88.3261 78.4954 88.3261H46.9113C46.6344 88.3261 46.4169 88.0989 46.4169 87.8322C46.4169 87.5556 46.6344 87.3186 46.9113 87.3186ZM46.9113 92.287H78.4954C78.7722 92.287 78.9898 92.5142 78.9898 92.7809C78.9898 93.0575 78.7722 93.2847 78.4954 93.2847H46.9113C46.6344 93.2847 46.4169 93.0674 46.4169 92.7908C46.4169 92.5142 46.6344 92.287 46.9113 92.287ZM46.9113 97.2555H78.4954C78.7722 97.2555 78.9898 97.4728 78.9898 97.7494C78.9898 98.0161 78.7722 98.2531 78.4954 98.2531H46.9113C46.6344 98.2531 46.4169 98.0259 46.4169 97.7593C46.4169 97.4827 46.6344 97.2555 46.9113 97.2555ZM103.761 67.0101H44.3106C43.4899 67.0101 42.8273 67.6818 42.8273 68.4918V70.7932H105.244V68.4918C105.244 67.6818 104.581 67.0101 103.761 67.0101ZM100.913 78.1422H84.913V97.2555H100.913V78.1422ZM147.043 57.3794H36.0735C34.7088 57.3794 33.6013 58.4956 33.6013 59.8488V141.557H149.515V59.8488C149.515 58.4956 148.407 57.3794 147.043 57.3794ZM106.233 105.731C106.233 107.094 105.125 108.2 103.761 108.2H44.3106C42.946 108.2 41.8385 107.094 41.8385 105.731V68.4918C41.8385 67.1286 42.946 66.0223 44.3106 66.0223H103.761C105.125 66.0223 106.233 67.1286 106.233 68.4918V105.731ZM143.117 133.19C143.117 134.554 142 135.66 140.645 135.66H116.982C115.617 135.66 114.51 134.554 114.51 133.19V95.9516C114.51 94.5885 115.617 93.4822 116.982 93.4822H140.645C142 93.4822 143.117 94.5885 143.117 95.9516V133.19ZM115.498 133.19C115.498 134.01 116.161 134.672 116.982 134.672H140.645C141.456 134.672 142.128 134.01 142.128 133.19V99.2409H115.498V133.19ZM119.82 104.851C119.82 104.585 120.037 104.358 120.314 104.358H137.303C137.58 104.358 137.797 104.585 137.797 104.851V114.907C137.797 115.183 137.58 115.401 137.303 115.401H120.314C120.037 115.401 119.82 115.183 119.82 114.907V104.851ZM119.82 119.006C119.82 118.73 120.037 118.512 120.314 118.512H137.303C137.58 118.512 137.797 118.73 137.797 119.006V129.052C137.797 129.328 137.58 129.546 137.303 129.546H120.314C120.037 129.546 119.82 129.328 119.82 129.052V119.006ZM140.645 94.47H116.982C116.161 94.47 115.498 95.1417 115.498 95.9516V98.2531H142.128V95.9516C142.128 95.1417 141.456 94.47 140.645 94.47ZM136.808 105.345H120.809V114.413H136.808V105.345ZM42.8273 105.731C42.8273 106.55 43.4899 107.212 44.3106 107.212H103.761C104.581 107.212 105.244 106.55 105.244 105.731V71.781H42.8273V105.731ZM83.9242 77.6483C83.9242 77.3718 84.1516 77.1545 84.4186 77.1545H101.407C101.684 77.1545 101.902 77.3718 101.902 77.6483V97.7494C101.902 98.0259 101.684 98.2433 101.407 98.2433H84.4186C84.1516 98.2433 83.9242 98.0259 83.9242 97.7494V77.6483ZM46.9113 87.3186H78.4954C78.7722 87.3186 78.9898 87.5458 78.9898 87.8125C78.9898 88.089 78.7722 88.3261 78.4954 88.3261H46.9113C46.6344 88.3261 46.4169 88.0989 46.4169 87.8322C46.4169 87.5556 46.6344 87.3186 46.9113 87.3186ZM46.9113 92.287H78.4954C78.7722 92.287 78.9898 92.5142 78.9898 92.7809C78.9898 93.0575 78.7722 93.2847 78.4954 93.2847H46.9113C46.6344 93.2847 46.4169 93.0674 46.4169 92.7908C46.4169 92.5142 46.6344 92.287 46.9113 92.287ZM46.9113 97.2555H78.4954C78.7722 97.2555 78.9898 97.4728 78.9898 97.7494C78.9898 98.0161 78.7722 98.2531 78.4954 98.2531H46.9113C46.6344 98.2531 46.4169 98.0259 46.4169 97.7593C46.4169 97.4827 46.6344 97.2555 46.9113 97.2555ZM103.761 67.0101H44.3106C43.4899 67.0101 42.8273 67.6818 42.8273 68.4918V70.7932H105.244V68.4918C105.244 67.6818 104.581 67.0101 103.761 67.0101ZM100.913 78.1422H84.913V97.2555H100.913V78.1422ZM84.913 78.1422V97.2555H100.913V78.1422H84.913ZM103.761 67.0101H44.3106C43.4899 67.0101 42.8273 67.6818 42.8273 68.4918V70.7932H105.244V68.4918C105.244 67.6818 104.581 67.0101 103.761 67.0101ZM84.913 78.1422V97.2555H100.913V78.1422H84.913ZM42.8273 71.781V105.731C42.8273 106.55 43.4899 107.212 44.3106 107.212H103.761C104.581 107.212 105.244 106.55 105.244 105.731V71.781H42.8273ZM78.4954 98.2531H46.9113C46.6344 98.2531 46.4169 98.0259 46.4169 97.7593C46.4169 97.4827 46.6344 97.2555 46.9113 97.2555H78.4954C78.7722 97.2555 78.9898 97.4728 78.9898 97.7494C78.9898 98.0161 78.7722 98.2531 78.4954 98.2531ZM78.4954 93.2847H46.9113C46.6344 93.2847 46.4169 93.0674 46.4169 92.7908C46.4169 92.5142 46.6344 92.287 46.9113 92.287H78.4954C78.7722 92.287 78.9898 92.5142 78.9898 92.7809C78.9898 93.0575 78.7722 93.2847 78.4954 93.2847ZM78.4954 88.3261H46.9113C46.6344 88.3261 46.4169 88.0989 46.4169 87.8322C46.4169 87.5556 46.6344 87.3186 46.9113 87.3186H78.4954C78.7722 87.3186 78.9898 87.5458 78.9898 87.8125C78.9898 88.089 78.7722 88.3261 78.4954 88.3261ZM101.902 97.7494C101.902 98.0259 101.684 98.2433 101.407 98.2433H84.4186C84.1516 98.2433 83.9242 98.0259 83.9242 97.7494V77.6483C83.9242 77.3718 84.1516 77.1545 84.4186 77.1545H101.407C101.684 77.1545 101.902 77.3718 101.902 77.6483V97.7494ZM84.913 97.2555H100.913V78.1422H84.913V97.2555ZM120.809 105.345V114.413H136.808V105.345H120.809ZM140.645 94.47H116.982C116.161 94.47 115.498 95.1417 115.498 95.9516V98.2531H142.128V95.9516C142.128 95.1417 141.456 94.47 140.645 94.47ZM120.809 105.345V114.413H136.808V105.345H120.809ZM115.498 99.2409V133.19C115.498 134.01 116.161 134.672 116.982 134.672H140.645C141.456 134.672 142.128 134.01 142.128 133.19V99.2409H115.498ZM137.797 129.052C137.797 129.328 137.58 129.546 137.303 129.546H120.314C120.037 129.546 119.82 129.328 119.82 129.052V119.006C119.82 118.73 120.037 118.512 120.314 118.512H137.303C137.58 118.512 137.797 118.73 137.797 119.006V129.052ZM137.797 114.907C137.797 115.183 137.58 115.401 137.303 115.401H120.314C120.037 115.401 119.82 115.183 119.82 114.907V104.851C119.82 104.585 120.037 104.358 120.314 104.358H137.303C137.58 104.358 137.797 104.585 137.797 104.851V114.907ZM120.809 114.413H136.808V105.345H120.809V114.413ZM120.809 105.345V114.413H136.808V105.345H120.809ZM120.809 105.345V114.413H136.808V105.345H120.809ZM115.498 99.2409V133.19C115.498 134.01 116.161 134.672 116.982 134.672H140.645C141.456 134.672 142.128 134.01 142.128 133.19V99.2409H115.498ZM137.797 129.052C137.797 129.328 137.58 129.546 137.303 129.546H120.314C120.037 129.546 119.82 129.328 119.82 129.052V119.006C119.82 118.73 120.037 118.512 120.314 118.512H137.303C137.58 118.512 137.797 118.73 137.797 119.006V129.052ZM137.797 114.907C137.797 115.183 137.58 115.401 137.303 115.401H120.314C120.037 115.401 119.82 115.183 119.82 114.907V104.851C119.82 104.585 120.037 104.358 120.314 104.358H137.303C137.58 104.358 137.797 104.585 137.797 104.851V114.907ZM120.809 114.413H136.808V105.345H120.809V114.413ZM120.809 105.345V114.413H136.808V105.345H120.809ZM140.645 94.47H116.982C116.161 94.47 115.498 95.1417 115.498 95.9516V98.2531H142.128V95.9516C142.128 95.1417 141.456 94.47 140.645 94.47ZM120.809 105.345V114.413H136.808V105.345H120.809ZM84.913 78.1422V97.2555H100.913V78.1422H84.913ZM84.913 78.1422V97.2555H100.913V78.1422H84.913ZM42.8273 71.781V105.731C42.8273 106.55 43.4899 107.212 44.3106 107.212H103.761C104.581 107.212 105.244 106.55 105.244 105.731V71.781H42.8273ZM78.4954 98.2531H46.9113C46.6344 98.2531 46.4169 98.0259 46.4169 97.7593C46.4169 97.4827 46.6344 97.2555 46.9113 97.2555H78.4954C78.7722 97.2555 78.9898 97.4728 78.9898 97.7494C78.9898 98.0161 78.7722 98.2531 78.4954 98.2531ZM78.4954 93.2847H46.9113C46.6344 93.2847 46.4169 93.0674 46.4169 92.7908C46.4169 92.5142 46.6344 92.287 46.9113 92.287H78.4954C78.7722 92.287 78.9898 92.5142 78.9898 92.7809C78.9898 93.0575 78.7722 93.2847 78.4954 93.2847ZM78.4954 88.3261H46.9113C46.6344 88.3261 46.4169 88.0989 46.4169 87.8322C46.4169 87.5556 46.6344 87.3186 46.9113 87.3186H78.4954C78.7722 87.3186 78.9898 87.5458 78.9898 87.8125C78.9898 88.089 78.7722 88.3261 78.4954 88.3261ZM101.902 97.7494C101.902 98.0259 101.684 98.2433 101.407 98.2433H84.4186C84.1516 98.2433 83.9242 98.0259 83.9242 97.7494V77.6483C83.9242 77.3718 84.1516 77.1545 84.4186 77.1545H101.407C101.684 77.1545 101.902 77.3718 101.902 77.6483V97.7494ZM84.913 97.2555H100.913V78.1422H84.913V97.2555ZM84.913 78.1422V97.2555H100.913V78.1422H84.913ZM103.761 67.0101H44.3106C43.4899 67.0101 42.8273 67.6818 42.8273 68.4918V70.7932H105.244V68.4918C105.244 67.6818 104.581 67.0101 103.761 67.0101ZM84.913 78.1422V97.2555H100.913V78.1422H84.913ZM84.913 78.1422V97.2555H100.913V78.1422H84.913ZM103.761 67.0101H44.3106C43.4899 67.0101 42.8273 67.6818 42.8273 68.4918V70.7932H105.244V68.4918C105.244 67.6818 104.581 67.0101 103.761 67.0101ZM84.913 78.1422V97.2555H100.913V78.1422H84.913ZM84.913 78.1422V97.2555H100.913V78.1422H84.913ZM84.913 78.1422V97.2555H100.913V78.1422H84.913ZM42.8273 71.781V105.731C42.8273 106.55 43.4899 107.212 44.3106 107.212H103.761C104.581 107.212 105.244 106.55 105.244 105.731V71.781H42.8273ZM78.4954 98.2531H46.9113C46.6344 98.2531 46.4169 98.0259 46.4169 97.7593C46.4169 97.4827 46.6344 97.2555 46.9113 97.2555H78.4954C78.7722 97.2555 78.9898 97.4728 78.9898 97.7494C78.9898 98.0161 78.7722 98.2531 78.4954 98.2531ZM78.4954 93.2847H46.9113C46.6344 93.2847 46.4169 93.0674 46.4169 92.7908C46.4169 92.5142 46.6344 92.287 46.9113 92.287H78.4954C78.7722 92.287 78.9898 92.5142 78.9898 92.7809C78.9898 93.0575 78.7722 93.2847 78.4954 93.2847ZM78.4954 88.3261H46.9113C46.6344 88.3261 46.4169 88.0989 46.4169 87.8322C46.4169 87.5556 46.6344 87.3186 46.9113 87.3186H78.4954C78.7722 87.3186 78.9898 87.5458 78.9898 87.8125C78.9898 88.089 78.7722 88.3261 78.4954 88.3261ZM101.902 97.7494C101.902 98.0259 101.684 98.2433 101.407 98.2433H84.4186C84.1516 98.2433 83.9242 98.0259 83.9242 97.7494V77.6483C83.9242 77.3718 84.1516 77.1545 84.4186 77.1545H101.407C101.684 77.1545 101.902 77.3718 101.902 77.6483V97.7494ZM84.913 97.2555H100.913V78.1422H84.913V97.2555ZM84.913 78.1422V97.2555H100.913V78.1422H84.913ZM84.913 78.1422V97.2555H100.913V78.1422H84.913ZM120.809 105.345V114.413H136.808V105.345H120.809ZM140.645 94.47H116.982C116.161 94.47 115.498 95.1417 115.498 95.9516V98.2531H142.128V95.9516C142.128 95.1417 141.456 94.47 140.645 94.47ZM120.809 105.345V114.413H136.808V105.345H120.809ZM120.809 105.345V114.413H136.808V105.345H120.809ZM120.809 105.345V114.413H136.808V105.345H120.809ZM115.498 99.2409V133.19C115.498 134.01 116.161 134.672 116.982 134.672H140.645C141.456 134.672 142.128 134.01 142.128 133.19V99.2409H115.498ZM137.797 129.052C137.797 129.328 137.58 129.546 137.303 129.546H120.314C120.037 129.546 119.82 129.328 119.82 129.052V119.006C119.82 118.73 120.037 118.512 120.314 118.512H137.303C137.58 118.512 137.797 118.73 137.797 119.006V129.052ZM137.797 114.907C137.797 115.183 137.58 115.401 137.303 115.401H120.314C120.037 115.401 119.82 115.183 119.82 114.907V104.851C119.82 104.585 120.037 104.358 120.314 104.358H137.303C137.58 104.358 137.797 104.585 137.797 104.851V114.907ZM120.809 114.413H136.808V105.345H120.809V114.413ZM120.809 105.345V114.413H136.808V105.345H120.809ZM120.809 105.345V114.413H136.808V105.345H120.809ZM120.809 105.345V114.413H136.808V105.345H120.809ZM120.809 105.345V114.413H136.808V105.345H120.809ZM120.809 105.345V114.413H136.808V105.345H120.809ZM120.809 105.345V114.413H136.808V105.345H120.809ZM115.498 99.2409V133.19C115.498 134.01 116.161 134.672 116.982 134.672H140.645C141.456 134.672 142.128 134.01 142.128 133.19V99.2409H115.498ZM137.797 129.052C137.797 129.328 137.58 129.546 137.303 129.546H120.314C120.037 129.546 119.82 129.328 119.82 129.052V119.006C119.82 118.73 120.037 118.512 120.314 118.512H137.303C137.58 118.512 137.797 118.73 137.797 119.006V129.052ZM137.797 114.907C137.797 115.183 137.58 115.401 137.303 115.401H120.314C120.037 115.401 119.82 115.183 119.82 114.907V104.851C119.82 104.585 120.037 104.358 120.314 104.358H137.303C137.58 104.358 137.797 104.585 137.797 104.851V114.907ZM120.809 114.413H136.808V105.345H120.809V114.413ZM120.809 105.345V114.413H136.808V105.345H120.809ZM120.809 105.345V114.413H136.808V105.345H120.809ZM120.809 105.345V114.413H136.808V105.345H120.809ZM140.645 94.47H116.982C116.161 94.47 115.498 95.1417 115.498 95.9516V98.2531H142.128V95.9516C142.128 95.1417 141.456 94.47 140.645 94.47ZM120.809 105.345V114.413H136.808V105.345H120.809ZM84.913 78.1422V97.2555H100.913V78.1422H84.913ZM84.913 78.1422V97.2555H100.913V78.1422H84.913ZM84.913 78.1422V97.2555H100.913V78.1422H84.913ZM84.913 78.1422V97.2555H100.913V78.1422H84.913ZM42.8273 71.781V105.731C42.8273 106.55 43.4899 107.212 44.3106 107.212H103.761C104.581 107.212 105.244 106.55 105.244 105.731V71.781H42.8273ZM78.4954 98.2531H46.9113C46.6344 98.2531 46.4169 98.0259 46.4169 97.7593C46.4169 97.4827 46.6344 97.2555 46.9113 97.2555H78.4954C78.7722 97.2555 78.9898 97.4728 78.9898 97.7494C78.9898 98.0161 78.7722 98.2531 78.4954 98.2531ZM78.4954 93.2847H46.9113C46.6344 93.2847 46.4169 93.0674 46.4169 92.7908C46.4169 92.5142 46.6344 92.287 46.9113 92.287H78.4954C78.7722 92.287 78.9898 92.5142 78.9898 92.7809C78.9898 93.0575 78.7722 93.2847 78.4954 93.2847ZM78.4954 88.3261H46.9113C46.6344 88.3261 46.4169 88.0989 46.4169 87.8322C46.4169 87.5556 46.6344 87.3186 46.9113 87.3186H78.4954C78.7722 87.3186 78.9898 87.5458 78.9898 87.8125C78.9898 88.089 78.7722 88.3261 78.4954 88.3261ZM101.902 97.7494C101.902 98.0259 101.684 98.2433 101.407 98.2433H84.4186C84.1516 98.2433 83.9242 98.0259 83.9242 97.7494V77.6483C83.9242 77.3718 84.1516 77.1545 84.4186 77.1545H101.407C101.684 77.1545 101.902 77.3718 101.902 77.6483V97.7494ZM84.913 97.2555H100.913V78.1422H84.913V97.2555ZM84.913 78.1422V97.2555H100.913V78.1422H84.913ZM84.913 78.1422V97.2555H100.913V78.1422H84.913ZM84.913 78.1422V97.2555H100.913V78.1422H84.913ZM103.761 67.0101H44.3106C43.4899 67.0101 42.8273 67.6818 42.8273 68.4918V70.7932H105.244V68.4918C105.244 67.6818 104.581 67.0101 103.761 67.0101ZM84.913 78.1422V97.2555H100.913V78.1422H84.913ZM84.913 78.1422V97.2555H100.913V78.1422H84.913ZM120.809 105.345V114.413H136.808V105.345H120.809ZM140.645 94.47H116.982C116.161 94.47 115.498 95.1417 115.498 95.9516V98.2531H142.128V95.9516C142.128 95.1417 141.456 94.47 140.645 94.47ZM120.809 105.345V114.413H136.808V105.345H120.809ZM120.809 105.345V114.413H136.808V105.345H120.809ZM120.809 105.345V114.413H136.808V105.345H120.809ZM120.809 105.345V114.413H136.808V105.345H120.809ZM120.809 105.345V114.413H136.808V105.345H120.809ZM115.498 99.2409V133.19C115.498 134.01 116.161 134.672 116.982 134.672H140.645C141.456 134.672 142.128 134.01 142.128 133.19V99.2409H115.498ZM137.797 129.052C137.797 129.328 137.58 129.546 137.303 129.546H120.314C120.037 129.546 119.82 129.328 119.82 129.052V119.006C119.82 118.73 120.037 118.512 120.314 118.512H137.303C137.58 118.512 137.797 118.73 137.797 119.006V129.052ZM137.797 114.907C137.797 115.183 137.58 115.401 137.303 115.401H120.314C120.037 115.401 119.82 115.183 119.82 114.907V104.851C119.82 104.585 120.037 104.358 120.314 104.358H137.303C137.58 104.358 137.797 104.585 137.797 104.851V114.907ZM120.809 114.413H136.808V105.345H120.809V114.413ZM120.809 105.345V114.413H136.808V105.345H120.809ZM120.809 105.345V114.413H136.808V105.345H120.809ZM120.809 105.345V114.413H136.808V105.345H120.809ZM120.809 105.345V114.413H136.808V105.345H120.809ZM120.809 105.345V114.413H136.808V105.345H120.809ZM120.809 105.345V114.413H136.808V105.345H120.809ZM120.809 105.345V114.413H136.808V105.345H120.809ZM120.809 105.345V114.413H136.808V105.345H120.809ZM120.809 105.345V114.413H136.808V105.345H120.809ZM120.809 105.345V114.413H136.808V105.345H120.809ZM115.498 99.2409V133.19C115.498 134.01 116.161 134.672 116.982 134.672H140.645C141.456 134.672 142.128 134.01 142.128 133.19V99.2409H115.498ZM137.797 129.052C137.797 129.328 137.58 129.546 137.303 129.546H120.314C120.037 129.546 119.82 129.328 119.82 129.052V119.006C119.82 118.73 120.037 118.512 120.314 118.512H137.303C137.58 118.512 137.797 118.73 137.797 119.006V129.052ZM137.797 114.907C137.797 115.183 137.58 115.401 137.303 115.401H120.314C120.037 115.401 119.82 115.183 119.82 114.907V104.851C119.82 104.585 120.037 104.358 120.314 104.358H137.303C137.58 104.358 137.797 104.585 137.797 104.851V114.907ZM120.809 114.413H136.808V105.345H120.809V114.413ZM120.809 105.345V114.413H136.808V105.345H120.809ZM120.809 105.345V114.413H136.808V105.345H120.809ZM120.809 105.345V114.413H136.808V105.345H120.809ZM120.809 105.345V114.413H136.808V105.345H120.809ZM120.809 105.345V114.413H136.808V105.345H120.809ZM140.645 94.47H116.982C116.161 94.47 115.498 95.1417 115.498 95.9516V98.2531H142.128V95.9516C142.128 95.1417 141.456 94.47 140.645 94.47ZM120.809 105.345V114.413H136.808V105.345H120.809ZM84.913 78.1422V97.2555H100.913V78.1422H84.913ZM120.809 105.345V114.413H136.808V105.345H120.809ZM140.645 94.47H116.982C116.161 94.47 115.498 95.1417 115.498 95.9516V98.2531H142.128V95.9516C142.128 95.1417 141.456 94.47 140.645 94.47ZM120.809 105.345V114.413H136.808V105.345H120.809ZM120.809 105.345V114.413H136.808V105.345H120.809ZM120.809 105.345V114.413H136.808V105.345H120.809ZM120.809 105.345V114.413H136.808V105.345H120.809ZM120.809 105.345V114.413H136.808V105.345H120.809ZM120.809 105.345V114.413H136.808V105.345H120.809ZM120.809 105.345V114.413H136.808V105.345H120.809ZM115.498 99.2409V133.19C115.498 134.01 116.161 134.672 116.982 134.672H140.645C141.456 134.672 142.128 134.01 142.128 133.19V99.2409H115.498ZM137.797 129.052C137.797 129.328 137.58 129.546 137.303 129.546H120.314C120.037 129.546 119.82 129.328 119.82 129.052V119.006C119.82 118.73 120.037 118.512 120.314 118.512H137.303C137.58 118.512 137.797 118.73 137.797 119.006V129.052ZM137.797 114.907C137.797 115.183 137.58 115.401 137.303 115.401H120.314C120.037 115.401 119.82 115.183 119.82 114.907V104.851C119.82 104.585 120.037 104.358 120.314 104.358H137.303C137.58 104.358 137.797 104.585 137.797 104.851V114.907ZM120.809 114.413H136.808V105.345H120.809V114.413ZM120.809 105.345V114.413H136.808V105.345H120.809ZM120.809 105.345V114.413H136.808V105.345H120.809ZM120.809 105.345V114.413H136.808V105.345H120.809ZM120.809 105.345V114.413H136.808V105.345H120.809ZM120.809 105.345V114.413H136.808V105.345H120.809ZM120.809 105.345V114.413H136.808V105.345H120.809ZM120.809 105.345V114.413H136.808V105.345H120.809ZM120.809 105.345V114.413H136.808V105.345H120.809ZM120.809 105.345V114.413H136.808V105.345H120.809ZM120.809 105.345V114.413H136.808V105.345H120.809ZM120.809 105.345V114.413H136.808V105.345H120.809ZM120.809 105.345V114.413H136.808V105.345H120.809ZM120.809 105.345V114.413H136.808V105.345H120.809ZM120.809 105.345V114.413H136.808V105.345H120.809ZM115.498 99.2409V133.19C115.498 134.01 116.161 134.672 116.982 134.672H140.645C141.456 134.672 142.128 134.01 142.128 133.19V99.2409H115.498ZM137.797 129.052C137.797 129.328 137.58 129.546 137.303 129.546H120.314C120.037 129.546 119.82 129.328 119.82 129.052V119.006C119.82 118.73 120.037 118.512 120.314 118.512H137.303C137.58 118.512 137.797 118.73 137.797 119.006V129.052ZM137.797 114.907C137.797 115.183 137.58 115.401 137.303 115.401H120.314C120.037 115.401 119.82 115.183 119.82 114.907V104.851C119.82 104.585 120.037 104.358 120.314 104.358H137.303C137.58 104.358 137.797 104.585 137.797 104.851V114.907ZM120.809 114.413H136.808V105.345H120.809V114.413ZM120.809 105.345V114.413H136.808V105.345H120.809ZM120.809 105.345V114.413H136.808V105.345H120.809ZM120.809 105.345V114.413H136.808V105.345H120.809ZM120.809 105.345V114.413H136.808V105.345H120.809ZM120.809 105.345V114.413H136.808V105.345H120.809ZM120.809 105.345V114.413H136.808V105.345H120.809ZM120.809 105.345V114.413H136.808V105.345H120.809ZM140.645 94.47H116.982C116.161 94.47 115.498 95.1417 115.498 95.9516V98.2531H142.128V95.9516C142.128 95.1417 141.456 94.47 140.645 94.47ZM120.809 105.345V114.413H136.808V105.345H120.809ZM120.809 105.345V114.413H136.808V105.345H120.809ZM120.809 105.345V114.413H136.808V105.345H120.809Z" fill="#4899EC"/>
    <path d="M155.715 56.4706V141.557H150.504V59.8487C150.504 57.9424 148.951 56.3916 147.043 56.3916H36.0735C34.165 56.3916 32.6125 57.9424 32.6125 59.8487V141.557H27.4012V56.4706C27.4012 54.0209 29.3987 52.0256 31.8511 52.0256H151.265C153.718 52.0256 155.715 54.0209 155.715 56.4706Z" fill="#4899EC"/>
    <path d="M136.808 119.5H120.809V128.558H136.808V119.5Z" fill="white"/>
    <path d="M120.809 105.345V114.413H136.808V105.345H120.809ZM140.645 94.47H116.982C116.161 94.47 115.498 95.1417 115.498 95.9516V98.2531H142.128V95.9516C142.128 95.1417 141.456 94.47 140.645 94.47ZM120.809 105.345V114.413H136.808V105.345H120.809ZM120.809 105.345V114.413H136.808V105.345H120.809ZM120.809 105.345V114.413H136.808V105.345H120.809ZM120.809 105.345V114.413H136.808V105.345H120.809ZM120.809 105.345V114.413H136.808V105.345H120.809ZM120.809 105.345V114.413H136.808V105.345H120.809ZM120.809 105.345V114.413H136.808V105.345H120.809ZM120.809 105.345V114.413H136.808V105.345H120.809ZM120.809 105.345V114.413H136.808V105.345H120.809ZM115.498 99.2409V133.19C115.498 134.01 116.161 134.672 116.982 134.672H140.645C141.456 134.672 142.128 134.01 142.128 133.19V99.2409H115.498ZM137.797 129.052C137.797 129.328 137.58 129.546 137.303 129.546H120.314C120.037 129.546 119.82 129.328 119.82 129.052V119.006C119.82 118.73 120.037 118.512 120.314 118.512H137.303C137.58 118.512 137.797 118.73 137.797 119.006V129.052ZM137.797 114.907C137.797 115.183 137.58 115.401 137.303 115.401H120.314C120.037 115.401 119.82 115.183 119.82 114.907V104.851C119.82 104.585 120.037 104.358 120.314 104.358H137.303C137.58 104.358 137.797 104.585 137.797 104.851V114.907ZM120.809 114.413H136.808V105.345H120.809V114.413ZM120.809 105.345V114.413H136.808V105.345H120.809ZM120.809 105.345V114.413H136.808V105.345H120.809ZM120.809 105.345V114.413H136.808V105.345H120.809ZM120.809 105.345V114.413H136.808V105.345H120.809ZM120.809 105.345V114.413H136.808V105.345H120.809ZM120.809 105.345V114.413H136.808V105.345H120.809ZM120.809 105.345V114.413H136.808V105.345H120.809ZM120.809 105.345V114.413H136.808V105.345H120.809ZM120.809 105.345V114.413H136.808V105.345H120.809ZM120.809 105.345V114.413H136.808V105.345H120.809ZM120.809 105.345V114.413H136.808V105.345H120.809ZM120.809 105.345V114.413H136.808V105.345H120.809ZM120.809 105.345V114.413H136.808V105.345H120.809ZM120.809 105.345V114.413H136.808V105.345H120.809ZM120.809 105.345V114.413H136.808V105.345H120.809ZM120.809 105.345V114.413H136.808V105.345H120.809ZM115.498 99.2409V133.19C115.498 134.01 116.161 134.672 116.982 134.672H140.645C141.456 134.672 142.128 134.01 142.128 133.19V99.2409H115.498ZM137.797 129.052C137.797 129.328 137.58 129.546 137.303 129.546H120.314C120.037 129.546 119.82 129.328 119.82 129.052V119.006C119.82 118.73 120.037 118.512 120.314 118.512H137.303C137.58 118.512 137.797 118.73 137.797 119.006V129.052ZM137.797 114.907C137.797 115.183 137.58 115.401 137.303 115.401H120.314C120.037 115.401 119.82 115.183 119.82 114.907V104.851C119.82 104.585 120.037 104.358 120.314 104.358H137.303C137.58 104.358 137.797 104.585 137.797 104.851V114.907ZM120.809 114.413H136.808V105.345H120.809V114.413ZM120.809 105.345V114.413H136.808V105.345H120.809ZM120.809 105.345V114.413H136.808V105.345H120.809ZM120.809 105.345V114.413H136.808V105.345H120.809ZM120.809 105.345V114.413H136.808V105.345H120.809ZM120.809 105.345V114.413H136.808V105.345H120.809ZM120.809 105.345V114.413H136.808V105.345H120.809ZM120.809 105.345V114.413H136.808V105.345H120.809ZM140.645 94.47H116.982C116.161 94.47 115.498 95.1417 115.498 95.9516V98.2531H142.128V95.9516C142.128 95.1417 141.456 94.47 140.645 94.47ZM120.809 105.345V114.413H136.808V105.345H120.809ZM120.809 105.345V114.413H136.808V105.345H120.809ZM140.645 94.47H116.982C116.161 94.47 115.498 95.1417 115.498 95.9516V98.2531H142.128V95.9516C142.128 95.1417 141.456 94.47 140.645 94.47ZM120.809 105.345V114.413H136.808V105.345H120.809ZM120.809 105.345V114.413H136.808V105.345H120.809ZM120.809 105.345V114.413H136.808V105.345H120.809ZM120.809 105.345V114.413H136.808V105.345H120.809ZM120.809 105.345V114.413H136.808V105.345H120.809ZM120.809 105.345V114.413H136.808V105.345H120.809ZM120.809 105.345V114.413H136.808V105.345H120.809ZM115.498 99.2409V133.19C115.498 134.01 116.161 134.672 116.982 134.672H140.645C141.456 134.672 142.128 134.01 142.128 133.19V99.2409H115.498ZM137.797 129.052C137.797 129.328 137.58 129.546 137.303 129.546H120.314C120.037 129.546 119.82 129.328 119.82 129.052V119.006C119.82 118.73 120.037 118.512 120.314 118.512H137.303C137.58 118.512 137.797 118.73 137.797 119.006V129.052ZM137.797 114.907C137.797 115.183 137.58 115.401 137.303 115.401H120.314C120.037 115.401 119.82 115.183 119.82 114.907V104.851C119.82 104.585 120.037 104.358 120.314 104.358H137.303C137.58 104.358 137.797 104.585 137.797 104.851V114.907ZM120.809 114.413H136.808V105.345H120.809V114.413ZM120.809 105.345V114.413H136.808V105.345H120.809ZM120.809 105.345V114.413H136.808V105.345H120.809ZM120.809 105.345V114.413H136.808V105.345H120.809ZM120.809 105.345V114.413H136.808V105.345H120.809ZM120.809 105.345V114.413H136.808V105.345H120.809ZM120.809 105.345V114.413H136.808V105.345H120.809ZM120.809 105.345V114.413H136.808V105.345H120.809ZM120.809 105.345V114.413H136.808V105.345H120.809ZM120.809 105.345V114.413H136.808V105.345H120.809ZM120.809 105.345V114.413H136.808V105.345H120.809ZM120.809 105.345V114.413H136.808V105.345H120.809ZM120.809 105.345V114.413H136.808V105.345H120.809ZM115.498 99.2409V133.19C115.498 134.01 116.161 134.672 116.982 134.672H140.645C141.456 134.672 142.128 134.01 142.128 133.19V99.2409H115.498ZM137.797 129.052C137.797 129.328 137.58 129.546 137.303 129.546H120.314C120.037 129.546 119.82 129.328 119.82 129.052V119.006C119.82 118.73 120.037 118.512 120.314 118.512H137.303C137.58 118.512 137.797 118.73 137.797 119.006V129.052ZM137.797 114.907C137.797 115.183 137.58 115.401 137.303 115.401H120.314C120.037 115.401 119.82 115.183 119.82 114.907V104.851C119.82 104.585 120.037 104.358 120.314 104.358H137.303C137.58 104.358 137.797 104.585 137.797 104.851V114.907ZM120.809 114.413H136.808V105.345H120.809V114.413ZM120.809 105.345V114.413H136.808V105.345H120.809ZM120.809 105.345V114.413H136.808V105.345H120.809ZM120.809 105.345V114.413H136.808V105.345H120.809ZM120.809 105.345V114.413H136.808V105.345H120.809ZM120.809 105.345V114.413H136.808V105.345H120.809ZM140.645 94.47H116.982C116.161 94.47 115.498 95.1417 115.498 95.9516V98.2531H142.128V95.9516C142.128 95.1417 141.456 94.47 140.645 94.47ZM120.809 105.345V114.413H136.808V105.345H120.809ZM84.913 78.1422V97.2555H100.913V78.1422H84.913ZM103.761 67.0101H44.3106C43.4899 67.0101 42.8273 67.6818 42.8273 68.4918V70.7932H105.244V68.4918C105.244 67.6818 104.581 67.0101 103.761 67.0101ZM84.913 78.1422V97.2555H100.913V78.1422H84.913ZM84.913 78.1422V97.2555H100.913V78.1422H84.913ZM84.913 78.1422V97.2555H100.913V78.1422H84.913ZM84.913 78.1422V97.2555H100.913V78.1422H84.913ZM84.913 78.1422V97.2555H100.913V78.1422H84.913ZM42.8273 71.781V105.731C42.8273 106.55 43.4899 107.212 44.3106 107.212H103.761C104.581 107.212 105.244 106.55 105.244 105.731V71.781H42.8273ZM78.4954 98.2531H46.9113C46.6344 98.2531 46.4169 98.0259 46.4169 97.7593C46.4169 97.4827 46.6344 97.2555 46.9113 97.2555H78.4954C78.7722 97.2555 78.9898 97.4728 78.9898 97.7494C78.9898 98.0161 78.7722 98.2531 78.4954 98.2531ZM78.4954 93.2847H46.9113C46.6344 93.2847 46.4169 93.0674 46.4169 92.7908C46.4169 92.5142 46.6344 92.287 46.9113 92.287H78.4954C78.7722 92.287 78.9898 92.5142 78.9898 92.7809C78.9898 93.0575 78.7722 93.2847 78.4954 93.2847ZM78.4954 88.3261H46.9113C46.6344 88.3261 46.4169 88.0989 46.4169 87.8322C46.4169 87.5556 46.6344 87.3186 46.9113 87.3186H78.4954C78.7722 87.3186 78.9898 87.5458 78.9898 87.8125C78.9898 88.089 78.7722 88.3261 78.4954 88.3261ZM101.902 97.7494C101.902 98.0259 101.684 98.2433 101.407 98.2433H84.4186C84.1516 98.2433 83.9242 98.0259 83.9242 97.7494V77.6483C83.9242 77.3718 84.1516 77.1545 84.4186 77.1545H101.407C101.684 77.1545 101.902 77.3718 101.902 77.6483V97.7494ZM84.913 97.2555H100.913V78.1422H84.913V97.2555ZM84.913 78.1422V97.2555H100.913V78.1422H84.913ZM84.913 78.1422V97.2555H100.913V78.1422H84.913ZM84.913 78.1422V97.2555H100.913V78.1422H84.913ZM84.913 78.1422V97.2555H100.913V78.1422H84.913ZM120.809 105.345V114.413H136.808V105.345H120.809ZM140.645 94.47H116.982C116.161 94.47 115.498 95.1417 115.498 95.9516V98.2531H142.128V95.9516C142.128 95.1417 141.456 94.47 140.645 94.47ZM120.809 105.345V114.413H136.808V105.345H120.809ZM120.809 105.345V114.413H136.808V105.345H120.809ZM120.809 105.345V114.413H136.808V105.345H120.809ZM120.809 105.345V114.413H136.808V105.345H120.809ZM120.809 105.345V114.413H136.808V105.345H120.809ZM115.498 99.2409V133.19C115.498 134.01 116.161 134.672 116.982 134.672H140.645C141.456 134.672 142.128 134.01 142.128 133.19V99.2409H115.498ZM137.797 129.052C137.797 129.328 137.58 129.546 137.303 129.546H120.314C120.037 129.546 119.82 129.328 119.82 129.052V119.006C119.82 118.73 120.037 118.512 120.314 118.512H137.303C137.58 118.512 137.797 118.73 137.797 119.006V129.052ZM137.797 114.907C137.797 115.183 137.58 115.401 137.303 115.401H120.314C120.037 115.401 119.82 115.183 119.82 114.907V104.851C119.82 104.585 120.037 104.358 120.314 104.358H137.303C137.58 104.358 137.797 104.585 137.797 104.851V114.907ZM120.809 114.413H136.808V105.345H120.809V114.413ZM120.809 105.345V114.413H136.808V105.345H120.809ZM120.809 105.345V114.413H136.808V105.345H120.809ZM120.809 105.345V114.413H136.808V105.345H120.809ZM120.809 105.345V114.413H136.808V105.345H120.809ZM120.809 105.345V114.413H136.808V105.345H120.809ZM120.809 105.345V114.413H136.808V105.345H120.809ZM120.809 105.345V114.413H136.808V105.345H120.809ZM120.809 105.345V114.413H136.808V105.345H120.809ZM115.498 99.2409V133.19C115.498 134.01 116.161 134.672 116.982 134.672H140.645C141.456 134.672 142.128 134.01 142.128 133.19V99.2409H115.498ZM137.797 129.052C137.797 129.328 137.58 129.546 137.303 129.546H120.314C120.037 129.546 119.82 129.328 119.82 129.052V119.006C119.82 118.73 120.037 118.512 120.314 118.512H137.303C137.58 118.512 137.797 118.73 137.797 119.006V129.052ZM137.797 114.907C137.797 115.183 137.58 115.401 137.303 115.401H120.314C120.037 115.401 119.82 115.183 119.82 114.907V104.851C119.82 104.585 120.037 104.358 120.314 104.358H137.303C137.58 104.358 137.797 104.585 137.797 104.851V114.907ZM120.809 114.413H136.808V105.345H120.809V114.413ZM120.809 105.345V114.413H136.808V105.345H120.809ZM120.809 105.345V114.413H136.808V105.345H120.809ZM120.809 105.345V114.413H136.808V105.345H120.809ZM140.645 94.47H116.982C116.161 94.47 115.498 95.1417 115.498 95.9516V98.2531H142.128V95.9516C142.128 95.1417 141.456 94.47 140.645 94.47ZM120.809 105.345V114.413H136.808V105.345H120.809ZM84.913 78.1422V97.2555H100.913V78.1422H84.913ZM84.913 78.1422V97.2555H100.913V78.1422H84.913ZM84.913 78.1422V97.2555H100.913V78.1422H84.913ZM84.913 78.1422V97.2555H100.913V78.1422H84.913ZM42.8273 71.781V105.731C42.8273 106.55 43.4899 107.212 44.3106 107.212H103.761C104.581 107.212 105.244 106.55 105.244 105.731V71.781H42.8273ZM78.4954 98.2531H46.9113C46.6344 98.2531 46.4169 98.0259 46.4169 97.7593C46.4169 97.4827 46.6344 97.2555 46.9113 97.2555H78.4954C78.7722 97.2555 78.9898 97.4728 78.9898 97.7494C78.9898 98.0161 78.7722 98.2531 78.4954 98.2531ZM78.4954 93.2847H46.9113C46.6344 93.2847 46.4169 93.0674 46.4169 92.7908C46.4169 92.5142 46.6344 92.287 46.9113 92.287H78.4954C78.7722 92.287 78.9898 92.5142 78.9898 92.7809C78.9898 93.0575 78.7722 93.2847 78.4954 93.2847ZM78.4954 88.3261H46.9113C46.6344 88.3261 46.4169 88.0989 46.4169 87.8322C46.4169 87.5556 46.6344 87.3186 46.9113 87.3186H78.4954C78.7722 87.3186 78.9898 87.5458 78.9898 87.8125C78.9898 88.089 78.7722 88.3261 78.4954 88.3261ZM101.902 97.7494C101.902 98.0259 101.684 98.2433 101.407 98.2433H84.4186C84.1516 98.2433 83.9242 98.0259 83.9242 97.7494V77.6483C83.9242 77.3718 84.1516 77.1545 84.4186 77.1545H101.407C101.684 77.1545 101.902 77.3718 101.902 77.6483V97.7494ZM84.913 97.2555H100.913V78.1422H84.913V97.2555ZM84.913 78.1422V97.2555H100.913V78.1422H84.913ZM84.913 78.1422V97.2555H100.913V78.1422H84.913ZM84.913 78.1422V97.2555H100.913V78.1422H84.913ZM103.761 67.0101H44.3106C43.4899 67.0101 42.8273 67.6818 42.8273 68.4918V70.7932H105.244V68.4918C105.244 67.6818 104.581 67.0101 103.761 67.0101ZM84.913 78.1422V97.2555H100.913V78.1422H84.913ZM84.913 78.1422V97.2555H100.913V78.1422H84.913ZM103.761 67.0101H44.3106C43.4899 67.0101 42.8273 67.6818 42.8273 68.4918V70.7932H105.244V68.4918C105.244 67.6818 104.581 67.0101 103.761 67.0101ZM84.913 78.1422V97.2555H100.913V78.1422H84.913ZM84.913 78.1422V97.2555H100.913V78.1422H84.913ZM84.913 78.1422V97.2555H100.913V78.1422H84.913ZM42.8273 71.781V105.731C42.8273 106.55 43.4899 107.212 44.3106 107.212H103.761C104.581 107.212 105.244 106.55 105.244 105.731V71.781H42.8273ZM78.4954 98.2531H46.9113C46.6344 98.2531 46.4169 98.0259 46.4169 97.7593C46.4169 97.4827 46.6344 97.2555 46.9113 97.2555H78.4954C78.7722 97.2555 78.9898 97.4728 78.9898 97.7494C78.9898 98.0161 78.7722 98.2531 78.4954 98.2531ZM78.4954 93.2847H46.9113C46.6344 93.2847 46.4169 93.0674 46.4169 92.7908C46.4169 92.5142 46.6344 92.287 46.9113 92.287H78.4954C78.7722 92.287 78.9898 92.5142 78.9898 92.7809C78.9898 93.0575 78.7722 93.2847 78.4954 93.2847ZM78.4954 88.3261H46.9113C46.6344 88.3261 46.4169 88.0989 46.4169 87.8322C46.4169 87.5556 46.6344 87.3186 46.9113 87.3186H78.4954C78.7722 87.3186 78.9898 87.5458 78.9898 87.8125C78.9898 88.089 78.7722 88.3261 78.4954 88.3261ZM101.902 97.7494C101.902 98.0259 101.684 98.2433 101.407 98.2433H84.4186C84.1516 98.2433 83.9242 98.0259 83.9242 97.7494V77.6483C83.9242 77.3718 84.1516 77.1545 84.4186 77.1545H101.407C101.684 77.1545 101.902 77.3718 101.902 77.6483V97.7494ZM84.913 97.2555H100.913V78.1422H84.913V97.2555ZM84.913 78.1422V97.2555H100.913V78.1422H84.913ZM84.913 78.1422V97.2555H100.913V78.1422H84.913ZM120.809 105.345V114.413H136.808V105.345H120.809ZM140.645 94.47H116.982C116.161 94.47 115.498 95.1417 115.498 95.9516V98.2531H142.128V95.9516C142.128 95.1417 141.456 94.47 140.645 94.47ZM120.809 105.345V114.413H136.808V105.345H120.809ZM120.809 105.345V114.413H136.808V105.345H120.809ZM120.809 105.345V114.413H136.808V105.345H120.809ZM115.498 99.2409V133.19C115.498 134.01 116.161 134.672 116.982 134.672H140.645C141.456 134.672 142.128 134.01 142.128 133.19V99.2409H115.498ZM137.797 129.052C137.797 129.328 137.58 129.546 137.303 129.546H120.314C120.037 129.546 119.82 129.328 119.82 129.052V119.006C119.82 118.73 120.037 118.512 120.314 118.512H137.303C137.58 118.512 137.797 118.73 137.797 119.006V129.052ZM137.797 114.907C137.797 115.183 137.58 115.401 137.303 115.401H120.314C120.037 115.401 119.82 115.183 119.82 114.907V104.851C119.82 104.585 120.037 104.358 120.314 104.358H137.303C137.58 104.358 137.797 104.585 137.797 104.851V114.907ZM120.809 114.413H136.808V105.345H120.809V114.413ZM120.809 105.345V114.413H136.808V105.345H120.809ZM120.809 105.345V114.413H136.808V105.345H120.809ZM120.809 105.345V114.413H136.808V105.345H120.809ZM120.809 105.345V114.413H136.808V105.345H120.809ZM115.498 99.2409V133.19C115.498 134.01 116.161 134.672 116.982 134.672H140.645C141.456 134.672 142.128 134.01 142.128 133.19V99.2409H115.498ZM137.797 129.052C137.797 129.328 137.58 129.546 137.303 129.546H120.314C120.037 129.546 119.82 129.328 119.82 129.052V119.006C119.82 118.73 120.037 118.512 120.314 118.512H137.303C137.58 118.512 137.797 118.73 137.797 119.006V129.052ZM137.797 114.907C137.797 115.183 137.58 115.401 137.303 115.401H120.314C120.037 115.401 119.82 115.183 119.82 114.907V104.851C119.82 104.585 120.037 104.358 120.314 104.358H137.303C137.58 104.358 137.797 104.585 137.797 104.851V114.907ZM120.809 114.413H136.808V105.345H120.809V114.413ZM120.809 105.345V114.413H136.808V105.345H120.809ZM140.645 94.47H116.982C116.161 94.47 115.498 95.1417 115.498 95.9516V98.2531H142.128V95.9516C142.128 95.1417 141.456 94.47 140.645 94.47ZM120.809 105.345V114.413H136.808V105.345H120.809ZM84.913 78.1422V97.2555H100.913V78.1422H84.913ZM84.913 78.1422V97.2555H100.913V78.1422H84.913ZM42.8273 71.781V105.731C42.8273 106.55 43.4899 107.212 44.3106 107.212H103.761C104.581 107.212 105.244 106.55 105.244 105.731V71.781H42.8273ZM78.4954 98.2531H46.9113C46.6344 98.2531 46.4169 98.0259 46.4169 97.7593C46.4169 97.4827 46.6344 97.2555 46.9113 97.2555H78.4954C78.7722 97.2555 78.9898 97.4728 78.9898 97.7494C78.9898 98.0161 78.7722 98.2531 78.4954 98.2531ZM78.4954 93.2847H46.9113C46.6344 93.2847 46.4169 93.0674 46.4169 92.7908C46.4169 92.5142 46.6344 92.287 46.9113 92.287H78.4954C78.7722 92.287 78.9898 92.5142 78.9898 92.7809C78.9898 93.0575 78.7722 93.2847 78.4954 93.2847ZM78.4954 88.3261H46.9113C46.6344 88.3261 46.4169 88.0989 46.4169 87.8322C46.4169 87.5556 46.6344 87.3186 46.9113 87.3186H78.4954C78.7722 87.3186 78.9898 87.5458 78.9898 87.8125C78.9898 88.089 78.7722 88.3261 78.4954 88.3261ZM101.902 97.7494C101.902 98.0259 101.684 98.2433 101.407 98.2433H84.4186C84.1516 98.2433 83.9242 98.0259 83.9242 97.7494V77.6483C83.9242 77.3718 84.1516 77.1545 84.4186 77.1545H101.407C101.684 77.1545 101.902 77.3718 101.902 77.6483V97.7494ZM84.913 97.2555H100.913V78.1422H84.913V97.2555ZM84.913 78.1422V97.2555H100.913V78.1422H84.913ZM103.761 67.0101H44.3106C43.4899 67.0101 42.8273 67.6818 42.8273 68.4918V70.7932H105.244V68.4918C105.244 67.6818 104.581 67.0101 103.761 67.0101ZM84.913 78.1422V97.2555H100.913V78.1422H84.913ZM84.913 78.1422V97.2555H100.913V78.1422H84.913ZM103.761 67.0101H44.3106C43.4899 67.0101 42.8273 67.6818 42.8273 68.4918V70.7932H105.244V68.4918C105.244 67.6818 104.581 67.0101 103.761 67.0101ZM84.913 78.1422V97.2555H100.913V78.1422H84.913ZM42.8273 71.781V105.731C42.8273 106.55 43.4899 107.212 44.3106 107.212H103.761C104.581 107.212 105.244 106.55 105.244 105.731V71.781H42.8273ZM78.4954 98.2531H46.9113C46.6344 98.2531 46.4169 98.0259 46.4169 97.7593C46.4169 97.4827 46.6344 97.2555 46.9113 97.2555H78.4954C78.7722 97.2555 78.9898 97.4728 78.9898 97.7494C78.9898 98.0161 78.7722 98.2531 78.4954 98.2531ZM78.4954 93.2847H46.9113C46.6344 93.2847 46.4169 93.0674 46.4169 92.7908C46.4169 92.5142 46.6344 92.287 46.9113 92.287H78.4954C78.7722 92.287 78.9898 92.5142 78.9898 92.7809C78.9898 93.0575 78.7722 93.2847 78.4954 93.2847ZM78.4954 88.3261H46.9113C46.6344 88.3261 46.4169 88.0989 46.4169 87.8322C46.4169 87.5556 46.6344 87.3186 46.9113 87.3186H78.4954C78.7722 87.3186 78.9898 87.5458 78.9898 87.8125C78.9898 88.089 78.7722 88.3261 78.4954 88.3261ZM101.902 97.7494C101.902 98.0259 101.684 98.2433 101.407 98.2433H84.4186C84.1516 98.2433 83.9242 98.0259 83.9242 97.7494V77.6483C83.9242 77.3718 84.1516 77.1545 84.4186 77.1545H101.407C101.684 77.1545 101.902 77.3718 101.902 77.6483V97.7494ZM84.913 97.2555H100.913V78.1422H84.913V97.2555ZM120.809 105.345V114.413H136.808V105.345H120.809ZM140.645 94.47H116.982C116.161 94.47 115.498 95.1417 115.498 95.9516V98.2531H142.128V95.9516C142.128 95.1417 141.456 94.47 140.645 94.47ZM120.809 105.345V114.413H136.808V105.345H120.809ZM115.498 99.2409V133.19C115.498 134.01 116.161 134.672 116.982 134.672H140.645C141.456 134.672 142.128 134.01 142.128 133.19V99.2409H115.498ZM137.797 129.052C137.797 129.328 137.58 129.546 137.303 129.546H120.314C120.037 129.546 119.82 129.328 119.82 129.052V119.006C119.82 118.73 120.037 118.512 120.314 118.512H137.303C137.58 118.512 137.797 118.73 137.797 119.006V129.052ZM137.797 114.907C137.797 115.183 137.58 115.401 137.303 115.401H120.314C120.037 115.401 119.82 115.183 119.82 114.907V104.851C119.82 104.585 120.037 104.358 120.314 104.358H137.303C137.58 104.358 137.797 104.585 137.797 104.851V114.907ZM120.809 114.413H136.808V105.345H120.809V114.413ZM115.498 133.19C115.498 134.01 116.161 134.672 116.982 134.672H140.645C141.456 134.672 142.128 134.01 142.128 133.19V99.2409H115.498V133.19ZM119.82 104.851C119.82 104.585 120.037 104.358 120.314 104.358H137.303C137.58 104.358 137.797 104.585 137.797 104.851V114.907C137.797 115.183 137.58 115.401 137.303 115.401H120.314C120.037 115.401 119.82 115.183 119.82 114.907V104.851ZM119.82 119.006C119.82 118.73 120.037 118.512 120.314 118.512H137.303C137.58 118.512 137.797 118.73 137.797 119.006V129.052C137.797 129.328 137.58 129.546 137.303 129.546H120.314C120.037 129.546 119.82 129.328 119.82 129.052V119.006ZM140.645 94.47H116.982C116.161 94.47 115.498 95.1417 115.498 95.9516V98.2531H142.128V95.9516C142.128 95.1417 141.456 94.47 140.645 94.47ZM136.808 105.345H120.809V114.413H136.808V105.345ZM42.8273 105.731C42.8273 106.55 43.4899 107.212 44.3106 107.212H103.761C104.581 107.212 105.244 106.55 105.244 105.731V71.781H42.8273V105.731ZM83.9242 77.6483C83.9242 77.3718 84.1516 77.1545 84.4186 77.1545H101.407C101.684 77.1545 101.902 77.3718 101.902 77.6483V97.7494C101.902 98.0259 101.684 98.2433 101.407 98.2433H84.4186C84.1516 98.2433 83.9242 98.0259 83.9242 97.7494V77.6483ZM46.9113 87.3186H78.4954C78.7722 87.3186 78.9898 87.5458 78.9898 87.8125C78.9898 88.089 78.7722 88.3261 78.4954 88.3261H46.9113C46.6344 88.3261 46.4169 88.0989 46.4169 87.8322C46.4169 87.5556 46.6344 87.3186 46.9113 87.3186ZM46.9113 92.287H78.4954C78.7722 92.287 78.9898 92.5142 78.9898 92.7809C78.9898 93.0575 78.7722 93.2847 78.4954 93.2847H46.9113C46.6344 93.2847 46.4169 93.0674 46.4169 92.7908C46.4169 92.5142 46.6344 92.287 46.9113 92.287ZM46.9113 97.2555H78.4954C78.7722 97.2555 78.9898 97.4728 78.9898 97.7494C78.9898 98.0161 78.7722 98.2531 78.4954 98.2531H46.9113C46.6344 98.2531 46.4169 98.0259 46.4169 97.7593C46.4169 97.4827 46.6344 97.2555 46.9113 97.2555ZM103.761 67.0101H44.3106C43.4899 67.0101 42.8273 67.6818 42.8273 68.4918V70.7932H105.244V68.4918C105.244 67.6818 104.581 67.0101 103.761 67.0101ZM100.913 78.1422H84.913V97.2555H100.913V78.1422ZM147.043 57.3794H36.0735C34.7088 57.3794 33.6013 58.4956 33.6013 59.8488V141.557H149.515V59.8488C149.515 58.4956 148.407 57.3794 147.043 57.3794ZM106.233 105.731C106.233 107.094 105.125 108.2 103.761 108.2H44.3106C42.946 108.2 41.8385 107.094 41.8385 105.731V68.4918C41.8385 67.1286 42.946 66.0223 44.3106 66.0223H103.761C105.125 66.0223 106.233 67.1286 106.233 68.4918V105.731ZM143.117 133.19C143.117 134.554 142 135.66 140.645 135.66H116.982C115.617 135.66 114.509 134.554 114.509 133.19V95.9516C114.509 94.5885 115.617 93.4822 116.982 93.4822H140.645C142 93.4822 143.117 94.5885 143.117 95.9516V133.19ZM115.498 133.19C115.498 134.01 116.161 134.672 116.982 134.672H140.645C141.456 134.672 142.128 134.01 142.128 133.19V99.2409H115.498V133.19ZM119.82 104.851C119.82 104.585 120.037 104.358 120.314 104.358H137.303C137.58 104.358 137.797 104.585 137.797 104.851V114.907C137.797 115.183 137.58 115.401 137.303 115.401H120.314C120.037 115.401 119.82 115.183 119.82 114.907V104.851ZM119.82 119.006C119.82 118.73 120.037 118.512 120.314 118.512H137.303C137.58 118.512 137.797 118.73 137.797 119.006V129.052C137.797 129.328 137.58 129.546 137.303 129.546H120.314C120.037 129.546 119.82 129.328 119.82 129.052V119.006ZM140.645 94.47H116.982C116.161 94.47 115.498 95.1417 115.498 95.9516V98.2531H142.128V95.9516C142.128 95.1417 141.456 94.47 140.645 94.47ZM136.808 105.345H120.809V114.413H136.808V105.345ZM42.8273 105.731C42.8273 106.55 43.4899 107.212 44.3106 107.212H103.761C104.581 107.212 105.244 106.55 105.244 105.731V71.781H42.8273V105.731ZM83.9242 77.6483C83.9242 77.3718 84.1516 77.1545 84.4186 77.1545H101.407C101.684 77.1545 101.902 77.3718 101.902 77.6483V97.7494C101.902 98.0259 101.684 98.2433 101.407 98.2433H84.4186C84.1516 98.2433 83.9242 98.0259 83.9242 97.7494V77.6483ZM46.9113 87.3186H78.4954C78.7722 87.3186 78.9898 87.5458 78.9898 87.8125C78.9898 88.089 78.7722 88.3261 78.4954 88.3261H46.9113C46.6344 88.3261 46.4169 88.0989 46.4169 87.8322C46.4169 87.5556 46.6344 87.3186 46.9113 87.3186ZM46.9113 92.287H78.4954C78.7722 92.287 78.9898 92.5142 78.9898 92.7809C78.9898 93.0575 78.7722 93.2847 78.4954 93.2847H46.9113C46.6344 93.2847 46.4169 93.0674 46.4169 92.7908C46.4169 92.5142 46.6344 92.287 46.9113 92.287ZM46.9113 97.2555H78.4954C78.7722 97.2555 78.9898 97.4728 78.9898 97.7494C78.9898 98.0161 78.7722 98.2531 78.4954 98.2531H46.9113C46.6344 98.2531 46.4169 98.0259 46.4169 97.7593C46.4169 97.4827 46.6344 97.2555 46.9113 97.2555ZM103.761 67.0101H44.3106C43.4899 67.0101 42.8273 67.6818 42.8273 68.4918V70.7932H105.244V68.4918C105.244 67.6818 104.581 67.0101 103.761 67.0101ZM100.913 78.1422H84.913V97.2555H100.913V78.1422ZM84.913 78.1422V97.2555H100.913V78.1422H84.913ZM103.761 67.0101H44.3106C43.4899 67.0101 42.8273 67.6818 42.8273 68.4918V70.7932H105.244V68.4918C105.244 67.6818 104.581 67.0101 103.761 67.0101ZM84.913 78.1422V97.2555H100.913V78.1422H84.913ZM42.8273 71.781V105.731C42.8273 106.55 43.4899 107.212 44.3106 107.212H103.761C104.581 107.212 105.244 106.55 105.244 105.731V71.781H42.8273ZM78.4954 98.2531H46.9113C46.6344 98.2531 46.4169 98.0259 46.4169 97.7593C46.4169 97.4827 46.6344 97.2555 46.9113 97.2555H78.4954C78.7722 97.2555 78.9898 97.4728 78.9898 97.7494C78.9898 98.0161 78.7722 98.2531 78.4954 98.2531ZM78.4954 93.2847H46.9113C46.6344 93.2847 46.4169 93.0674 46.4169 92.7908C46.4169 92.5142 46.6344 92.287 46.9113 92.287H78.4954C78.7722 92.287 78.9898 92.5142 78.9898 92.7809C78.9898 93.0575 78.7722 93.2847 78.4954 93.2847ZM78.4954 88.3261H46.9113C46.6344 88.3261 46.4169 88.0989 46.4169 87.8322C46.4169 87.5556 46.6344 87.3186 46.9113 87.3186H78.4954C78.7722 87.3186 78.9898 87.5458 78.9898 87.8125C78.9898 88.089 78.7722 88.3261 78.4954 88.3261ZM101.902 97.7494C101.902 98.0259 101.684 98.2433 101.407 98.2433H84.4186C84.1516 98.2433 83.9242 98.0259 83.9242 97.7494V77.6483C83.9242 77.3718 84.1516 77.1545 84.4186 77.1545H101.407C101.684 77.1545 101.902 77.3718 101.902 77.6483V97.7494ZM84.913 97.2555H100.913V78.1422H84.913V97.2555ZM120.809 105.345V114.413H136.808V105.345H120.809ZM140.645 94.47H116.982C116.161 94.47 115.498 95.1417 115.498 95.9516V98.2531H142.128V95.9516C142.128 95.1417 141.456 94.47 140.645 94.47ZM120.809 105.345V114.413H136.808V105.345H120.809ZM115.498 99.2409V133.19C115.498 134.01 116.161 134.672 116.982 134.672H140.645C141.456 134.672 142.128 134.01 142.128 133.19V99.2409H115.498ZM137.797 129.052C137.797 129.328 137.58 129.546 137.303 129.546H120.314C120.037 129.546 119.82 129.328 119.82 129.052V119.006C119.82 118.73 120.037 118.512 120.314 118.512H137.303C137.58 118.512 137.797 118.73 137.797 119.006V129.052ZM137.797 114.907C137.797 115.183 137.58 115.401 137.303 115.401H120.314C120.037 115.401 119.82 115.183 119.82 114.907V104.851C119.82 104.585 120.037 104.358 120.314 104.358H137.303C137.58 104.358 137.797 104.585 137.797 104.851V114.907ZM120.809 114.413H136.808V105.345H120.809V114.413ZM120.809 105.345V114.413H136.808V105.345H120.809ZM120.809 105.345V114.413H136.808V105.345H120.809ZM115.498 99.2409V133.19C115.498 134.01 116.161 134.672 116.982 134.672H140.645C141.456 134.672 142.128 134.01 142.128 133.19V99.2409H115.498ZM137.797 129.052C137.797 129.328 137.58 129.546 137.303 129.546H120.314C120.037 129.546 119.82 129.328 119.82 129.052V119.006C119.82 118.73 120.037 118.512 120.314 118.512H137.303C137.58 118.512 137.797 118.73 137.797 119.006V129.052ZM137.797 114.907C137.797 115.183 137.58 115.401 137.303 115.401H120.314C120.037 115.401 119.82 115.183 119.82 114.907V104.851C119.82 104.585 120.037 104.358 120.314 104.358H137.303C137.58 104.358 137.797 104.585 137.797 104.851V114.907ZM120.809 114.413H136.808V105.345H120.809V114.413ZM120.809 105.345V114.413H136.808V105.345H120.809ZM140.645 94.47H116.982C116.161 94.47 115.498 95.1417 115.498 95.9516V98.2531H142.128V95.9516C142.128 95.1417 141.456 94.47 140.645 94.47ZM120.809 105.345V114.413H136.808V105.345H120.809ZM84.913 78.1422V97.2555H100.913V78.1422H84.913ZM84.913 78.1422V97.2555H100.913V78.1422H84.913ZM42.8273 71.781V105.731C42.8273 106.55 43.4899 107.212 44.3106 107.212H103.761C104.581 107.212 105.244 106.55 105.244 105.731V71.781H42.8273ZM78.4954 98.2531H46.9113C46.6344 98.2531 46.4169 98.0259 46.4169 97.7593C46.4169 97.4827 46.6344 97.2555 46.9113 97.2555H78.4954C78.7722 97.2555 78.9898 97.4728 78.9898 97.7494C78.9898 98.0161 78.7722 98.2531 78.4954 98.2531ZM78.4954 93.2847H46.9113C46.6344 93.2847 46.4169 93.0674 46.4169 92.7908C46.4169 92.5142 46.6344 92.287 46.9113 92.287H78.4954C78.7722 92.287 78.9898 92.5142 78.9898 92.7809C78.9898 93.0575 78.7722 93.2847 78.4954 93.2847ZM78.4954 88.3261H46.9113C46.6344 88.3261 46.4169 88.0989 46.4169 87.8322C46.4169 87.5556 46.6344 87.3186 46.9113 87.3186H78.4954C78.7722 87.3186 78.9898 87.5458 78.9898 87.8125C78.9898 88.089 78.7722 88.3261 78.4954 88.3261ZM101.902 97.7494C101.902 98.0259 101.684 98.2433 101.407 98.2433H84.4186C84.1516 98.2433 83.9242 98.0259 83.9242 97.7494V77.6483C83.9242 77.3718 84.1516 77.1545 84.4186 77.1545H101.407C101.684 77.1545 101.902 77.3718 101.902 77.6483V97.7494ZM84.913 97.2555H100.913V78.1422H84.913V97.2555ZM84.913 78.1422V97.2555H100.913V78.1422H84.913ZM103.761 67.0101H44.3106C43.4899 67.0101 42.8273 67.6818 42.8273 68.4918V70.7932H105.244V68.4918C105.244 67.6818 104.581 67.0101 103.761 67.0101ZM84.913 78.1422V97.2555H100.913V78.1422H84.913ZM84.913 78.1422V97.2555H100.913V78.1422H84.913ZM103.761 67.0101H44.3106C43.4899 67.0101 42.8273 67.6818 42.8273 68.4918V70.7932H105.244V68.4918C105.244 67.6818 104.581 67.0101 103.761 67.0101ZM84.913 78.1422V97.2555H100.913V78.1422H84.913ZM84.913 78.1422V97.2555H100.913V78.1422H84.913ZM84.913 78.1422V97.2555H100.913V78.1422H84.913ZM42.8273 71.781V105.731C42.8273 106.55 43.4899 107.212 44.3106 107.212H103.761C104.581 107.212 105.244 106.55 105.244 105.731V71.781H42.8273ZM78.4954 98.2531H46.9113C46.6344 98.2531 46.4169 98.0259 46.4169 97.7593C46.4169 97.4827 46.6344 97.2555 46.9113 97.2555H78.4954C78.7722 97.2555 78.9898 97.4728 78.9898 97.7494C78.9898 98.0161 78.7722 98.2531 78.4954 98.2531ZM78.4954 93.2847H46.9113C46.6344 93.2847 46.4169 93.0674 46.4169 92.7908C46.4169 92.5142 46.6344 92.287 46.9113 92.287H78.4954C78.7722 92.287 78.9898 92.5142 78.9898 92.7809C78.9898 93.0575 78.7722 93.2847 78.4954 93.2847ZM78.4954 88.3261H46.9113C46.6344 88.3261 46.4169 88.0989 46.4169 87.8322C46.4169 87.5556 46.6344 87.3186 46.9113 87.3186H78.4954C78.7722 87.3186 78.9898 87.5458 78.9898 87.8125C78.9898 88.089 78.7722 88.3261 78.4954 88.3261ZM101.902 97.7494C101.902 98.0259 101.684 98.2433 101.407 98.2433H84.4186C84.1516 98.2433 83.9242 98.0259 83.9242 97.7494V77.6483C83.9242 77.3718 84.1516 77.1545 84.4186 77.1545H101.407C101.684 77.1545 101.902 77.3718 101.902 77.6483V97.7494ZM84.913 97.2555H100.913V78.1422H84.913V97.2555ZM84.913 78.1422V97.2555H100.913V78.1422H84.913ZM84.913 78.1422V97.2555H100.913V78.1422H84.913ZM120.809 105.345V114.413H136.808V105.345H120.809ZM140.645 94.47H116.982C116.161 94.47 115.498 95.1417 115.498 95.9516V98.2531H142.128V95.9516C142.128 95.1417 141.456 94.47 140.645 94.47ZM120.809 105.345V114.413H136.808V105.345H120.809ZM120.809 105.345V114.413H136.808V105.345H120.809ZM120.809 105.345V114.413H136.808V105.345H120.809ZM115.498 99.2409V133.19C115.498 134.01 116.161 134.672 116.982 134.672H140.645C141.456 134.672 142.128 134.01 142.128 133.19V99.2409H115.498ZM137.797 129.052C137.797 129.328 137.58 129.546 137.303 129.546H120.314C120.037 129.546 119.82 129.328 119.82 129.052V119.006C119.82 118.73 120.037 118.512 120.314 118.512H137.303C137.58 118.512 137.797 118.73 137.797 119.006V129.052ZM137.797 114.907C137.797 115.183 137.58 115.401 137.303 115.401H120.314C120.037 115.401 119.82 115.183 119.82 114.907V104.851C119.82 104.585 120.037 104.358 120.314 104.358H137.303C137.58 104.358 137.797 104.585 137.797 104.851V114.907ZM120.809 114.413H136.808V105.345H120.809V114.413ZM120.809 105.345V114.413H136.808V105.345H120.809ZM120.809 105.345V114.413H136.808V105.345H120.809ZM120.809 105.345V114.413H136.808V105.345H120.809ZM120.809 105.345V114.413H136.808V105.345H120.809ZM120.809 105.345V114.413H136.808V105.345H120.809ZM120.809 105.345V114.413H136.808V105.345H120.809ZM115.498 99.2409V133.19C115.498 134.01 116.161 134.672 116.982 134.672H140.645C141.456 134.672 142.128 134.01 142.128 133.19V99.2409H115.498ZM137.797 129.052C137.797 129.328 137.58 129.546 137.303 129.546H120.314C120.037 129.546 119.82 129.328 119.82 129.052V119.006C119.82 118.73 120.037 118.512 120.314 118.512H137.303C137.58 118.512 137.797 118.73 137.797 119.006V129.052ZM137.797 114.907C137.797 115.183 137.58 115.401 137.303 115.401H120.314C120.037 115.401 119.82 115.183 119.82 114.907V104.851C119.82 104.585 120.037 104.358 120.314 104.358H137.303C137.58 104.358 137.797 104.585 137.797 104.851V114.907ZM120.809 114.413H136.808V105.345H120.809V114.413ZM120.809 105.345V114.413H136.808V105.345H120.809ZM120.809 105.345V114.413H136.808V105.345H120.809ZM120.809 105.345V114.413H136.808V105.345H120.809ZM140.645 94.47H116.982C116.161 94.47 115.498 95.1417 115.498 95.9516V98.2531H142.128V95.9516C142.128 95.1417 141.456 94.47 140.645 94.47ZM120.809 105.345V114.413H136.808V105.345H120.809ZM84.913 78.1422V97.2555H100.913V78.1422H84.913ZM84.913 78.1422V97.2555H100.913V78.1422H84.913ZM84.913 78.1422V97.2555H100.913V78.1422H84.913ZM84.913 78.1422V97.2555H100.913V78.1422H84.913ZM42.8273 71.781V105.731C42.8273 106.55 43.4899 107.212 44.3106 107.212H103.761C104.581 107.212 105.244 106.55 105.244 105.731V71.781H42.8273ZM78.4954 98.2531H46.9113C46.6344 98.2531 46.4169 98.0259 46.4169 97.7593C46.4169 97.4827 46.6344 97.2555 46.9113 97.2555H78.4954C78.7722 97.2555 78.9898 97.4728 78.9898 97.7494C78.9898 98.0161 78.7722 98.2531 78.4954 98.2531ZM78.4954 93.2847H46.9113C46.6344 93.2847 46.4169 93.0674 46.4169 92.7908C46.4169 92.5142 46.6344 92.287 46.9113 92.287H78.4954C78.7722 92.287 78.9898 92.5142 78.9898 92.7809C78.9898 93.0575 78.7722 93.2847 78.4954 93.2847ZM78.4954 88.3261H46.9113C46.6344 88.3261 46.4169 88.0989 46.4169 87.8322C46.4169 87.5556 46.6344 87.3186 46.9113 87.3186H78.4954C78.7722 87.3186 78.9898 87.5458 78.9898 87.8125C78.9898 88.089 78.7722 88.3261 78.4954 88.3261ZM101.902 97.7494C101.902 98.0259 101.684 98.2433 101.407 98.2433H84.4186C84.1516 98.2433 83.9242 98.0259 83.9242 97.7494V77.6483C83.9242 77.3718 84.1516 77.1545 84.4186 77.1545H101.407C101.684 77.1545 101.902 77.3718 101.902 77.6483V97.7494ZM84.913 97.2555H100.913V78.1422H84.913V97.2555ZM84.913 78.1422V97.2555H100.913V78.1422H84.913ZM84.913 78.1422V97.2555H100.913V78.1422H84.913ZM84.913 78.1422V97.2555H100.913V78.1422H84.913ZM103.761 67.0101H44.3106C43.4899 67.0101 42.8273 67.6818 42.8273 68.4918V70.7932H105.244V68.4918C105.244 67.6818 104.581 67.0101 103.761 67.0101ZM84.913 78.1422V97.2555H100.913V78.1422H84.913ZM84.913 78.1422V97.2555H100.913V78.1422H84.913ZM120.809 105.345V114.413H136.808V105.345H120.809ZM140.645 94.47H116.982C116.161 94.47 115.498 95.1417 115.498 95.9516V98.2531H142.128V95.9516C142.128 95.1417 141.456 94.47 140.645 94.47ZM120.809 105.345V114.413H136.808V105.345H120.809ZM120.809 105.345V114.413H136.808V105.345H120.809ZM120.809 105.345V114.413H136.808V105.345H120.809ZM120.809 105.345V114.413H136.808V105.345H120.809ZM120.809 105.345V114.413H136.808V105.345H120.809ZM115.498 99.2409V133.19C115.498 134.01 116.161 134.672 116.982 134.672H140.645C141.456 134.672 142.128 134.01 142.128 133.19V99.2409H115.498ZM137.797 129.052C137.797 129.328 137.58 129.546 137.303 129.546H120.314C120.037 129.546 119.82 129.328 119.82 129.052V119.006C119.82 118.73 120.037 118.512 120.314 118.512H137.303C137.58 118.512 137.797 118.73 137.797 119.006V129.052ZM137.797 114.907C137.797 115.183 137.58 115.401 137.303 115.401H120.314C120.037 115.401 119.82 115.183 119.82 114.907V104.851C119.82 104.585 120.037 104.358 120.314 104.358H137.303C137.58 104.358 137.797 104.585 137.797 104.851V114.907ZM120.809 114.413H136.808V105.345H120.809V114.413ZM120.809 105.345V114.413H136.808V105.345H120.809ZM120.809 105.345V114.413H136.808V105.345H120.809ZM120.809 105.345V114.413H136.808V105.345H120.809ZM120.809 105.345V114.413H136.808V105.345H120.809ZM120.809 105.345V114.413H136.808V105.345H120.809ZM120.809 105.345V114.413H136.808V105.345H120.809ZM120.809 105.345V114.413H136.808V105.345H120.809ZM120.809 105.345V114.413H136.808V105.345H120.809ZM120.809 105.345V114.413H136.808V105.345H120.809ZM120.809 105.345V114.413H136.808V105.345H120.809ZM115.498 99.2409V133.19C115.498 134.01 116.161 134.672 116.982 134.672H140.645C141.456 134.672 142.128 134.01 142.128 133.19V99.2409H115.498ZM137.797 129.052C137.797 129.328 137.58 129.546 137.303 129.546H120.314C120.037 129.546 119.82 129.328 119.82 129.052V119.006C119.82 118.73 120.037 118.512 120.314 118.512H137.303C137.58 118.512 137.797 118.73 137.797 119.006V129.052ZM137.797 114.907C137.797 115.183 137.58 115.401 137.303 115.401H120.314C120.037 115.401 119.82 115.183 119.82 114.907V104.851C119.82 104.585 120.037 104.358 120.314 104.358H137.303C137.58 104.358 137.797 104.585 137.797 104.851V114.907ZM120.809 114.413H136.808V105.345H120.809V114.413ZM120.809 105.345V114.413H136.808V105.345H120.809ZM120.809 105.345V114.413H136.808V105.345H120.809ZM120.809 105.345V114.413H136.808V105.345H120.809ZM120.809 105.345V114.413H136.808V105.345H120.809ZM120.809 105.345V114.413H136.808V105.345H120.809ZM140.645 94.47H116.982C116.161 94.47 115.498 95.1417 115.498 95.9516V98.2531H142.128V95.9516C142.128 95.1417 141.456 94.47 140.645 94.47ZM120.809 105.345V114.413H136.808V105.345H120.809ZM84.913 78.1422V97.2555H100.913V78.1422H84.913ZM120.809 105.345V114.413H136.808V105.345H120.809ZM140.645 94.47H116.982C116.161 94.47 115.498 95.1417 115.498 95.9516V98.2531H142.128V95.9516C142.128 95.1417 141.456 94.47 140.645 94.47ZM120.809 105.345V114.413H136.808V105.345H120.809ZM120.809 105.345V114.413H136.808V105.345H120.809ZM120.809 105.345V114.413H136.808V105.345H120.809ZM120.809 105.345V114.413H136.808V105.345H120.809ZM120.809 105.345V114.413H136.808V105.345H120.809ZM120.809 105.345V114.413H136.808V105.345H120.809ZM120.809 105.345V114.413H136.808V105.345H120.809ZM115.498 99.2409V133.19C115.498 134.01 116.161 134.672 116.982 134.672H140.645C141.456 134.672 142.128 134.01 142.128 133.19V99.2409H115.498ZM137.797 129.052C137.797 129.328 137.58 129.546 137.303 129.546H120.314C120.037 129.546 119.82 129.328 119.82 129.052V119.006C119.82 118.73 120.037 118.512 120.314 118.512H137.303C137.58 118.512 137.797 118.73 137.797 119.006V129.052ZM137.797 114.907C137.797 115.183 137.58 115.401 137.303 115.401H120.314C120.037 115.401 119.82 115.183 119.82 114.907V104.851C119.82 104.585 120.037 104.358 120.314 104.358H137.303C137.58 104.358 137.797 104.585 137.797 104.851V114.907ZM120.809 114.413H136.808V105.345H120.809V114.413ZM120.809 105.345V114.413H136.808V105.345H120.809ZM120.809 105.345V114.413H136.808V105.345H120.809ZM120.809 105.345V114.413H136.808V105.345H120.809ZM120.809 105.345V114.413H136.808V105.345H120.809ZM120.809 105.345V114.413H136.808V105.345H120.809ZM120.809 105.345V114.413H136.808V105.345H120.809ZM120.809 105.345V114.413H136.808V105.345H120.809ZM120.809 105.345V114.413H136.808V105.345H120.809ZM120.809 105.345V114.413H136.808V105.345H120.809ZM120.809 105.345V114.413H136.808V105.345H120.809ZM120.809 105.345V114.413H136.808V105.345H120.809ZM120.809 105.345V114.413H136.808V105.345H120.809ZM120.809 105.345V114.413H136.808V105.345H120.809ZM120.809 105.345V114.413H136.808V105.345H120.809ZM115.498 99.2409V133.19C115.498 134.01 116.161 134.672 116.982 134.672H140.645C141.456 134.672 142.128 134.01 142.128 133.19V99.2409H115.498ZM137.797 129.052C137.797 129.328 137.58 129.546 137.303 129.546H120.314C120.037 129.546 119.82 129.328 119.82 129.052V119.006C119.82 118.73 120.037 118.512 120.314 118.512H137.303C137.58 118.512 137.797 118.73 137.797 119.006V129.052ZM137.797 114.907C137.797 115.183 137.58 115.401 137.303 115.401H120.314C120.037 115.401 119.82 115.183 119.82 114.907V104.851C119.82 104.585 120.037 104.358 120.314 104.358H137.303C137.58 104.358 137.797 104.585 137.797 104.851V114.907ZM120.809 114.413H136.808V105.345H120.809V114.413ZM120.809 105.345V114.413H136.808V105.345H120.809ZM120.809 105.345V114.413H136.808V105.345H120.809ZM120.809 105.345V114.413H136.808V105.345H120.809ZM120.809 105.345V114.413H136.808V105.345H120.809ZM120.809 105.345V114.413H136.808V105.345H120.809ZM120.809 105.345V114.413H136.808V105.345H120.809ZM120.809 105.345V114.413H136.808V105.345H120.809ZM140.645 94.47H116.982C116.161 94.47 115.498 95.1417 115.498 95.9516V98.2531H142.128V95.9516C142.128 95.1417 141.456 94.47 140.645 94.47ZM120.809 105.345V114.413H136.808V105.345H120.809ZM120.809 105.345V114.413H136.808V105.345H120.809ZM120.809 105.345V114.413H136.808V105.345H120.809Z" fill="white"/>
    <path d="M170.241 141.557H156.704V56.4706C156.704 53.4776 154.261 51.0378 151.265 51.0378H31.851C28.8548 51.0378 26.4123 53.4776 26.4123 56.4706V141.557H12.8749C12.598 141.557 12.3805 141.784 12.3805 142.051V149.044C12.3805 152.037 14.8131 154.477 17.8192 154.477H165.297C168.303 154.477 170.736 152.037 170.736 149.044V142.051C170.736 141.784 170.518 141.557 170.241 141.557ZM27.4012 56.4706C27.4012 54.0209 29.3987 52.0256 31.851 52.0256H151.265C153.718 52.0256 155.715 54.0209 155.715 56.4706V141.557H150.504V59.8487C150.504 57.9423 148.951 56.3915 147.043 56.3915H36.0735C34.165 56.3915 32.6125 57.9423 32.6125 59.8487V141.557H27.4012V56.4706ZM149.515 59.8487V141.557H33.6013V59.8487C33.6013 58.4955 34.7088 57.3793 36.0735 57.3793H147.043C148.407 57.3793 149.515 58.4955 149.515 59.8487ZM169.747 149.044C169.747 151.494 167.759 153.489 165.297 153.489H17.8192C15.3668 153.489 13.3693 151.494 13.3693 149.044V142.544H71.2273V143.443C71.2273 145.35 72.7798 146.901 74.6883 146.901H108.428C110.337 146.901 111.889 145.35 111.889 143.443V142.544H169.747V149.044Z" fill="#21232E"/>
    <path d="M169.747 142.544V149.044C169.747 151.494 167.759 153.489 165.297 153.489H17.8192C15.3668 153.489 13.3693 151.494 13.3693 149.044V142.544H71.2273V143.443C71.2273 145.35 72.7798 146.9 74.6883 146.9H108.428C110.337 146.9 111.889 145.35 111.889 143.443V142.544H169.747Z" fill="#4899EC"/>
    <path d="M105.244 68.4917V70.7932H42.8273V68.4917C42.8273 67.6817 43.4899 67.01 44.3106 67.01H103.761C104.581 67.01 105.244 67.6817 105.244 68.4917Z" fill="#5368E0"/>
    <path d="M103.761 66.0222H44.3106C42.946 66.0222 41.8385 67.1285 41.8385 68.4916V105.73C41.8385 107.094 42.946 108.2 44.3106 108.2H103.761C105.125 108.2 106.233 107.094 106.233 105.73V68.4916C106.233 67.1285 105.125 66.0222 103.761 66.0222ZM105.244 105.73C105.244 106.55 104.581 107.212 103.761 107.212H44.3106C43.4899 107.212 42.8273 106.55 42.8273 105.73V71.7809H105.244V105.73ZM105.244 70.7931H42.8273V68.4916C42.8273 67.6817 43.4899 67.01 44.3106 67.01H103.761C104.581 67.01 105.244 67.6817 105.244 68.4916V70.7931Z" fill="#21232E"/>
    <path d="M100.913 78.1421H84.9131V97.2554H100.913V78.1421Z" fill="white"/>
    <path d="M42.8273 71.781V105.731C42.8273 106.55 43.4899 107.212 44.3106 107.212H103.761C104.581 107.212 105.244 106.55 105.244 105.731V71.781H42.8273ZM78.4954 98.2531H46.9113C46.6344 98.2531 46.4169 98.0259 46.4169 97.7592C46.4169 97.4827 46.6344 97.2555 46.9113 97.2555H78.4954C78.7722 97.2555 78.9898 97.4728 78.9898 97.7494C78.9898 98.0161 78.7722 98.2531 78.4954 98.2531ZM78.4954 93.2847H46.9113C46.6344 93.2847 46.4169 93.0674 46.4169 92.7908C46.4169 92.5142 46.6344 92.287 46.9113 92.287H78.4954C78.7722 92.287 78.9898 92.5142 78.9898 92.7809C78.9898 93.0575 78.7722 93.2847 78.4954 93.2847ZM78.4954 88.3261H46.9113C46.6344 88.3261 46.4169 88.0989 46.4169 87.8322C46.4169 87.5556 46.6344 87.3186 46.9113 87.3186H78.4954C78.7722 87.3186 78.9898 87.5457 78.9898 87.8124C78.9898 88.089 78.7722 88.3261 78.4954 88.3261ZM101.902 97.7494C101.902 98.0259 101.684 98.2432 101.407 98.2432H84.4186C84.1516 98.2432 83.9242 98.0259 83.9242 97.7494V77.6483C83.9242 77.3718 84.1516 77.1545 84.4186 77.1545H101.407C101.684 77.1545 101.902 77.3718 101.902 77.6483V97.7494Z" fill="white"/>
    <path d="M142.128 95.9516V98.2531H115.498V95.9516C115.498 95.1417 116.161 94.47 116.982 94.47H140.645C141.456 94.47 142.128 95.1417 142.128 95.9516Z" fill="#5368E0"/>
    <path d="M136.808 119.5H120.809V128.558H136.808V119.5Z" fill="white"/>
    <path d="M120.809 105.345V114.413H136.808V105.345H120.809ZM120.809 105.345V114.413H136.808V105.345H120.809ZM115.498 99.241V133.19C115.498 134.01 116.161 134.672 116.982 134.672H140.645C141.456 134.672 142.128 134.01 142.128 133.19V99.241H115.498ZM137.797 129.052C137.797 129.328 137.58 129.546 137.303 129.546H120.314C120.037 129.546 119.82 129.328 119.82 129.052V119.006C119.82 118.73 120.037 118.512 120.314 118.512H137.303C137.58 118.512 137.797 118.73 137.797 119.006V129.052ZM137.797 114.907C137.797 115.184 137.58 115.401 137.303 115.401H120.314C120.037 115.401 119.82 115.184 119.82 114.907V104.851C119.82 104.585 120.037 104.358 120.314 104.358H137.303C137.58 104.358 137.797 104.585 137.797 104.851V114.907ZM120.809 114.413H136.808V105.345H120.809V114.413ZM120.809 105.345V114.413H136.808V105.345H120.809ZM120.809 105.345V114.413H136.808V105.345H120.809Z" fill="white"/>
    <path d="M140.645 93.4822H116.982C115.617 93.4822 114.509 94.5885 114.509 95.9516V133.19C114.509 134.553 115.617 135.66 116.982 135.66H140.645C142 135.66 143.117 134.553 143.117 133.19V95.9516C143.117 94.5885 142 93.4822 140.645 93.4822ZM142.128 133.19C142.128 134.01 141.456 134.672 140.645 134.672H116.982C116.161 134.672 115.498 134.01 115.498 133.19V99.2409H142.128V133.19ZM142.128 98.2531H115.498V95.9516C115.498 95.1416 116.161 94.4699 116.982 94.4699H140.645C141.456 94.4699 142.128 95.1416 142.128 95.9516V98.2531Z" fill="#21232E"/>
    <path d="M45.4775 69.7462C45.9089 69.7462 46.2587 69.3968 46.2587 68.9659C46.2587 68.5349 45.9089 68.1855 45.4775 68.1855C45.046 68.1855 44.6963 68.5349 44.6963 68.9659C44.6963 69.3968 45.046 69.7462 45.4775 69.7462Z" fill="#21232E"/>
    <path d="M48.3353 69.7462C48.7667 69.7462 49.1165 69.3968 49.1165 68.9659C49.1165 68.5349 48.7667 68.1855 48.3353 68.1855C47.9038 68.1855 47.5541 68.5349 47.5541 68.9659C47.5541 69.3968 47.9038 69.7462 48.3353 69.7462Z" fill="#21232E"/>
    <path d="M51.1931 69.7462C51.6245 69.7462 51.9743 69.3968 51.9743 68.9659C51.9743 68.5349 51.6245 68.1855 51.1931 68.1855C50.7616 68.1855 50.4119 68.5349 50.4119 68.9659C50.4119 69.3968 50.7616 69.7462 51.1931 69.7462Z" fill="#21232E"/>
    <path d="M117.456 97.1368C117.888 97.1368 118.237 96.7875 118.237 96.3565C118.237 95.9255 117.888 95.5762 117.456 95.5762C117.025 95.5762 116.675 95.9255 116.675 96.3565C116.675 96.7875 117.025 97.1368 117.456 97.1368Z" fill="#21232E"/>
    <path d="M120.314 97.1368C120.746 97.1368 121.095 96.7875 121.095 96.3565C121.095 95.9255 120.746 95.5762 120.314 95.5762C119.883 95.5762 119.533 95.9255 119.533 96.3565C119.533 96.7875 119.883 97.1368 120.314 97.1368Z" fill="#21232E"/>
    <path d="M123.172 97.1368C123.603 97.1368 123.953 96.7875 123.953 96.3565C123.953 95.9255 123.603 95.5762 123.172 95.5762C122.74 95.5762 122.391 95.9255 122.391 96.3565C122.391 96.7875 122.74 97.1368 123.172 97.1368Z" fill="#21232E"/>
    <path d="M100.913 78.1421H84.913V97.2554H100.913V78.1421Z" fill="#4899EC"/>
    <path d="M101.407 77.1543H84.4186C84.1516 77.1543 83.9242 77.3716 83.9242 77.6482V97.7492C83.9242 98.0258 84.1516 98.2431 84.4186 98.2431H101.407C101.684 98.2431 101.902 98.0258 101.902 97.7492V77.6482C101.902 77.3716 101.684 77.1543 101.407 77.1543ZM100.913 97.2553H84.913V78.1421H100.913V97.2553Z" fill="#21232E"/>
    <path d="M136.808 105.345H120.809V114.413H136.808V105.345Z" fill="#4899EC"/>
    <path d="M137.303 104.357H120.314C120.037 104.357 119.82 104.585 119.82 104.851V114.907C119.82 115.183 120.037 115.401 120.314 115.401H137.303C137.579 115.401 137.797 115.183 137.797 114.907V104.851C137.797 104.585 137.579 104.357 137.303 104.357ZM136.808 114.413H120.808V105.345H136.808V114.413Z" fill="#21232E"/>
    <path d="M136.808 119.5H120.809V128.558H136.808V119.5Z" fill="#4899EC"/>
    <path d="M137.303 118.512H120.314C120.037 118.512 119.82 118.73 119.82 119.006V129.052C119.82 129.328 120.037 129.546 120.314 129.546H137.303C137.579 129.546 137.797 129.328 137.797 129.052V119.006C137.797 118.73 137.579 118.512 137.303 118.512ZM136.808 128.558H120.808V119.5H136.808V128.558Z" fill="#21232E"/>
    <path d="M78.9898 87.8125C78.9898 88.0891 78.7722 88.3261 78.4954 88.3261H46.9113C46.6344 88.3261 46.4169 88.0989 46.4169 87.8322C46.4169 87.5557 46.6344 87.3186 46.9113 87.3186H78.4954C78.7722 87.3186 78.9898 87.5458 78.9898 87.8125Z" fill="#21232E"/>
    <path d="M78.9898 92.7808C78.9898 93.0573 78.7722 93.2845 78.4954 93.2845H46.9113C46.6344 93.2845 46.4169 93.0672 46.4169 92.7906C46.4169 92.5141 46.6344 92.2869 46.9113 92.2869H78.4954C78.7722 92.2869 78.9898 92.5141 78.9898 92.7808Z" fill="#21232E"/>
    <path d="M78.9898 97.7493C78.9898 98.0159 78.7722 98.253 78.4954 98.253H46.9113C46.6344 98.253 46.4169 98.0258 46.4169 97.7591C46.4169 97.4826 46.6344 97.2554 46.9113 97.2554H78.4954C78.7722 97.2554 78.9898 97.4727 78.9898 97.7493Z" fill="#21232E"/>
</svg>
