<svg width="228" height="314" viewBox="0 0 228 314" fill="none" xmlns="http://www.w3.org/2000/svg">
    <path d="M148.28 152.037C146.288 155.476 136.237 170.073 109.752 170.073C98.3842 170.073 90.1381 167.462 85.2463 162.297C81.3446 158.193 80.8204 153.634 80.7622 152.119C88.3444 151.64 89.381 142.01 89.3927 141.952C89.9168 138.839 89.3461 135.213 88.7987 131.704C88.6939 131.051 88.589 130.398 88.5075 129.757C89.7421 129.839 91.0349 129.885 92.3976 129.885C94.0399 129.885 95.7985 129.827 97.6504 129.699C110.555 128.801 126.081 121.829 135.329 111.08C134.537 119.672 134.408 127.425 134.956 134.117C134.956 134.292 135.084 138.338 136.866 142.605C139.126 148.026 143.062 151.279 148.28 152.037Z" fill="white"/>
    <path d="M53.2286 38.1421C45.2969 52.9021 48.5464 69.2011 48.5814 69.3643C48.6513 69.6791 48.4533 69.9822 48.1388 70.0522C48.0922 70.0639 48.0573 70.0639 48.0107 70.0639C47.7428 70.0639 47.4982 69.8773 47.44 69.5975C47.4051 69.4343 44.074 52.7272 52.2036 37.5825C52.355 37.3026 52.7161 37.1977 52.9956 37.3493C53.2752 37.5009 53.38 37.8506 53.2286 38.1421Z" fill="white"/>
    <path d="M62.7791 26.1218C58.5746 29.4446 56.1171 33.77 56.0938 33.8166C55.9889 34.0032 55.7909 34.1081 55.5813 34.1081C55.4881 34.1081 55.3833 34.0848 55.3018 34.0382C55.0222 33.8749 54.9174 33.5252 55.0805 33.2454C55.1853 33.0588 57.6661 28.6751 62.057 25.2125C62.3016 25.0143 62.6743 25.0609 62.8723 25.3057C63.0703 25.5622 63.0237 25.9236 62.7791 26.1218Z" fill="white"/>
    <path d="M71.2698 65.1205L70.7806 65.342L71.1417 65.0972C71.1534 65.0972 71.165 65.1089 71.1767 65.1089C71.2 65.1089 71.2349 65.1205 71.2698 65.1205Z" fill="white"/>
    <path d="M73.2033 63.838C73.1567 63.873 73.1101 63.908 73.0635 63.9313L73.0984 63.8147L73.1101 63.8031C73.145 63.8147 73.18 63.8264 73.2033 63.838Z" fill="white"/>
    <path d="M67.2749 63.5932L67.1468 63.7681L63.5129 68.8514L61.4864 69.8307L60.8574 70.5769L64.8058 65.0506L65.5978 63.9546L66.3315 62.917C66.3432 62.9054 66.3548 62.882 66.3781 62.8704L66.7043 62.6955C66.8557 62.6605 67.007 62.6955 67.1468 62.7888C67.2167 62.8471 67.2866 62.917 67.3215 62.9986C67.3215 63.0103 67.3215 63.0103 67.3215 63.0103C67.4147 63.1968 67.4147 63.4183 67.2749 63.5932Z" fill="white"/>
    <path d="M66.7043 62.6955L66.3782 62.8704C66.4597 62.7771 66.5762 62.7072 66.7043 62.6955Z" fill="white"/>
    <path d="M133.523 59.2561C133.407 59.3844 133.244 59.4543 133.081 59.4543C132.941 59.4543 132.813 59.4077 132.696 59.3144C122.261 50.4654 121.352 37.3026 121.34 37.1744C121.329 36.8596 121.573 36.5798 121.888 36.5565C122.214 36.5565 122.482 36.7896 122.505 37.1044C122.517 37.2327 123.402 49.9058 133.453 58.4284C133.698 58.6382 133.733 58.9997 133.523 59.2561Z" fill="white"/>
    <path d="M110.52 4.83286C110.218 4.93779 109.961 5.0194 109.787 5.08936C109.682 5.12433 109.589 5.15931 109.53 5.17097C109.6 5.12433 109.67 5.05438 109.717 4.97277C109.763 4.90282 109.787 4.8212 109.787 4.73959C109.891 4.77457 109.973 4.8212 110.031 4.85618C110.136 4.90281 110.183 4.92614 110.183 4.92614C110.287 4.89116 110.392 4.85618 110.497 4.8212C110.509 4.8212 110.52 4.83286 110.52 4.83286Z" fill="white"/>
    <path d="M116.111 13.5886C116.099 13.5769 116.088 13.5653 116.088 13.5536C116.064 13.4953 116.041 13.4254 116.041 13.3671C116.076 13.437 116.088 13.5187 116.111 13.5886Z" fill="white"/>
    <path d="M173.205 57.8921C173.158 56.9127 173.135 55.8868 173.123 54.7908C173.17 55.8868 173.205 56.9361 173.205 57.8921Z" fill="white"/>
    <path d="M86.1197 96.7975C86.0731 97.0889 85.8285 97.2988 85.5373 97.2988C85.514 97.2988 85.4791 97.2871 85.4558 97.2871C85.0598 97.2288 81.6006 96.6343 80.8086 94.6173C80.4476 93.6962 80.6922 92.6819 81.5424 91.6093C85.2695 86.8642 83.5107 72.4422 83.4874 72.2907C83.4525 71.9759 83.6738 71.6844 83.9999 71.6494C84.3144 71.6145 84.6056 71.836 84.6405 72.1508C84.7221 72.7687 86.4808 87.2023 82.4509 92.3322C81.8802 93.055 81.6938 93.6846 81.8918 94.1859C82.3577 95.3751 84.8152 96.0047 85.6305 96.1329C85.945 96.1912 86.1663 96.4827 86.1197 96.7975Z" fill="white"/>
    <path d="M96.637 108.072C94.2843 109.587 90.8251 110.298 87.762 110.298C85.9683 110.298 84.3145 110.054 83.0799 109.587C82.7887 109.471 82.6373 109.133 82.7421 108.829C82.8586 108.526 83.1963 108.375 83.4991 108.491C86.5623 109.657 92.5605 109.307 96.008 107.092C96.2759 106.917 96.637 106.999 96.8117 107.267C96.9864 107.535 96.9049 107.897 96.637 108.072Z" fill="white"/>
    <path d="M110.439 76.278C110.567 78.4116 109.146 80.242 107.271 80.3586H107.084C105.291 80.3586 103.753 78.7497 103.637 76.6861C103.509 74.5408 104.93 72.7104 106.805 72.6055C108.668 72.4772 110.311 74.1328 110.439 76.278Z" fill="#21232E"/>
    <path d="M122.097 105.565C116.029 105.926 110.811 101.298 110.439 95.2119C110.078 89.1377 114.702 83.9029 120.781 83.5414C126.849 83.18 132.079 87.8086 132.44 93.8945C132.801 99.9687 128.177 105.192 122.097 105.565Z" fill="white"/>
    <path d="M145.916 69.0612C139.486 71.4629 139.114 78.1551 139.172 80.4169C139.545 80.3469 139.987 80.3353 140.442 80.5451C141.164 80.8716 141.63 81.6294 141.839 82.8069C142.072 84.136 141.909 85.1387 141.373 85.7799C140.838 86.4095 140.139 86.4328 140.034 86.4328C139.708 86.4212 139.452 86.1647 139.452 85.8382C139.452 85.5118 139.719 85.232 140.046 85.267C140.046 85.267 140.302 85.2553 140.5 84.9988C140.779 84.649 140.849 83.9378 140.686 83.0051C140.593 82.4805 140.395 81.8043 139.952 81.6061C139.521 81.3962 138.939 81.7227 138.939 81.7343C138.764 81.8276 138.555 81.8393 138.38 81.746C138.205 81.6644 138.077 81.4895 138.054 81.2913C138.054 81.1864 137.029 71.1365 145.508 67.9653C145.811 67.8487 146.149 68.0119 146.253 68.3151C146.37 68.6065 146.218 68.9446 145.916 69.0612Z" fill="white"/>
    <path d="M70.4544 65.5053V65.5519L70.5825 65.4586L70.4544 65.5053ZM71.1766 65.1089C71.1649 65.1089 71.1533 65.0972 71.1416 65.0972L70.7806 65.342L71.2697 65.1205C71.2348 65.1205 71.1998 65.1089 71.1766 65.1089ZM73.11 63.8031L73.0983 63.8147L73.0634 63.9313C73.11 63.908 73.1565 63.873 73.2031 63.838C73.1798 63.8264 73.1449 63.8147 73.11 63.8031ZM53.706 79.7523L53.6943 79.7873C53.6943 79.8223 53.706 79.8689 53.7176 79.9272C53.706 79.8456 53.706 79.7873 53.706 79.7523ZM134.56 69.411L134.257 70.0755C134.35 69.9006 134.467 69.6791 134.606 69.4343C134.595 69.4343 134.571 69.4343 134.56 69.411ZM70.9319 98.7328C70.5592 92.6586 65.3414 88.0184 59.2616 88.3798C57.8523 88.4731 56.5246 88.8229 55.3133 89.3825C55.4298 89.9654 55.5579 90.56 55.6976 91.1779C55.6976 91.1896 55.6976 91.2013 55.7093 91.2129C55.8025 91.6443 55.9073 92.0873 56.0121 92.5304C56.5362 94.7922 57.1768 97.1939 57.9339 99.6306C58.0736 100.085 58.225 100.54 58.3764 101.006C58.5278 101.496 58.6909 101.974 58.8656 102.464C59.0403 102.953 59.215 103.431 59.3898 103.909C60.1934 106.066 61.0902 108.188 62.1152 110.193C67.4262 109.132 71.2581 104.294 70.9319 98.7328Z" fill="white"/>
    <path d="M134.56 69.4109L134.257 70.0755C134.35 69.9006 134.467 69.6791 134.606 69.4343C134.595 69.4343 134.571 69.4343 134.56 69.4109Z" fill="#534D56"/>
    <path d="M53.2286 38.1421C45.2969 52.9021 48.5464 69.2011 48.5814 69.3643C48.6513 69.6791 48.4533 69.9822 48.1388 70.0522C48.0922 70.0639 48.0573 70.0639 48.0107 70.0639C47.7428 70.0639 47.4982 69.8773 47.44 69.5975C47.4051 69.4343 44.074 52.7272 52.2036 37.5825C52.355 37.3026 52.7161 37.1977 52.9956 37.3493C53.2752 37.5009 53.38 37.8506 53.2286 38.1421Z" fill="#21232E"/>
    <path d="M62.7791 26.1218C58.5746 29.4446 56.1171 33.77 56.0938 33.8166C55.9889 34.0032 55.7909 34.1081 55.5813 34.1081C55.4881 34.1081 55.3833 34.0848 55.3018 34.0382C55.0222 33.8749 54.9174 33.5252 55.0805 33.2454C55.1853 33.0588 57.6661 28.6751 62.057 25.2125C62.3016 25.0143 62.6743 25.0609 62.8723 25.3057C63.0703 25.5622 63.0237 25.9236 62.7791 26.1218Z" fill="#21232E"/>
    <path d="M71.2698 65.1205L70.7806 65.342L71.1417 65.0972C71.1534 65.0972 71.165 65.1089 71.1767 65.1089C71.2 65.1089 71.2349 65.1205 71.2698 65.1205Z" fill="#21232E"/>
    <path d="M73.2033 63.838C73.1567 63.873 73.1101 63.908 73.0635 63.9313L73.0984 63.8147L73.1101 63.8031C73.145 63.8147 73.18 63.8264 73.2033 63.838Z" fill="#21232E"/>
    <path d="M66.7043 62.6955L66.3782 62.8704C66.4597 62.7771 66.5762 62.7072 66.7043 62.6955Z" fill="#21232E"/>
    <path d="M133.523 59.2561C133.407 59.3844 133.244 59.4543 133.081 59.4543C132.941 59.4543 132.813 59.4077 132.696 59.3144C122.261 50.4654 121.352 37.3026 121.34 37.1744C121.329 36.8596 121.573 36.5798 121.888 36.5565C122.214 36.5565 122.482 36.7896 122.505 37.1044C122.517 37.2327 123.402 49.9058 133.453 58.4284C133.698 58.6382 133.733 58.9997 133.523 59.2561Z" fill="#21232E"/>
    <path d="M110.52 4.83286C110.218 4.93779 109.961 5.0194 109.787 5.08936C109.682 5.12433 109.589 5.15931 109.53 5.17097C109.6 5.12433 109.67 5.05438 109.717 4.97277C109.763 4.90282 109.787 4.8212 109.787 4.73959C109.891 4.77457 109.973 4.8212 110.031 4.85618C110.136 4.90281 110.183 4.92614 110.183 4.92614C110.287 4.89116 110.392 4.85618 110.497 4.8212C110.509 4.8212 110.52 4.83286 110.52 4.83286Z" fill="#21232E"/>
    <path d="M116.111 13.5886C116.099 13.5769 116.088 13.5653 116.088 13.5536C116.064 13.4953 116.041 13.4254 116.041 13.3671C116.076 13.437 116.088 13.5187 116.111 13.5886Z" fill="#21232E"/>
    <path d="M173.205 57.8921C173.158 56.9127 173.135 55.8868 173.123 54.7908C173.17 55.8868 173.205 56.9361 173.205 57.8921Z" fill="#21232E"/>
    <path d="M86.1197 96.7975C86.0731 97.089 85.8285 97.2988 85.5373 97.2988C85.514 97.2988 85.4791 97.2872 85.4558 97.2872C85.0598 97.2289 81.6006 96.6343 80.8086 94.6173C80.4476 93.6963 80.6922 92.682 81.5424 91.6093C85.2695 86.8642 83.5107 72.4423 83.4874 72.2907C83.4525 71.9759 83.6738 71.6845 83.9999 71.6495C84.3144 71.6145 84.6056 71.836 84.6405 72.1508C84.7221 72.7687 86.4808 87.2023 82.4509 92.3322C81.8802 93.055 81.6938 93.6846 81.8918 94.1859C82.3577 95.3751 84.8152 96.0047 85.6305 96.133C85.945 96.1913 86.1663 96.4827 86.1197 96.7975Z" fill="#21232E"/>
    <path d="M96.6371 108.072C94.2844 109.587 90.8252 110.298 87.7621 110.298C85.9684 110.298 84.3146 110.054 83.08 109.587C82.7888 109.471 82.6374 109.133 82.7422 108.829C82.8587 108.526 83.1964 108.375 83.4993 108.491C86.5624 109.657 92.5606 109.307 96.0081 107.092C96.276 106.917 96.6371 106.999 96.8118 107.267C96.9865 107.535 96.905 107.897 96.6371 108.072Z" fill="#21232E"/>
    <path d="M72.0735 78.8546C72.0735 80.8716 70.6875 82.5504 68.8939 82.667H68.7075C67.8456 82.667 67.0304 82.3173 66.3781 81.641C65.7142 80.9532 65.3182 80.0088 65.26 78.9945C65.1901 77.9802 65.4813 76.9892 66.052 76.2314C66.6576 75.4386 67.4962 74.9722 68.4164 74.9139C70.3032 74.7973 71.9337 76.4412 72.0619 78.5864C72.0619 78.6797 72.0735 78.7613 72.0735 78.8546Z" fill="#21232E"/>
    <path d="M122.097 105.565C116.029 105.926 110.811 101.298 110.439 95.2119C110.078 89.1377 114.702 83.9029 120.781 83.5414C126.849 83.18 132.079 87.8086 132.44 93.8945C132.801 99.9687 128.177 105.192 122.097 105.565Z" fill="#FCCFC6"/>
    <path d="M62.1152 110.193C61.0903 108.188 60.1935 106.066 59.3898 103.909C59.2151 103.431 59.0404 102.953 58.8657 102.464C58.691 101.974 58.5279 101.496 58.3765 101.006C58.2251 100.54 58.0737 100.085 57.9339 99.6306C57.1769 97.1939 56.5363 94.7922 56.0121 92.5304C55.9073 92.0873 55.8025 91.6443 55.7093 91.2129C55.6977 91.2013 55.6977 91.1896 55.6977 91.178C55.5579 90.56 55.4298 89.9654 55.3134 89.3825C56.5246 88.8229 57.8524 88.4731 59.2617 88.3798C65.3414 88.0184 70.5593 92.6586 70.932 98.7329C71.2581 104.294 67.4263 109.132 62.1152 110.193Z" fill="#FCCFC6"/>
    <path d="M120.048 62.8937C119.791 63.4183 119.302 63.3367 117.485 63.0453C115.552 62.7188 112.628 62.2408 110.311 62.5789C108.226 62.882 105.745 63.6282 103.567 64.2927C101.179 65.0156 99.8632 65.3887 99.0829 65.3887C98.6985 65.3887 98.4423 65.3071 98.2443 65.1205C98.0346 64.9107 97.9531 64.5959 98.0463 64.2694C98.3025 63.3251 98.3608 63.2085 98.8383 62.7072L98.978 62.5789C99.1644 62.4507 103.509 59.5826 109.682 59.7808C116.775 60.0023 119.127 61.4363 119.815 62.0426C120.211 62.404 120.106 62.7538 120.048 62.8937Z" fill="#21232E"/>
    <path d="M73.2033 63.838C73.1568 63.873 73.1102 63.908 73.0636 63.9313L73.0985 63.8147L73.1102 63.8031C73.1451 63.8147 73.18 63.8264 73.2033 63.838Z" fill="#21232E"/>
    <path d="M71.2699 65.1205L70.7808 65.342L71.1418 65.0972C71.1535 65.0972 71.1651 65.1089 71.1768 65.1089C71.2001 65.1089 71.235 65.1205 71.2699 65.1205Z" fill="#21232E"/>
    <path d="M76.0917 66.3913C75.8705 66.6595 75.521 66.7761 74.8921 66.7761C74.17 66.7761 73.0868 66.6129 71.4213 66.3214C71.6891 66.1815 71.9454 66.0183 72.2016 65.8667C72.4462 65.7151 72.6908 65.5636 72.9354 65.4004C73.2848 65.1905 73.6225 64.969 73.9603 64.7358C74.1583 64.6075 74.3563 64.4793 74.5427 64.3511C74.729 64.2228 74.9037 64.0946 75.0784 63.9663L75.16 64.0246C75.754 64.5026 75.8239 64.6192 76.1966 65.5286C76.3247 65.8317 76.2897 66.1465 76.0917 66.3913Z" fill="#21232E"/>
    <path d="M70.5827 65.4586L70.4546 65.5519V65.5053L70.5827 65.4586Z" fill="#21232E"/>
    <path d="M71.2699 65.1205L70.7808 65.342L71.1418 65.0972C71.1535 65.0972 71.1651 65.1089 71.1768 65.1089C71.2001 65.1089 71.235 65.1205 71.2699 65.1205Z" fill="#21232E"/>
    <path d="M73.2032 63.838C73.1566 63.873 73.1101 63.908 73.0635 63.9313L73.0984 63.8147L73.1101 63.8031C73.145 63.8147 73.1799 63.8264 73.2032 63.838Z" fill="#21232E"/>
    <path d="M53.2286 38.1421C45.2969 52.9021 48.5464 69.2011 48.5814 69.3643C48.6513 69.6791 48.4533 69.9822 48.1388 70.0522C48.0922 70.0639 48.0573 70.0639 48.0107 70.0639C47.7428 70.0639 47.4982 69.8773 47.44 69.5975C47.4051 69.4343 44.074 52.7272 52.2036 37.5825C52.355 37.3026 52.7161 37.1977 52.9956 37.3493C53.2752 37.5009 53.38 37.8506 53.2286 38.1421Z" fill="white"/>
    <path d="M65.8423 136.95C64.7941 137.16 63.6643 137.324 62.4996 137.428C48.0689 133.429 44.2371 118.716 44.2021 118.553C44.1206 118.238 44.3069 117.923 44.6214 117.842C44.9359 117.772 45.2504 117.958 45.3319 118.273C45.3668 118.436 49.583 134.525 65.8423 136.95Z" fill="white"/>
    <path d="M213.539 217.758C213.504 217.664 204.78 191.992 201.018 180.811C195.218 163.521 179.704 159.382 179.552 159.335L149.538 151.104C149.701 151.209 149.794 151.407 149.771 151.617C149.771 151.687 149.748 151.745 149.724 151.804C149.724 151.804 149.724 151.815 149.713 151.827C149.654 151.967 149.293 152.667 148.56 153.739C148.501 153.844 148.432 153.949 148.35 154.066C148.245 154.229 148.129 154.404 148.001 154.59C144.122 159.965 133.209 171.239 109.752 171.239C98.0348 171.239 89.5091 168.499 84.3844 163.078C83.8487 162.507 83.3711 161.935 82.9402 161.352C82.9169 161.329 82.9053 161.294 82.882 161.271C79.4694 156.607 79.5626 152.025 79.5859 151.559C79.5859 151.547 79.5859 151.536 79.5859 151.536C79.5975 151.372 79.679 151.221 79.7955 151.128C75.6375 152.41 49.1521 160.793 43.5033 167.531C37.377 174.83 29.853 203.849 29.7831 204.14L4.42749 279.887C7.42078 278.174 14.8749 274.618 23.5752 275.818C23.6218 275.818 23.6684 275.83 23.715 275.842C24.6584 275.947 25.5902 276.122 26.5103 276.378C27.081 276.541 27.6284 276.705 28.1525 276.903C28.6766 277.078 29.1774 277.264 29.655 277.462C33.2772 278.908 35.8396 280.785 37.5517 282.406C37.5866 282.429 37.6332 282.464 37.6681 282.499C38.4834 283.21 39.2987 283.991 40.1024 284.842C40.2421 284.982 40.2887 285.18 40.2538 285.355C40.6148 285.204 40.9293 285.099 41.2088 285.052C44.0973 284.528 47.7428 284.516 52.0639 285.006C48.0107 275.166 45.9608 260.184 45.9608 240.481C45.9608 230.034 46.6364 221.593 47.1721 214.82C47.6264 209.188 48.0107 204.327 47.8826 200.036C47.6264 190.907 37.5866 184.274 37.4818 184.204C37.2139 184.029 37.144 183.667 37.3187 183.399C37.4934 183.131 37.8545 183.049 38.1224 183.224C38.5533 183.504 48.7678 190.266 49.0473 200.001C49.1754 204.362 48.7911 209.247 48.3368 214.913C47.8011 221.675 47.1255 230.081 47.1255 240.481C47.1255 260.475 49.2336 275.504 53.3916 285.18C54.8941 285.367 56.4665 285.624 58.1203 285.938C58.4348 285.997 58.6445 286.032 58.7376 286.043C59.0637 286.09 62.2667 286.766 67.9155 287.967C74.4728 289.366 82.6374 291.091 85.8403 291.709C90.8951 292.665 115.831 286.859 119.244 286.055C119.733 283.455 124.252 282.767 126.058 282.592C126.046 282.231 126.093 281.764 126.314 281.216C127.35 278.582 131.928 274.384 147.849 269.394C149.561 268.858 151.739 268.112 154.255 267.261C161.092 264.941 170.875 261.618 181.73 258.832C179.646 255.439 171.388 240.749 173.624 224.31C173.671 223.983 173.962 223.75 174.288 223.809C174.602 223.855 174.824 224.147 174.777 224.461C172.518 241.145 181.311 255.998 182.907 258.528C184.479 258.132 186.086 257.747 187.694 257.386C188.008 257.316 188.323 257.514 188.393 257.829C188.462 258.144 188.264 258.447 187.95 258.517C186.296 258.89 184.654 259.286 183.035 259.694C182.872 259.741 182.72 259.776 182.569 259.811C171.539 262.621 161.569 266.002 154.639 268.357C152.1 269.22 149.922 269.966 148.199 270.502C132.114 275.55 128.294 279.573 127.444 281.531C127.117 282.266 127.234 282.709 127.269 282.814C127.304 282.86 127.327 282.93 127.339 283L132.102 304.709C139.661 307.39 185.481 307.612 213.76 291.068C243.11 273.895 213.841 218.317 213.539 217.758ZM160.3 157.913C160.137 158.344 156.037 168.534 142.503 176.532C133.826 181.662 122.901 184.309 111.394 184.309C105.128 184.309 98.6987 183.527 92.351 181.93C71.0719 176.567 67.9738 157.971 67.9388 157.785C67.8922 157.47 68.1135 157.178 68.428 157.12C68.7424 157.074 69.0453 157.295 69.0919 157.61C69.1035 157.656 69.8256 162.168 73.0868 167.263C76.0917 171.95 81.9153 178.094 92.6305 180.799C110.346 185.253 128.771 183.283 141.909 175.529C155.07 167.753 159.182 157.587 159.217 157.482C159.333 157.19 159.671 157.039 159.974 157.155C160.277 157.272 160.416 157.61 160.3 157.913ZM200.273 184.297C200.156 184.297 188.125 185.055 180.647 204.21C180.554 204.443 180.344 204.583 180.112 204.583C180.042 204.583 179.96 204.572 179.89 204.537C179.599 204.42 179.448 204.082 179.564 203.779C187.344 183.877 199.702 183.154 200.226 183.131C200.564 183.143 200.82 183.364 200.832 183.691C200.843 184.005 200.599 184.285 200.273 184.297Z" fill="#FFC980"/>
    <path d="M160.3 157.913C160.137 158.344 156.037 168.534 142.503 176.532C133.826 181.662 122.901 184.309 111.394 184.309C105.128 184.309 98.6986 183.527 92.351 181.93C71.0719 176.567 67.9738 157.971 67.9388 157.785C67.8922 157.47 68.1135 157.178 68.428 157.12C68.7424 157.074 69.0453 157.295 69.0919 157.61C69.1035 157.656 69.8256 162.168 73.0868 167.263C76.0917 171.95 81.9152 178.094 92.6305 180.799C110.346 185.253 128.771 183.283 141.909 175.529C155.07 167.753 159.182 157.587 159.217 157.482C159.333 157.19 159.671 157.039 159.974 157.155C160.277 157.272 160.416 157.61 160.3 157.913Z" fill="#FFC980"/>
    <path d="M200.832 183.691C200.843 184.005 200.599 184.285 200.272 184.297C200.156 184.297 188.125 185.055 180.647 204.21C180.554 204.443 180.344 204.583 180.111 204.583C180.042 204.583 179.96 204.571 179.89 204.537C179.599 204.42 179.448 204.082 179.564 203.779C187.344 183.877 199.702 183.154 200.226 183.131C200.564 183.143 200.82 183.364 200.832 183.691Z" fill="#FFC980"/>
    <path d="M40.2538 285.355C40.2538 285.355 40.2538 285.355 40.2538 285.367H40.2189C40.2305 285.367 40.2422 285.355 40.2538 285.355Z" fill="#FFC980"/>
    <path d="M122.575 305.094H122.563C121.946 302.261 119.558 291.056 119.221 287.267C119.256 287.256 119.279 287.256 119.302 287.244L122.575 305.094Z" fill="#FFC980"/>
    <path d="M130.949 304.86H130.938C126.873 307.309 124.392 305.758 123.81 305.315L120.351 286.533V286.498C120.397 284.667 124.345 283.921 126.302 283.746H126.314L130.949 304.86Z" fill="#FFC980"/>
    <path d="M74.9619 133.896C74.7988 133.977 74.263 134.246 73.4477 134.607C56.9439 128.428 51.7377 105.95 51.6794 105.705C51.6096 105.39 51.8076 105.087 52.122 105.017C52.4365 104.947 52.751 105.145 52.8209 105.46C52.8674 105.693 58.1785 128.579 74.9619 133.896Z" fill="white"/>
    <path d="M145.916 69.0612C139.487 71.4629 139.114 78.155 139.172 80.4169C139.545 80.3469 139.987 80.3352 140.442 80.5451C141.164 80.8715 141.63 81.6294 141.839 82.8069C142.072 84.136 141.909 85.1387 141.373 85.7799C140.838 86.4095 140.139 86.4328 140.034 86.4328C139.708 86.4211 139.452 86.1647 139.452 85.8382C139.452 85.5118 139.72 85.2319 140.046 85.2669C140.046 85.2669 140.302 85.2553 140.5 84.9988C140.779 84.649 140.849 83.9378 140.686 83.0051C140.593 82.4805 140.395 81.8043 139.952 81.6061C139.522 81.3962 138.939 81.7226 138.939 81.7343C138.764 81.8276 138.555 81.8392 138.38 81.746C138.205 81.6643 138.077 81.4895 138.054 81.2913C138.054 81.1863 137.029 71.1365 145.508 67.9653C145.811 67.8487 146.149 68.0119 146.254 68.315C146.37 68.6065 146.219 68.9446 145.916 69.0612Z" fill="#21232E"/>
    <path d="M130.949 304.86H130.938L126.302 283.746H126.314L130.949 304.86Z" fill="#21232E"/>
    <path d="M131.147 305.502C131.136 305.49 131.124 305.478 131.112 305.467H131.124C131.136 305.478 131.136 305.49 131.147 305.502Z" fill="#21232E"/>
    <path d="M131.823 305.688C131.765 305.723 131.706 305.758 131.66 305.782C131.566 305.758 131.508 305.723 131.438 305.7C131.497 305.712 131.543 305.723 131.601 305.723C131.648 305.723 131.683 305.723 131.73 305.712C131.765 305.7 131.799 305.7 131.823 305.688Z" fill="#21232E"/>
    <path d="M149.2 150.988V151.011L149.037 150.964C149.084 150.976 149.142 150.976 149.2 150.988Z" fill="#21232E"/>
    <path d="M149.2 150.988V151.011L149.037 150.964C149.084 150.976 149.142 150.976 149.2 150.988Z" fill="#21232E"/>
    <path d="M36.0957 282.685C34.6981 281.555 33.312 280.599 31.926 279.817C33.6381 280.738 35.0125 281.741 36.0957 282.685Z" fill="#21232E"/>
    <path d="M40.2537 285.355C40.2537 285.355 40.2537 285.355 40.2537 285.367H40.2188C40.2304 285.367 40.242 285.355 40.2537 285.355Z" fill="#21232E"/>
    <path d="M133.523 59.2561C133.407 59.3844 133.244 59.4543 133.081 59.4543C132.941 59.4543 132.813 59.4077 132.696 59.3144C122.261 50.4654 121.352 37.3026 121.34 37.1744C121.329 36.8596 121.573 36.5798 121.888 36.5565C122.214 36.5565 122.482 36.7896 122.505 37.1044C122.517 37.2327 123.402 49.9058 133.453 58.4284C133.698 58.6382 133.733 58.9997 133.523 59.2561Z" fill="white"/>
    <path d="M171.83 130.643C171.213 130.771 170.677 130.83 170.2 130.853C172.296 128.171 177.631 120.022 177.13 106.987C176.513 90.7932 165.087 77.2223 164.97 77.0824C164.761 76.8376 164.796 76.4762 165.04 76.2663C165.285 76.0565 165.646 76.0798 165.855 76.3246C165.972 76.4645 177.654 90.3385 178.295 106.941C178.772 119.217 174.335 127.169 171.83 130.643Z" fill="white"/>
    <path d="M62.7792 26.1218C58.5746 29.4446 56.1171 33.77 56.0938 33.8166C55.9889 34.0032 55.7909 34.1081 55.5813 34.1081C55.4881 34.1081 55.3833 34.0848 55.3018 34.0382C55.0222 33.8749 54.9174 33.5252 55.0805 33.2454C55.1853 33.0588 57.6661 28.6751 62.0571 25.2125C62.3016 25.0143 62.6744 25.0609 62.8724 25.3057C63.0704 25.5622 63.0238 25.9236 62.7792 26.1218Z" fill="white"/>
    <path d="M116.111 13.5886C116.099 13.5769 116.088 13.5653 116.088 13.5536C116.064 13.4953 116.041 13.4254 116.041 13.3671C116.076 13.437 116.088 13.5187 116.111 13.5886Z" fill="white"/>
    <path d="M163.456 131.004C162.932 131.121 162.373 131.273 161.744 131.459C169.221 121.036 167.043 105.635 167.02 105.472C166.973 105.157 167.183 104.865 167.509 104.819C167.824 104.772 168.127 104.982 168.173 105.308C168.266 105.938 170.293 120.302 163.456 131.004Z" fill="white"/>
    <path d="M140.267 133.756C139.778 133.674 139.324 133.581 138.893 133.499C147.36 124.872 145.066 111.056 145.042 110.916C144.984 110.602 145.194 110.298 145.52 110.252C145.834 110.182 146.137 110.403 146.184 110.718C146.288 111.301 148.525 124.697 140.267 133.756Z" fill="white"/>
    <path d="M152.671 125.14L147.733 134.432H147.721C147.278 134.432 146.848 134.42 146.428 134.409L151.646 124.592C151.798 124.301 152.147 124.196 152.426 124.347C152.718 124.499 152.823 124.849 152.671 125.14Z" fill="white"/>
    <path d="M70.5827 65.4586L70.4546 65.5519V65.5286C70.4895 65.5169 70.5361 65.4936 70.5827 65.4586Z" fill="white"/>
    <path d="M71.2699 65.1205L70.7808 65.3421C70.9089 65.2721 71.0486 65.1905 71.1768 65.1089C71.2001 65.1089 71.235 65.1205 71.2699 65.1205Z" fill="white"/>
    <path d="M66.7042 62.6955L66.3781 62.8704C66.4596 62.7771 66.576 62.7072 66.7042 62.6955Z" fill="white"/>
    <path d="M53.7176 79.9272C53.706 79.8689 53.6943 79.8223 53.6943 79.7873L53.706 79.7523C53.706 79.7873 53.706 79.8456 53.7176 79.9272Z" fill="#21232E"/>
    <path d="M160.3 157.913C160.137 158.344 156.037 168.534 142.503 176.532C133.826 181.662 122.901 184.309 111.394 184.309C105.128 184.309 98.6986 183.527 92.351 181.93C71.0719 176.567 67.9738 157.971 67.9388 157.785C67.8922 157.47 68.1135 157.178 68.428 157.12C68.7424 157.074 69.0453 157.295 69.0919 157.61C69.1035 157.656 69.8256 162.168 73.0868 167.263C76.0917 171.95 81.9152 178.094 92.6305 180.799C110.346 185.253 128.771 183.283 141.909 175.529C155.07 167.753 159.182 157.587 159.217 157.482C159.333 157.19 159.671 157.039 159.974 157.155C160.277 157.272 160.416 157.61 160.3 157.913Z" fill="#21232E"/>
    <path d="M200.832 183.691C200.843 184.005 200.599 184.285 200.273 184.297C200.156 184.297 188.125 185.055 180.647 204.21C180.554 204.443 180.344 204.583 180.111 204.583C180.042 204.583 179.96 204.571 179.89 204.536C179.599 204.42 179.448 204.082 179.564 203.779C187.344 183.877 199.702 183.154 200.226 183.131C200.564 183.143 200.82 183.364 200.832 183.691Z" fill="#21232E"/>
    <path d="M130.949 304.86H130.938C126.873 307.309 124.392 305.758 123.81 305.315L120.35 286.533V286.498C120.397 284.667 124.345 283.921 126.302 283.746H126.314L130.949 304.86Z" fill="#E8B679"/>
    <path d="M131.73 305.712C131.683 305.723 131.648 305.723 131.602 305.723C131.543 305.723 131.497 305.712 131.438 305.7C131.508 305.723 131.567 305.758 131.66 305.782C131.706 305.758 131.765 305.723 131.823 305.688C131.8 305.7 131.765 305.7 131.73 305.712ZM131.124 305.467H131.112C131.124 305.478 131.136 305.49 131.147 305.502C131.136 305.49 131.136 305.478 131.124 305.467ZM119.302 287.244C119.279 287.256 119.256 287.256 119.221 287.267C119.558 291.056 121.946 302.261 122.563 305.094H122.575L119.302 287.244Z" fill="#21232E"/>
    <path d="M119.302 287.244C119.279 287.256 119.256 287.256 119.221 287.267C119.558 291.056 121.946 302.261 122.563 305.094H122.575L119.302 287.244Z" fill="white"/>
    <path d="M40.2537 285.355C40.2537 285.355 40.2537 285.355 40.2537 285.367H40.2188C40.2304 285.367 40.242 285.355 40.2537 285.355Z" fill="#21232E"/>
    <path d="M214.61 217.291C214.61 217.291 205.886 191.619 202.124 180.438C196.103 162.53 179.995 158.251 179.844 158.204L149.352 149.833C149.037 149.752 148.723 149.938 148.629 150.241C148.548 150.556 148.734 150.871 149.037 150.964C149.084 150.976 149.142 150.976 149.2 150.988V151.011L149.037 150.964C143.901 150.416 140.162 147.467 137.949 142.185C136.249 138.116 136.121 134.129 136.121 134.059C136.086 133.663 136.062 133.266 136.027 132.858C136.656 133.021 137.646 133.266 138.893 133.499C147.36 124.872 145.065 111.056 145.042 110.916C144.984 110.602 145.194 110.298 145.52 110.252C145.834 110.182 146.137 110.403 146.184 110.718C146.288 111.301 148.525 124.697 140.267 133.756C142.037 134.047 144.157 134.316 146.428 134.409L151.646 124.592C151.797 124.301 152.147 124.196 152.426 124.347C152.718 124.499 152.822 124.849 152.671 125.14L147.733 134.432C151.308 134.479 155.152 134.047 158.541 132.637C159.764 132.124 160.812 131.751 161.732 131.459H161.744C169.221 121.036 167.043 105.635 167.02 105.472C166.974 105.157 167.183 104.865 167.509 104.819C167.824 104.772 168.127 104.982 168.173 105.308C168.266 105.938 170.293 120.302 163.456 131.004C166.612 130.317 167.917 130.981 170.188 130.853H170.2C172.296 128.171 177.631 120.022 177.13 106.987C176.512 90.7932 165.087 77.2224 164.97 77.0825C164.761 76.8376 164.796 76.4762 165.04 76.2663C165.285 76.0565 165.646 76.0798 165.855 76.3246C165.972 76.4646 177.654 90.3385 178.294 106.941C178.772 119.217 174.334 127.169 171.83 130.643C173.473 130.317 175.651 129.547 178.935 127.95C178.935 127.95 179.541 127.46 180.461 126.609C180.542 126.656 180.636 126.679 180.729 126.679C180.857 126.679 180.985 126.644 181.09 126.551C197.605 113.4 187.985 96.0164 181.626 84.5208C180.321 82.154 179.086 79.9156 178.26 78.0501C174.498 69.5042 173.508 65.0506 173.205 58.0203V57.8921C173.158 56.9127 173.135 55.8868 173.123 54.7908C173.112 54.6509 173.112 54.5227 173.112 54.3828C173.088 53.3685 173.088 52.2959 173.077 51.1533C172.972 36.195 164.749 22.4143 148.606 10.1726C130.984 -3.20005 111.743 3.13068 109.262 4.04006C98.8966 -1.9409 81.0417 -2.34896 64.2117 10.1959C40.9875 27.5209 27.1042 40.1241 34.2555 79.3093C36.0142 88.9045 34.9427 96.9491 33.9876 104.038C32.3454 116.291 31.0526 125.968 46.9391 134.374C47.0207 134.42 47.1138 134.444 47.207 134.444C47.3235 134.444 47.4399 134.409 47.5331 134.339C52.5413 137.3 57.8757 137.848 62.4996 137.428C48.0689 133.429 44.237 118.716 44.2021 118.553C44.1206 118.238 44.3069 117.923 44.6214 117.842C44.9358 117.772 45.2503 117.958 45.3318 118.273C45.3668 118.436 49.583 134.525 65.8423 136.95C69.15 136.309 71.8521 135.295 73.4478 134.607C56.9439 128.428 51.7377 105.95 51.6795 105.705C51.6096 105.39 51.8076 105.087 52.1221 105.017C52.4365 104.947 52.751 105.145 52.8209 105.46C52.8675 105.693 58.1785 128.579 74.9619 133.896C74.9969 133.873 75.0201 133.861 75.0201 133.861C75.0201 133.861 75.3113 133.966 75.8238 134.141C75.8937 134.176 75.9752 134.187 76.0567 134.211C76.08 134.222 76.1149 134.234 76.1382 134.234C76.5692 134.374 77.105 134.537 77.7223 134.712C80.5175 135.481 84.9318 136.449 88.2163 135.936C88.4608 138 88.5424 140.005 88.2395 141.8C88.2279 141.882 87.2612 150.871 80.2846 150.976C80.3195 150.964 80.3312 150.953 80.3428 150.953C80.6457 150.859 80.8204 150.545 80.7272 150.23C80.634 149.927 80.3079 149.752 80.0051 149.845C78.7355 150.218 48.9424 159.242 42.6064 166.785C36.317 174.282 28.9561 202.648 28.6649 203.814L2.85509 280.902V280.913C2.37756 281.403 0.374246 283.56 0.723657 285.67C0.91001 286.801 1.70203 287.699 3.07638 288.328H3.08801C3.32095 288.445 3.61215 288.375 3.77521 288.165C3.8218 288.118 8.37579 282.72 17.6002 283.257C25.4154 283.723 31.8562 288.014 33.8013 289.448C30.9361 291.569 28.3039 293.773 27.6982 294.298C27.6866 294.298 27.6866 294.309 27.6866 294.309C27.6749 294.309 27.6633 294.321 27.6516 294.333C24.1808 295.86 21.1642 297.445 19.9529 298.518C18.4738 299.847 18.7067 300.862 18.9862 301.351C19.4987 302.261 20.8148 302.657 21.9679 302.657C22.3872 302.657 22.7948 302.599 23.1209 302.505C23.6567 302.342 28.6766 301.141 33.0675 300.104C31.7165 300.85 30.4236 301.561 29.2706 302.191C25.9861 303.974 24.3788 304.86 23.9945 305.234C23.6101 305.618 22.69 306.808 23.086 307.857C23.249 308.311 23.7149 308.859 24.9961 308.929C25.0543 308.941 25.1242 308.941 25.2058 308.941C27.605 308.941 33.4169 306.877 38.1107 305.222L39.5433 304.721C40.8128 304.278 42.6647 303.963 44.633 303.741C37.6448 306.481 33.3354 308.475 32.4502 310.713C32.2056 311.354 32.2289 311.996 32.5317 312.614C32.6715 312.905 32.9161 313.127 33.2539 313.278C33.7198 313.511 34.372 313.605 35.2106 313.605C37.4119 313.605 40.8827 312.917 45.5764 311.937C51.2369 310.76 57.6428 309.431 59.7276 310.398C67.2399 313.908 80.3079 310.398 80.7621 310.27L123.087 306.225C123.565 306.598 124.811 307.379 126.71 307.379C128.049 307.379 129.703 306.994 131.66 305.782C131.567 305.758 131.508 305.723 131.438 305.7C131.497 305.712 131.543 305.723 131.601 305.723C131.648 305.723 131.683 305.723 131.73 305.712C131.765 305.7 131.799 305.7 131.823 305.688C131.765 305.723 131.706 305.758 131.66 305.782C133.931 306.598 139.615 307.192 147.22 307.192C165.285 307.192 194.239 303.846 214.342 292.071C244.659 274.338 214.866 217.769 214.61 217.291ZM109.717 4.97277C109.763 4.90282 109.787 4.8212 109.787 4.73959C109.891 4.77457 109.973 4.8212 110.031 4.85618C110.171 4.77457 110.346 4.76291 110.497 4.8212C110.509 4.8212 110.52 4.83286 110.52 4.83286C110.555 4.84452 110.59 4.85618 110.625 4.8795C112.139 5.88216 113.42 7.02472 114.469 8.23723C115.435 7.61932 117.788 6.45344 121.503 6.82652C121.818 6.84984 122.051 7.14131 122.028 7.45609C121.993 7.78254 121.713 8.01571 121.387 7.98074C118.149 7.65429 116.053 8.63363 115.191 9.15828C115.994 10.2542 116.612 11.3968 117.008 12.586C120.059 11.6766 134.315 8.5287 149.876 23.7318C150.097 23.965 150.109 24.3264 149.876 24.5596C149.771 24.6761 149.619 24.7344 149.468 24.7344C149.317 24.7344 149.165 24.6878 149.06 24.5712C133.873 9.72956 120.141 12.8541 117.357 13.7052C119.652 22.3327 115.936 31.753 113.467 36.6964C113.362 36.8946 113.153 37.0112 112.943 37.0112C112.85 37.0112 112.768 36.9995 112.687 36.9529C112.395 36.813 112.279 36.4632 112.419 36.1717C114.387 32.2427 118.627 22.2744 116.111 13.5886C116.099 13.577 116.088 13.5653 116.088 13.5537C116.064 13.4954 116.041 13.4254 116.041 13.3671V13.3321C116.018 13.2855 116.006 13.2389 115.994 13.1922C115.563 11.8631 114.876 10.5923 113.921 9.40311C112.896 8.10899 111.569 6.91979 109.973 5.84718C109.717 5.68396 109.647 5.34585 109.787 5.08936C109.682 5.12434 109.589 5.15931 109.53 5.17097C109.6 5.12433 109.67 5.05438 109.717 4.97277ZM133.523 59.2562C133.407 59.3844 133.244 59.4544 133.081 59.4544C132.941 59.4544 132.813 59.4077 132.696 59.3145C122.261 50.4654 121.352 37.3026 121.34 37.1744C121.329 36.8596 121.573 36.5798 121.888 36.5565C122.214 36.5565 122.482 36.7896 122.505 37.1044C122.517 37.2327 123.402 49.9058 133.453 58.4284C133.698 58.6382 133.733 58.9997 133.523 59.2562ZM55.0804 33.2454C55.1852 33.0588 57.666 28.6751 62.057 25.2125C62.3016 25.0143 62.6743 25.0609 62.8723 25.3057C63.0703 25.5622 63.0237 25.9236 62.7791 26.1218C58.5745 29.4446 56.117 33.77 56.0937 33.8166C55.9889 34.0032 55.7909 34.1081 55.5812 34.1081C55.4881 34.1081 55.3832 34.0848 55.3017 34.0382C55.0222 33.8749 54.9174 33.5252 55.0804 33.2454ZM53.2285 38.1421C45.2969 52.9021 48.5464 69.2011 48.5813 69.3643C48.6512 69.6791 48.4533 69.9822 48.1388 70.0522C48.0922 70.0639 48.0572 70.0639 48.0107 70.0639C47.7428 70.0639 47.4982 69.8773 47.44 69.5975C47.405 69.4343 44.074 52.7272 52.2036 37.5824C52.355 37.3026 52.7161 37.1977 52.9956 37.3493C53.2751 37.5008 53.38 37.8506 53.2285 38.1421ZM65.5162 115.778C64.6543 114.624 63.8506 113.376 63.1052 112.059C62.7558 111.453 62.4297 110.835 62.1152 110.193C61.0903 108.188 60.1935 106.066 59.3898 103.909C59.2151 103.431 59.0404 102.953 58.8657 102.464C58.691 101.974 58.5279 101.496 58.3765 101.006C58.2251 100.54 58.0737 100.085 57.934 99.6306C57.1769 97.1939 56.5363 94.7922 56.0122 92.5304C55.9073 92.0873 55.8025 91.6443 55.7094 91.2129C55.6977 91.2013 55.6977 91.1896 55.6977 91.178C55.5579 90.56 55.4298 89.9654 55.3134 89.3825C55.2551 89.1143 55.1969 88.8579 55.1503 88.6014C55.0804 88.2399 55.0105 87.8785 54.9407 87.5288C54.929 87.4821 54.9173 87.4355 54.9173 87.3889C54.8475 87.0507 54.7893 86.7243 54.731 86.4095C54.6844 86.1763 54.6378 85.9315 54.6029 85.71C54.5679 85.5234 54.533 85.3486 54.5097 85.1853C54.4282 84.7423 54.3583 84.3109 54.2884 83.9145C54.2535 83.693 54.2185 83.4832 54.1952 83.2733C54.1603 83.0634 54.1253 82.8536 54.0904 82.6554C54.0671 82.4455 54.0322 82.259 54.0089 82.0724C53.8924 81.3146 53.8225 80.72 53.7643 80.312C53.7526 80.242 53.741 80.1954 53.741 80.1371C53.741 80.0904 53.7294 80.0555 53.7294 80.0205C53.7294 79.9855 53.7293 79.9622 53.7177 79.9389V79.9272C53.706 79.8689 53.6944 79.8223 53.6944 79.7873L53.7061 79.7523C53.7061 79.7873 53.706 79.8456 53.7177 79.9272C54.6611 78.6098 55.5579 77.2457 56.4198 75.8466C56.4198 75.8466 56.4315 75.8466 56.4315 75.835L60.8457 70.5885L60.8573 70.5769L64.8057 65.0506L65.5977 63.9547L66.3315 62.917C66.3431 62.9054 66.3548 62.8821 66.3781 62.8704C66.4596 62.7771 66.5761 62.7072 66.7042 62.6955C66.8556 62.6605 67.007 62.6955 67.1467 62.7888C67.2166 62.8471 67.2865 62.917 67.3215 62.9986C67.3215 63.0103 67.3215 63.0103 67.3215 63.0103C67.4146 63.1968 67.4146 63.4184 67.2749 63.5932L67.1467 63.7681L63.5129 68.8513L70.4545 65.5053L70.5826 65.4586C70.5943 65.447 70.6175 65.4353 70.6408 65.4237C70.6874 65.4003 70.734 65.377 70.7806 65.3421L71.1417 65.0972C71.1533 65.0972 71.165 65.1089 71.1766 65.1089C71.8172 64.7358 72.4462 64.3394 73.0634 63.9313L73.0984 63.8148L73.11 63.8031C73.145 63.8147 73.1799 63.8264 73.2032 63.8381C73.4129 63.7098 73.6108 63.5699 73.8088 63.43C77.501 60.9001 80.6689 57.9854 83.3827 54.9074C83.7438 54.4877 84.1048 54.068 84.4542 53.6483C84.7804 53.2635 85.0948 52.8671 85.3977 52.4824C95.6354 39.4828 98.3259 24.8044 98.3608 24.5945C98.4074 24.2797 98.7102 24.0699 99.0363 24.1282C99.3508 24.1748 99.5604 24.478 99.5022 24.7927C99.4673 25.0026 97.0097 38.4568 87.8552 51.1416C87.5989 51.503 87.3311 51.8645 87.0632 52.2259C86.7604 52.6223 86.4575 53.007 86.143 53.4034C84.1281 55.9567 81.822 58.4284 79.1898 60.7368C78.7705 61.0983 78.3279 61.4713 77.8853 61.8328C77.7921 61.9144 77.6989 61.996 77.5941 62.0776L77.7805 61.9843C77.7805 61.9843 92.9449 63.7564 104.79 49.8475C107.585 46.9561 109.402 44.2629 110.346 42.689C111.848 47.5041 118.056 63.7565 134.56 69.411C134.571 69.4343 134.595 69.4343 134.606 69.4343C134.467 69.6791 134.35 69.9006 134.257 70.0755C134.222 70.1455 134.199 70.2154 134.175 70.2621C134.152 70.3087 134.129 70.3553 134.117 70.3903C134.059 70.5069 134.036 70.5652 134.024 70.5885C133.908 70.8916 134.047 71.2297 134.35 71.3463C134.641 71.4746 134.979 71.323 135.107 71.0316C135.107 71.0199 135.259 70.6468 135.585 70.0988C135.62 70.0289 135.655 69.9706 135.701 69.889C135.783 69.7607 135.864 69.6325 135.969 69.4809C135.969 69.4809 135.969 69.4693 135.981 69.4576C136.051 69.341 136.132 69.2244 136.225 69.0962C136.691 68.4433 137.332 67.6971 138.135 67.0209C138.31 66.881 138.485 66.7411 138.671 66.6012C138.858 66.4613 139.044 66.333 139.242 66.2281C139.661 65.96 140.115 65.7268 140.605 65.5286C143.144 64.5143 146.09 64.7591 149.375 66.2514C153.114 67.9536 154.942 71.2064 154.814 75.9166C154.604 83.763 149.107 92.3671 147.092 93.1483C144.18 94.2909 141.967 94.4891 141.944 94.4891C141.641 94.5124 141.397 94.7805 141.408 95.0837C141.49 97.3921 141.105 98.6396 141.094 98.6629C139.859 102.697 137.693 106.428 134.909 109.797C125.941 120.605 110.439 127.647 97.5688 128.533C94.6687 128.731 92.0481 128.766 89.6721 128.649C77.2797 128.055 71.1533 123.333 65.5162 115.778ZM89.3926 141.952C89.9167 138.839 89.346 135.213 88.7986 131.704C88.6938 131.051 88.589 130.398 88.5074 129.757C89.742 129.839 91.0348 129.885 92.3975 129.885C94.0398 129.885 95.7985 129.827 97.6503 129.699C110.555 128.801 126.081 121.829 135.329 111.08C134.537 119.672 134.408 127.425 134.956 134.117C134.956 134.292 135.084 138.338 136.866 142.605C139.125 148.026 143.062 151.279 148.28 152.037C146.288 155.476 136.237 170.073 109.752 170.073C98.3841 170.073 90.138 167.462 85.2462 162.297C81.3445 158.193 80.8204 153.634 80.7621 152.119C88.3443 151.64 89.3809 142.01 89.3926 141.952ZM17.6701 282.103C17.1926 282.068 16.7267 282.056 16.2725 282.056C8.60871 282.056 4.34592 285.88 3.19286 287.081C2.42416 286.649 1.98156 286.113 1.87674 285.484C1.6438 284.085 3.06471 282.336 3.7053 281.706C3.72859 281.694 3.75192 281.683 3.77521 281.659C5.02145 280.773 17.4721 272.542 30.8196 279.246C31.204 279.433 31.565 279.619 31.9261 279.817C33.6382 280.738 35.0126 281.741 36.0957 282.685C36.2588 282.825 36.4219 282.965 36.5616 283.094C37.8079 284.248 38.6115 285.25 39.0425 285.845C37.4352 286.568 35.5483 288.049 34.768 288.701C33.1024 287.419 26.2889 282.604 17.6701 282.103ZM122.563 305.094L122.109 305.14L80.5525 309.128C80.4244 309.163 67.3447 312.66 60.2284 309.349C57.7942 308.207 51.4582 309.524 45.3435 310.795C42.257 311.436 38.0874 312.299 35.6182 312.439C34.5117 312.509 33.743 312.427 33.58 312.101C33.4286 311.774 33.4053 311.471 33.5334 311.145C34.4186 308.906 41.6048 306.143 48.5464 303.473C48.6046 303.45 48.6512 303.426 48.6978 303.391C50.6079 303.287 52.3434 303.228 53.5081 303.217C54.335 303.193 54.8708 303.193 54.9639 303.193C54.9756 303.193 54.9756 303.193 54.9756 303.193C55.3017 303.193 55.5579 302.937 55.5579 302.61C55.5579 302.284 55.3017 302.027 54.9756 302.027H54.7077C54.2418 302.027 53.2518 302.039 51.959 302.074C50.5148 302.121 48.7095 302.191 46.8576 302.342C44.0041 302.564 41.0341 302.948 39.1589 303.613L37.7263 304.126C33.4868 305.618 27.0576 307.845 25.0543 307.775C24.5652 307.74 24.239 307.624 24.1692 307.449C24.0643 307.134 24.4254 306.446 24.7981 306.073C25.1009 305.782 27.3954 304.534 29.8296 303.217C31.9843 302.039 34.6748 300.582 37.2605 299.089C37.2721 299.078 37.2837 299.078 37.2954 299.066C37.4934 298.961 37.703 298.845 37.901 298.74C37.9127 298.74 37.9127 298.74 37.9127 298.74C40.0674 297.679 42.6181 297.154 44.9475 296.921C48.7444 296.536 51.9823 296.898 52.0289 296.909C52.1454 296.921 52.2502 296.898 52.3434 296.851C52.5297 296.769 52.6578 296.606 52.6811 296.396C52.7161 296.07 52.4831 295.778 52.1687 295.743C51.9241 295.708 47.9408 295.277 43.5615 295.907C42.4783 296.058 41.3602 296.291 40.2654 296.594C39.0424 296.956 37.8428 297.422 36.7596 298.04C36.748 298.04 36.7247 298.052 36.713 298.052C36.6315 298.063 36.5267 298.087 36.3869 298.122C36.3869 298.122 36.3753 298.122 36.3636 298.122C33.9643 298.693 23.6217 301.118 22.7832 301.386C21.8281 301.678 20.3256 301.351 19.9995 300.78C19.7549 300.337 20.4305 299.661 20.7333 299.393C21.9329 298.32 25.1708 296.653 28.8047 295.09C31.8679 293.75 35.2222 292.49 37.8544 291.709C39.0424 291.348 40.0907 291.091 40.8943 290.975C44.5399 290.427 48.3251 290.637 49.9324 290.765C50.4216 290.8 50.7128 290.835 50.7244 290.835C51.0505 290.87 51.3301 290.648 51.365 290.322C51.3999 290.007 51.1786 289.716 50.8525 289.681C50.6429 289.657 45.6463 289.086 40.7196 289.821C39.683 289.972 38.2737 290.334 36.6781 290.847C35.0825 291.348 33.3004 291.989 31.4952 292.7C32.6715 291.768 33.976 290.765 35.2804 289.821C37.0624 288.515 38.8095 287.349 40.0907 286.696C40.1489 286.673 40.2071 286.649 40.2654 286.614C40.7196 286.393 41.104 286.253 41.4068 286.195C41.9076 286.101 42.4317 286.032 42.9791 285.985C46.8459 285.577 51.8542 285.938 57.9106 287.081C58.26 287.151 58.493 287.197 58.5862 287.209C58.9123 287.244 63.1751 288.153 67.6709 289.109C74.2398 290.509 82.4044 292.234 85.619 292.852C90.8368 293.843 114.783 288.317 119.221 287.267C119.256 287.256 119.279 287.256 119.302 287.244L122.575 305.094H122.563V305.094ZM130.938 304.86C126.873 307.309 124.392 305.758 123.81 305.315L120.35 286.533V286.498C120.397 284.667 124.345 283.921 126.302 283.746H126.314L130.949 304.86H130.938ZM131.112 305.467H131.124C131.136 305.478 131.136 305.49 131.147 305.502C131.136 305.49 131.124 305.478 131.112 305.467ZM213.76 291.068C185.481 307.612 139.661 307.39 132.102 304.709L127.339 283C127.327 282.93 127.304 282.86 127.269 282.814C127.234 282.709 127.117 282.266 127.443 281.531C128.294 279.573 132.114 275.55 148.199 270.502C149.922 269.966 152.1 269.22 154.639 268.357C161.569 266.002 171.539 262.621 182.569 259.811C182.72 259.776 182.872 259.741 183.035 259.694C184.654 259.286 186.296 258.89 187.95 258.517C188.264 258.447 188.462 258.144 188.392 257.829C188.323 257.514 188.008 257.316 187.694 257.386C186.086 257.747 184.479 258.132 182.907 258.528C181.311 255.998 172.518 241.145 174.777 224.461C174.824 224.147 174.602 223.855 174.288 223.808C173.962 223.75 173.671 223.983 173.624 224.31C171.388 240.749 179.646 255.439 181.73 258.832C170.875 261.618 161.092 264.941 154.255 267.261C151.739 268.112 149.561 268.858 147.849 269.394C131.928 274.384 127.35 278.582 126.314 281.216C126.092 281.764 126.046 282.231 126.057 282.592C124.252 282.767 119.733 283.455 119.244 286.055C115.831 286.859 90.8951 292.665 85.8402 291.709C82.6373 291.091 74.4727 289.366 67.9154 287.967C62.2666 286.766 59.0637 286.09 58.7376 286.043C58.6444 286.032 58.4347 285.997 58.1203 285.938C56.4664 285.623 54.894 285.367 53.3916 285.18C49.2336 275.504 47.1255 260.475 47.1255 240.481C47.1255 230.081 47.801 221.675 48.3368 214.913C48.791 209.247 49.1754 204.362 49.0473 200.001C48.7677 190.266 38.5533 183.504 38.1223 183.224C37.8544 183.049 37.4934 183.131 37.3187 183.399C37.144 183.667 37.2138 184.029 37.4817 184.204C37.5865 184.273 47.6263 190.907 47.8826 200.036C48.0107 204.327 47.6263 209.188 47.1721 214.82C46.6363 221.593 45.9608 230.034 45.9608 240.481C45.9608 260.184 48.0107 275.166 52.0638 285.006C47.7428 284.516 44.0973 284.528 41.2088 285.052C40.9293 285.099 40.6148 285.204 40.2537 285.355C40.2537 285.355 40.2537 285.355 40.2537 285.367H40.2188C40.2304 285.367 40.2421 285.355 40.2537 285.355C40.2887 285.18 40.2421 284.982 40.1023 284.842C39.2987 283.991 38.4834 283.21 37.6681 282.499C37.6331 282.464 37.5866 282.429 37.5516 282.406C35.8395 280.785 33.2771 278.908 29.6549 277.462C29.1774 277.264 28.6766 277.078 28.1525 276.903C27.6283 276.704 27.0809 276.541 26.5102 276.378C25.5901 276.122 24.6583 275.947 23.7149 275.842C23.6684 275.83 23.6218 275.818 23.5752 275.818C14.8748 274.618 7.42073 278.174 4.42744 279.887L29.783 204.14C29.8529 203.849 37.3769 174.83 43.5033 167.531C49.1521 160.793 75.6374 152.41 79.7954 151.128C79.679 151.221 79.5974 151.372 79.5858 151.536C79.5858 151.536 79.5858 151.547 79.5858 151.559C79.5625 152.025 79.4693 156.607 82.8819 161.271C82.9052 161.294 82.9168 161.329 82.9401 161.352C83.3711 161.935 83.8486 162.507 84.3844 163.078C89.5091 168.499 98.0347 171.239 109.752 171.239C133.209 171.239 144.122 159.965 148.001 154.59C148.129 154.404 148.245 154.229 148.35 154.066C148.431 153.949 148.501 153.844 148.56 153.739C149.293 152.666 149.654 151.967 149.713 151.827C149.724 151.815 149.724 151.804 149.724 151.804C149.748 151.745 149.771 151.687 149.771 151.617C149.794 151.407 149.701 151.209 149.538 151.104L179.552 159.335C179.704 159.382 195.218 163.521 201.018 180.811C204.78 191.992 213.503 217.664 213.538 217.758C213.841 218.317 243.11 273.895 213.76 291.068Z" fill="#21232E"/>
    <path d="M122.563 305.094L122.109 305.14L80.5526 309.128C80.4245 309.163 67.3448 312.66 60.2285 309.349C57.7942 308.207 51.4582 309.524 45.3435 310.795C42.2571 311.436 38.0875 312.299 35.6183 312.439C34.5118 312.509 33.7431 312.427 33.5801 312.101C33.4286 311.774 33.4053 311.471 33.5335 311.145C34.4186 308.906 41.6048 306.143 48.5465 303.473C48.6047 303.45 48.6513 303.426 48.6979 303.391C50.608 303.287 52.3434 303.228 53.5081 303.217C54.3351 303.193 54.8708 303.193 54.964 303.193C54.9757 303.193 54.9757 303.193 54.9757 303.193C55.3018 303.193 55.558 302.937 55.558 302.61C55.558 302.284 55.3018 302.027 54.9757 302.027H54.7078C54.2419 302.027 53.2519 302.039 51.9591 302.074C50.5149 302.121 48.7096 302.191 46.8577 302.342C44.0041 302.564 41.0341 302.948 39.159 303.613L37.7264 304.126C33.4869 305.618 27.0577 307.845 25.0544 307.775C24.5652 307.74 24.2391 307.624 24.1692 307.449C24.0644 307.134 24.4255 306.446 24.7982 306.073C25.101 305.782 27.3955 304.534 29.8297 303.217C31.9844 302.039 34.6749 300.582 37.2605 299.089C37.2722 299.078 37.2838 299.078 37.2955 299.066C37.4935 298.961 37.7031 298.845 37.9011 298.74C37.9127 298.74 37.9128 298.74 37.9128 298.74C40.0675 297.679 42.6181 297.154 44.9475 296.921C48.7445 296.536 51.9824 296.898 52.029 296.909C52.1454 296.921 52.2502 296.898 52.3434 296.851C52.5298 296.769 52.6579 296.606 52.6812 296.396C52.7161 296.07 52.4832 295.778 52.1687 295.743C51.9241 295.708 47.9408 295.277 43.5615 295.907C42.4784 296.058 41.3603 296.291 40.2654 296.594C39.0425 296.956 37.8428 297.422 36.7597 298.04C36.748 298.04 36.7248 298.052 36.7131 298.052C36.6316 298.063 36.5268 298.087 36.387 298.122C36.387 298.122 36.3753 298.122 36.3637 298.122C33.9644 298.693 23.6218 301.118 22.7832 301.386C21.8282 301.678 20.3257 301.351 19.9996 300.78C19.755 300.337 20.4305 299.661 20.7334 299.392C21.933 298.32 25.1709 296.653 28.8048 295.09C31.8679 293.75 35.2223 292.49 37.8545 291.709C39.0425 291.348 40.0907 291.091 40.8944 290.975C44.5399 290.427 48.3252 290.637 49.9325 290.765C50.4217 290.8 50.7129 290.835 50.7245 290.835C51.0506 290.87 51.3301 290.648 51.3651 290.322C51.4 290.007 51.1787 289.716 50.8526 289.681C50.643 289.657 45.6464 289.086 40.7197 289.821C39.6831 289.972 38.2738 290.334 36.6782 290.847C35.0825 291.348 33.3005 291.989 31.4952 292.7C32.6716 291.768 33.976 290.765 35.2805 289.821C37.0625 288.515 38.8096 287.349 40.0907 286.696C40.149 286.673 40.2072 286.649 40.2654 286.614C40.7197 286.393 41.104 286.253 41.4069 286.195C41.9077 286.101 42.4318 286.031 42.9792 285.985C46.846 285.577 51.8542 285.938 57.9107 287.081C58.2601 287.151 58.4931 287.197 58.5863 287.209C58.9124 287.244 63.1752 288.153 67.6709 289.109C74.2399 290.509 82.4045 292.234 85.619 292.852C90.8369 293.843 114.783 288.317 119.221 287.267C119.559 291.056 121.946 302.261 122.563 305.094Z" fill="white"/>
    <path d="M39.0425 285.845C37.4352 286.568 35.5483 288.048 34.768 288.701C33.1024 287.419 26.2889 282.604 17.6701 282.103C17.1926 282.068 16.7267 282.056 16.2725 282.056C8.6087 282.056 4.34591 285.88 3.19285 287.081C2.42414 286.649 1.98155 286.113 1.87673 285.484C1.64379 284.084 3.0647 282.336 3.70529 281.706C3.72858 281.694 3.75191 281.683 3.7752 281.659C5.02144 280.773 17.4721 272.542 30.8196 279.246C31.204 279.433 31.565 279.619 31.9261 279.817C33.6382 280.738 35.0126 281.741 36.0958 282.685C36.2588 282.825 36.4219 282.965 36.5616 283.094C37.8079 284.248 38.6115 285.25 39.0425 285.845Z" fill="#E8B679"/>
    <path d="M53.7176 79.9272C53.706 79.8689 53.6943 79.8223 53.6943 79.7873L53.706 79.7523C53.706 79.7873 53.706 79.8456 53.7176 79.9272Z" fill="#21232E"/>
    <path d="M99.5021 24.7927C99.4671 25.0026 97.0096 38.4568 87.855 51.1416C87.5988 51.503 87.3309 51.8645 87.063 52.2259C86.7602 52.6223 86.4574 53.007 86.1429 53.4034C84.128 55.9567 81.8219 58.4284 79.1897 60.7368C78.7704 61.0982 78.3278 61.4713 77.8852 61.8328C77.792 61.9144 77.6988 61.996 77.594 62.0776H77.5824L74.3445 63.6399L73.634 63.9896H73.6224L72.9352 64.3161L71.2697 65.1205C71.2347 65.1205 71.1998 65.1089 71.1765 65.1089C71.8171 64.7358 72.446 64.3394 73.0633 63.9313C73.1099 63.908 73.1565 63.873 73.2031 63.8381C73.4127 63.7098 73.6107 63.5699 73.8087 63.43C77.5008 60.9 80.6688 57.9853 83.3826 54.9074C83.7436 54.4877 84.1047 54.068 84.4541 53.6483C84.7802 53.2635 85.0947 52.8671 85.3975 52.4824C95.6353 39.4828 98.3257 24.8044 98.3607 24.5945C98.4073 24.2798 98.7101 24.0699 99.0362 24.1282C99.3507 24.1748 99.5603 24.478 99.5021 24.7927Z" fill="white"/>
    <path d="M149.375 66.2514C146.09 64.7591 143.144 64.5143 140.605 65.5286C140.115 65.7268 139.661 65.96 139.242 66.2281C139.044 66.3447 138.858 66.473 138.671 66.6012C138.485 66.7411 138.31 66.881 138.135 67.0209C137.332 67.6971 136.691 68.4433 136.225 69.0962C136.132 69.2244 136.051 69.341 135.981 69.4576C135.969 69.4693 135.969 69.4809 135.969 69.4809C135.864 69.6325 135.783 69.7607 135.701 69.889C135.655 69.9706 135.62 70.0289 135.585 70.0989C135.259 70.6468 135.107 71.0199 135.107 71.0316C134.979 71.323 134.641 71.4746 134.35 71.3463C134.047 71.2297 133.908 70.8916 134.024 70.5885C134.036 70.5652 134.059 70.5069 134.117 70.3903C134.129 70.3553 134.152 70.3087 134.175 70.2621C134.199 70.2154 134.222 70.1455 134.257 70.0755L134.56 69.411C118.056 63.7565 111.848 47.5041 110.346 42.689C109.402 44.2629 107.585 46.9561 104.79 49.8475C92.9449 63.7565 77.7804 61.9843 77.7804 61.9843L77.5941 62.0776H77.5825L74.3446 63.6399L73.6341 63.9896H73.6224L72.9353 64.3161L71.2698 65.1205L70.7806 65.3421C70.734 65.377 70.6874 65.4003 70.6408 65.4237C70.6175 65.4353 70.5942 65.447 70.5826 65.4586L70.4545 65.5519V65.5053L63.5128 68.8513L61.4862 69.8307L60.8573 70.5769L60.8457 70.5885L56.4314 75.835C56.4314 75.8466 56.4198 75.8466 56.4198 75.8466C55.5579 77.2457 54.6611 78.6098 53.7177 79.9272V79.9389C53.7293 79.9622 53.7293 79.9855 53.7293 80.0205C53.7293 80.0555 53.741 80.0904 53.741 80.1371C53.741 80.1954 53.7526 80.242 53.7642 80.312C53.8225 80.72 53.8924 81.3146 54.0088 82.0724C54.0321 82.259 54.0671 82.4455 54.0904 82.6554C54.1253 82.8536 54.1602 83.0634 54.1952 83.2733C54.2185 83.4832 54.2534 83.693 54.2884 83.9145C54.3583 84.3109 54.4281 84.7423 54.5097 85.1853C54.533 85.3486 54.5679 85.5234 54.6028 85.71C54.6378 85.9315 54.6844 86.1763 54.731 86.4095C54.7892 86.7243 54.8474 87.0508 54.9173 87.3889C54.9173 87.4355 54.929 87.4821 54.9406 87.5288C55.0105 87.8785 55.0804 88.2399 55.1503 88.6014C55.1968 88.8579 55.2551 89.1143 55.3133 89.3825C56.5246 88.8229 57.8524 88.4731 59.2617 88.3798C65.3414 88.0184 70.5593 92.6586 70.932 98.7329C71.2581 104.294 67.4262 109.133 62.1152 110.193C62.4297 110.823 62.7674 111.453 63.1052 112.059C63.8506 113.376 64.6542 114.624 65.5161 115.778C71.1533 123.333 77.2797 128.055 89.6721 128.649C92.0481 128.766 94.6687 128.731 97.5688 128.533C110.439 127.647 125.941 120.605 134.909 109.797C137.693 106.428 139.859 102.697 141.094 98.6629C141.105 98.6396 141.49 97.3921 141.408 95.0837C141.397 94.7805 141.641 94.5124 141.944 94.4891C141.967 94.4891 144.18 94.2909 147.092 93.1483C149.107 92.3671 154.604 83.763 154.814 75.9166C154.942 71.2064 153.114 67.9536 149.375 66.2514ZM68.8937 82.667H68.7074C67.8455 82.667 67.0303 82.3173 66.378 81.6411C65.7141 80.9532 65.3181 80.0088 65.2599 78.9945C65.19 77.9802 65.4812 76.9892 66.0519 76.2314C66.6575 75.4386 67.4961 74.9722 68.4163 74.9139C70.3031 74.7973 71.9336 76.4412 72.0617 78.5865C72.0617 78.6797 72.0734 78.7613 72.0734 78.8546C72.0734 80.8716 70.6874 82.5504 68.8937 82.667ZM76.0916 66.3913C75.8704 66.6595 75.5209 66.7761 74.892 66.7761C74.1699 66.7761 73.0867 66.6129 71.4212 66.3214C71.6891 66.1815 71.9453 66.0183 72.2015 65.8667C72.4461 65.7151 72.6907 65.5636 72.9353 65.4004C73.2847 65.1905 73.6225 64.969 73.9602 64.7358C74.1582 64.6075 74.3562 64.4793 74.5426 64.3511C74.7289 64.2228 74.9036 64.0946 75.0783 63.9663L75.1599 64.0246C75.7539 64.5026 75.8238 64.6192 76.1965 65.5286C76.3246 65.8317 76.2896 66.1465 76.0916 66.3913ZM80.8087 94.6173C80.4476 93.6963 80.6922 92.6819 81.5425 91.6093C85.2695 86.8642 83.5108 72.4423 83.4875 72.2907C83.4526 71.9759 83.6738 71.6844 84 71.6495C84.3144 71.6145 84.6056 71.836 84.6406 72.1508C84.7221 72.7687 86.4808 87.2023 82.4509 92.3322C81.8802 93.055 81.6939 93.6846 81.8919 94.1859C82.3577 95.3751 84.8153 96.0047 85.6306 96.133C85.9451 96.1913 86.1663 96.4827 86.1197 96.7975C86.0731 97.089 85.8286 97.2988 85.5374 97.2988C85.5141 97.2988 85.4791 97.2872 85.4558 97.2872C85.0598 97.2289 81.6007 96.6343 80.8087 94.6173ZM96.637 108.072C94.2843 109.587 90.8251 110.298 87.762 110.298C85.9683 110.298 84.3145 110.054 83.0799 109.587C82.7887 109.471 82.6373 109.133 82.7421 108.829C82.8586 108.526 83.1963 108.375 83.4992 108.491C86.5623 109.657 92.5605 109.307 96.0081 107.092C96.2759 106.917 96.637 106.999 96.8117 107.267C96.9864 107.535 96.9049 107.897 96.637 108.072ZM99.0829 65.3887C98.6986 65.3887 98.4423 65.3071 98.2443 65.1205C98.0347 64.9107 97.9531 64.5959 98.0463 64.2694C98.3025 63.3251 98.3608 63.2085 98.8383 62.7072L98.9781 62.5789C99.1644 62.4507 103.509 59.5826 109.682 59.7808C116.775 60.0023 119.127 61.4364 119.815 62.0426C120.211 62.404 120.106 62.7538 120.048 62.8937C119.791 63.4183 119.302 63.3367 117.485 63.0453C115.552 62.7188 112.628 62.2408 110.311 62.5789C108.226 62.8821 105.745 63.6282 103.567 64.2928C101.179 65.0156 99.8633 65.3887 99.0829 65.3887ZM107.271 80.3586H107.084C105.291 80.3586 103.753 78.7497 103.637 76.6861C103.509 74.5408 104.93 72.7104 106.805 72.6055C108.668 72.4772 110.311 74.1328 110.439 76.278C110.567 78.4116 109.146 80.242 107.271 80.3586ZM122.097 105.565C116.029 105.926 110.811 101.298 110.439 95.2119C110.078 89.1377 114.702 83.9029 120.781 83.5414C126.849 83.18 132.079 87.8086 132.44 93.8945C132.801 99.9687 128.177 105.192 122.097 105.565ZM145.916 69.0612C139.486 71.4629 139.114 78.1551 139.172 80.4169C139.545 80.3469 139.987 80.3353 140.442 80.5451C141.164 80.8716 141.63 81.6294 141.839 82.8069C142.072 84.136 141.909 85.1387 141.373 85.7799C140.838 86.4095 140.139 86.4328 140.034 86.4328C139.708 86.4212 139.452 86.1647 139.452 85.8382C139.452 85.5118 139.719 85.232 140.046 85.2669C140.046 85.2669 140.302 85.2553 140.5 84.9988C140.779 84.649 140.849 83.9378 140.686 83.0051C140.593 82.4805 140.395 81.8043 139.952 81.6061C139.521 81.3962 138.939 81.7227 138.939 81.7343C138.764 81.8276 138.555 81.8393 138.38 81.746C138.205 81.6644 138.077 81.4895 138.054 81.2913C138.054 81.1864 137.029 71.1365 145.508 67.9653C145.811 67.8487 146.149 68.0119 146.253 68.3151C146.37 68.6065 146.218 68.9446 145.916 69.0612Z" fill="white"/>
    <path d="M110.52 4.83286C110.218 4.93779 109.961 5.0194 109.787 5.08936C109.682 5.12433 109.589 5.15931 109.53 5.17097C109.6 5.12433 109.67 5.05438 109.717 4.97277C109.763 4.90282 109.787 4.8212 109.787 4.73959C109.891 4.77457 109.973 4.8212 110.031 4.85618C110.171 4.77457 110.346 4.76291 110.497 4.8212C110.509 4.8212 110.52 4.83286 110.52 4.83286Z" fill="#21232E"/>
    <path d="M149.876 24.5596C149.771 24.6761 149.619 24.7344 149.468 24.7344C149.317 24.7344 149.165 24.6878 149.06 24.5712C133.873 9.72955 120.141 12.8541 117.357 13.7052C119.652 22.3327 115.936 31.753 113.467 36.6964C113.362 36.8946 113.153 37.0112 112.943 37.0112C112.85 37.0112 112.768 36.9995 112.687 36.9529C112.396 36.813 112.279 36.4632 112.419 36.1717C114.387 32.2427 118.627 22.2744 116.111 13.5886C116.088 13.5187 116.076 13.4371 116.041 13.3671V13.3321C116.018 13.2855 116.006 13.2389 115.994 13.1922C115.564 11.8631 114.876 10.5923 113.921 9.40311C112.896 8.10898 111.569 6.91978 109.973 5.84717C109.717 5.68395 109.647 5.34584 109.787 5.08935C109.961 5.0194 110.218 4.93778 110.52 4.83286C110.555 4.84451 110.59 4.85617 110.625 4.87949C112.139 5.88215 113.42 7.02471 114.469 8.23722C115.435 7.61931 117.788 6.45343 121.504 6.82651C121.818 6.84983 122.051 7.1413 122.028 7.45609C121.993 7.78253 121.713 8.01571 121.387 7.98073C118.149 7.65428 116.053 8.63363 115.191 9.15827C115.994 10.2542 116.612 11.3968 117.008 12.586C120.059 11.6766 134.315 8.5287 149.876 23.7318C150.097 23.965 150.109 24.3264 149.876 24.5596Z" fill="white"/>
    <path d="M110.52 4.83285C110.218 4.93778 109.961 5.0194 109.787 5.08935C109.787 5.07769 109.798 5.05437 109.81 5.04271C109.868 4.9611 109.938 4.9028 110.031 4.85617C110.171 4.77456 110.346 4.7629 110.497 4.82119C110.509 4.82119 110.52 4.83285 110.52 4.83285Z" fill="white"/>
</svg>
