<svg width="230" height="242" viewBox="0 0 230 242" fill="none" xmlns="http://www.w3.org/2000/svg">
    <path d="M197.65 199.29C166.1 213.79 126.57 191.53 125.97 176.84C125.67 169.68 134.65 165.63 141.69 159.51C131.73 155.82 120.98 152.99 110.43 158.48C87.95 170.17 96.21 204.04 75.88 212.92C57.47 220.95 28.7 202.79 14.45 182.53C-8.2 150.32 -4.38 98.2501 27.05 66.1301C56.43 36.1001 106.45 27.0701 141.93 50.1901C155.57 59.0901 165.45 71.6901 172.07 85.3301C196.43 85.4401 221.72 104.83 228.15 131.82C234.37 157.92 222.22 188 197.65 199.29Z" fill="#F8F1FF"/>
    <path d="M171.2 124.85C169.43 123.13 167.6 121.67 165.79 120.66C165.83 120.67 165.87 120.69 165.91 120.7C167.27 121.21 169.17 122.74 171.2 124.85Z" fill="#FFC980"/>
    <path d="M132.56 218.61L132.46 218.82C132.47 218.74 132.47 218.66 132.47 218.58L132.56 218.61Z" fill="#FFC980"/>
    <path d="M202.65 210.94C202.65 215.6 192.53 219.51 192.53 219.51L188.18 220.28C188.21 220.07 188.2 219.87 188.14 219.7C188 219.3 187.61 218.85 186.53 218.92C184.36 219.06 183.14 219.66 180.2 221.09C179.61 221.38 178.96 221.7 178.21 222.06C178.21 222.06 178.21 222.06 178.2 222.06L166.69 224.12H166.68C166.67 224.11 166.67 224.11 166.66 224.12C166.65 224.12 166.65 224.12 166.65 224.12C164.82 223.91 163.25 223.61 162.39 223.42C163.04 222.84 164.45 221.85 165.62 221.01C169.84 218.02 172.59 215.95 172.34 214.58C172.24 214.05 171.98 213.67 171.57 213.45C170.37 212.81 168.19 213.74 164.87 215.14C163.25 215.83 161.42 216.61 159.43 217.31C153.18 219.51 150.88 221.35 150.2 222L132.54 217.57C132.44 217.55 132.35 217.56 132.26 217.59C132.2 217.49 132.14 217.41 132.09 217.35C129.99 214.92 127.2 215.03 126.65 215.08H126.57C115.85 205.79 104.11 199.85 97.69 197C97.61 197.15 97.45 197.25 97.27 197.25C97.24 197.25 97.21 197.24 97.18 197.24C96.9 197.19 96.73 196.93 96.78 196.65C96.78 196.64 96.78 196.62 96.79 196.61C94.35 195.55 92.89 195.02 92.83 195C92.57 194.91 92.29 195.05 92.19 195.3C92.1 195.56 92.24 195.85 92.5 195.94C92.69 196.01 110.56 202.45 126.14 216.03C126.27 221.79 119.97 230.65 119 231.97C103.61 233.96 70.23 215.78 69.9 215.59C68.39 214.77 67.15 213.67 66.14 212.45C66.13 212.44 66.12 212.43 66.12 212.42C62.54 207.76 61.81 202.14 61.81 202.14C59.75 198.05 63.94 157.5 63.94 157.5C63.94 157.5 63.97 156.26 64.04 154.31V154.22C64.43 148.34 65.39 136.26 66.9 131.99C69.69 124.11 84.13 120.11 86.99 119.38C90.63 118.47 101.8 116.74 103.64 116.46C103.62 116.56 103.65 116.66 103.7 116.75C103.96 117.2 110.32 127.76 131.14 128.83C131.96 128.87 132.74 128.89 133.49 128.89C139.53 128.89 143.4 127.53 145.02 124.85C146.59 122.27 145.6 119.25 144.96 117.83C148.26 118.13 159.88 119.25 163.6 120.72C171.57 123.85 181.09 138.06 183.07 145.67C183.71 148.11 185.74 154.88 188.3 163.45C193.58 181.12 201.56 207.82 201.56 210.94H202.56C202.56 210.07 202.02 207.62 201.12 204.14C202.08 207.66 202.65 210.1 202.65 210.94Z" fill="#FFC980"/>
    <path d="M202.56 210.94H201.56C201.56 207.82 193.58 181.12 188.3 163.45C185.74 154.88 183.71 148.11 183.07 145.67C181.09 138.06 171.57 123.85 163.6 120.72C159.88 119.25 148.26 118.13 144.96 117.83C144.85 117.59 144.76 117.4 144.68 117.26C144.61 117.11 144.55 117.02 144.54 117C144.51 116.96 144.48 116.92 144.44 116.88C144.4 116.85 144.36 116.81 144.33 116.77C146.14 116.93 159.71 118.11 163.97 119.79C164.57 120.03 165.18 120.32 165.79 120.67C167.6 121.68 169.43 123.14 171.2 124.86C171.28 124.94 171.36 125.02 171.44 125.1C176.06 129.96 181.32 137.67 182.71 142.99C184.34 149.18 196.03 185.7 200.72 202.64C200.86 203.16 200.99 203.66 201.12 204.14C202.02 207.61 202.56 210.06 202.56 210.94Z" fill="#21232E"/>
    <path d="M200.72 202.63C196.03 185.69 184.34 149.17 182.71 142.98C181.32 137.66 176.06 129.95 171.44 125.09C177.38 130.99 182.6 139.89 184.04 145.41C184.68 147.83 186.7 154.59 189.26 163.16C193.17 176.26 198.1 192.75 200.72 202.63Z" fill="#21232E"/>
    <path d="M105.5 103.83L105.48 103.64C105.54 103.69 105.59 103.74 105.65 103.77C105.68 103.8 105.71 103.83 105.75 103.85C105.59 103.88 105.5 103.89 105.5 103.89V103.83Z" fill="#21232E"/>
    <path d="M89.45 68.8499C89.86 69.5999 90.3 70.3199 90.76 70.9799C90.3 70.2499 89.85 69.5199 89.45 68.8499ZM93.37 56.8199C93.11 56.7599 92.84 56.9399 92.78 57.2099C92.73 57.4799 92.9 57.7499 93.17 57.7999C98 58.7899 99.08 63.4499 99.31 65.1599C99.04 65.1599 98.73 65.2199 98.45 65.4099C97.93 65.7399 97.67 66.3699 97.65 67.2699C97.63 68.2899 97.87 69.0199 98.35 69.4399C98.7 69.7399 99.08 69.7899 99.29 69.7899C99.38 69.7899 99.44 69.7799 99.46 69.7799C99.73 69.7299 99.92 69.4699 99.87 69.1999C99.83 68.9299 99.57 68.7399 99.3 68.7899C99.29 68.7899 99.15 68.7999 99.01 68.6799C98.87 68.5599 98.63 68.2199 98.65 67.2899C98.66 66.7599 98.78 66.3899 98.99 66.2399C99.26 66.0699 99.68 66.2199 99.68 66.2199C99.84 66.2899 100.02 66.2699 100.16 66.1699C100.3 66.0699 100.38 65.9099 100.37 65.7399C100.37 65.6699 99.96 58.1699 93.37 56.8199ZM100.46 56.9799L100.45 56.9699L100.42 56.9499C100.49 57.0199 100.55 57.0999 100.62 57.1699C100.57 57.0999 100.52 57.0399 100.46 56.9799ZM101.26 58.0099C101.32 58.1099 101.42 58.1699 101.53 58.1999C101.43 58.1699 101.33 58.0999 101.26 58.0099ZM122.01 72.7299C121.58 68.2599 117.62 64.9899 113.15 65.4099C108.68 65.8399 105.4 69.7999 105.83 74.2699C106.25 78.7399 110.22 82.0199 114.69 81.5899C119.16 81.1699 122.43 77.2099 122.01 72.7299ZM142.05 79.3699C141.93 79.1199 141.64 79.0099 141.39 79.1199C139.24 80.0599 134.75 80.0199 132.19 78.5599C131.95 78.4199 131.64 78.4999 131.51 78.7399C131.37 78.9799 131.45 79.2899 131.69 79.4199C133.29 80.3399 135.51 80.7499 137.58 80.7499C139.2 80.7499 140.73 80.4999 141.79 80.0299C142.04 79.9199 142.16 79.6299 142.05 79.3699ZM142.71 66.7699C139.47 63.7599 139.12 53.0899 139.11 52.9799C139.11 52.6999 138.87 52.4799 138.6 52.4999C138.32 52.4999 138.11 52.7299 138.11 53.0099C138.13 53.4699 138.49 64.2099 142.03 67.4999C142.5 67.9399 142.71 68.3499 142.62 68.7199C142.43 69.5999 140.75 70.3299 140.17 70.5099C139.91 70.5999 139.76 70.8799 139.85 71.1399C139.92 71.3499 140.11 71.4899 140.32 71.4899C140.37 71.4899 140.43 71.4799 140.48 71.4699C140.76 71.3699 143.24 70.5399 143.6 68.9399C143.77 68.2099 143.46 67.4799 142.71 66.7699ZM141.96 44.8099C141.52 44.5599 141.09 44.2999 140.66 44.0299C125.63 45.1599 117.14 34.3799 116.21 33.1199C116.19 33.0999 116.18 33.0799 116.16 33.0699C116.14 33.0499 116.13 33.0399 116.11 33.0199C116.08 32.9999 116.06 32.9799 116.03 32.9699C116.01 32.9599 115.98 32.9499 115.95 32.9399C115.93 32.9299 115.9 32.9299 115.87 32.9299C115.86 32.9199 115.86 32.9199 115.85 32.9199H115.81C115.7 32.9199 115.6 32.9499 115.51 33.0199C115.49 33.0399 115.47 33.0499 115.46 33.0699C115.42 33.1099 115.39 33.1499 115.36 33.1999C115.35 33.2299 115.34 33.2499 115.33 33.2799C115.33 33.2999 115.32 33.3299 115.32 33.3599C115.31 33.3699 115.31 33.3699 115.31 33.3799C115.31 33.3799 115.31 33.3999 115.31 33.4199C115.23 34.3099 113.65 49.2499 101.06 55.8799C101 55.9199 100.95 55.9499 100.89 55.9699C101.07 56.1499 101.22 56.3199 101.36 56.4799C101.44 56.5699 101.51 56.6599 101.57 56.7399C101.69 56.8899 101.79 57.0199 101.86 57.1199L101.61 56.7199C112.8 50.7799 115.56 38.5099 116.16 34.6499C117.48 36.2099 120.37 39.1999 124.73 41.5799C124.76 41.6099 124.79 41.6199 124.82 41.6399C132.9 46.5999 140.55 45.2399 142.09 44.8899C142.05 44.8699 142 44.8499 141.96 44.8099ZM150.43 47.4099C149.51 47.1399 148.61 46.8399 147.74 46.5099C147.57 46.4399 147.4 46.3699 147.23 46.2999L147.73 46.4499L147.62 46.1399L147.36 46.2199C147.3 46.2399 147.24 46.2599 147.18 46.2799C147.17 46.2799 147.17 46.2799 147.17 46.2799C146.65 46.0699 146.13 45.8499 145.63 45.6099L145.64 45.6299L146.82 46.1699L145.76 45.8599L145.41 45.7499L144.75 45.5499L142.37 44.8299C142.37 44.8299 142.27 44.8599 142.09 44.8999C142.74 45.2799 143.41 45.6499 144.1 45.9899C144.27 46.0699 144.43 46.1599 144.6 46.2399C144.78 46.3199 144.95 46.3999 145.13 46.4799C145.33 46.5799 145.54 46.6699 145.74 46.7599C145.98 46.8599 146.21 46.9699 146.45 47.0599H146.46C146.7 47.1699 146.93 47.2599 147.17 47.3499C148.13 47.7299 149.12 48.0699 150.15 48.3699C150.2 48.3799 150.24 48.3899 150.29 48.3899C150.51 48.3899 150.71 48.2499 150.77 48.0299C150.85 47.7499 150.7 47.4799 150.43 47.4099ZM145.41 45.1699C145.3 45.2299 145.19 45.2899 145.09 45.3499C145.27 45.4399 145.45 45.5199 145.63 45.5999L145.41 45.1699ZM155.57 49.2899L154.91 48.6199L152.92 48.0199L154.86 49.9999C154.96 50.0899 155.09 50.1399 155.22 50.1399C155.34 50.1399 155.47 50.0999 155.57 49.9999C155.76 49.8099 155.77 49.4899 155.57 49.2899ZM158.53 61.9399C154.06 62.3599 150.78 66.3299 151.2 70.7999C151.59 74.8699 154.9 77.9399 158.87 78.1299C158.9 78.0399 158.93 77.9399 158.96 77.8499C159.23 77.0099 159.46 76.1499 159.68 75.2799C160.11 73.5399 160.44 71.7599 160.7 70.0099C160.75 69.6799 160.8 69.3599 160.84 69.0299C160.97 68.0499 161.09 67.0699 161.17 66.1299C161.27 65.1899 161.33 64.2699 161.39 63.3999C161.41 62.9799 161.44 62.5799 161.45 62.1899C160.53 61.9399 159.54 61.8399 158.53 61.9399Z" fill="white"/>
    <path d="M161.53 55.1899C160.26 53.8899 159.05 52.5099 157.89 51.0899L155.14 48.6999L154.91 48.6299L155.57 49.2999C155.77 49.4999 155.76 49.8199 155.57 50.0099C155.47 50.1099 155.34 50.1499 155.22 50.1499C155.09 50.1499 154.96 50.0999 154.86 50.0099L152.92 48.0299H152.91L147.73 46.4499L147.23 46.2999C147.4 46.3699 147.57 46.4399 147.74 46.5099C148.61 46.8399 149.51 47.1399 150.43 47.4099C150.7 47.4799 150.85 47.7599 150.77 48.0299C150.71 48.2499 150.51 48.3899 150.29 48.3899C150.24 48.3899 150.2 48.3799 150.15 48.3699C149.12 48.0699 148.13 47.7299 147.17 47.3499C145.71 47.8399 144.86 48.0999 144.32 48.0999C144.05 48.0999 143.86 48.0399 143.71 47.8999C143.53 47.7299 143.46 47.4799 143.52 47.2199C143.69 46.5099 143.73 46.3999 144.08 46.0099L144.1 45.9899C143.41 45.6499 142.74 45.2799 142.09 44.8999C140.55 45.2499 132.9 46.6099 124.82 41.6499C124.79 41.6299 124.76 41.6199 124.73 41.5899C120.37 39.2099 117.48 36.2199 116.16 34.6599C115.56 38.5199 112.8 50.7899 101.61 56.7299L101.86 57.1299C101.99 57.3199 102.07 57.4499 102.08 57.4699C102.2 57.6599 102.17 57.8999 102.02 58.0599C102 58.0799 101.98 58.0999 101.96 58.1099C101.94 58.1299 101.93 58.1399 101.91 58.1499C101.87 58.1699 101.83 58.1899 101.79 58.1999C101.71 58.2299 101.62 58.2299 101.54 58.2099H101.53C101.42 58.1799 101.32 58.1199 101.26 58.0199C101.25 58.0099 101.24 57.9899 101.23 57.9799C101.23 57.9799 101.23 57.9699 101.22 57.9599C101.21 57.9399 101.18 57.8999 101.14 57.8499C101.12 57.8199 101.09 57.7799 101.05 57.7299V57.7199C100.99 57.6199 100.9 57.5099 100.8 57.3899C100.8 57.3799 100.8 57.3799 100.79 57.3799C100.74 57.3099 100.69 57.2399 100.62 57.1699C100.55 57.0999 100.49 57.0199 100.42 56.9499L100.39 56.9099C100.34 56.8499 100.28 56.7899 100.22 56.7399C100.06 56.5799 99.9 56.4199 99.72 56.2599C99.33 55.9299 98.88 55.5899 98.36 55.2999C98.23 55.2299 98.1 55.1599 97.96 55.0999C97.84 55.0399 97.71 54.9799 97.57 54.9299C97.28 54.8099 96.96 54.7099 96.63 54.6299C94.69 54.1899 92.58 54.6999 90.39 56.1499C87.88 57.7999 86.93 60.3499 87.55 63.7299C87.84 65.3099 88.44 66.8899 89.17 68.3499C89.27 68.5199 89.36 68.6899 89.45 68.8599C89.85 69.5299 90.3 70.2599 90.76 70.9899C90.79 71.0499 90.83 71.1099 90.88 71.1699C92.51 73.5199 94.27 75.1599 95.08 75.3399C97.32 75.8399 98.95 75.7299 98.97 75.7299C99.22 75.6999 99.47 75.8999 99.5 76.1699C99.56 76.6999 99.65 77.1499 99.74 77.5199C99.74 77.5399 99.75 77.5699 99.76 77.5899C99.93 78.0799 100.15 78.6699 100.43 79.2999C101.4 81.1499 102.66 82.8499 104.13 84.3999C104.7 85.0099 105.31 85.5899 105.95 86.1399C106.13 86.3099 106.31 86.4599 106.5 86.6199C106.69 86.7799 106.88 86.9299 107.07 87.0799C114.82 93.2499 126.18 96.2399 135.17 95.4599C137.43 95.2599 139.44 94.9699 141.24 94.5799C141.43 94.5399 141.62 94.4999 141.8 94.4599C142 94.4099 142.19 94.3699 142.37 94.3199C142.74 94.2299 143.09 94.1299 143.44 94.0299C150.64 91.9699 154.1 88.0799 157.03 82.5699C157.57 81.5499 158.05 80.4399 158.47 79.2899C158.61 78.9099 158.74 78.5299 158.87 78.1399C154.9 77.9499 151.59 74.8799 151.2 70.8099C150.78 66.3399 154.06 62.3699 158.53 61.9499C159.54 61.8499 160.53 61.9399 161.45 62.1999C161.64 58.5999 161.56 55.9099 161.53 55.1899ZM100.16 66.1699C100.02 66.2699 99.84 66.2899 99.68 66.2199C99.68 66.2199 99.26 66.0699 98.99 66.2399C98.78 66.3899 98.66 66.7599 98.65 67.2899C98.63 68.2199 98.87 68.5599 99.01 68.6799C99.15 68.7999 99.29 68.7899 99.3 68.7899C99.57 68.7399 99.83 68.9299 99.87 69.1999C99.92 69.4699 99.73 69.7299 99.46 69.7799C99.44 69.7799 99.38 69.7899 99.29 69.7899C99.08 69.7899 98.7 69.7399 98.35 69.4399C97.87 69.0199 97.63 68.2899 97.65 67.2699C97.67 66.3699 97.93 65.7399 98.45 65.4099C98.73 65.2199 99.04 65.1599 99.31 65.1599C99.08 63.4499 98 58.7899 93.17 57.7999C92.9 57.7499 92.73 57.4799 92.78 57.2099C92.84 56.9399 93.11 56.7599 93.37 56.8199C99.96 58.1699 100.37 65.6599 100.37 65.7399C100.38 65.9199 100.3 66.0699 100.16 66.1699ZM114.69 81.5899C110.22 82.0199 106.25 78.7399 105.83 74.2699C105.4 69.7999 108.68 65.8399 113.15 65.4099C117.62 64.9899 121.58 68.2599 122.01 72.7299C122.43 77.2099 119.16 81.1699 114.69 81.5899ZM120.08 61.8999C120.01 61.9099 119.94 61.9099 119.87 61.9099C118.54 61.9099 117.38 60.7499 117.23 59.2299C117.22 59.1299 117.22 59.0199 117.22 58.9199C117.22 58.2599 117.41 57.6299 117.77 57.1199C118.2 56.5099 118.83 56.1299 119.53 56.0599C120.97 55.9199 122.22 57.1299 122.38 58.7399C122.53 60.3399 121.5 61.7599 120.08 61.8999ZM127.53 49.4799C127.14 49.9999 126.19 49.8899 123.49 49.5099C121.83 49.2799 119.98 49.0099 118.4 49.0299C116.68 49.0499 114.61 49.7299 113.24 50.1799C112.47 50.4299 112.02 50.5799 111.73 50.5799C111.52 50.5799 111.39 50.4999 111.28 50.3299C111.22 50.2499 111.06 49.9599 111.35 49.6099C111.79 49.0899 113.36 47.7599 118.52 46.7799C123.03 45.9299 126.53 47.5399 126.68 47.6099L126.77 47.6599L126.47 48.0599L126.81 47.6899C127.23 48.0199 127.29 48.0999 127.59 48.7699C127.7 49.0199 127.68 49.2799 127.53 49.4799ZM141.79 80.0299C140.73 80.4999 139.2 80.7499 137.58 80.7499C135.51 80.7499 133.29 80.3399 131.69 79.4199C131.45 79.2899 131.37 78.9799 131.51 78.7399C131.64 78.4999 131.95 78.4199 132.19 78.5599C134.75 80.0199 139.24 80.0599 141.39 79.1199C141.64 79.0099 141.93 79.1199 142.05 79.3699C142.16 79.6299 142.04 79.9199 141.79 80.0299ZM143.6 68.9399C143.24 70.5399 140.76 71.3699 140.48 71.4699C140.43 71.4799 140.37 71.4899 140.32 71.4899C140.11 71.4899 139.92 71.3499 139.85 71.1399C139.76 70.8799 139.91 70.5999 140.17 70.5099C140.75 70.3299 142.43 69.5999 142.62 68.7199C142.71 68.3499 142.5 67.9399 142.03 67.4999C138.49 64.2099 138.13 53.4699 138.11 53.0099C138.11 52.7299 138.32 52.4999 138.6 52.4999C138.87 52.4799 139.11 52.6999 139.11 52.9799C139.12 53.0899 139.47 63.7599 142.71 66.7699C143.46 67.4799 143.77 68.2099 143.6 68.9399ZM150.07 58.1599C149.64 58.7699 149.01 59.1499 148.31 59.2199C148.24 59.2199 148.17 59.2299 148.1 59.2299C146.77 59.2299 145.61 58.0699 145.46 56.5399C145.45 56.4399 145.45 56.3299 145.45 56.2299C145.45 54.7499 146.43 53.4999 147.76 53.3799C148.47 53.3099 149.14 53.5599 149.69 54.0799C150.21 54.5899 150.53 55.2899 150.61 56.0499C150.68 56.8099 150.49 57.5499 150.07 58.1599Z" fill="white"/>
    <path d="M100.46 56.9799L100.45 56.9699L100.42 56.9499C100.49 57.0199 100.55 57.0999 100.62 57.1699C100.57 57.0999 100.52 57.0399 100.46 56.9799ZM101.61 56.7299C101.6 56.7499 101.58 56.7599 101.57 56.7499C101.69 56.8999 101.79 57.0299 101.86 57.1299L101.61 56.7299ZM100.46 56.9799L100.45 56.9699L100.42 56.9499C100.49 57.0199 100.55 57.0999 100.62 57.1699C100.57 57.0999 100.52 57.0399 100.46 56.9799ZM101.61 56.7299L101.43 56.4599L101.06 55.8899C101 55.9299 100.95 55.9599 100.89 55.9799C101.07 56.1599 101.22 56.3299 101.36 56.4899C101.44 56.5799 101.51 56.6699 101.57 56.7499C101.69 56.8999 101.79 57.0299 101.86 57.1299L101.61 56.7299ZM158.96 77.8499C159.23 77.0099 159.46 76.1499 159.68 75.2799C159.46 76.1599 159.22 77.0099 158.96 77.8499Z" fill="#534D56"/>
    <path d="M90.76 70.9801C90.3 70.3201 89.86 69.6001 89.45 68.8501C89.85 69.5201 90.3 70.2501 90.76 70.9801Z" fill="#21232E"/>
    <path d="M105.65 103.77C105.6 103.8 105.55 103.82 105.5 103.83L105.48 103.64C105.54 103.69 105.59 103.74 105.65 103.77Z" fill="#21232E"/>
    <path d="M101.76 49.19C101.66 49.31 101.52 49.36 101.38 49.36C101.27 49.36 101.15 49.32 101.06 49.24C100.85 49.06 100.82 48.75 101 48.54C107.34 41.21 106.55 31.92 106.54 31.82C106.51 31.55 106.72 31.3 106.99 31.28C107.25 31.26 107.51 31.45 107.54 31.73C107.57 32.12 108.38 41.53 101.76 49.19Z" fill="#21232E"/>
    <path d="M178.79 70.4401C177.57 66.3301 176.23 61.7801 175.87 56.3801C175.86 56.3701 175.86 56.3701 175.87 56.3601V56.3501C175.86 56.3401 175.87 56.3301 175.87 56.3301C175.78 55.0901 175.75 53.8101 175.78 52.4801C175.79 52.1001 175.8 51.7301 175.81 51.3601C175.8 51.3501 175.8 51.3501 175.81 51.3401C175.8 51.3301 175.81 51.3201 175.81 51.3201C175.8 51.3101 175.8 51.3101 175.81 51.3001C175.8 51.2401 175.81 51.1801 175.81 51.1301C176.18 22.8701 164.69 15.3501 146.06 5.52006C132.36 -1.68994 119.38 0.620062 112.48 6.15006C110.42 5.75006 95.75 3.43006 84.48 15.1201C74.09 25.9001 69.66 36.8801 71.29 47.8001C72.56 56.2901 72.85 59.3901 70.57 67.9401C70.19 69.3901 69.54 71.1601 68.85 73.0301C65.52 82.1401 60.48 95.9201 74.06 103.65C74.14 103.7 74.22 103.72 74.3 103.72C74.47 103.72 74.63 103.64 74.72 103.49C75.6 104.07 76.17 104.36 76.17 104.36C78.43 105.06 79.99 105.38 81.17 105.48C78.93 103.18 74.87 97.9001 73.83 89.0001C72.4 76.8101 79.35 65.3701 79.42 65.2501C79.57 65.0201 79.88 64.9501 80.11 65.0901C80.34 65.2301 80.42 65.5401 80.27 65.7801C80.2 65.8901 73.44 77.0501 74.82 88.8901C75.95 98.5501 80.87 103.87 82.64 105.5C82.65 105.5 82.65 105.5 82.65 105.5C84.35 105.38 85.19 104.76 87.35 104.81C81.18 97.7801 81.03 87.1201 81.02 86.6501C81.02 86.3701 81.24 86.1501 81.52 86.1501C81.8 86.1501 82.02 86.3701 82.02 86.6401C82.02 86.7601 82.2 98.2201 88.81 104.92C89.58 105.02 90.48 105.18 91.56 105.45C94.11 106.07 96.8 105.97 99.24 105.56L94.58 99.3601C94.42 99.1401 94.46 98.8301 94.68 98.6601C94.9 98.5001 95.22 98.5401 95.38 98.7601L100.34 105.36C101.91 105.04 103.35 104.61 104.54 104.19C97.54 98.5001 97.64 88.5301 97.65 88.0901C97.66 87.8201 97.88 87.6001 98.15 87.6001C98.16 87.6001 98.16 87.6001 98.16 87.6001C98.44 87.6001 98.66 87.8301 98.65 88.1101C98.65 88.2101 98.55 98.3101 105.48 103.64C105.54 103.69 105.59 103.74 105.65 103.77C105.68 103.8 105.71 103.83 105.75 103.85C105.75 103.85 105.75 103.85 105.76 103.85C106.04 103.81 106.55 103.74 107.23 103.65C107.02 109.02 106 113.01 104.19 115.58C104.09 115.73 103.98 115.87 103.86 116.01C103.83 116.06 103.78 116.12 103.74 116.17C103.68 116.25 103.64 116.35 103.64 116.45C103.62 116.55 103.65 116.65 103.7 116.74C103.96 117.19 110.32 127.75 131.14 128.82C131.96 128.86 132.74 128.88 133.49 128.88C139.53 128.88 143.4 127.52 145.02 124.84C146.59 122.26 145.6 119.24 144.96 117.82C144.85 117.58 144.76 117.39 144.68 117.25C144.61 117.1 144.55 117.01 144.54 116.99C144.51 116.95 144.48 116.91 144.44 116.87C144.4 116.84 144.36 116.8 144.33 116.76C140.55 113.26 140.47 105.86 141.15 100.38C141.57 100.22 141.94 100.07 142.28 99.9301C142.28 99.9301 142.28 99.9301 142.29 99.9301C144.96 99.9801 148.11 98.8601 150.21 97.9501C150.22 97.7701 150.34 97.5901 150.53 97.5201C163.7 92.6701 165.08 73.8101 165.09 73.6201C165.11 73.3501 165.35 73.1301 165.62 73.1601C165.9 73.1801 166.11 73.4101 166.09 73.6901C166.08 73.8801 164.85 90.6901 153.66 97.1601C154.81 97.4601 156.77 97.8901 159.12 98.0201C159.13 98.0201 159.13 98.0101 159.14 98.0101C170.77 94.4201 172 82.2201 172.01 82.1001C172.03 81.8201 172.28 81.6201 172.55 81.6501C172.83 81.6701 173.03 81.9101 173.01 82.1901C172.99 82.3101 171.88 93.4201 161.89 98.0201C165.3 97.8301 169.14 96.8601 172.48 94.1601H172.49C172.59 94.1601 172.69 94.1301 172.78 94.0701C183.44 86.1101 181.39 79.2101 178.79 70.4401ZM85.49 25.9501C85.39 25.9501 85.28 25.9101 85.2 25.8501C84.97 25.6801 84.93 25.3701 85.09 25.1501C90.73 17.6101 96.72 14.8001 100.75 13.7701C104.13 12.9001 106.7 13.1001 107.77 13.2401C108.17 11.0501 109.46 8.91006 111.49 7.00006C111.51 6.98006 111.54 6.96006 111.56 6.94006C111.59 6.91006 111.62 6.89006 111.65 6.88006C111.81 6.78006 112.01 6.79006 112.16 6.89006C112.2 6.91006 112.23 6.94006 112.26 6.97006V6.98006H112.27C112.31 7.03006 112.34 7.08006 112.36 7.13006C112.39 7.15006 112.43 7.16006 112.46 7.17006C112.44 7.17006 112.41 7.16006 112.37 7.16006C112.43 7.34006 112.38 7.54006 112.24 7.68006C110.25 9.51006 109.03 11.5901 108.71 13.6701C108.7 13.7201 108.69 13.7801 108.69 13.8301C108.68 13.8701 108.68 13.9001 108.68 13.9401C107.82 20.5401 112.04 27.3101 113.91 29.9401C114.07 30.1601 114.02 30.4701 113.79 30.6301C113.7 30.7001 113.6 30.7301 113.5 30.7301C113.35 30.7301 113.19 30.6501 113.1 30.5201C110.74 27.2001 106.97 20.7901 107.63 14.2501C105.38 13.9501 95.14 13.3901 85.9 25.7501C85.8 25.8801 85.65 25.9501 85.49 25.9501ZM106.54 31.8101C106.51 31.5401 106.72 31.2901 106.99 31.2701C107.25 31.2501 107.51 31.4401 107.54 31.7201C107.57 32.1201 108.38 41.5301 101.76 49.1801C101.66 49.3001 101.52 49.3501 101.38 49.3501C101.27 49.3501 101.15 49.3101 101.06 49.2301C100.85 49.0501 100.82 48.7401 101 48.5301C107.34 41.2101 106.55 31.9201 106.54 31.8101ZM161.45 62.1901C161.44 62.5801 161.41 62.9801 161.39 63.4001C161.33 64.2701 161.27 65.1901 161.17 66.1301C161.09 67.0701 160.97 68.0501 160.84 69.0301C160.8 69.3601 160.75 69.6801 160.7 70.0101C160.44 71.7601 160.11 73.5401 159.68 75.2801C159.46 76.1501 159.23 77.0101 158.96 77.8501C158.93 77.9401 158.9 78.0401 158.87 78.1301C158.74 78.5201 158.61 78.9001 158.47 79.2801C158.05 80.4301 157.57 81.5401 157.03 82.5601C154.1 88.0701 150.64 91.9601 143.44 94.0201C143.09 94.1201 142.74 94.2201 142.37 94.3101C142.19 94.3601 142 94.4001 141.8 94.4501C141.62 94.4901 141.43 94.5301 141.24 94.5701C141.19 94.7401 141.13 94.9301 141.09 95.1301C141.04 95.3001 140.99 95.4801 140.95 95.6701C140.63 96.9901 140.3 98.7601 140.08 100.74C139.46 106.27 139.68 113.45 143.37 117.21C143.48 117.34 143.6 117.45 143.72 117.56C144 118.07 145.82 121.59 144.17 124.32C142.57 126.96 138.09 128.17 131.19 127.82C112.83 126.88 105.92 118.2 104.74 116.52C104.88 116.34 105.02 116.14 105.15 115.94C106.99 113.19 108.02 109.03 108.22 103.52C108.39 99.3001 108.07 94.2701 107.27 88.4701C107.08 88.3301 106.89 88.1901 106.71 88.0501V88.0401C106.52 87.8901 106.33 87.7401 106.14 87.5801C105.9 87.4001 105.67 87.2001 105.44 87.0001C105.03 86.6501 104.63 86.2801 104.24 85.9001C102.17 83.9101 100.45 81.6501 99.23 79.1401C99.21 79.1101 98.81 78.3001 98.57 76.7301C97.91 76.7301 96.55 76.6801 94.87 76.3101C92.8 75.8501 87.66 69.8201 86.57 63.9101C85.87 60.1401 87 57.1701 89.84 55.3001C92.27 53.7001 94.63 53.1401 96.86 53.6501C97.07 53.7001 97.28 53.7601 97.48 53.8201C97.66 53.8701 97.82 53.9301 97.98 54.0001C98.02 54.0101 98.05 54.0301 98.09 54.0501C98.22 54.1001 98.34 54.1501 98.46 54.2101C98.58 54.2601 98.69 54.3201 98.8 54.3901C99.06 54.5201 99.3 54.6701 99.52 54.8201C99.69 54.9401 99.84 55.0501 99.99 55.1701C100.33 55.4301 100.63 55.7101 100.89 55.9701C100.95 55.9501 101 55.9201 101.06 55.8801C113.65 49.2501 115.23 34.3101 115.31 33.4201C115.31 33.4001 115.31 33.3801 115.31 33.3801C115.31 33.3701 115.31 33.3701 115.32 33.3601C115.32 33.3301 115.33 33.3001 115.33 33.2801C115.34 33.2501 115.35 33.2301 115.36 33.2001C115.39 33.1501 115.42 33.1101 115.46 33.0701C115.47 33.0501 115.49 33.0401 115.51 33.0201C115.6 32.9501 115.7 32.9201 115.81 32.9201H115.85C115.86 32.9201 115.86 32.9201 115.87 32.9301C115.9 32.9301 115.93 32.9301 115.95 32.9401C115.98 32.9501 116.01 32.9601 116.03 32.9701C116.06 32.9801 116.08 33.0001 116.11 33.0201C116.13 33.0401 116.14 33.0501 116.16 33.0701C116.18 33.0801 116.19 33.1001 116.21 33.1201C117.14 34.3801 125.63 45.1601 140.66 44.0301C138.55 42.6801 136.64 41.1701 134.92 39.5901C134.61 39.3001 134.31 39.0201 134.01 38.7301C133.73 38.4501 133.45 38.1801 133.19 37.9001H133.18C125.22 29.7401 121.96 20.3901 121.91 20.2501C121.82 19.9901 121.96 19.7101 122.22 19.6201C122.48 19.5301 122.76 19.6701 122.85 19.9301C122.91 20.0801 126.53 30.4201 135.43 38.7101H135.44C135.75 39.0101 136.07 39.3001 136.4 39.5801L136.41 39.5901C136.77 39.9101 137.14 40.2201 137.52 40.5201C139.75 42.3401 142.26 44.0001 145.09 45.3501C145.19 45.2901 145.3 45.2301 145.41 45.1701L145.63 45.6001C146.13 45.8401 146.65 46.0601 147.17 46.2701C147.17 46.2701 147.17 46.2701 147.18 46.2701C147.24 46.2501 147.3 46.2301 147.36 46.2101L147.62 46.1301L147.73 46.4401L152.91 48.0201L149.94 44.9801H149.93L149.82 44.8601C149.68 44.7201 149.64 44.5201 149.7 44.3601C149.72 44.2801 149.76 44.2101 149.82 44.1501C149.93 44.0401 150.09 43.9901 150.23 44.0201C150.25 44.0101 150.26 44.0201 150.26 44.0301C150.31 44.0301 150.36 44.0401 150.4 44.0801H150.41C150.46 44.1001 150.49 44.1201 150.53 44.1601L151.28 44.9301H151.29L152.09 45.7501L154.91 48.6201L155.14 48.6901L157.89 51.0801C159.05 52.5001 160.26 53.8801 161.53 55.1801C161.56 55.9101 161.64 58.6001 161.45 62.1901ZM165.07 46.9201C165.06 47.1901 164.84 47.4001 164.57 47.4001C164.57 47.4001 164.56 47.4001 164.55 47.4001C164.27 47.3801 164.06 47.1501 164.07 46.8701C164.08 46.7501 164.59 34.5401 157.15 24.7201C156.99 24.5001 157.03 24.1801 157.25 24.0201C157.47 23.8501 157.78 23.8901 157.95 24.1101C165.61 34.2301 165.08 46.8001 165.07 46.9201Z" fill="#21232E"/>
    <path d="M144.17 124.32C142.57 126.96 138.09 128.17 131.19 127.82C112.83 126.88 105.92 118.2 104.74 116.52C104.88 116.34 105.02 116.14 105.15 115.94C106.99 113.19 108.02 109.03 108.22 103.52C108.39 99.3001 108.07 94.2701 107.27 88.4701C114.35 93.7401 124.01 96.5701 132.32 96.5701C133.32 96.5701 134.3 96.5301 135.26 96.4501C137.35 96.2701 139.24 96.0101 140.95 95.6701C140.63 96.9901 140.3 98.7601 140.08 100.74C139.46 106.27 139.68 113.45 143.37 117.21C143.48 117.34 143.6 117.45 143.72 117.56C144 118.07 145.82 121.59 144.17 124.32Z" fill="white"/>
    <path d="M142.09 44.9001C140.55 45.2501 132.9 46.6101 124.82 41.6501C124.79 41.6301 124.76 41.6201 124.73 41.5901C121.89 39.8301 119 37.2901 116.3 33.6301C116.25 33.5701 116.2 33.5001 116.15 33.4301C116.15 33.4301 116.11 33.8101 116 34.4701C115.35 38.2301 112.38 51.2401 101.43 56.4601C101.41 56.4801 101.39 56.4901 101.36 56.4901C101.22 56.3301 101.07 56.1601 100.89 55.9801C100.95 55.9601 101 55.9301 101.06 55.8901C113.65 49.2601 115.23 34.3201 115.31 33.4301C115.31 33.4101 115.31 33.3901 115.31 33.3901C115.31 33.3801 115.31 33.3801 115.32 33.3701C115.32 33.3401 115.33 33.3101 115.33 33.2901C115.34 33.2601 115.35 33.2401 115.36 33.2101C115.39 33.1601 115.42 33.1201 115.46 33.0801C115.47 33.0601 115.49 33.0501 115.51 33.0301C115.6 32.9601 115.7 32.9301 115.81 32.9301H115.85C115.86 32.9301 115.86 32.9301 115.87 32.9401C115.9 32.9401 115.93 32.9401 115.95 32.9501C115.98 32.9601 116.01 32.9701 116.03 32.9801C116.06 32.9901 116.08 33.0101 116.11 33.0301C116.13 33.0501 116.14 33.0601 116.16 33.0801C116.18 33.0901 116.19 33.1101 116.21 33.1301C117.14 34.3901 125.63 45.1701 140.66 44.0401C141.09 44.3101 141.52 44.5701 141.96 44.8201C142 44.8501 142.05 44.8701 142.09 44.9001Z" fill="#21232E"/>
    <path d="M145.63 45.6C145.45 45.52 145.27 45.44 145.09 45.35C145.19 45.29 145.3 45.23 145.41 45.17L145.63 45.6Z" fill="#21232E"/>
    <path d="M147.17 46.2701L146.87 46.1801L146.82 46.1601L145.64 45.6201L145.63 45.6001C146.13 45.8401 146.65 46.0601 147.17 46.2701Z" fill="#21232E"/>
    <path d="M147.73 46.44L147.23 46.29C147.21 46.29 147.19 46.28 147.18 46.27C147.24 46.25 147.3 46.23 147.36 46.21L147.62 46.13L147.73 46.44Z" fill="#21232E"/>
    <path d="M165.07 46.9201C165.06 47.1901 164.84 47.4001 164.57 47.4001C164.57 47.4001 164.56 47.4001 164.55 47.4001C164.27 47.3801 164.06 47.1501 164.07 46.8701C164.08 46.7501 164.59 34.5401 157.15 24.7201C156.99 24.5001 157.03 24.1801 157.25 24.0201C157.47 23.8501 157.78 23.8901 157.95 24.1101C165.61 34.2301 165.08 46.8001 165.07 46.9201Z" fill="#21232E"/>
    <path d="M112.46 7.17C112.44 7.17 112.41 7.16 112.37 7.16C112.21 7.12 111.91 7.07 111.49 7C111.51 6.98 111.54 6.96 111.56 6.94C111.59 6.91 111.62 6.89 111.65 6.88C111.83 6.9 112.01 6.93 112.2 6.97C112.22 6.97 112.24 6.97 112.26 6.98H112.27C112.31 7.03 112.34 7.08 112.36 7.13C112.39 7.16 112.43 7.16 112.46 7.17Z" fill="#21232E"/>
    <path d="M175.87 56.3301C175.78 55.0901 175.75 53.8101 175.78 52.4801C175.79 52.1001 175.8 51.7301 175.81 51.3601C175.88 53.5601 175.87 55.1201 175.87 56.3301Z" fill="#21232E"/>
    <path d="M143.6 68.94C143.24 70.54 140.76 71.37 140.48 71.47C140.43 71.48 140.37 71.49 140.32 71.49C140.11 71.49 139.92 71.35 139.85 71.14C139.76 70.88 139.91 70.6 140.17 70.51C140.75 70.33 142.43 69.6 142.62 68.72C142.71 68.35 142.5 67.94 142.03 67.5C138.49 64.21 138.13 53.47 138.11 53.01C138.11 52.73 138.32 52.5 138.6 52.5C138.87 52.48 139.11 52.7 139.11 52.98C139.12 53.09 139.47 63.76 142.71 66.77C143.46 67.48 143.77 68.21 143.6 68.94Z" fill="#21232E"/>
    <path d="M141.79 80.03C140.73 80.5 139.2 80.75 137.58 80.75C135.51 80.75 133.29 80.34 131.69 79.42C131.45 79.29 131.37 78.98 131.51 78.74C131.64 78.5 131.95 78.42 132.19 78.56C134.75 80.02 139.24 80.06 141.39 79.12C141.64 79.01 141.93 79.12 142.05 79.37C142.16 79.63 142.04 79.92 141.79 80.03Z" fill="#21232E"/>
    <path d="M141.96 44.8099C141.88 44.8799 141.79 44.9299 141.68 44.9399C140.58 45.0599 139.5 45.1199 138.46 45.1199C132.97 45.1199 128.4 43.5899 124.82 41.6399C124.79 41.6199 124.76 41.6099 124.73 41.5799C120.37 39.1999 117.48 36.2099 116.16 34.6499C116.1 34.5799 116.05 34.5199 116 34.4599C115.71 34.1199 115.51 33.8599 115.41 33.7199C115.34 33.6299 115.31 33.5299 115.31 33.4199C115.31 33.3999 115.31 33.3799 115.31 33.3799C115.31 33.3699 115.31 33.3699 115.32 33.3599C115.32 33.3299 115.33 33.2999 115.33 33.2799C115.34 33.2499 115.35 33.2299 115.36 33.1999C115.39 33.1499 115.42 33.1099 115.46 33.0699C115.47 33.0499 115.49 33.0399 115.51 33.0199C115.6 32.9499 115.7 32.9199 115.81 32.9199H115.85C115.86 32.9199 115.86 32.9199 115.87 32.9299C115.9 32.9299 115.93 32.9299 115.95 32.9399C115.98 32.9499 116.01 32.9599 116.03 32.9699C116.06 32.9799 116.08 32.9999 116.11 33.0199C116.13 33.0399 116.14 33.0499 116.16 33.0699C116.18 33.0799 116.19 33.0999 116.21 33.1199C117.14 34.3799 125.63 45.1599 140.66 44.0299C141.09 44.2999 141.52 44.5599 141.96 44.8099Z" fill="#21232E"/>
    <path d="M150.07 58.16C149.64 58.77 149.01 59.15 148.31 59.22C148.24 59.22 148.17 59.23 148.1 59.23C146.77 59.23 145.61 58.07 145.46 56.54C145.45 56.44 145.45 56.33 145.45 56.23C145.45 54.75 146.43 53.5 147.76 53.38C148.47 53.31 149.14 53.56 149.69 54.08C150.21 54.59 150.53 55.29 150.61 56.05C150.68 56.81 150.49 57.55 150.07 58.16Z" fill="#21232E"/>
    <path d="M120.08 61.9C120.01 61.91 119.94 61.91 119.87 61.91C118.54 61.91 117.38 60.75 117.23 59.23C117.22 59.13 117.22 59.02 117.22 58.92C117.22 58.26 117.41 57.63 117.77 57.12C118.2 56.51 118.83 56.13 119.53 56.06C120.97 55.92 122.22 57.13 122.38 58.74C122.53 60.34 121.5 61.76 120.08 61.9Z" fill="#21232E"/>
    <path d="M114.69 81.59C110.22 82.02 106.25 78.74 105.83 74.27C105.4 69.8 108.68 65.84 113.15 65.41C117.62 64.99 121.58 68.26 122.01 72.73C122.43 77.21 119.16 81.17 114.69 81.59Z" fill="#FCCFC6"/>
    <path d="M161.45 62.1899C161.44 62.5799 161.41 62.9799 161.39 63.3999C161.33 64.2699 161.27 65.1899 161.17 66.1299C161.09 67.0699 160.97 68.0499 160.84 69.0299C160.8 69.3599 160.75 69.6799 160.7 70.0099C160.44 71.7599 160.11 73.5399 159.68 75.2799C159.46 76.1499 159.23 77.0099 158.96 77.8499C158.93 77.9399 158.9 78.0399 158.87 78.1299C154.9 77.9399 151.59 74.8699 151.2 70.7999C150.78 66.3299 154.06 62.3599 158.53 61.9399C159.54 61.8399 160.53 61.9399 161.45 62.1899Z" fill="#FCCFC6"/>
    <path d="M127.53 49.4801C127.14 50.0001 126.19 49.8901 123.49 49.5101C121.83 49.2801 119.98 49.0101 118.4 49.0301C116.68 49.0501 114.61 49.7301 113.24 50.1801C112.47 50.4301 112.02 50.5801 111.73 50.5801C111.52 50.5801 111.39 50.5001 111.28 50.3301C111.22 50.2501 111.06 49.9601 111.35 49.6101C111.79 49.0901 113.36 47.7601 118.52 46.7801C123.03 45.9301 126.53 47.5401 126.68 47.6101L126.77 47.6601L126.47 48.0601L126.81 47.6901C127.23 48.0201 127.29 48.1001 127.59 48.7701C127.7 49.0201 127.68 49.2801 127.53 49.4801Z" fill="#21232E"/>
    <path d="M147.78 46.5999C147.31 46.7599 146.87 46.9099 146.46 47.0499H146.45C146.21 46.9599 145.98 46.8499 145.74 46.7499C145.54 46.6599 145.33 46.5699 145.13 46.4699C144.95 46.3899 144.78 46.3099 144.6 46.2299C144.74 46.1299 145.02 45.9499 145.41 45.7399L145.76 45.8499L146.82 46.1599L146.87 46.1799L147.11 46.2899L147.78 46.5999Z" fill="#21232E"/>
    <path d="M147.17 47.34C145.71 47.83 144.86 48.09 144.32 48.09C144.05 48.09 143.86 48.03 143.71 47.89C143.53 47.72 143.46 47.47 143.52 47.21C143.69 46.5 143.73 46.39 144.08 46L144.1 45.98C144.27 46.06 144.43 46.15 144.6 46.23C144.78 46.31 144.95 46.39 145.13 46.47C145.33 46.57 145.54 46.66 145.74 46.75C145.98 46.85 146.21 46.96 146.45 47.05H146.46C146.7 47.17 146.93 47.25 147.17 47.34Z" fill="#21232E"/>
    <path d="M145.63 45.5999C145.45 45.5199 145.27 45.4399 145.09 45.3499C145.19 45.2899 145.3 45.2299 145.41 45.1699L145.63 45.5999Z" fill="#21232E"/>
    <path d="M145.87 46.0599C145.56 46.2199 145.31 46.3599 145.13 46.4699C144.95 46.3899 144.78 46.3099 144.6 46.2299C144.43 46.1499 144.27 46.0599 144.1 45.9799L144.2 45.8899C144.21 45.8799 144.4 45.7499 144.75 45.5399L145.41 45.7399L145.76 45.8499L145.87 46.0599Z" fill="#21232E"/>
    <path d="M147.94 47.0699L147.69 47.1599C147.51 47.2199 147.34 47.2799 147.17 47.3399C146.93 47.2499 146.7 47.1599 146.46 47.0499H146.45C146.21 46.9599 145.98 46.8499 145.74 46.7499C146.18 46.6099 146.66 46.4499 147.11 46.2899C147.13 46.2899 147.15 46.2799 147.17 46.2699C147.17 46.2699 147.17 46.2699 147.18 46.2699C147.24 46.2499 147.3 46.2299 147.36 46.2099L147.62 46.1299L147.73 46.4399L147.23 46.2899C147.4 46.3599 147.57 46.4299 147.74 46.4999L147.78 46.5999L147.94 47.0699Z" fill="#21232E"/>
    <path d="M165.07 46.9201C165.06 47.1901 164.84 47.4001 164.57 47.4001C164.57 47.4001 164.56 47.4001 164.55 47.4001C164.27 47.3801 164.06 47.1501 164.07 46.8701C164.08 46.7501 164.59 34.5401 157.15 24.7201C156.99 24.5001 157.03 24.1801 157.25 24.0201C157.47 23.8501 157.78 23.8901 157.95 24.1101C165.61 34.2301 165.08 46.8001 165.07 46.9201Z" fill="white"/>
    <path d="M116.31 33.4599C116.31 33.4699 116.31 33.5199 116.3 33.6199C116.28 33.8099 116.24 34.1599 116.16 34.6499C115.56 38.5099 112.8 50.7799 101.61 56.7199C101.6 56.7399 101.58 56.7499 101.57 56.7399C101.51 56.6599 101.44 56.5699 101.36 56.4799C101.22 56.3199 101.07 56.1499 100.89 55.9699C100.95 55.9499 101 55.9199 101.06 55.8799C113.65 49.2499 115.23 34.3099 115.31 33.4199C115.31 33.3999 115.31 33.3799 115.31 33.3799C115.31 33.3699 115.31 33.3699 115.32 33.3599C115.32 33.3299 115.33 33.2999 115.33 33.2799C115.34 33.2499 115.35 33.2299 115.36 33.1999C115.39 33.1499 115.42 33.1099 115.46 33.0699C115.47 33.0499 115.49 33.0399 115.51 33.0199C115.6 32.9599 115.7 32.9199 115.81 32.9199H115.85C115.86 32.9199 115.86 32.9199 115.87 32.9299C115.9 32.9299 115.93 32.9299 115.95 32.9399C115.98 32.9499 116.01 32.9599 116.03 32.9699C116.06 32.9799 116.08 32.9999 116.11 33.0199C116.13 33.0399 116.14 33.0499 116.16 33.0699C116.18 33.0799 116.19 33.0999 116.21 33.1199C116.28 33.2099 116.32 33.3299 116.31 33.4599Z" fill="#21232E"/>
    <path d="M173.01 82.19C172.99 82.31 171.88 93.4199 161.89 98.0199C160.93 98.0699 160 98.0699 159.12 98.0199C159.13 98.0199 159.13 98.01 159.14 98.01C170.77 94.42 172 82.2199 172.01 82.0999C172.03 81.8199 172.28 81.62 172.55 81.65C172.83 81.67 173.03 81.92 173.01 82.19Z" fill="white"/>
    <path d="M161.89 98.0199C161.13 98.3799 160.31 98.6899 159.44 98.9599C159.39 98.9799 159.34 98.9799 159.29 98.9799C159.08 98.9799 158.88 98.8499 158.81 98.6299C158.73 98.3799 158.87 98.1099 159.12 98.0199C160 98.0699 160.93 98.0699 161.89 98.0199Z" fill="white"/>
    <path d="M166.09 73.69C166.08 73.88 164.85 90.69 153.66 97.16C153.66 97.16 153.66 97.16 153.65 97.16C152.95 96.97 152.55 96.83 152.55 96.83C152.55 96.83 151.61 97.34 150.21 97.95C150.22 97.77 150.34 97.59 150.53 97.52C163.7 92.67 165.08 73.81 165.09 73.62C165.11 73.35 165.35 73.13 165.62 73.16C165.9 73.19 166.11 73.42 166.09 73.69Z" fill="white"/>
    <path d="M153.65 97.17C152.79 97.67 151.87 98.11 150.88 98.47C150.82 98.49 150.76 98.5 150.7 98.5C150.5 98.5 150.31 98.38 150.23 98.17C150.21 98.1 150.2 98.03 150.21 97.96C151.61 97.35 152.55 96.84 152.55 96.84C152.55 96.84 152.95 96.98 153.65 97.17Z" fill="white"/>
    <path d="M100.37 65.7399C100.38 65.9099 100.3 66.0699 100.16 66.1699C100.02 66.2699 99.84 66.2899 99.68 66.2199C99.68 66.2199 99.26 66.0699 98.99 66.2399C98.78 66.3899 98.66 66.7599 98.65 67.2899C98.63 68.2199 98.87 68.5599 99.01 68.6799C99.15 68.7999 99.29 68.7899 99.3 68.7899C99.57 68.7399 99.83 68.9299 99.87 69.1999C99.92 69.4699 99.73 69.7299 99.46 69.7799C99.44 69.7799 99.38 69.7899 99.29 69.7899C99.08 69.7899 98.7 69.7399 98.35 69.4399C97.87 69.0199 97.63 68.2899 97.65 67.2699C97.67 66.3699 97.93 65.7399 98.45 65.4099C98.73 65.2199 99.04 65.1599 99.31 65.1599C99.08 63.4499 98 58.7899 93.17 57.7999C92.9 57.7499 92.73 57.4799 92.78 57.2099C92.84 56.9399 93.11 56.7599 93.37 56.8199C99.96 58.1699 100.37 65.6699 100.37 65.7399Z" fill="#21232E"/>
    <path d="M101.76 49.19C101.66 49.31 101.52 49.36 101.38 49.36C101.27 49.36 101.15 49.32 101.06 49.24C100.85 49.06 100.82 48.75 101 48.54C107.34 41.21 106.55 31.92 106.54 31.82C106.51 31.55 106.72 31.3 106.99 31.28C107.25 31.26 107.51 31.45 107.54 31.73C107.57 32.12 108.38 41.53 101.76 49.19Z" fill="white"/>
    <path d="M82.64 105.5C82.22 105.53 81.74 105.53 81.17 105.48C78.93 103.18 74.87 97.9 73.83 89C72.4 76.81 79.35 65.37 79.42 65.25C79.57 65.02 79.88 64.95 80.11 65.09C80.34 65.23 80.42 65.54 80.27 65.78C80.2 65.89 73.44 77.05 74.82 88.89C75.95 98.55 80.87 103.87 82.64 105.5Z" fill="white"/>
    <path d="M83.39 106.75C83.29 106.88 83.14 106.95 82.99 106.95C82.88 106.95 82.78 106.92 82.69 106.85C82.61 106.79 82.02 106.34 81.17 105.48C81.74 105.53 82.22 105.53 82.64 105.5C82.65 105.5 82.65 105.5 82.65 105.5C83.04 105.86 83.27 106.04 83.28 106.05C83.51 106.21 83.55 106.52 83.39 106.75Z" fill="white"/>
    <path d="M88.81 104.92C88.26 104.85 87.78 104.81 87.35 104.81C81.18 97.78 81.03 87.12 81.02 86.65C81.02 86.37 81.24 86.15 81.52 86.15C81.8 86.15 82.02 86.37 82.02 86.64C82.02 86.76 82.2 98.23 88.81 104.92Z" fill="white"/>
    <path d="M89.09 105.91C89 106.01 88.87 106.06 88.74 106.06C88.61 106.06 88.48 106.01 88.39 105.92C88.02 105.57 87.67 105.2 87.35 104.82C87.78 104.82 88.26 104.86 88.81 104.93C88.9 105.02 88.99 105.11 89.08 105.2C89.28 105.38 89.29 105.71 89.09 105.91Z" fill="white"/>
    <path d="M105.5 103.83V103.84C105.2 103.95 104.88 104.07 104.54 104.19C97.54 98.5 97.64 88.53 97.65 88.09C97.66 87.82 97.88 87.6 98.15 87.6C98.16 87.6 98.16 87.6 98.16 87.6C98.44 87.6 98.66 87.83 98.65 88.11C98.65 88.21 98.55 98.31 105.48 103.64L105.5 103.83Z" fill="white"/>
    <path d="M105.94 104.61C105.84 104.75 105.69 104.82 105.53 104.82C105.43 104.82 105.33 104.79 105.24 104.72C105 104.55 104.77 104.37 104.54 104.19C104.88 104.07 105.2 103.95 105.5 103.84V103.83L105.48 103.64C105.54 103.69 105.59 103.74 105.65 103.77C105.68 103.8 105.71 103.83 105.75 103.85C105.75 103.85 105.75 103.85 105.76 103.85C105.78 103.87 105.81 103.89 105.83 103.91C106.05 104.07 106.1 104.4 105.94 104.61Z" fill="white"/>
    <path d="M100.34 105.36C99.98 105.44 99.61 105.5 99.24 105.56L94.58 99.3601C94.42 99.1401 94.46 98.8301 94.68 98.6601C94.9 98.5001 95.22 98.5401 95.38 98.7601L100.34 105.36Z" fill="white"/>
    <path d="M100.87 106.91C100.78 106.98 100.67 107.01 100.57 107.01C100.42 107.01 100.27 106.94 100.17 106.81L99.24 105.57C99.61 105.51 99.98 105.45 100.34 105.37L100.97 106.21C101.13 106.42 101.09 106.74 100.87 106.91Z" fill="white"/>
    <path d="M146.82 46.1701L145.76 45.8601L145.41 45.7501L144.75 45.5501L142.37 44.8301C142.37 44.8301 142.27 44.8601 142.09 44.9001C142.05 44.8801 142 44.8601 141.96 44.8201C141.52 44.5701 141.09 44.3101 140.66 44.0401C138.55 42.6901 136.64 41.1801 134.92 39.6001C134.61 39.3101 134.31 39.0301 134.01 38.7401C133.73 38.4601 133.45 38.1901 133.19 37.9101H133.18C125.22 29.7501 121.96 20.4001 121.91 20.2601C121.82 20.0001 121.96 19.7201 122.22 19.6301C122.48 19.5401 122.76 19.6801 122.85 19.9401C122.91 20.0901 126.53 30.4301 135.43 38.7201H135.44C135.75 39.0201 136.07 39.3101 136.4 39.5901L136.41 39.6001C136.77 39.9201 137.14 40.2301 137.52 40.5301C139.75 42.3501 142.26 44.0101 145.09 45.3601C145.27 45.4501 145.45 45.5301 145.63 45.6101L145.64 45.6301L146.82 46.1701Z" fill="white"/>
    <path d="M150.77 48.0201C150.71 48.2401 150.51 48.3801 150.29 48.3801C150.24 48.3801 150.2 48.3701 150.15 48.3601C149.12 48.0601 148.13 47.7201 147.17 47.3401C146.93 47.2501 146.7 47.1601 146.46 47.0501H146.45C146.21 46.9601 145.98 46.8501 145.74 46.7501C145.54 46.6601 145.33 46.5701 145.13 46.4701C144.95 46.3901 144.78 46.3101 144.6 46.2301C144.43 46.1501 144.27 46.0601 144.1 45.9801C143.41 45.6401 142.74 45.2701 142.09 44.8901C142.27 44.8501 142.37 44.8201 142.37 44.8201L144.75 45.5401L145.41 45.7401L145.76 45.8501L146.82 46.1601L145.64 45.6201L145.63 45.6001C146.13 45.8401 146.65 46.0601 147.17 46.2701C147.17 46.2701 147.17 46.2701 147.18 46.2701C147.19 46.2801 147.21 46.2901 147.23 46.2901C147.4 46.3601 147.57 46.4301 147.74 46.5001C148.61 46.8301 149.51 47.1301 150.43 47.4001C150.7 47.4801 150.85 47.7501 150.77 48.0201Z" fill="white"/>
    <path d="M154.91 48.62L152.92 48.02H152.91L149.94 44.98H149.93L149.82 44.86C149.68 44.72 149.64 44.52 149.7 44.36C149.72 44.28 149.76 44.21 149.82 44.15C149.93 44.04 150.09 43.99 150.23 44.02C150.25 44.01 150.26 44.02 150.26 44.03L150.4 44.0801H150.41C150.46 44.1001 150.49 44.12 150.53 44.16L151.28 44.93H151.29L152.09 45.75L154.91 48.62Z" fill="white"/>
    <path d="M155.57 50C155.47 50.1 155.34 50.14 155.22 50.14C155.09 50.14 154.96 50.09 154.86 50L152.92 48.02L154.91 48.62L155.57 49.29C155.77 49.49 155.76 49.81 155.57 50Z" fill="white"/>
    <path d="M101.53 58.21C101.42 58.18 101.32 58.12 101.26 58.02C101.33 58.1 101.43 58.17 101.53 58.21Z" fill="#21232E"/>
    <path d="M141.24 94.57C141.19 94.74 141.13 94.93 141.09 95.13C141.04 95.3 140.99 95.48 140.95 95.67C139.24 96.01 137.35 96.27 135.26 96.45C134.3 96.53 133.32 96.57 132.32 96.57C124.01 96.57 114.35 93.74 107.27 88.47C107.08 88.33 106.89 88.19 106.71 88.05V88.04C106.52 87.89 106.33 87.74 106.14 87.58C105.9 87.4 105.67 87.2 105.44 87C105.03 86.65 104.63 86.28 104.24 85.9C102.17 83.91 100.45 81.65 99.23 79.14C99.21 79.11 98.81 78.3 98.57 76.73C97.91 76.73 96.55 76.68 94.87 76.31C92.8 75.85 87.66 69.82 86.57 63.91C85.87 60.14 87 57.17 89.84 55.3C92.27 53.7 94.63 53.14 96.86 53.65C97.07 53.7 97.28 53.76 97.48 53.82C97.66 53.87 97.82 53.93 97.98 54C98.02 54.01 98.05 54.03 98.09 54.05C98.22 54.1 98.34 54.15 98.46 54.21C98.58 54.26 98.69 54.32 98.8 54.39C99.06 54.52 99.3 54.67 99.52 54.82C99.69 54.94 99.84 55.05 99.99 55.17C100.33 55.43 100.63 55.71 100.89 55.97C101.07 56.15 101.22 56.32 101.36 56.48C101.44 56.57 101.51 56.66 101.57 56.74C101.69 56.89 101.79 57.02 101.86 57.12C101.99 57.31 102.07 57.44 102.08 57.46C102.2 57.65 102.17 57.89 102.02 58.05C102 58.07 101.98 58.09 101.96 58.1C101.94 58.12 101.93 58.13 101.91 58.14C101.87 58.16 101.83 58.18 101.79 58.19C101.71 58.22 101.62 58.22 101.54 58.2H101.53C101.43 58.16 101.33 58.1 101.26 58.01C101.25 58 101.24 57.98 101.23 57.97C101.23 57.97 101.23 57.96 101.22 57.95C101.21 57.93 101.18 57.89 101.14 57.84C101.12 57.81 101.09 57.77 101.05 57.72V57.71C100.99 57.61 100.9 57.5 100.8 57.38C100.8 57.37 100.8 57.37 100.79 57.37C100.74 57.3 100.69 57.23 100.62 57.16C100.57 57.1 100.52 57.04 100.46 56.97L100.45 56.96L100.42 56.94L100.39 56.9C100.34 56.84 100.28 56.78 100.22 56.73C100.06 56.57 99.9 56.41 99.72 56.25C99.33 55.92 98.88 55.58 98.36 55.29C98.23 55.22 98.1 55.15 97.96 55.09C97.84 55.02 97.71 54.97 97.57 54.92C97.28 54.8 96.96 54.7 96.63 54.62C94.69 54.18 92.58 54.69 90.39 56.14C87.88 57.79 86.93 60.34 87.55 63.72C87.84 65.3 88.44 66.88 89.17 68.34C89.27 68.51 89.36 68.68 89.45 68.85C89.86 69.6 90.3 70.32 90.76 70.98C90.79 71.04 90.83 71.1 90.88 71.16C92.51 73.51 94.27 75.15 95.08 75.33C97.32 75.83 98.95 75.72 98.97 75.72C99.22 75.69 99.47 75.89 99.5 76.16C99.56 76.69 99.65 77.14 99.74 77.51C99.74 77.53 99.75 77.56 99.76 77.58C99.93 78.07 100.15 78.66 100.43 79.29C101.4 81.14 102.66 82.84 104.13 84.39C104.7 85 105.31 85.58 105.95 86.13C106.13 86.3 106.31 86.45 106.5 86.61C106.69 86.77 106.88 86.92 107.07 87.07C114.82 93.24 126.18 96.23 135.17 95.45C137.43 95.25 139.44 94.96 141.24 94.57Z" fill="#21232E"/>
    <path d="M113.79 30.63C113.7 30.7 113.6 30.73 113.5 30.73C113.35 30.73 113.19 30.65 113.1 30.52C110.74 27.2 106.97 20.79 107.63 14.25C105.38 13.95 95.14 13.39 85.9 25.75C85.8 25.88 85.65 25.95 85.49 25.95C85.39 25.95 85.28 25.91 85.2 25.85C84.97 25.68 84.93 25.37 85.09 25.15C90.73 17.61 96.72 14.8 100.75 13.77C104.13 12.9 106.7 13.1 107.77 13.24C108.17 11.05 109.46 8.91 111.49 7C111.91 7.07 112.21 7.12 112.37 7.16C112.43 7.34 112.38 7.54 112.24 7.68C110.25 9.51 109.03 11.59 108.71 13.67C108.7 13.72 108.69 13.78 108.69 13.83C108.68 13.87 108.68 13.9 108.68 13.94C107.82 20.54 112.04 27.31 113.91 29.94C114.07 30.16 114.02 30.47 113.79 30.63Z" fill="white"/>
    <path d="M112.37 7.16C112.21 7.12 111.91 7.07 111.49 7C111.51 6.98 111.54 6.96 111.56 6.94C111.59 6.91 111.62 6.89 111.65 6.88C111.81 6.78 112.01 6.79 112.16 6.89C112.2 6.91 112.23 6.94 112.26 6.97V6.98H112.27C112.31 7.03 112.34 7.08 112.36 7.13C112.37 7.15 112.37 7.16 112.37 7.16Z" fill="white"/>
    <path d="M131.91 134.29C119.94 134.29 111.95 130.33 107.35 127C102.35 123.38 100.22 119.81 100.14 119.66C100 119.42 100.08 119.12 100.32 118.98C100.56 118.84 100.86 118.92 101 119.16C101.08 119.3 109.57 133.3 131.91 133.3C139.87 133.3 145.24 131.52 147.88 128C150.52 124.48 149.38 120.4 149.37 120.36C149.29 120.09 149.45 119.82 149.71 119.74C149.98 119.66 150.25 119.82 150.33 120.08C150.38 120.27 151.62 124.68 148.68 128.6C145.84 132.37 140.2 134.29 131.91 134.29Z" fill="#21232E"/>
    <path d="M85.13 142.08C84.94 142.08 84.76 141.97 84.67 141.79C80.65 132.88 69.45 132.33 69.34 132.33C69.06 132.32 68.85 132.09 68.86 131.81C68.87 131.54 69.09 131.33 69.36 131.33C69.37 131.33 69.37 131.33 69.38 131.33C69.5 131.33 81.31 131.91 85.59 141.38C85.7 141.63 85.59 141.93 85.34 142.04C85.26 142.06 85.19 142.08 85.13 142.08Z" fill="#21232E"/>
    <path d="M97.76 196.83C97.75 196.89 97.73 196.94 97.69 196.99C97.61 197.14 97.45 197.24 97.27 197.24C97.24 197.24 97.21 197.23 97.18 197.23C96.9 197.18 96.73 196.92 96.78 196.64C96.78 196.63 96.78 196.61 96.79 196.6C99.31 183.08 91.38 158.87 91.3 158.62C91.21 158.36 91.35 158.08 91.61 157.99C91.88 157.9 92.16 158.05 92.25 158.31C92.58 159.31 100.36 183.06 97.76 196.83Z" fill="#21232E"/>
    <path d="M97.69 196.99C97.61 197.14 97.45 197.24 97.27 197.24C97.24 197.24 97.21 197.23 97.18 197.23C96.9 197.18 96.73 196.92 96.78 196.64C96.78 196.63 96.78 196.61 96.79 196.6C97.08 196.73 97.38 196.85 97.69 196.99Z" fill="#21232E"/>
    <path d="M176.57 212.88L175.57 212.86C176.14 188.71 163.44 149.21 163.31 148.81L164.26 148.5C164.39 148.89 177.14 188.56 176.57 212.88Z" fill="#21232E"/>
    <path d="M146.2 225.23C148.65 225.98 151.25 226.55 153.87 227L146.2 225.23ZM149.2 141.42V141.43C149.37 141.31 149.53 141.2 149.69 141.09C149.53 141.21 149.36 141.31 149.2 141.42ZM137.95 168.28C137.67 166.58 136.4 164.09 133.94 163.16C133.78 163.09 133.62 163.04 133.45 163C133.4 163.17 133.36 163.33 133.33 163.49C133.29 163.66 133.25 163.82 133.22 163.98C133.27 163.99 133.32 164 133.36 164.02C133.49 164.06 133.61 164.1 133.73 164.15V164.16C135.71 164.98 136.74 167.03 136.96 168.43C137.23 170.11 136.89 171.42 134.35 172.77C134.1 172.9 134.01 173.21 134.14 173.45C134.19 173.55 134.28 173.63 134.38 173.66C134.44 173.7 134.51 173.71 134.58 173.71C134.66 173.71 134.74 173.7 134.82 173.66C137.43 172.26 138.34 170.71 137.95 168.28ZM182.93 227.59C182.65 227.54 182.39 227.71 182.33 227.98C182.33 228 182.32 228.04 182.31 228.1L177.68 228.27L177.55 228.28L173.5 228.43H173.33C171.66 228.47 169.84 228.45 167.93 228.39C167.86 228.27 167.75 228.19 167.61 228.16C167.41 228.12 167.22 228.21 167.12 228.36C163.94 228.23 160.53 227.96 157.1 227.49C157.04 227.28 156.85 227.12 156.62 227.12H156.61C156.44 227.12 156.28 227.21 156.2 227.36C155.45 227.26 154.69 227.14 153.94 227L153.87 226.99L146.2 225.22L146.12 225.2C144.67 224.77 143.29 224.3 141.96 223.76C141.94 223.75 141.91 223.73 141.88 223.72C141.82 223.69 141.76 223.68 141.69 223.68C141.68 223.68 141.68 223.68 141.68 223.68C141.49 223.68 141.32 223.79 141.24 223.95C141.53 224.1 141.69 224.18 141.69 224.18C141.86 224.25 142.03 224.32 142.2 224.37C146.41 226.04 151.26 227.14 156.11 227.83C156.28 227.86 156.44 227.89 156.6 227.9C156.77 227.93 156.93 227.96 157.1 227.97C160.48 228.43 163.84 228.69 166.98 228.82C167.15 228.83 167.31 228.84 167.48 228.84C167.65 228.85 167.81 228.85 167.98 228.86C174.63 229.08 180.1 228.69 182.27 228.22H182.28C182.49 228.17 182.67 228.13 182.82 228.08C182.82 228.08 182.99 228.04 183.3 227.94C183.26 227.77 183.12 227.63 182.93 227.59ZM169.71 192.32C168.62 191 167.08 190.18 165.38 190.02C165.17 190 164.97 189.99 164.77 189.99C161.51 189.99 158.71 192.48 158.4 195.79C158.23 197.49 158.75 199.16 159.84 200.48C160.81 201.65 162.14 202.43 163.63 202.69L164.11 197.68C163.59 197.43 163.25 196.87 163.3 196.26C163.34 195.88 163.52 195.53 163.82 195.29C164.11 195.05 164.48 194.94 164.86 194.97C165.24 195 165.59 195.19 165.83 195.48C166.07 195.77 166.19 196.15 166.15 196.53C166.09 197.14 165.66 197.62 165.1 197.76L164.63 202.79C167.97 202.87 170.82 200.37 171.15 197C171.31 195.3 170.8 193.63 169.71 192.32ZM165.06 196.12C164.99 196.03 164.88 195.97 164.77 195.96H164.73C164.63 195.96 164.53 196 164.45 196.06C164.37 196.13 164.31 196.24 164.3 196.35C164.29 196.5 164.35 196.63 164.45 196.71C164.51 196.77 164.59 196.81 164.69 196.82C164.78 196.83 164.87 196.81 164.94 196.76C165.06 196.7 165.14 196.57 165.16 196.43C165.17 196.32 165.13 196.21 165.06 196.12ZM146.2 225.23C148.65 225.98 151.25 226.55 153.87 227L146.2 225.23ZM146.2 225.23C148.65 225.98 151.25 226.55 153.87 227L146.2 225.23Z" fill="#21232E"/>
    <path d="M153.94 227L153.87 226.99C151.25 226.54 148.65 225.97 146.2 225.22L146.12 225.2C144.67 224.77 143.29 224.3 141.96 223.76C141.98 223.77 142 223.79 142.01 223.8C142.03 223.81 142.04 223.83 142.05 223.84C142.08 223.87 142.1 223.9 142.12 223.94C142.14 223.97 142.16 224.01 142.17 224.05C142.18 224.09 142.19 224.13 142.19 224.17C142.19 224.19 142.19 224.23 142.2 224.3V224.37C146.41 226.04 151.26 227.14 156.11 227.83C156.12 227.7 156.12 227.63 156.12 227.63C156.12 227.59 156.12 227.55 156.13 227.51C156.14 227.48 156.15 227.45 156.16 227.42C156.17 227.4 156.18 227.38 156.2 227.36C155.45 227.26 154.69 227.15 153.94 227ZM149.2 141.42V141.43C149.37 141.31 149.53 141.2 149.69 141.09C149.53 141.21 149.36 141.31 149.2 141.42ZM153.94 227L153.87 226.99C151.25 226.54 148.65 225.97 146.2 225.22L146.12 225.2C144.67 224.77 143.29 224.3 141.96 223.76C141.98 223.77 142 223.79 142.01 223.8C142.03 223.81 142.04 223.83 142.05 223.84C142.08 223.87 142.1 223.9 142.12 223.94C142.14 223.97 142.16 224.01 142.17 224.05C142.18 224.09 142.19 224.13 142.19 224.17C142.19 224.19 142.19 224.23 142.2 224.3V224.37C146.41 226.04 151.26 227.14 156.11 227.83C156.12 227.7 156.12 227.63 156.12 227.63C156.12 227.59 156.12 227.55 156.13 227.51C156.14 227.48 156.15 227.45 156.16 227.42C156.17 227.4 156.18 227.38 156.2 227.36C155.45 227.26 154.69 227.15 153.94 227ZM149.2 141.42V141.43C149.37 141.31 149.53 141.2 149.69 141.09C149.53 141.21 149.36 141.31 149.2 141.42ZM149.2 141.42V141.43C149.37 141.31 149.53 141.2 149.69 141.09C149.53 141.21 149.36 141.31 149.2 141.42ZM149.2 141.42V141.43C149.37 141.31 149.53 141.2 149.69 141.09C149.53 141.21 149.36 141.31 149.2 141.42ZM183.3 227.94C183.26 227.77 183.12 227.63 182.93 227.59C182.65 227.54 182.39 227.71 182.33 227.98C182.33 228 182.32 228.04 182.31 228.1L177.68 228.27L177.55 228.28C176.35 228.36 174.99 228.41 173.5 228.43H173.33C171.66 228.47 169.84 228.45 167.93 228.39C167.66 228.38 167.39 228.37 167.12 228.36C163.94 228.23 160.53 227.96 157.1 227.49C156.8 227.45 156.5 227.41 156.2 227.36C155.45 227.26 154.69 227.14 153.94 227L153.87 226.99C151.25 226.54 148.65 225.97 146.2 225.22L146.12 225.2C144.67 224.77 143.29 224.3 141.96 223.76C141.94 223.75 141.91 223.73 141.88 223.72C141.82 223.69 141.76 223.68 141.69 223.68C141.68 223.68 141.68 223.68 141.68 223.68C141.49 223.68 141.32 223.79 141.24 223.95C141.21 224.02 141.19 224.1 141.19 224.18C141.19 224.19 141.19 224.3 141.21 224.49C141.39 224.58 141.49 224.63 141.5 224.64C141.58 224.67 141.65 224.7 141.73 224.73C141.9 224.8 142.07 224.87 142.25 224.93C146.43 226.56 151.22 227.64 156.03 228.33C156.2 228.36 156.36 228.38 156.53 228.41C156.69 228.43 156.85 228.45 157.02 228.47C160.42 228.93 163.8 229.2 166.95 229.33C167.12 229.34 167.29 229.34 167.46 229.35C167.63 229.36 167.8 229.36 167.96 229.37C169.28 229.41 170.54 229.43 171.75 229.43C176.44 229.43 180.21 229.14 182.11 228.76C182.32 228.73 182.5 228.69 182.66 228.65C182.77 228.62 182.86 228.59 182.95 228.56C182.96 228.56 183.06 228.53 183.24 228.48C183.29 228.29 183.31 228.19 183.31 228.18C183.33 228.1 183.33 228.02 183.3 227.94ZM133.45 163C133.28 162.95 133.11 162.91 132.93 162.88C132.89 163.05 132.85 163.22 132.82 163.38C132.78 163.55 132.74 163.71 132.71 163.87C132.89 163.89 133.06 163.93 133.22 163.98C133.27 163.99 133.32 164 133.36 164.02C133.49 164.06 133.61 164.1 133.73 164.15C133.75 163.99 133.79 163.83 133.83 163.66C133.86 163.5 133.9 163.33 133.94 163.16C133.78 163.09 133.62 163.04 133.45 163ZM149.2 141.42V141.43C149.37 141.31 149.53 141.2 149.69 141.09C149.53 141.21 149.36 141.31 149.2 141.42ZM149.2 141.42V141.43C149.37 141.31 149.53 141.2 149.69 141.09C149.53 141.21 149.36 141.31 149.2 141.42ZM149.2 141.42V141.43C149.37 141.31 149.53 141.2 149.69 141.09C149.53 141.21 149.36 141.31 149.2 141.42ZM153.94 227L153.87 226.99C151.25 226.54 148.65 225.97 146.2 225.22L146.12 225.2C144.67 224.77 143.29 224.3 141.96 223.76C141.98 223.77 142 223.79 142.01 223.8C142.03 223.81 142.04 223.83 142.05 223.84C142.08 223.87 142.1 223.9 142.12 223.94C142.14 223.97 142.16 224.01 142.17 224.05C142.18 224.09 142.19 224.13 142.19 224.17C142.19 224.19 142.19 224.23 142.2 224.3V224.37C146.41 226.04 151.26 227.14 156.11 227.83C156.12 227.7 156.12 227.63 156.12 227.63C156.12 227.59 156.12 227.55 156.13 227.51C156.14 227.48 156.15 227.45 156.16 227.42C156.17 227.4 156.18 227.38 156.2 227.36C155.45 227.26 154.69 227.15 153.94 227ZM149.2 141.42V141.43C149.37 141.31 149.53 141.2 149.69 141.09C149.53 141.21 149.36 141.31 149.2 141.42ZM153.94 227L153.87 226.99C151.25 226.54 148.65 225.97 146.2 225.22L146.12 225.2C144.67 224.77 143.29 224.3 141.96 223.76C141.98 223.77 142 223.79 142.01 223.8C142.03 223.81 142.04 223.83 142.05 223.84C142.08 223.87 142.1 223.9 142.12 223.94C142.14 223.97 142.16 224.01 142.17 224.05C142.18 224.09 142.19 224.13 142.19 224.17C142.19 224.19 142.19 224.23 142.2 224.3V224.37C146.41 226.04 151.26 227.14 156.11 227.83C156.12 227.7 156.12 227.63 156.12 227.63C156.12 227.59 156.12 227.55 156.13 227.51C156.14 227.48 156.15 227.45 156.16 227.42C156.17 227.4 156.18 227.38 156.2 227.36C155.45 227.26 154.69 227.15 153.94 227Z" fill="#21232E"/>
    <path d="M182.82 228.08C182.82 228.08 182.78 228.29 182.66 228.65C182.13 230.34 180.06 235.19 173.89 234.61C168.13 234.06 167.47 230.81 167.46 229.35C167.45 229.14 167.47 228.96 167.48 228.84C167.5 228.72 167.51 228.65 167.51 228.65L168.01 228.63L173.33 228.43H173.5L177.55 228.28L177.68 228.27L182.31 228.1L182.82 228.08Z" fill="white"/>
    <path d="M183.31 228.19C183.31 228.2 183.29 228.3 183.24 228.49C182.86 229.82 180.97 235.17 174.89 235.17C174.55 235.17 174.2 235.15 173.84 235.12C171.06 234.85 169.08 233.94 167.95 232.42C167.12 231.29 166.95 230.09 166.95 229.34C166.95 229.14 166.96 228.96 166.98 228.83C166.99 228.67 167.01 228.58 167.02 228.56C167.03 228.49 167.06 228.42 167.12 228.37C167.22 228.22 167.41 228.13 167.61 228.17C167.75 228.2 167.86 228.28 167.93 228.4C167.98 228.47 168.01 228.55 168.01 228.64C168.01 228.68 168.01 228.72 168 228.76C168 228.76 167.99 228.8 167.98 228.87C167.97 228.97 167.96 229.13 167.96 229.34V229.38C167.97 229.98 168.09 230.95 168.76 231.84C169.72 233.12 171.46 233.88 173.93 234.12C179.5 234.64 181.51 230.53 182.11 228.77C182.19 228.55 182.24 228.36 182.27 228.23H182.28C182.29 228.19 182.3 228.15 182.31 228.11C182.32 228.05 182.33 228.01 182.33 227.99C182.39 227.72 182.65 227.55 182.93 227.6C183.12 227.64 183.26 227.78 183.3 227.95C183.33 228.02 183.33 228.1 183.31 228.19Z" fill="#21232E"/>
    <path d="M147 141.83C146.95 141.87 146.9 141.91 146.85 141.95C146.87 141.93 146.88 141.91 146.9 141.9C146.93 141.87 146.97 141.85 147 141.83Z" fill="#21232E"/>
    <path d="M149.69 141.09C149.53 141.2 149.37 141.31 149.2 141.43V141.42C149.36 141.31 149.53 141.21 149.69 141.09Z" fill="#21232E"/>
    <path d="M147 141.83C146.95 141.87 146.9 141.91 146.85 141.95C146.87 141.93 146.88 141.91 146.9 141.9C146.93 141.87 146.97 141.85 147 141.83Z" fill="white"/>
    <path d="M156.62 227.62C156.62 227.62 156.62 227.72 156.6 227.9C156.59 228.03 156.57 228.2 156.53 228.41C156.21 229.87 154.88 232.81 149.24 232.27C143.02 231.68 141.92 226.45 141.73 224.73C141.69 224.39 141.69 224.18 141.69 224.18L142.2 224.3L146.12 225.2L146.2 225.22L153.87 226.99L153.94 227L156.13 227.51L156.62 227.62Z" fill="white"/>
    <path d="M157.12 227.61C157.12 227.64 157.12 227.77 157.1 227.97C157.08 228.11 157.06 228.27 157.02 228.47C156.87 229.21 156.48 230.31 155.48 231.23C154.32 232.29 152.66 232.83 150.54 232.83C150.11 232.83 149.66 232.81 149.19 232.77C142.27 232.11 141.33 225.95 141.21 224.49C141.19 224.3 141.19 224.19 141.19 224.18C141.19 224.1 141.21 224.02 141.24 223.95C141.32 223.79 141.49 223.68 141.68 223.68C141.68 223.68 141.68 223.68 141.69 223.68C141.76 223.68 141.82 223.69 141.88 223.72C141.91 223.73 141.94 223.75 141.96 223.76C141.98 223.77 142 223.79 142.01 223.8C142.03 223.81 142.04 223.83 142.05 223.84C142.08 223.87 142.1 223.9 142.12 223.94C142.14 223.97 142.16 224.01 142.17 224.05C142.18 224.09 142.19 224.13 142.19 224.17C142.19 224.19 142.19 224.23 142.2 224.3V224.37C142.21 224.5 142.22 224.69 142.25 224.93C142.5 226.76 143.68 231.24 149.28 231.77C151.78 232.01 153.62 231.58 154.8 230.49C155.58 229.77 155.9 228.91 156.03 228.33C156.07 228.12 156.1 227.95 156.11 227.83C156.12 227.7 156.12 227.63 156.12 227.63C156.12 227.59 156.12 227.55 156.13 227.51C156.14 227.48 156.15 227.45 156.16 227.42C156.17 227.4 156.18 227.38 156.2 227.36C156.28 227.21 156.44 227.12 156.61 227.12H156.62C156.85 227.12 157.04 227.28 157.1 227.49C157.11 227.53 157.12 227.57 157.12 227.61Z" fill="#21232E"/>
    <path d="M181.15 174.94C180.97 176.86 180.25 178.42 179.13 179.34C178.34 179.99 177.37 180.32 176.25 180.32C176.04 180.32 175.83 180.31 175.61 180.28C170.29 180.09 168.08 177.75 167.34 176.66C166.22 177.46 163.21 179.25 159.28 178.71C153.53 177.9 153.48 173.62 153.6 172.33L153.61 172.32C153.75 170.88 155.32 166.82 160.38 167.13C162.39 167.23 164.06 167.87 165.34 168.62C165.21 168.74 165.1 168.87 165.02 169.02C164.93 169.17 164.87 169.33 164.85 169.5C164.84 169.55 164.83 169.61 164.83 169.66C164.81 170.21 165.14 170.75 165.73 171.12C166.21 171.42 166.83 171.61 167.49 171.65C167.55 171.66 167.61 171.67 167.67 171.67H167.84C168.01 171.67 168.18 171.66 168.34 171.64C169.07 171.56 169.72 171.3 170.14 170.91C170.4 170.67 170.56 170.39 170.62 170.09C170.64 170.01 170.65 169.94 170.65 169.86C170.65 169.76 170.65 169.66 170.62 169.56C170.59 169.39 170.53 169.23 170.44 169.08C171.88 168.54 173.94 168.2 176.74 168.62C177.92 168.72 178.97 169.28 179.77 170.23C180.78 171.46 181.31 173.25 181.15 174.94Z" fill="white"/>
    <path d="M134.58 173.21L134.38 173.66C134.28 173.63 134.19 173.55 134.14 173.45C134.01 173.21 134.1 172.9 134.35 172.77C136.89 171.42 137.23 170.11 136.96 168.43C136.74 167.03 135.71 164.98 133.73 164.16V164.15C133.61 164.1 133.49 164.06 133.36 164.02C133.32 164 133.27 163.99 133.22 163.98C133.06 163.93 132.89 163.89 132.71 163.87C132.59 163.84 132.47 163.82 132.35 163.81C132.03 163.78 131.72 163.77 131.42 163.77C131.23 163.77 131.04 163.78 130.86 163.8C130.76 163.8 130.65 163.81 130.55 163.83C130.19 163.86 129.83 163.93 129.49 164.04C129.35 164.08 129.21 164.12 129.07 164.17C129.02 164.17 128.97 164.19 128.92 164.22C128.65 164.31 128.38 164.43 128.13 164.58C127.98 164.66 127.84 164.74 127.7 164.83C127.4 165 127.12 165.21 126.85 165.45C126.77 165.52 126.7 165.59 126.62 165.67C126.47 165.8 126.32 165.95 126.17 166.11L126.16 166.12C125.97 166.32 125.68 166.33 125.47 166.16C127.32 163.88 129.77 163.06 132.4 163.31C132.54 163.32 132.69 163.34 132.82 163.38C133 163.4 133.17 163.44 133.33 163.49C133.51 163.53 133.67 163.59 133.83 163.66C136.05 164.54 137.21 166.82 137.45 168.36C137.79 170.46 137.1 171.87 134.58 173.21Z" fill="#21232E"/>
    <path d="M134.82 173.67C134.74 173.71 134.66 173.72 134.58 173.72C134.51 173.72 134.44 173.71 134.38 173.67C134.28 173.64 134.19 173.56 134.14 173.46C134.01 173.22 134.1 172.91 134.35 172.78C136.89 171.43 137.23 170.12 136.96 168.44C136.74 167.04 135.71 164.99 133.73 164.17V164.16C133.61 164.11 133.49 164.07 133.36 164.03C133.32 164.01 133.27 164 133.22 163.99C133.06 163.94 132.89 163.9 132.71 163.88C132.59 163.85 132.47 163.83 132.35 163.82C132.03 163.79 131.72 163.78 131.42 163.78C131.23 163.78 131.04 163.79 130.86 163.81C130.76 163.81 130.65 163.82 130.55 163.84C130.19 163.87 129.83 163.94 129.49 164.05C129.35 164.09 129.21 164.13 129.07 164.18C129.02 164.18 128.97 164.2 128.92 164.23C128.65 164.32 128.38 164.44 128.13 164.59C127.98 164.67 127.84 164.75 127.7 164.84C127.4 165.01 127.12 165.22 126.85 165.46C126.77 165.53 126.7 165.6 126.62 165.68C126.47 165.81 126.32 165.96 126.17 166.12L126.16 166.13C125.97 166.33 125.68 166.34 125.47 166.17C125.47 166.16 125.46 166.16 125.46 166.16C125.26 165.97 125.24 165.66 125.43 165.45C125.53 165.34 125.63 165.23 125.74 165.13C125.84 165.03 125.94 164.93 126.04 164.84C126.49 164.44 126.96 164.1 127.46 163.81C127.94 163.53 128.45 163.31 128.98 163.16C129.25 163.07 129.52 163 129.8 162.95C130.06 162.9 130.33 162.86 130.6 162.83C131.2 162.77 131.81 162.76 132.45 162.82C132.61 162.84 132.77 162.86 132.93 162.89C133.11 162.92 133.28 162.96 133.45 163.01C133.62 163.05 133.78 163.1 133.94 163.17C136.4 164.1 137.67 166.59 137.95 168.29C138.34 170.71 137.43 172.26 134.82 173.67Z" fill="#21232E"/>
    <path d="M202.4 176.01C202.84 174.39 204.93 164.79 197.2 151.94C197.9 150.02 201.98 137.87 195.41 132.07C188.77 126.2 178.78 134.55 177.25 135.91C173.78 134.88 171.29 134.77 170.93 134.76C170.55 134.7 167.88 134.28 163.97 134.74C162.99 133.45 154.58 122.85 146.78 127.45C138.75 132.2 141.34 146.6 141.44 147.2C138.69 150.28 136.82 153.15 135.5 155.78C134.19 158.41 133.43 160.79 132.93 162.88C133.11 162.91 133.28 162.95 133.45 163C133.62 163.04 133.78 163.09 133.94 163.16C136.4 164.09 137.67 166.58 137.95 168.28C138.34 170.7 137.43 172.26 134.82 173.66C134.74 173.7 134.66 173.71 134.58 173.71C134.51 173.71 134.44 173.7 134.38 173.66C134.28 173.63 134.19 173.55 134.14 173.45C134.01 173.21 134.1 172.9 134.35 172.77C136.89 171.42 137.23 170.11 136.96 168.43C136.74 167.03 135.71 164.98 133.73 164.16V164.15C133.61 164.1 133.49 164.06 133.36 164.02C133.32 164 133.27 163.99 133.22 163.98C133.06 163.93 132.89 163.89 132.71 163.87C132.59 163.84 132.47 163.82 132.35 163.81C132.03 163.78 131.72 163.77 131.42 163.77C131.23 163.77 131.04 163.78 130.86 163.8C130.76 163.8 130.65 163.81 130.55 163.83C130.19 163.86 129.83 163.93 129.49 164.04C129.35 164.08 129.21 164.12 129.07 164.17C129.02 164.17 128.97 164.19 128.92 164.22C128.65 164.31 128.38 164.43 128.13 164.58C127.98 164.66 127.84 164.74 127.7 164.83C127.4 165 127.12 165.21 126.85 165.45C126.77 165.52 126.7 165.59 126.62 165.67C126.47 165.8 126.32 165.95 126.17 166.11L126.16 166.12C125.97 166.32 125.68 166.33 125.47 166.16C125.47 166.15 125.46 166.15 125.46 166.15C125.26 165.96 125.24 165.65 125.43 165.44C124.9 166.01 124.43 166.68 124.01 167.43C121.94 171.16 123.06 176.53 123.12 176.79L124.98 183.5C123.88 187.44 123.18 192.16 123.39 197.63C124.05 214.84 138.94 223.31 141.21 224.49C141.19 224.3 141.19 224.19 141.19 224.18C141.19 224.1 141.21 224.02 141.24 223.95C141.32 223.79 141.49 223.68 141.68 223.68C141.68 223.68 141.68 223.68 141.69 223.68C141.76 223.68 141.82 223.69 141.88 223.72C141.91 223.73 141.94 223.75 141.96 223.76C143.29 224.3 144.67 224.77 146.12 225.2L146.2 225.22L153.87 226.99L153.94 227C154.69 227.14 155.45 227.26 156.2 227.36C156.28 227.21 156.44 227.12 156.61 227.12H156.62C156.85 227.12 157.04 227.28 157.1 227.49C160.53 227.96 163.94 228.23 167.12 228.36C167.22 228.21 167.41 228.12 167.61 228.16C167.75 228.19 167.86 228.27 167.93 228.39C169.84 228.45 171.66 228.47 173.33 228.43H173.5L177.55 228.28L177.68 228.27L182.31 228.1C182.32 228.04 182.33 228 182.33 227.98C182.39 227.71 182.65 227.54 182.93 227.59C183.12 227.63 183.26 227.77 183.3 227.94C183.33 228.02 183.33 228.1 183.31 228.18C183.31 228.19 183.29 228.29 183.24 228.48C185.6 227.77 201.89 222.27 205.78 205.45C209.65 188.78 203.39 177.63 202.4 176.01ZM185.52 140.23C185.52 140.08 185.54 139.9 185.56 139.69C185.79 138.07 186.91 134.8 192.19 134.24C192.46 134.21 192.71 134.41 192.74 134.69C192.77 134.96 192.57 135.21 192.3 135.24C186.95 135.8 186.51 139.33 186.5 140.29C186.58 140.34 186.66 140.4 186.73 140.46C186.77 140.49 186.82 140.52 186.86 140.56C186.9 140.59 186.94 140.61 186.98 140.65C188 141.33 188.96 142.11 189.88 142.95C190.13 143.16 190.37 143.38 190.61 143.61C190.78 143.76 190.95 143.92 191.11 144.09C191.28 144.25 191.45 144.42 191.61 144.59C192.38 145.37 193.12 146.2 193.82 147.07C193.82 147.08 193.83 147.08 193.83 147.09C193.99 147.3 193.95 147.6 193.74 147.77C193.65 147.85 193.54 147.88 193.43 147.88C193.28 147.88 193.14 147.82 193.04 147.7C192.59 147.14 192.12 146.59 191.63 146.07C191.46 145.88 191.29 145.7 191.12 145.53C190.96 145.35 190.79 145.17 190.61 145C190.36 144.76 190.11 144.52 189.87 144.28C189.61 144.04 189.35 143.8 189.08 143.57C188.73 143.26 188.36 142.97 188 142.67L187.99 142.66C187.66 142.39 187.33 142.13 186.99 141.87C186.93 141.83 186.88 141.78 186.82 141.74C186.46 141.47 186.1 141.22 185.73 140.97C185.72 140.97 185.71 140.95 185.71 140.95C185.68 140.94 185.66 140.91 185.64 140.89C185.6 140.85 185.57 140.8 185.55 140.75C185.53 140.71 185.52 140.67 185.51 140.62C185.51 140.61 185.51 140.61 185.51 140.6C185.51 140.6 185.51 140.59 185.51 140.56C185.51 140.49 185.5 140.37 185.52 140.23ZM175.06 161.4C175.16 161.25 175.35 161.17 175.52 161.18L180.37 161.64C180.39 161.82 180.42 161.99 180.48 162.15C180.53 162.33 180.6 162.51 180.68 162.67C181.08 163.45 181.81 163.98 182.66 164.01C183.42 164.04 184.1 163.66 184.56 163.04C184.67 162.89 184.77 162.74 184.85 162.57C184.92 162.42 184.98 162.25 185.03 162.08L190 162.55C190.18 162.57 190.34 162.69 190.41 162.85C190.49 163.02 190.46 163.22 190.34 163.36C190.26 163.47 188.41 165.73 183.83 165.73C183.38 165.73 182.9 165.71 182.4 165.66C176.77 165.13 175.1 162.04 175.03 161.91C174.95 161.73 174.96 161.54 175.06 161.4ZM165.34 168.62C165.21 168.74 165.1 168.87 165.02 169.02C164.93 169.17 164.87 169.33 164.85 169.5C164.84 169.55 164.83 169.61 164.83 169.66C164.81 170.21 165.14 170.75 165.73 171.12C166.21 171.42 166.83 171.61 167.49 171.65C167.55 171.66 167.61 171.67 167.67 171.67H167.84C168.01 171.67 168.18 171.66 168.34 171.64C169.07 171.56 169.72 171.3 170.14 170.91C170.4 170.67 170.56 170.39 170.62 170.09C170.64 170.01 170.65 169.94 170.65 169.86C170.65 169.76 170.65 169.66 170.62 169.56C170.59 169.39 170.53 169.23 170.44 169.08C171.88 168.54 173.94 168.2 176.74 168.62C177.92 168.72 178.97 169.28 179.77 170.23C180.78 171.45 181.31 173.25 181.15 174.94C180.97 176.86 180.25 178.42 179.13 179.34C178.34 179.99 177.37 180.32 176.25 180.32C176.04 180.32 175.83 180.31 175.61 180.28C170.29 180.09 168.08 177.75 167.34 176.66C166.22 177.46 163.21 179.25 159.28 178.71C153.53 177.9 153.48 173.62 153.6 172.33L153.61 172.32C153.75 170.88 155.32 166.82 160.38 167.13C162.39 167.23 164.06 167.87 165.34 168.62ZM146.82 141.98C146.83 141.97 146.84 141.96 146.85 141.95C146.87 141.93 146.88 141.91 146.9 141.9C146.93 141.87 146.97 141.85 147 141.83C147.27 141.6 147.55 141.39 147.84 141.18C148.02 141.04 148.2 140.91 148.39 140.79C148.63 140.6 148.88 140.43 149.13 140.27C149.34 140.12 149.54 139.98 149.75 139.86C150.16 139.59 150.57 139.34 150.98 139.1C151.18 138.97 151.39 138.85 151.59 138.75C151.8 138.63 152 138.51 152.2 138.41C152.6 138.19 153 137.99 153.41 137.8C153.6 137.7 153.8 137.6 154 137.52C154 137.49 154 137.46 154.01 137.43C154.06 137.25 155.15 132.92 149.32 131.15C149.05 131.07 148.91 130.79 148.99 130.52C149.07 130.26 149.34 130.11 149.61 130.19C155.02 131.83 155.22 135.59 155.07 137.07C155.05 137.33 155.01 137.53 154.99 137.62C154.98 137.67 154.97 137.7 154.97 137.7C154.95 137.77 154.91 137.84 154.86 137.89C154.86 138.08 154.75 138.27 154.57 138.35C153.59 138.79 152.63 139.29 151.69 139.84C151.43 139.99 151.18 140.14 150.92 140.3C150.51 140.55 150.1 140.81 149.69 141.09C149.53 141.2 149.37 141.31 149.2 141.43C149.2 141.43 149.19 141.44 149.18 141.44C148.62 141.83 148.06 142.25 147.52 142.68C147.43 142.76 147.32 142.79 147.21 142.79C147.06 142.79 146.93 142.73 146.83 142.61L146.82 142.6C146.67 142.42 146.67 142.17 146.82 141.98ZM146.37 158.67C146.47 158.52 146.65 158.44 146.83 158.46L151.68 158.92C151.7 159.1 151.74 159.27 151.79 159.43C151.84 159.61 151.91 159.79 151.99 159.95C152.39 160.73 153.12 161.26 153.96 161.29C154.71 161.32 155.4 160.94 155.86 160.32C155.97 160.17 156.07 160.01 156.15 159.84C156.23 159.69 156.29 159.52 156.34 159.36L161.31 159.83C161.49 159.85 161.65 159.96 161.72 160.13C161.79 160.3 161.77 160.49 161.65 160.64C161.57 160.74 159.72 163.01 155.14 163.01C154.69 163.01 154.21 162.99 153.71 162.94C148.08 162.4 146.41 159.32 146.34 159.18C146.25 159.01 146.26 158.82 146.37 158.67ZM197.01 206.65C196.75 206.9 191.99 211.55 187.59 211.55C186.85 211.55 186.13 211.42 185.43 211.11C185 210.92 184.6 210.67 184.23 210.37C184 210.18 183.78 209.97 183.58 209.73C183.47 209.61 183.37 209.49 183.29 209.36C183.19 209.22 183.1 209.08 183.03 208.94C182.96 208.82 182.9 208.7 182.85 208.57C182.83 208.52 182.81 208.47 182.79 208.42C182.75 208.31 182.71 208.2 182.69 208.09C182.67 208.03 182.65 207.97 182.64 207.91C182.6 207.77 182.57 207.62 182.56 207.47C182.45 206.71 182.52 205.82 182.86 204.78C182.9 204.65 182.95 204.51 183.01 204.36C183.02 204.3 183.05 204.24 183.07 204.18C183.12 204.04 183.19 203.89 183.26 203.74C183.33 203.57 183.41 203.4 183.5 203.22C183.61 203.01 183.73 202.79 183.86 202.56C183.98 202.34 184.12 202.11 184.26 201.89C184.26 201.88 184.27 201.88 184.27 201.87C186.67 198.07 190.69 194.73 190.93 194.53C191.14 194.36 191.45 194.39 191.63 194.6C191.81 194.81 191.78 195.13 191.56 195.3C191.5 195.35 187.45 198.72 185.12 202.4C185.09 202.45 185.06 202.5 185.03 202.54L190.94 209.69C190.96 209.69 190.98 209.68 191 209.66C193.84 208.34 196.26 205.98 196.3 205.94C196.5 205.75 196.82 205.75 197.01 205.95C197.2 206.13 197.2 206.46 197.01 206.65ZM202.29 176.34C202.24 176.42 202.2 176.5 202.15 176.57C202.05 176.74 201.95 176.9 201.84 177.06C195.88 186.37 182.31 190.25 170.35 190.25C169.86 190.25 169.37 190.24 168.88 190.23C169.47 190.63 170.01 191.11 170.48 191.68C171.74 193.2 172.33 195.13 172.14 197.09C171.78 200.92 168.55 203.8 164.78 203.8C164.54 203.8 164.31 203.79 164.07 203.77C162.1 203.58 160.32 202.64 159.07 201.11C157.8 199.59 157.21 197.66 157.4 195.7C157.59 193.73 158.53 191.95 160.05 190.69C160.59 190.25 161.17 189.89 161.79 189.62C144.27 187.4 138.61 182.32 138.37 182.09C138.16 181.9 138.15 181.59 138.34 181.38C138.53 181.18 138.84 181.17 139.05 181.36C139.11 181.41 145.53 187.13 165.47 189.02C178.37 190.26 195.1 186.66 201.4 175.87C201.41 175.86 201.41 175.85 201.42 175.84C201.53 175.64 201.76 175.55 201.98 175.61C202.02 175.61 202.07 175.63 202.11 175.66C202.34 175.8 202.43 176.1 202.29 176.34Z" fill="#21232E"/>
    <path d="M155.07 137.07C155.05 137.33 155.01 137.53 154.99 137.62C154.98 137.67 154.97 137.7 154.97 137.7C154.95 137.77 154.91 137.84 154.86 137.89C154.86 138.08 154.75 138.27 154.57 138.35C153.59 138.79 152.63 139.29 151.69 139.84C151.43 139.98 151.17 140.13 150.92 140.3C150.51 140.55 150.1 140.81 149.69 141.09C149.53 141.2 149.36 141.31 149.2 141.42V141.43C149.2 141.43 149.19 141.44 149.18 141.44C148.62 141.83 148.06 142.25 147.52 142.68C147.43 142.76 147.32 142.79 147.21 142.79C147.06 142.79 146.93 142.73 146.83 142.61L146.82 142.6C146.67 142.42 146.67 142.16 146.82 141.98C146.83 141.97 146.84 141.96 146.85 141.95C146.9 141.91 146.95 141.87 147 141.83C147.27 141.6 147.55 141.39 147.84 141.18C148.02 141.04 148.2 140.91 148.39 140.79C148.63 140.6 148.88 140.43 149.13 140.27C149.33 140.13 149.54 139.99 149.75 139.86C150.16 139.59 150.57 139.34 150.98 139.1C151.19 138.98 151.39 138.86 151.59 138.75C151.8 138.63 152 138.51 152.2 138.41C152.61 138.2 153.01 137.99 153.41 137.8C153.6 137.7 153.8 137.6 154 137.52C154 137.49 154 137.46 154.01 137.43C154.06 137.25 155.15 132.92 149.32 131.15C149.05 131.07 148.91 130.79 148.99 130.52C149.07 130.26 149.34 130.11 149.61 130.19C155.02 131.83 155.22 135.59 155.07 137.07Z" fill="white"/>
    <path d="M193.74 147.76C193.65 147.84 193.54 147.87 193.43 147.87C193.28 147.87 193.14 147.81 193.04 147.69C192.59 147.13 192.12 146.58 191.63 146.06C191.46 145.87 191.29 145.69 191.12 145.52C190.96 145.34 190.79 145.16 190.61 144.99C190.36 144.75 190.11 144.51 189.87 144.27C189.61 144.02 189.35 143.78 189.08 143.56C188.73 143.25 188.36 142.96 188 142.66L187.99 142.65C187.66 142.38 187.33 142.12 186.99 141.86C186.93 141.82 186.88 141.77 186.82 141.73C186.46 141.46 186.1 141.21 185.73 140.96C185.72 140.96 185.71 140.94 185.71 140.94C185.68 140.93 185.66 140.9 185.64 140.88C185.6 140.84 185.57 140.79 185.55 140.74C185.53 140.7 185.52 140.66 185.51 140.61C185.51 140.6 185.51 140.6 185.51 140.59C185.51 140.59 185.51 140.58 185.51 140.55C185.51 140.49 185.5 140.37 185.52 140.22C185.52 140.07 185.54 139.89 185.56 139.68C185.79 138.06 186.91 134.79 192.19 134.23C192.46 134.2 192.71 134.4 192.74 134.68C192.77 134.95 192.57 135.2 192.3 135.23C186.95 135.79 186.51 139.32 186.5 140.28C186.58 140.33 186.66 140.39 186.73 140.45C186.77 140.48 186.82 140.51 186.86 140.55C186.9 140.58 186.94 140.6 186.98 140.64C188 141.32 188.96 142.1 189.88 142.94C190.13 143.15 190.37 143.37 190.61 143.6C190.78 143.75 190.95 143.91 191.11 144.08C191.28 144.24 191.45 144.41 191.61 144.58C192.38 145.36 193.12 146.19 193.82 147.06C193.82 147.07 193.83 147.07 193.83 147.08C193.99 147.29 193.95 147.59 193.74 147.76Z" fill="white"/>
    <path d="M197.01 206.65C196.75 206.9 191.99 211.55 187.59 211.55C186.85 211.55 186.13 211.42 185.43 211.11C185 210.92 184.6 210.67 184.23 210.37C184 210.18 183.78 209.97 183.58 209.73C183.48 209.61 183.38 209.49 183.29 209.36C183.19 209.22 183.1 209.08 183.03 208.94C182.96 208.82 182.9 208.7 182.85 208.57C182.83 208.52 182.81 208.47 182.79 208.42C182.75 208.31 182.72 208.21 182.69 208.09C182.67 208.03 182.65 207.97 182.64 207.91C182.6 207.77 182.57 207.62 182.56 207.47C182.45 206.71 182.52 205.82 182.86 204.78C182.9 204.65 182.95 204.51 183.01 204.36C183.02 204.3 183.05 204.24 183.07 204.18C183.12 204.04 183.19 203.89 183.26 203.74C183.33 203.57 183.41 203.4 183.5 203.22C183.61 203.01 183.73 202.79 183.86 202.56C183.98 202.34 184.12 202.11 184.26 201.89C184.26 201.88 184.27 201.88 184.27 201.87C186.67 198.07 190.69 194.73 190.93 194.53C191.14 194.36 191.45 194.39 191.63 194.6C191.81 194.81 191.78 195.13 191.56 195.3C191.5 195.35 187.45 198.72 185.12 202.4C185.09 202.45 185.06 202.5 185.03 202.54L190.94 209.69C190.96 209.69 190.98 209.68 191 209.66C193.84 208.34 196.26 205.98 196.3 205.94C196.5 205.75 196.82 205.75 197.01 205.95C197.2 206.13 197.2 206.46 197.01 206.65Z" fill="white"/>
    <path d="M202.11 175.67C202.07 175.64 202.02 175.62 201.98 175.62C201.76 175.56 201.53 175.65 201.42 175.85C201.41 175.86 201.41 175.87 201.4 175.88C195.1 186.67 178.37 190.27 165.47 189.03C145.53 187.14 139.11 181.42 139.05 181.37C138.84 181.18 138.53 181.19 138.34 181.39C138.15 181.6 138.16 181.91 138.37 182.1C138.61 182.33 144.27 187.41 161.79 189.63C161.17 189.9 160.59 190.26 160.05 190.7C158.53 191.96 157.59 193.74 157.4 195.71C157.21 197.67 157.8 199.6 159.07 201.12C160.32 202.65 162.1 203.59 164.07 203.78C164.31 203.8 164.54 203.81 164.78 203.81C168.55 203.81 171.78 200.93 172.14 197.1C172.33 195.14 171.74 193.21 170.48 191.69C170.01 191.12 169.47 190.64 168.88 190.24C169.37 190.25 169.86 190.26 170.35 190.26C182.31 190.26 195.88 186.38 201.84 177.07C201.95 176.91 202.05 176.75 202.15 176.58C202.2 176.51 202.24 176.43 202.29 176.35C202.43 176.1 202.34 175.8 202.11 175.67ZM164.3 196.35C164.31 196.24 164.37 196.13 164.45 196.06C164.53 196 164.63 195.96 164.73 195.96H164.77C164.88 195.97 164.99 196.03 165.06 196.12C165.13 196.21 165.17 196.32 165.16 196.43C165.14 196.57 165.06 196.7 164.94 196.76C164.87 196.81 164.78 196.83 164.69 196.82C164.59 196.81 164.51 196.77 164.45 196.71C164.35 196.63 164.29 196.5 164.3 196.35ZM169.71 192.32C170.8 193.63 171.31 195.3 171.15 197C170.82 200.37 167.97 202.87 164.63 202.79L165.1 197.76C165.66 197.62 166.09 197.14 166.15 196.53C166.19 196.15 166.07 195.77 165.83 195.48C165.59 195.19 165.24 195 164.86 194.97C164.48 194.94 164.11 195.05 163.82 195.29C163.52 195.53 163.34 195.88 163.3 196.26C163.25 196.87 163.59 197.43 164.11 197.68L163.63 202.69C162.14 202.43 160.81 201.65 159.84 200.48C158.75 199.16 158.23 197.49 158.4 195.79C158.71 192.48 161.51 189.99 164.77 189.99C164.97 189.99 165.17 190 165.38 190.02C167.08 190.19 168.62 191 169.71 192.32Z" fill="white"/>
    <path d="M164.69 196.82C164.59 196.81 164.51 196.77 164.45 196.71C164.35 196.63 164.29 196.5 164.3 196.35C164.31 196.24 164.37 196.13 164.45 196.06C164.53 196 164.63 195.96 164.73 195.96H164.77C164.88 195.97 164.99 196.03 165.06 196.12C165.13 196.21 165.17 196.32 165.16 196.43C165.14 196.57 165.06 196.7 164.94 196.76C164.87 196.81 164.78 196.83 164.69 196.82Z" fill="#21232E"/>
    <path d="M171.15 197C170.82 200.37 167.97 202.87 164.63 202.79L165.1 197.76C165.66 197.62 166.09 197.14 166.15 196.53C166.19 196.15 166.07 195.77 165.83 195.48C165.59 195.19 165.24 195 164.86 194.97C164.48 194.94 164.11 195.05 163.82 195.29C163.52 195.53 163.34 195.88 163.3 196.26C163.25 196.87 163.59 197.43 164.11 197.68L163.63 202.69C162.14 202.43 160.81 201.65 159.84 200.48C158.75 199.16 158.23 197.49 158.4 195.79C158.71 192.48 161.51 189.99 164.77 189.99C164.97 189.99 165.17 190 165.38 190.02C167.08 190.18 168.62 191 169.71 192.32C170.8 193.63 171.31 195.3 171.15 197Z" fill="#21232E"/>
    <path d="M164.94 196.76C164.87 196.81 164.78 196.83 164.69 196.82C164.59 196.81 164.51 196.77 164.45 196.71L164.94 196.76Z" fill="white"/>
    <path d="M134.58 173.22C137.09 171.88 137.79 170.47 137.45 168.36C137.15 166.52 135.55 163.62 132.4 163.32C129.92 163.08 127.6 163.8 125.8 165.78L134.58 173.22Z" fill="white"/>
    <path d="M134.82 173.67C134.74 173.71 134.66 173.72 134.58 173.72C134.51 173.72 134.44 173.71 134.38 173.67C134.28 173.64 134.19 173.56 134.14 173.46C134.01 173.22 134.1 172.91 134.35 172.78C136.89 171.43 137.23 170.12 136.96 168.44C136.74 167.04 135.71 164.99 133.73 164.17V164.16C133.61 164.11 133.49 164.07 133.36 164.03C133.32 164.01 133.27 164 133.22 163.99C133.06 163.94 132.89 163.9 132.71 163.88C132.59 163.85 132.47 163.83 132.35 163.82C132.03 163.79 131.72 163.78 131.42 163.78C131.23 163.78 131.04 163.79 130.86 163.81C130.76 163.81 130.65 163.82 130.55 163.84C130.19 163.87 129.83 163.94 129.49 164.05C129.35 164.08 129.21 164.12 129.07 164.18C129.02 164.18 128.97 164.2 128.92 164.23C128.65 164.32 128.38 164.44 128.13 164.59C127.98 164.66 127.84 164.74 127.7 164.84C127.4 165.01 127.12 165.22 126.85 165.46C126.77 165.52 126.7 165.59 126.62 165.68C126.47 165.81 126.32 165.96 126.17 166.12L126.16 166.13C125.97 166.33 125.68 166.34 125.47 166.17C125.47 166.16 125.46 166.16 125.46 166.16C125.26 165.97 125.24 165.66 125.43 165.45C125.53 165.34 125.63 165.23 125.74 165.13C125.84 165.03 125.94 164.93 126.04 164.84C126.49 164.44 126.96 164.1 127.46 163.81C127.94 163.54 128.45 163.33 128.98 163.16C129.25 163.07 129.52 163 129.8 162.95C130.06 162.9 130.33 162.86 130.6 162.83C131.2 162.77 131.81 162.76 132.45 162.82C132.61 162.84 132.77 162.86 132.93 162.89C133.11 162.92 133.28 162.96 133.45 163.01C133.62 163.05 133.78 163.1 133.94 163.17C136.4 164.1 137.67 166.59 137.95 168.29C138.34 170.71 137.43 172.26 134.82 173.67Z" fill="#21232E"/>
    <path d="M161.65 160.63C161.57 160.73 159.72 163 155.14 163C154.69 163 154.21 162.98 153.71 162.93C148.08 162.39 146.41 159.31 146.34 159.17C146.25 159.01 146.26 158.82 146.37 158.66C146.47 158.51 146.65 158.43 146.83 158.45L151.68 158.91C151.7 159.09 151.74 159.26 151.79 159.42C151.84 159.6 151.91 159.78 151.99 159.94C152.39 160.72 153.12 161.25 153.96 161.28C154.71 161.31 155.4 160.93 155.86 160.31C155.97 160.16 156.07 160 156.15 159.83C156.23 159.68 156.29 159.51 156.34 159.35L161.31 159.82C161.49 159.84 161.65 159.95 161.72 160.12C161.79 160.29 161.77 160.48 161.65 160.63Z" fill="white"/>
    <path d="M190.34 163.35C190.26 163.46 188.41 165.72 183.83 165.72C183.38 165.72 182.9 165.7 182.4 165.65C176.77 165.12 175.1 162.03 175.03 161.9C174.95 161.73 174.96 161.54 175.06 161.39C175.16 161.24 175.35 161.16 175.52 161.17L180.37 161.63C180.39 161.81 180.42 161.98 180.48 162.14C180.53 162.32 180.6 162.5 180.68 162.66C181.08 163.44 181.81 163.97 182.66 164C183.42 164.03 184.1 163.65 184.56 163.03C184.67 162.88 184.77 162.73 184.85 162.56C184.92 162.41 184.98 162.24 185.03 162.07L190 162.54C190.18 162.56 190.34 162.68 190.41 162.84C190.49 163.01 190.46 163.21 190.34 163.35Z" fill="white"/>
    <path d="M190.97 225.37C190.72 226.61 186.73 229.05 183.41 231.07C183.32 231.13 183.24 231.17 183.16 231.22C183.15 231.22 183.15 231.23 183.14 231.23C182.17 231.82 181.2 232.4 180.29 232.98C178.43 234.15 170.92 234.94 168.19 235.14C167.91 235.16 167.7 235.4 167.72 235.68C167.74 235.94 167.96 236.14 168.22 236.14H168.26C168.67 236.11 178.37 235.37 180.83 233.82C181.72 233.25 182.68 232.68 183.64 232.09C183.65 232.09 183.66 232.09 183.67 232.08C185.82 230.79 188.08 229.84 188.67 229.98C188.41 230.75 185.53 232.72 182.51 234.39C182.35 234.44 182.19 234.53 182.05 234.63C180.6 235.41 179.15 236.1 177.96 236.56C177.94 236.56 177.92 236.57 177.89 236.58C177.55 236.69 177.22 236.8 176.91 236.9C176.77 236.94 176.62 236.98 176.48 237.02C172.92 237.96 168.73 238.03 168.68 238.03C168.4 238.03 168.18 238.26 168.19 238.54C168.19 238.81 168.41 239.03 168.69 239.03C168.83 239.03 171.18 238.99 173.89 238.57C173.98 238.62 174.09 238.64 174.2 238.62C174.29 238.6 175.3 238.41 176.68 238.01C176.77 237.98 176.86 237.96 176.95 237.93C177.13 237.88 177.31 237.83 177.48 237.78C177.64 237.73 177.81 237.67 178 237.6C178.05 237.59 178.1 237.57 178.15 237.55C178.26 237.51 178.37 237.46 178.49 237.42C179.26 237.16 180.05 236.83 180.83 236.46C180.31 237 179.72 237.59 179.16 238.13C165.82 242.91 156.66 240.12 149.97 238.08C147.95 237.46 146.2 236.93 144.6 236.68C138.08 235.66 129.84 233.49 127 232.72C127.37 232.27 127.77 231.67 128.18 230.95C129.82 228.11 131.57 223.62 132.18 220.86C132.38 219.98 132.46 219.33 132.46 218.82L132.56 218.61L150.25 223.03C150.43 223.08 150.64 223.01 150.76 222.86C150.78 222.84 152.48 220.81 159.76 218.24C161.78 217.53 163.63 216.75 165.26 216.05C167.87 214.95 170.32 213.91 171.1 214.32C171.19 214.37 171.3 214.46 171.35 214.75C171.51 215.6 167.14 218.7 165.04 220.19C161.59 222.64 160.71 223.31 161.15 224.01C161.22 224.12 161.33 224.2 161.45 224.23C161.55 224.26 162.34 224.45 163.52 224.66C163.52 224.66 163.52 224.66 163.53 224.66C166.57 225.22 172.22 225.91 175.74 224.31C177.84 223.35 179.39 222.59 180.64 221.98C181.07 221.77 181.45 221.58 181.81 221.41H181.82C183.87 220.42 184.91 220.02 186.59 219.91C187 219.88 187.18 219.96 187.19 220.01C187.23 220.11 187.21 220.27 187.14 220.46C186.76 221.52 184.83 223.78 182.23 225.58C178.72 228.01 176.39 229.45 169.1 230.76C168.83 230.81 168.65 231.07 168.7 231.34C168.74 231.58 168.95 231.75 169.19 231.75H169.28C176.33 230.48 178.98 229.02 182.21 226.81C182.31 226.84 182.43 226.84 182.54 226.8C186.17 225.41 190.41 224.42 190.93 225.16C190.97 225.21 190.99 225.26 190.97 225.37Z" fill="white"/>
    <path d="M150.39 239.25C146.41 238.22 140.18 237.03 140.18 237.03L138.47 236.54C140.49 236.98 142.54 237.37 144.45 237.67C145.98 237.91 147.7 238.43 149.68 239.04C149.91 239.11 150.15 239.19 150.39 239.25Z" fill="white"/>
    <path d="M153.9 240.26C153.58 240.19 153.3 240.11 153.04 240.03C153.32 240.1 153.61 240.19 153.9 240.26Z" fill="white"/>
    <path d="M176.68 238.01C175.3 238.41 174.29 238.6 174.2 238.62C174.09 238.64 173.98 238.62 173.89 238.57C174.8 238.44 175.76 238.25 176.68 238.01Z" fill="white"/>
    <path d="M177.89 236.58C177.64 236.67 177.4 236.75 177.18 236.82C177.09 236.85 177 236.87 176.91 236.9C177.22 236.8 177.55 236.69 177.89 236.58Z" fill="white"/>
    <path d="M178 237.6C177.81 237.67 177.64 237.73 177.48 237.78C177.31 237.83 177.13 237.88 176.95 237.93C177.28 237.83 177.64 237.73 178 237.6Z" fill="white"/>
    <path d="M182.05 234.63C182.01 234.65 181.97 234.68 181.94 234.7C180.76 235.47 179.3 236.09 177.96 236.56C179.15 236.1 180.6 235.42 182.05 234.63Z" fill="white"/>
    <path d="M182.51 234.4C182.36 234.48 182.21 234.56 182.05 234.64C182.19 234.53 182.35 234.44 182.51 234.4Z" fill="white"/>
    <path d="M152.89 239.99C152.05 239.75 151.24 239.51 150.46 239.27C151.38 239.51 152.18 239.74 152.75 239.94C152.8 239.96 152.84 239.98 152.89 239.99Z" fill="#21232E"/>
    <path d="M191.95 225.57C191.75 226.52 190.57 227.6 188.58 228.98C188.81 228.98 189.02 229.02 189.18 229.1C189.53 229.29 189.72 229.61 189.69 229.99C189.59 231.18 186.49 233.32 183.32 235.07C183.1 235.57 182.24 236.56 179.78 238.93C179.72 238.98 179.66 239.01 179.6 239.04C174 241.05 169.12 241.77 164.85 241.77C160.66 241.77 157.05 241.08 153.9 240.26C153.61 240.18 153.32 240.1 153.04 240.03C152.99 240.01 152.94 240 152.89 239.99C152.84 239.97 152.8 239.96 152.75 239.94C152.18 239.74 151.38 239.51 150.46 239.27C150.44 239.27 150.41 239.26 150.39 239.25C150.15 239.18 149.91 239.11 149.68 239.04C147.7 238.43 145.98 237.91 144.45 237.67C142.54 237.37 140.49 236.98 138.47 236.54C132.93 235.36 127.61 233.92 126.11 233.5C126.27 233.43 126.44 233.31 126.62 233.13C126.74 233.02 126.87 232.88 127 232.72C129.84 233.49 138.08 235.66 144.6 236.68C146.2 236.93 147.95 237.46 149.97 238.08C156.66 240.12 165.82 242.91 179.16 238.13C179.72 237.59 180.31 237 180.83 236.46C180.05 236.83 179.26 237.16 178.49 237.42C178.37 237.46 178.26 237.51 178.15 237.55C178.1 237.57 178.05 237.59 178 237.6C177.64 237.72 177.28 237.83 176.95 237.93C176.86 237.96 176.77 237.98 176.68 238.01C175.76 238.25 174.8 238.43 173.89 238.57C171.18 238.99 168.83 239.03 168.69 239.03C168.41 239.03 168.19 238.81 168.19 238.54C168.18 238.26 168.4 238.03 168.68 238.03C168.73 238.03 172.92 237.96 176.48 237.02C176.62 236.98 176.77 236.94 176.91 236.9C177 236.87 177.09 236.85 177.18 236.82C177.4 236.75 177.64 236.67 177.89 236.58C177.92 236.57 177.94 236.56 177.96 236.56C179.3 236.09 180.76 235.47 181.94 234.7C181.97 234.68 182.01 234.65 182.05 234.63C182.21 234.55 182.36 234.47 182.51 234.39C185.53 232.72 188.41 230.75 188.67 229.98C188.08 229.84 185.82 230.79 183.67 232.08C183.66 232.09 183.65 232.09 183.64 232.09C182.68 232.68 181.72 233.25 180.83 233.82C178.37 235.37 168.67 236.11 168.26 236.14H168.22C167.96 236.14 167.74 235.94 167.72 235.68C167.7 235.4 167.91 235.16 168.19 235.14C170.92 234.94 178.43 234.15 180.29 232.98C181.2 232.4 182.17 231.82 183.14 231.23C183.15 231.23 183.15 231.22 183.16 231.22C183.24 231.17 183.32 231.13 183.41 231.07C186.73 229.05 190.72 226.61 190.97 225.37C190.99 225.26 190.97 225.21 190.93 225.16C190.41 224.42 186.17 225.41 182.54 226.8C182.43 226.84 182.31 226.84 182.21 226.81C178.98 229.02 176.33 230.48 169.28 231.75H169.19C168.95 231.75 168.74 231.58 168.7 231.34C168.65 231.07 168.83 230.81 169.1 230.76C176.39 229.45 178.72 228.01 182.23 225.58C184.83 223.78 186.76 221.52 187.14 220.46C187.21 220.27 187.23 220.11 187.19 220.01C187.18 219.96 187 219.88 186.59 219.91C184.91 220.02 183.87 220.42 181.82 221.41H181.81C181.45 221.58 181.07 221.77 180.64 221.98C179.39 222.59 177.84 223.35 175.74 224.31C172.22 225.91 166.57 225.22 163.53 224.66C163.52 224.66 163.52 224.66 163.52 224.66C162.34 224.45 161.55 224.26 161.45 224.23C161.33 224.2 161.22 224.12 161.15 224.01C160.71 223.31 161.59 222.64 165.04 220.19C167.14 218.7 171.51 215.6 171.35 214.75C171.3 214.46 171.19 214.37 171.1 214.32C170.32 213.91 167.87 214.95 165.26 216.05C163.63 216.75 161.78 217.53 159.76 218.24C152.48 220.81 150.78 222.84 150.76 222.86C150.64 223.01 150.43 223.08 150.25 223.03L132.56 218.61L132.47 218.58C132.45 218.1 132.36 217.79 132.26 217.58C132.35 217.55 132.44 217.54 132.54 217.56L150.2 221.99C150.88 221.34 153.18 219.5 159.43 217.3C161.42 216.6 163.25 215.82 164.87 215.13C168.19 213.73 170.37 212.8 171.57 213.44C171.98 213.66 172.24 214.04 172.34 214.57C172.59 215.94 169.84 218.01 165.62 221C164.45 221.84 163.04 222.83 162.39 223.41C163.25 223.6 164.82 223.9 166.65 224.11C166.65 224.11 166.65 224.11 166.66 224.11C166.67 224.11 166.67 224.11 166.68 224.11H166.69C169.54 224.42 173 224.46 175.32 223.4C176.42 222.9 177.37 222.45 178.2 222.05C178.21 222.05 178.21 222.05 178.21 222.05C178.96 221.69 179.61 221.37 180.2 221.08C183.14 219.65 184.36 219.05 186.53 218.91C187.61 218.84 188 219.29 188.14 219.69C188.2 219.86 188.21 220.06 188.18 220.27C188.03 221.56 186.35 223.48 184.55 225.04C187.2 224.18 190.85 223.31 191.75 224.58C191.95 224.86 192.02 225.21 191.95 225.57Z" fill="#21232E"/>
    <path d="M176.68 238.01C175.3 238.41 174.29 238.6 174.2 238.62C174.09 238.64 173.98 238.62 173.89 238.57C174.8 238.44 175.76 238.25 176.68 238.01Z" fill="#21232E"/>
    <path d="M177.89 236.58C177.64 236.67 177.4 236.75 177.18 236.82C177.09 236.85 177 236.87 176.91 236.9C177.22 236.8 177.55 236.69 177.89 236.58Z" fill="#21232E"/>
    <path d="M182.51 234.4C182.36 234.48 182.21 234.56 182.05 234.64C182.19 234.53 182.35 234.44 182.51 234.4Z" fill="#21232E"/>
    <path d="M178 237.6C177.81 237.67 177.64 237.73 177.48 237.78C177.31 237.83 177.13 237.88 176.95 237.93C177.28 237.83 177.64 237.73 178 237.6Z" fill="#21232E"/>
    <path d="M182.05 234.63C182.01 234.65 181.97 234.68 181.94 234.7C180.76 235.47 179.3 236.09 177.96 236.56C179.15 236.1 180.6 235.42 182.05 234.63Z" fill="#21232E"/>
    <path d="M131.2 220.65C131.06 221.29 130.88 221.98 130.66 222.68C129.69 225.79 128.11 229.28 126.9 231.19C126.64 231.6 126.4 231.94 126.19 232.18C126.1 232.28 126.02 232.37 125.94 232.44C125.85 232.52 125.77 232.58 125.69 232.61C125.59 232.65 125.49 232.69 125.39 232.72C123.91 233.27 122.04 233.14 120.28 232.37C120.2 232.34 120.11 232.3 120.03 232.26C121.46 230.27 126.7 222.64 127.11 216.89V216.88C127.14 216.6 127.15 216.33 127.14 216.06C127.3 216.06 127.51 216.07 127.74 216.11C128.7 216.22 130.15 216.64 131.33 218C131.37 218.03 131.69 218.48 131.2 220.65Z" fill="#FFC980"/>
    <path d="M132.26 217.58C132.2 217.48 132.14 217.4 132.09 217.34C129.99 214.91 127.2 215.02 126.65 215.07H126.57C115.85 205.78 104.11 199.84 97.69 196.99C97.61 197.14 97.45 197.24 97.27 197.24C97.24 197.24 97.21 197.23 97.18 197.23C96.9 197.18 96.73 196.92 96.78 196.64C96.78 196.63 96.78 196.61 96.79 196.6C94.35 195.54 92.89 195.01 92.83 194.99C92.57 194.9 92.29 195.04 92.19 195.29C92.1 195.55 92.24 195.84 92.5 195.93C92.69 196 110.56 202.44 126.14 216.02C126.27 221.78 119.97 230.64 119 231.96C103.61 233.95 70.23 215.77 69.9 215.58C68.39 214.76 67.15 213.66 66.14 212.44C66.13 212.43 66.12 212.42 66.12 212.41C62.51 208.04 61.73 202.14 61.72 202.07L61.67 201.9C60.03 198.66 62.68 168.78 63.84 157.51C63.84 157.46 63.91 156.22 64.04 154.3V154.21C64.43 148.33 65.39 136.25 66.9 131.98C69.69 124.1 84.13 120.1 86.99 119.37C90.63 118.46 101.8 116.73 103.64 116.45C103.64 116.35 103.68 116.25 103.74 116.17C103.78 116.12 103.83 116.06 103.86 116.01C103.98 115.87 104.09 115.73 104.19 115.58C104.08 115.46 103.92 115.41 103.75 115.43C103.22 115.51 90.75 117.4 86.75 118.41C83.79 119.15 68.92 123.29 65.95 131.65C63.88 137.48 62.89 156.65 62.85 157.44C62.68 159.09 58.72 197.69 60.73 202.27C60.88 203.3 62.33 212.62 69.42 216.46C70.73 217.18 100 233.12 116.45 233.12C117.41 233.12 118.33 233.07 119.19 232.95H119.2C120.57 233.68 122.04 234.05 123.43 234.05C124.38 234.05 125.29 233.87 126.1 233.51L126.11 233.5C126.27 233.43 126.44 233.31 126.62 233.13C126.74 233.02 126.87 232.88 127 232.72C127.37 232.27 127.77 231.67 128.18 230.95C129.82 228.11 131.57 223.62 132.18 220.86C132.38 219.98 132.46 219.33 132.46 218.82C132.47 218.74 132.47 218.66 132.47 218.58C132.45 218.1 132.36 217.79 132.26 217.58ZM131.2 220.65C131.06 221.29 130.88 221.98 130.66 222.68C129.69 225.79 128.11 229.28 126.9 231.19C126.64 231.6 126.4 231.94 126.19 232.18C126.1 232.28 126.02 232.37 125.94 232.44C125.85 232.52 125.77 232.58 125.69 232.61C125.59 232.65 125.49 232.69 125.39 232.72C123.91 233.27 122.04 233.14 120.28 232.37C120.2 232.34 120.11 232.3 120.03 232.26C121.46 230.27 126.7 222.64 127.11 216.89V216.88C127.14 216.6 127.15 216.33 127.14 216.06C127.3 216.06 127.51 216.07 127.74 216.11C128.7 216.22 130.15 216.64 131.33 218C131.37 218.03 131.69 218.48 131.2 220.65Z" fill="#21232E"/>
</svg>
