<svg width="242" height="87" viewBox="0 0 242 87" fill="none" xmlns="http://www.w3.org/2000/svg">
    <path d="M77.3879 2.48535V2.60199C77.3879 2.55534 77.388 2.52034 77.3996 2.48535H77.3879Z" fill="#21232E"/>
    <path d="M92.7037 8.68786C92.6339 8.58293 92.4708 8.32642 92.5523 8.1632C92.6222 8.02329 92.9716 7.77847 93.8102 7.77847H194.243C195.652 7.77847 197.364 8.5013 197.981 9.36405L227.25 50.0067C227.32 50.1116 227.483 50.3681 227.402 50.5196C227.332 50.6712 226.982 50.916 226.144 50.916H125.711C124.302 50.916 122.59 50.1815 121.973 49.3304L92.7037 8.68786Z" fill="#21232E"/>
    <path d="M240.179 56.3724C240.167 56.384 240.144 56.384 240.12 56.384L240.109 56.3724H240.179Z" fill="#21232E"/>
    <path d="M241.879 55.7894C241.891 55.8361 241.891 55.871 241.891 55.906V55.7894H241.879ZM240.12 56.384C240.144 56.384 240.167 56.384 240.179 56.3724H240.109L240.12 56.384Z" fill="#21232E"/>
    <path d="M227.25 50.0067C227.32 50.1116 227.483 50.3681 227.402 50.5196C227.332 50.6712 226.982 50.916 226.144 50.916H125.711C124.302 50.916 122.59 50.1815 121.973 49.3304L92.7037 8.68786C92.6339 8.58293 92.4708 8.32642 92.5523 8.1632C92.6222 8.02329 92.9716 7.77847 93.8102 7.77847H194.243C195.652 7.77847 197.364 8.5013 197.981 9.36405L227.25 50.0067Z" fill="white"/>
    <path d="M240.109 56.3724L240.12 56.384C240.144 56.384 240.167 56.384 240.179 56.3724H240.109Z" fill="white"/>
    <path d="M241.879 55.7894C241.867 55.4863 241.751 55.1482 241.471 54.7518L204.457 3.07999C203.56 1.83249 201.359 0.853149 199.437 0.853149H79.9852C78.7972 0.853149 77.9004 1.24954 77.551 1.93741C77.4811 2.06566 77.4112 2.2522 77.3996 2.48537C77.388 2.52035 77.3879 2.55533 77.3879 2.60197V6.15789C77.3996 6.46102 77.5044 6.84579 77.8072 7.27716L114.822 58.949C115.718 60.1964 117.92 61.1642 119.841 61.1642H239.293C240.493 61.1642 241.378 60.7794 241.728 60.0915C241.809 59.9516 241.879 59.7301 241.891 59.4619V55.906C241.891 55.871 241.891 55.8361 241.879 55.7894ZM240.691 56.0459C240.633 56.1625 240.458 56.2908 240.179 56.3724C240.167 56.384 240.144 56.384 240.12 56.384C239.946 56.4423 239.724 56.4773 239.468 56.4773C239.41 56.4889 239.352 56.489 239.293 56.489H119.841C118.304 56.489 116.452 55.6962 115.777 54.7518L80.9519 6.15789L80.5327 5.57495L80.5093 5.53998L80.125 4.99201L80.0901 4.95704L79.694 4.38577L79.1583 3.65126L78.7506 3.07999C78.7506 3.07999 78.7506 3.06832 78.739 3.06832C78.6458 2.91675 78.506 2.66026 78.5875 2.48537V2.4737C78.704 2.25219 79.1816 2.01903 79.9852 2.01903H199.437C200.975 2.01903 202.838 2.82348 203.514 3.75618L240.528 55.428C240.586 55.5213 240.679 55.6495 240.703 55.7894C240.738 55.871 240.738 55.9643 240.691 56.0459Z" fill="#21232E"/>
    <path d="M240.703 55.7894C240.679 55.6495 240.586 55.5213 240.528 55.428L203.514 3.75619C202.838 2.82349 200.975 2.01904 199.437 2.01904H79.9852C79.1816 2.01904 78.704 2.2522 78.5876 2.47372V2.48539C78.506 2.66027 78.6458 2.91676 78.739 3.06833C78.7506 3.06833 78.7506 3.08 78.7506 3.08L79.1583 3.65127L79.694 4.38578L80.0901 4.95705L80.125 4.99202L80.5093 5.53999L80.5327 5.57496L80.9519 6.1579L115.777 54.7518C116.452 55.6962 118.304 56.489 119.841 56.489H239.293C239.352 56.489 239.41 56.489 239.468 56.4773C239.724 56.4773 239.946 56.4424 240.12 56.3841L240.109 56.3724H240.179C240.458 56.2908 240.633 56.1625 240.691 56.0459C240.738 55.9643 240.738 55.8711 240.703 55.7894ZM214.509 25.8147C214.905 25.3367 215.487 25.0685 216.151 25.0685H216.267C216.558 25.0801 216.838 25.1501 217.094 25.255C217.106 25.255 217.106 25.2667 217.106 25.2667C218.003 25.6048 218.736 26.4209 218.923 27.3886C218.958 27.5402 218.969 27.6917 218.969 27.8433C218.969 27.8549 218.969 27.8549 218.969 27.8666C218.969 28.1347 218.911 28.4029 218.818 28.6361C218.748 28.8343 218.643 29.0208 218.503 29.184C218.107 29.6621 217.525 29.9302 216.861 29.9302C215.557 29.9302 214.346 28.9043 214.089 27.6101C213.961 26.9456 214.113 26.2927 214.509 25.8147ZM103.384 30.2217C103.14 30.5132 102.778 30.6764 102.394 30.6764C101.66 30.6764 100.962 30.0934 100.822 29.3706C100.752 28.9742 100.845 28.5778 101.09 28.2863C101.323 28.0065 101.684 27.8433 102.068 27.8433C102.813 27.8433 103.501 28.4146 103.64 29.1491C103.652 29.2307 103.664 29.3123 103.664 29.4056C103.664 29.697 103.571 29.9885 103.384 30.2217ZM228.438 51.056C228.112 51.7089 227.274 52.082 226.144 52.082H125.712C123.918 52.082 121.868 51.1726 121.029 50.0067L91.7604 9.36408C91.1897 8.57128 91.3644 7.94172 91.5158 7.6386C91.8536 6.9857 92.6805 6.61262 93.8102 6.61262H194.243C196.036 6.61262 198.098 7.522 198.925 8.68788L228.194 49.3305C228.776 50.1233 228.601 50.7528 228.438 51.056Z" fill="white"/>
    <path d="M228.194 49.3304L198.925 8.68788C198.098 7.522 196.036 6.61261 194.243 6.61261H93.8103C92.6805 6.61261 91.8536 6.9857 91.5158 7.63859C91.3644 7.94172 91.1897 8.57127 91.7604 9.36407L121.029 50.0067C121.868 51.1726 123.918 52.0819 125.712 52.0819H226.144C227.274 52.0819 228.112 51.7089 228.438 51.056C228.601 50.7528 228.776 50.1232 228.194 49.3304ZM227.402 50.5197C227.332 50.6712 226.982 50.9161 226.144 50.9161H125.712C124.302 50.9161 122.59 50.1815 121.973 49.3304L92.7039 8.68788C92.634 8.58295 92.4709 8.32644 92.5524 8.16321C92.6223 8.02331 92.9717 7.77849 93.8103 7.77849H194.243C195.652 7.77849 197.364 8.50132 197.981 9.36407L227.25 50.0067C227.32 50.1116 227.483 50.3681 227.402 50.5197Z" fill="#21232E"/>
    <path d="M227.402 50.5196C227.332 50.6712 226.982 50.916 226.144 50.916H125.711C124.302 50.916 122.59 50.1815 121.973 49.3304L92.7037 8.68786C92.6339 8.58293 92.4708 8.32642 92.5523 8.1632C92.6222 8.02329 92.9716 7.77847 93.8102 7.77847H194.243C195.652 7.77847 197.364 8.5013 197.981 9.36405L227.25 50.0067C227.32 50.1116 227.483 50.3681 227.402 50.5196Z" fill="#5368E0"/>
    <path d="M218.969 27.8433C218.969 27.8549 218.969 27.8549 218.969 27.8666C218.969 28.1347 218.911 28.4029 218.818 28.6361C218.748 28.8343 218.643 29.0208 218.503 29.184C218.107 29.662 217.525 29.9302 216.861 29.9302C215.557 29.9302 214.346 28.9042 214.089 27.6101C213.961 26.9456 214.113 26.2927 214.509 25.8147C214.905 25.3367 215.487 25.0685 216.151 25.0685H216.267C216.558 25.0801 216.838 25.1501 217.094 25.255C217.106 25.255 217.106 25.2667 217.106 25.2667C218.003 25.6048 218.736 26.4209 218.923 27.3886C218.958 27.5402 218.969 27.6917 218.969 27.8433Z" fill="#21232E"/>
    <path d="M103.664 29.4055C103.664 29.697 103.57 29.9885 103.384 30.2217C103.14 30.5132 102.778 30.6764 102.394 30.6764C101.66 30.6764 100.962 30.0934 100.822 29.3706C100.752 28.9742 100.845 28.5778 101.09 28.2863C101.323 28.0065 101.684 27.8433 102.068 27.8433C102.813 27.8433 103.501 28.4145 103.64 29.1491C103.652 29.2307 103.664 29.3123 103.664 29.4055Z" fill="#21232E"/>
    <path d="M8.33284 9.09595H31.9064C32.7101 9.09595 33.6185 9.59728 33.8631 10.1569L46.4419 39.8868C46.5351 40.0967 46.4652 40.1899 46.4419 40.2249C46.372 40.3415 46.1158 40.4931 45.6848 40.4931H22.1112C21.3076 40.4931 20.3875 39.9917 20.1545 39.4321L7.57576 9.70219C7.48258 9.49233 7.5408 9.38739 7.5641 9.36408C7.64563 9.23583 7.89026 9.09595 8.33284 9.09595Z" fill="#21232E"/>
    <path d="M53.5931 46.7422C53.5815 46.4624 53.5349 46.1826 53.4067 45.8911L35.3422 3.24319C34.7715 1.90243 33.1293 0.853149 31.6152 0.853149H2.61402C1.77543 0.853149 1.07659 1.17958 0.703886 1.75086C0.540828 2.00736 0.436004 2.28717 0.41271 2.5903C0.401063 2.64859 0.401123 2.70688 0.401123 2.76517V6.27448H0.41271C0.389416 6.61259 0.447691 6.97402 0.599103 7.33544L18.6753 49.9833C19.246 51.3241 20.8766 52.3734 22.4023 52.3734H51.4035C52.2421 52.3734 52.9293 52.0469 53.3136 51.4756C53.5 51.1958 53.5698 50.8577 53.5931 50.508H53.6048V46.7422H53.5931ZM52.3818 47.1036C52.3702 47.1386 52.3585 47.1619 52.3352 47.1969C52.3003 47.2435 52.2537 47.3018 52.2071 47.3251C52.1256 47.4067 52.0324 47.4534 51.916 47.4883C51.7645 47.5466 51.6015 47.57 51.4035 47.57H22.4023C21.3424 47.57 20.1312 46.8005 19.7468 45.8911L2.95183 6.27448L2.70721 5.69154L2.69556 5.65657L2.4626 5.1086L2.45094 5.0853L2.2064 4.51399L1.89191 3.75618L1.67061 3.24319C1.65896 3.21987 1.64729 3.19656 1.64729 3.17324C1.56576 2.95172 1.54248 2.75352 1.58907 2.5903C1.60072 2.52035 1.63567 2.45041 1.67061 2.39212C1.82202 2.15894 2.17143 2.01903 2.61402 2.01903H31.6152C32.6634 2.01903 33.8747 2.78851 34.259 3.6979L52.3352 46.3458C52.3935 46.4973 52.4284 46.6256 52.4284 46.7422C52.4517 46.8821 52.4284 46.9987 52.3818 47.1036Z" fill="#21232E"/>
    <path d="M0.401123 2.5903V2.76517C0.401123 2.70688 0.401063 2.64859 0.41272 2.5903H0.401123Z" fill="#21232E"/>
    <path d="M46.4418 39.8868L33.863 10.1569C33.6184 9.59728 32.71 9.09595 31.9063 9.09595H8.33272C7.89013 9.09595 7.64551 9.23583 7.56398 9.36408C7.54068 9.38739 7.48246 9.49233 7.57564 9.70219L20.1544 39.4321C20.3874 39.9917 21.3075 40.4931 22.1111 40.4931H45.6847C46.1157 40.4931 46.3719 40.3415 46.4418 40.2249C46.4651 40.1899 46.535 40.0967 46.4418 39.8868ZM46.4418 39.8868L33.863 10.1569C33.6184 9.59728 32.71 9.09595 31.9063 9.09595H8.33272C7.89013 9.09595 7.64551 9.23583 7.56398 9.36408C7.54068 9.38739 7.48246 9.49233 7.57564 9.70219L20.1544 39.4321C20.3874 39.9917 21.3075 40.4931 22.1111 40.4931H45.6847C46.1157 40.4931 46.3719 40.3415 46.4418 40.2249C46.4651 40.1899 46.535 40.0967 46.4418 39.8868ZM46.4418 39.8868L33.863 10.1569C33.6184 9.59728 32.71 9.09595 31.9063 9.09595H8.33272C7.89013 9.09595 7.64551 9.23583 7.56398 9.36408C7.54068 9.38739 7.48246 9.49233 7.57564 9.70219L20.1544 39.4321C20.3874 39.9917 21.3075 40.4931 22.1111 40.4931H45.6847C46.1157 40.4931 46.3719 40.3415 46.4418 40.2249C46.4651 40.1899 46.535 40.0967 46.4418 39.8868ZM46.4418 39.8868L33.863 10.1569C33.6184 9.59728 32.71 9.09595 31.9063 9.09595H8.33272C7.89013 9.09595 7.64551 9.23583 7.56398 9.36408C7.54068 9.38739 7.48246 9.49233 7.57564 9.70219L20.1544 39.4321C20.3874 39.9917 21.3075 40.4931 22.1111 40.4931H45.6847C46.1157 40.4931 46.3719 40.3415 46.4418 40.2249C46.4651 40.1899 46.535 40.0967 46.4418 39.8868ZM46.4418 39.8868L33.863 10.1569C33.6184 9.59728 32.71 9.09595 31.9063 9.09595H8.33272C7.89013 9.09595 7.64551 9.23583 7.56398 9.36408C7.54068 9.38739 7.48246 9.49233 7.57564 9.70219L20.1544 39.4321C20.3874 39.9917 21.3075 40.4931 22.1111 40.4931H45.6847C46.1157 40.4931 46.3719 40.3415 46.4418 40.2249C46.4651 40.1899 46.535 40.0967 46.4418 39.8868ZM46.4418 39.8868L33.863 10.1569C33.6184 9.59728 32.71 9.09595 31.9063 9.09595H8.33272C7.89013 9.09595 7.64551 9.23583 7.56398 9.36408C7.54068 9.38739 7.48246 9.49233 7.57564 9.70219L20.1544 39.4321C20.3874 39.9917 21.3075 40.4931 22.1111 40.4931H45.6847C46.1157 40.4931 46.3719 40.3415 46.4418 40.2249C46.4651 40.1899 46.535 40.0967 46.4418 39.8868ZM46.4418 39.8868L33.863 10.1569C33.6184 9.59728 32.71 9.09595 31.9063 9.09595H8.33272C7.89013 9.09595 7.64551 9.23583 7.56398 9.36408C7.54068 9.38739 7.48246 9.49233 7.57564 9.70219L20.1544 39.4321C20.3874 39.9917 21.3075 40.4931 22.1111 40.4931H45.6847C46.1157 40.4931 46.3719 40.3415 46.4418 40.2249C46.4651 40.1899 46.535 40.0967 46.4418 39.8868ZM46.4418 39.8868L33.863 10.1569C33.6184 9.59728 32.71 9.09595 31.9063 9.09595H8.33272C7.89013 9.09595 7.64551 9.23583 7.56398 9.36408C7.54068 9.38739 7.48246 9.49233 7.57564 9.70219L20.1544 39.4321C20.3874 39.9917 21.3075 40.4931 22.1111 40.4931H45.6847C46.1157 40.4931 46.3719 40.3415 46.4418 40.2249C46.4651 40.1899 46.535 40.0967 46.4418 39.8868ZM46.4418 39.8868L33.863 10.1569C33.6184 9.59728 32.71 9.09595 31.9063 9.09595H8.33272C7.89013 9.09595 7.64551 9.23583 7.56398 9.36408C7.54068 9.38739 7.48246 9.49233 7.57564 9.70219L20.1544 39.4321C20.3874 39.9917 21.3075 40.4931 22.1111 40.4931H45.6847C46.1157 40.4931 46.3719 40.3415 46.4418 40.2249C46.4651 40.1899 46.535 40.0967 46.4418 39.8868ZM46.4418 39.8868L33.863 10.1569C33.6184 9.59728 32.71 9.09595 31.9063 9.09595H8.33272C7.89013 9.09595 7.64551 9.23583 7.56398 9.36408C7.54068 9.38739 7.48246 9.49233 7.57564 9.70219L20.1544 39.4321C20.3874 39.9917 21.3075 40.4931 22.1111 40.4931H45.6847C46.1157 40.4931 46.3719 40.3415 46.4418 40.2249C46.4651 40.1899 46.535 40.0967 46.4418 39.8868ZM46.4418 39.8868L33.863 10.1569C33.6184 9.59728 32.71 9.09595 31.9063 9.09595H8.33272C7.89013 9.09595 7.64551 9.23583 7.56398 9.36408C7.54068 9.38739 7.48246 9.49233 7.57564 9.70219L20.1544 39.4321C20.3874 39.9917 21.3075 40.4931 22.1111 40.4931H45.6847C46.1157 40.4931 46.3719 40.3415 46.4418 40.2249C46.4651 40.1899 46.535 40.0967 46.4418 39.8868ZM46.4418 39.8868L33.863 10.1569C33.6184 9.59728 32.71 9.09595 31.9063 9.09595H8.33272C7.89013 9.09595 7.64551 9.23583 7.56398 9.36408C7.54068 9.38739 7.48246 9.49233 7.57564 9.70219L20.1544 39.4321C20.3874 39.9917 21.3075 40.4931 22.1111 40.4931H45.6847C46.1157 40.4931 46.3719 40.3415 46.4418 40.2249C46.4651 40.1899 46.535 40.0967 46.4418 39.8868ZM46.4418 39.8868L33.863 10.1569C33.6184 9.59728 32.71 9.09595 31.9063 9.09595H8.33272C7.89013 9.09595 7.64551 9.23583 7.56398 9.36408C7.54068 9.38739 7.48246 9.49233 7.57564 9.70219L20.1544 39.4321C20.3874 39.9917 21.3075 40.4931 22.1111 40.4931H45.6847C46.1157 40.4931 46.3719 40.3415 46.4418 40.2249C46.4651 40.1899 46.535 40.0967 46.4418 39.8868ZM46.4418 39.8868L33.863 10.1569C33.6184 9.59728 32.71 9.09595 31.9063 9.09595H8.33272C7.89013 9.09595 7.64551 9.23583 7.56398 9.36408C7.54068 9.38739 7.48246 9.49233 7.57564 9.70219L20.1544 39.4321C20.3874 39.9917 21.3075 40.4931 22.1111 40.4931H45.6847C46.1157 40.4931 46.3719 40.3415 46.4418 40.2249C46.4651 40.1899 46.535 40.0967 46.4418 39.8868ZM46.4418 39.8868L33.863 10.1569C33.6184 9.59728 32.71 9.09595 31.9063 9.09595H8.33272C7.89013 9.09595 7.64551 9.23583 7.56398 9.36408C7.54068 9.38739 7.48246 9.49233 7.57564 9.70219L20.1544 39.4321C20.3874 39.9917 21.3075 40.4931 22.1111 40.4931H45.6847C46.1157 40.4931 46.3719 40.3415 46.4418 40.2249C46.4651 40.1899 46.535 40.0967 46.4418 39.8868ZM46.4418 39.8868L33.863 10.1569C33.6184 9.59728 32.71 9.09595 31.9063 9.09595H8.33272C7.89013 9.09595 7.64551 9.23583 7.56398 9.36408C7.54068 9.38739 7.48246 9.49233 7.57564 9.70219L20.1544 39.4321C20.3874 39.9917 21.3075 40.4931 22.1111 40.4931H45.6847C46.1157 40.4931 46.3719 40.3415 46.4418 40.2249C46.4651 40.1899 46.535 40.0967 46.4418 39.8868ZM46.4418 39.8868L33.863 10.1569C33.6184 9.59728 32.71 9.09595 31.9063 9.09595H8.33272C7.89013 9.09595 7.64551 9.23583 7.56398 9.36408C7.54068 9.38739 7.48246 9.49233 7.57564 9.70219L20.1544 39.4321C20.3874 39.9917 21.3075 40.4931 22.1111 40.4931H45.6847C46.1157 40.4931 46.3719 40.3415 46.4418 40.2249C46.4651 40.1899 46.535 40.0967 46.4418 39.8868ZM46.4418 39.8868L33.863 10.1569C33.6184 9.59728 32.71 9.09595 31.9063 9.09595H8.33272C7.89013 9.09595 7.64551 9.23583 7.56398 9.36408C7.54068 9.38739 7.48246 9.49233 7.57564 9.70219L20.1544 39.4321C20.3874 39.9917 21.3075 40.4931 22.1111 40.4931H45.6847C46.1157 40.4931 46.3719 40.3415 46.4418 40.2249C46.4651 40.1899 46.535 40.0967 46.4418 39.8868ZM46.4418 39.8868L33.863 10.1569C33.6184 9.59728 32.71 9.09595 31.9063 9.09595H8.33272C7.89013 9.09595 7.64551 9.23583 7.56398 9.36408C7.54068 9.38739 7.48246 9.49233 7.57564 9.70219L20.1544 39.4321C20.3874 39.9917 21.3075 40.4931 22.1111 40.4931H45.6847C46.1157 40.4931 46.3719 40.3415 46.4418 40.2249C46.4651 40.1899 46.535 40.0967 46.4418 39.8868ZM46.4418 39.8868L33.863 10.1569C33.6184 9.59728 32.71 9.09595 31.9063 9.09595H8.33272C7.89013 9.09595 7.64551 9.23583 7.56398 9.36408C7.54068 9.38739 7.48246 9.49233 7.57564 9.70219L20.1544 39.4321C20.3874 39.9917 21.3075 40.4931 22.1111 40.4931H45.6847C46.1157 40.4931 46.3719 40.3415 46.4418 40.2249C46.4651 40.1899 46.535 40.0967 46.4418 39.8868ZM46.4418 39.8868L33.863 10.1569C33.6184 9.59728 32.71 9.09595 31.9063 9.09595H8.33272C7.89013 9.09595 7.64551 9.23583 7.56398 9.36408C7.54068 9.38739 7.48246 9.49233 7.57564 9.70219L20.1544 39.4321C20.3874 39.9917 21.3075 40.4931 22.1111 40.4931H45.6847C46.1157 40.4931 46.3719 40.3415 46.4418 40.2249C46.4651 40.1899 46.535 40.0967 46.4418 39.8868ZM46.4418 39.8868L33.863 10.1569C33.6184 9.59728 32.71 9.09595 31.9063 9.09595H8.33272C7.89013 9.09595 7.64551 9.23583 7.56398 9.36408C7.54068 9.38739 7.48246 9.49233 7.57564 9.70219L20.1544 39.4321C20.3874 39.9917 21.3075 40.4931 22.1111 40.4931H45.6847C46.1157 40.4931 46.3719 40.3415 46.4418 40.2249C46.4651 40.1899 46.535 40.0967 46.4418 39.8868ZM46.4418 39.8868L33.863 10.1569C33.6184 9.59728 32.71 9.09595 31.9063 9.09595H8.33272C7.89013 9.09595 7.64551 9.23583 7.56398 9.36408C7.54068 9.38739 7.48246 9.49233 7.57564 9.70219L20.1544 39.4321C20.3874 39.9917 21.3075 40.4931 22.1111 40.4931H45.6847C46.1157 40.4931 46.3719 40.3415 46.4418 40.2249C46.4651 40.1899 46.535 40.0967 46.4418 39.8868Z" fill="white"/>
    <path d="M52.4284 46.7422C52.4284 46.6256 52.3935 46.4973 52.3352 46.3458L34.259 3.69791C33.8746 2.78853 32.6634 2.01904 31.6152 2.01904H2.614C2.17141 2.01904 1.82201 2.15896 1.67059 2.39213C1.63565 2.45043 1.6007 2.52036 1.58906 2.59031C1.54247 2.75354 1.56575 2.95174 1.64728 3.17325C1.64728 3.19657 1.65895 3.21988 1.67059 3.2432L1.89189 3.75619L2.20638 4.51401L2.45093 5.08531L2.46258 5.10862L2.69554 5.65658L2.7072 5.69156L2.95181 6.2745L19.7468 45.8911C20.1312 46.8005 21.3424 47.57 22.4023 47.57H51.4035C51.6015 47.57 51.7645 47.5466 51.916 47.4884C52.0324 47.4534 52.1256 47.4067 52.2071 47.3251C52.2537 47.3018 52.3003 47.2435 52.3352 47.1969C52.3585 47.1619 52.3702 47.1386 52.3818 47.1036C52.4284 46.9987 52.4517 46.8821 52.4284 46.7422ZM17.3359 3.65127C17.6038 3.13828 18.2444 2.85848 19.0946 2.85848C20.3874 2.85848 21.785 3.46473 22.3441 4.26918C22.3907 4.33914 22.4373 4.40909 22.4722 4.4907C22.5654 4.67724 22.612 4.8638 22.612 5.05034C22.612 5.062 22.612 5.06198 22.612 5.07364C22.612 5.23687 22.577 5.41175 22.4955 5.55166C22.4722 5.58663 22.4606 5.62161 22.4256 5.65658C22.1345 6.09962 21.5288 6.35612 20.7368 6.35612C19.8749 6.35612 18.9665 6.0763 18.2909 5.65658C18.0114 5.4817 17.7784 5.2835 17.6037 5.07364C17.5572 5.02701 17.5222 4.98038 17.4873 4.93374C17.3825 4.78218 17.3126 4.63061 17.266 4.4907C17.1845 4.19923 17.2078 3.90776 17.3359 3.65127ZM42.3071 45.2265C42.3071 45.553 42.0393 45.8095 41.7248 45.8095H31.9995C31.6734 45.8095 31.4171 45.553 31.4171 45.2265C31.4171 44.9001 31.6734 44.6319 31.9995 44.6319H41.7248C42.0393 44.6319 42.3071 44.8884 42.3071 45.2149V45.2265ZM47.4202 40.8662C47.0825 41.3675 46.4535 41.659 45.6847 41.659H22.1111C20.83 41.659 19.5022 40.8778 19.0829 39.8868L6.49249 10.1569C6.28284 9.64391 6.31774 9.1309 6.59727 8.71118C6.92339 8.22151 7.55239 7.93006 8.33274 7.93006H31.9063C33.1875 7.93006 34.5153 8.71119 34.9345 9.70219L47.5133 39.4321C47.7346 39.9335 47.6997 40.4465 47.4202 40.8662Z" fill="white"/>
    <path d="M46.4418 40.2249C46.3719 40.3415 46.1157 40.4931 45.6847 40.4931H22.1111C21.3075 40.4931 20.3874 39.9917 20.1544 39.4321L7.57564 9.70219C7.48246 9.49233 7.54068 9.38739 7.56398 9.36408C7.64551 9.23583 7.89013 9.09595 8.33272 9.09595H31.9063C32.71 9.09595 33.6184 9.59728 33.863 10.1569L46.4418 39.8868C46.535 40.0967 46.4651 40.1899 46.4418 40.2249Z" fill="#4899EC"/>
    <path d="M47.5133 39.4321L34.9345 9.70218C34.5152 8.71118 33.1875 7.93005 31.9063 7.93005H8.33271C7.55236 7.93005 6.92336 8.2215 6.59724 8.71117C6.31771 9.13089 6.28281 9.6439 6.49245 10.1569L19.0829 39.8868C19.5022 40.8778 20.8299 41.659 22.1111 41.659H45.6847C46.4534 41.659 47.0825 41.3675 47.4202 40.8662C47.6997 40.4465 47.7346 39.9335 47.5133 39.4321ZM46.4418 40.2249C46.3719 40.3415 46.1157 40.4931 45.6847 40.4931H22.1111C21.3075 40.4931 20.3874 39.9918 20.1544 39.4321L7.57562 9.70218C7.48245 9.49232 7.54067 9.38738 7.56396 9.36406C7.64549 9.23582 7.89012 9.09593 8.33271 9.09593H31.9063C32.71 9.09593 33.6184 9.59727 33.863 10.1569L46.4418 39.8868C46.535 40.0967 46.4651 40.1899 46.4418 40.2249Z" fill="#21232E"/>
    <path d="M42.3073 45.2149V45.2266C42.3073 45.553 42.0394 45.8095 41.7249 45.8095H31.9996C31.6735 45.8095 31.4172 45.553 31.4172 45.2266C31.4172 44.9001 31.6735 44.632 31.9996 44.632H41.7249C42.0394 44.632 42.3073 44.8884 42.3073 45.2149Z" fill="#21232E"/>
    <path d="M22.612 5.05033C22.612 5.06198 22.612 5.06197 22.612 5.07363C22.612 5.23685 22.5771 5.41174 22.4956 5.55165C22.4723 5.58662 22.4606 5.6216 22.4257 5.65657C22.1345 6.09961 21.5288 6.35611 20.7368 6.35611C19.875 6.35611 18.9665 6.07629 18.291 5.65657C18.0115 5.48169 17.7785 5.28349 17.6038 5.07363C17.5572 5.027 17.5223 4.98037 17.4874 4.93373C17.3825 4.78217 17.3127 4.6306 17.2661 4.49069C17.1845 4.19922 17.2078 3.90775 17.3359 3.65125C17.6038 3.13826 18.2444 2.85846 19.0947 2.85846C20.3875 2.85846 21.7851 3.46471 22.3441 4.26917C22.3907 4.33912 22.4373 4.40908 22.4722 4.49069C22.5654 4.67723 22.612 4.86378 22.612 5.05033Z" fill="#21232E"/>
    <path d="M228.101 78.629L157.729 85.8225L150.357 84.575L157.322 81.8585L227.518 74.6767L228.101 78.629Z" fill="white"/>
    <path d="M239.55 76.8685C239.224 77.2883 238.746 77.5447 238.21 77.5914L229.265 78.5008L228.683 74.5601L237.803 73.6274C238.338 73.5807 238.851 73.7323 239.27 74.0704C239.678 74.3968 239.934 74.8749 239.992 75.4112C240.05 75.9358 239.887 76.4605 239.55 76.8685Z" fill="white"/>
    <path d="M241.145 75.2946C241.064 74.4552 240.656 73.6973 240.004 73.161C239.352 72.6247 238.536 72.3799 237.686 72.4732L157.124 80.7043C157.077 80.7159 157.031 80.7276 156.972 80.7393L147.969 84.2602C147.724 84.3535 147.573 84.5983 147.596 84.8548C147.631 85.123 147.829 85.3328 148.086 85.3795L157.613 86.9884C157.648 87.0001 157.683 87 157.706 87H157.776L238.327 78.7573C239.165 78.6757 239.922 78.2676 240.458 77.603C240.994 76.9501 241.239 76.134 241.145 75.2946ZM157.729 85.8225L150.357 84.575L157.322 81.8585L227.518 74.6767L228.101 78.629L157.729 85.8225ZM239.55 76.8686C239.224 77.2883 238.746 77.5448 238.21 77.5914L229.265 78.5008L228.683 74.5601L237.803 73.6274C238.338 73.5807 238.851 73.7323 239.27 74.0704C239.678 74.3969 239.934 74.8749 239.992 75.4112C240.051 75.9358 239.888 76.4605 239.55 76.8686Z" fill="#21232E"/>
</svg>
