<svg width="920" height="617" viewBox="0 0 920 617" fill="none" xmlns="http://www.w3.org/2000/svg">
    <path d="M841.347 186.476C820.08 104.288 749.837 26.9456 660.748 12.0224C579.429 -1.60766 513.18 41.9271 473.953 67.6961C365.624 138.875 384.993 204.614 290.873 260.719C184.722 323.988 100.06 276.155 68.2051 330.011C35.1974 385.824 82.4378 509.555 167.17 557.668C315.216 641.744 572.254 601.972 685.475 513.132C724.889 482.202 796.355 434.52 830.201 337.432C839.892 309.671 858.667 253.426 841.347 186.476Z" fill="#F8F1FF"/>
    <path d="M919.418 411.57H0.582397V617H919.418V411.57Z" fill="white"/>
    <path d="M352.975 89.3644H123.785V111.126H352.975V89.3644Z" fill="#21232E"/>
    <path d="M353.558 111.697H123.202V88.7819H353.558V111.697ZM124.367 110.532H352.393V89.9469H124.367V110.532Z" fill="#21232E"/>
    <path d="M229.482 0.582489H214.876V89.3644H229.482V0.582489Z" fill="#4899EC"/>
    <path d="M230.064 89.9469H214.294V0H230.064V89.9469ZM215.459 88.7819H228.899V1.16496H215.459V88.7819Z" fill="#21232E"/>
    <path d="M214.876 15.4241H193.527V89.3644H214.876V15.4241Z" fill="#5368E0"/>
    <path d="M215.459 89.9469H192.945V14.8416H215.459V89.9469ZM194.11 88.7819H214.294V16.0066H194.11V88.7819Z" fill="#21232E"/>
    <path d="M244.087 0.582489H229.482V89.3644H244.087V0.582489Z" fill="#5368E0"/>
    <path d="M244.658 89.9469H228.888V0H244.658V89.9469ZM230.064 88.7819H243.505V1.16496H230.064V88.7819Z" fill="#21232E"/>
    <path d="M258.681 5.99957H244.076V89.3528H258.681V5.99957Z" fill="#5368E0"/>
    <path d="M259.263 89.9469H243.493V5.41708H259.263V89.9469ZM244.658 88.7819H258.099V6.58205H244.658V88.7819Z" fill="#21232E"/>
    <path d="M287.81 89.2013L273.03 89.3644L259.461 9.47117L273.857 7.02475L287.81 89.2013Z" fill="#4899EC"/>
    <path d="M272.541 89.9469L258.797 8.99353L274.335 6.34906L288.497 89.7721L272.541 89.9469ZM260.125 9.9488L273.508 88.7819L287.111 88.6305L273.379 7.68877L260.125 9.9488Z" fill="#21232E"/>
    <path d="M229.773 198.044H0.582397V219.805H229.773V198.044Z" fill="#21232E"/>
    <path d="M229.773 220.388H0.582352C0.256235 220.388 0 220.132 0 219.805V198.044C0 197.718 0.256235 197.461 0.582352 197.461H229.773C230.099 197.461 230.355 197.718 230.355 198.044V219.805C230.355 220.132 230.087 220.388 229.773 220.388ZM1.1647 219.223H229.191V198.626H1.1647V219.223Z" fill="#21232E"/>
    <path d="M919.418 411.99H627.857C627.531 411.99 627.275 411.733 627.275 411.407C627.275 411.081 627.531 410.825 627.857 410.825H919.418C919.744 410.825 920 411.081 920 411.407C920 411.733 919.744 411.99 919.418 411.99Z" fill="#21232E"/>
    <path d="M209.973 413.085H0.582352C0.256235 413.085 0 412.828 0 412.502C0 412.176 0.256235 411.92 0.582352 411.92H209.973C210.299 411.92 210.555 412.176 210.555 412.502C210.555 412.828 210.299 413.085 209.973 413.085Z" fill="#21232E"/>
    <path d="M308.064 42.195C308.064 42.195 303.359 36.9527 299.853 39.5039C296.347 42.0552 298.234 48.7072 298.234 48.7072" fill="white"/>
    <path d="M297.675 48.8703C297.594 48.579 295.73 41.7873 299.515 39.038C303.394 36.2187 308.286 41.5892 308.495 41.8222L307.633 42.6027C307.587 42.5561 303.231 37.7798 300.203 39.9816C297.069 42.2649 298.782 48.4975 298.793 48.5557L297.675 48.8703Z" fill="#21232E"/>
    <path d="M314.645 42.195C314.645 42.195 319.35 36.9527 322.856 39.5039C326.35 42.0552 324.475 48.7072 324.475 48.7072" fill="white"/>
    <path d="M325.034 48.8703L323.916 48.5557C323.939 48.4975 325.64 42.2533 322.507 39.9816C319.467 37.7798 315.122 42.5445 315.076 42.6027L314.214 41.8222C314.424 41.5892 319.315 36.2187 323.194 39.038C326.979 41.7873 325.116 48.579 325.034 48.8703Z" fill="#21232E"/>
    <path d="M311.209 41.9271C311.209 41.9271 318.209 41.3096 323.555 47.8917C328.901 54.4737 327.736 59.8908 327.736 59.8908C327.736 59.8908 331.848 64.9002 330.683 73.6141C329.518 82.328 321.051 85.4152 321.051 85.4152C321.051 85.4152 320.678 88.9101 317.102 88.9101C313.538 88.9101 313.806 86.3705 313.806 86.3705L311.197 86.5103" fill="white"/>
    <path d="M317.102 89.5042C315.67 89.5042 314.598 89.1198 313.934 88.3742C313.515 87.9082 313.34 87.3956 313.271 86.9995L311.232 87.1044C310.918 87.1393 310.638 86.8714 310.615 86.5569C310.592 86.2423 310.848 85.9627 311.162 85.9394L314.459 85.7647L314.389 86.4403C314.389 86.4636 314.342 87.0927 314.808 87.6053C315.251 88.0946 316.019 88.3392 317.102 88.3392C320.084 88.3392 320.457 85.4734 320.468 85.3569L320.515 84.9958L320.853 84.8676C320.934 84.8327 329.006 81.7921 330.112 73.5442C331.23 65.2147 327.329 60.3219 327.294 60.2753L327.119 60.0656L327.177 59.786C327.189 59.7394 328.202 54.532 323.112 48.2645C318.034 42.0086 311.337 42.4979 311.267 42.5096C310.941 42.5329 310.662 42.2999 310.638 41.9737C310.615 41.6591 310.848 41.3679 311.162 41.3446C311.465 41.3096 318.535 40.7738 324.009 47.5305C328.854 53.4952 328.528 58.5278 328.353 59.751C329.145 60.8228 332.325 65.7389 331.265 73.6956C330.182 81.7805 323.194 85.1589 321.575 85.8346C321.284 87.2791 320.084 89.5042 317.102 89.5042Z" fill="#21232E"/>
    <path d="M311.209 41.9271C311.209 41.9271 304.209 41.3096 298.863 47.8917C293.517 54.4737 294.682 59.8908 294.682 59.8908C294.682 59.8908 290.57 64.9001 291.735 73.6141C292.9 82.328 301.367 85.4152 301.367 85.4152C301.367 85.4152 301.74 88.9101 305.316 88.9101C308.88 88.9101 308.612 86.3704 308.612 86.3704L311.221 86.5102" fill="white"/>
    <path d="M305.316 89.5042C302.346 89.5042 301.134 87.2791 300.843 85.8462C299.224 85.1705 292.236 81.7921 291.153 73.7073C290.081 65.7506 293.273 60.8344 294.065 59.7627C293.89 58.5395 293.564 53.5068 298.409 47.5422C303.895 40.7971 310.964 41.3329 311.256 41.3562C311.57 41.3795 311.815 41.6708 311.78 41.9853C311.756 42.3115 311.465 42.5445 311.151 42.5212C311.081 42.5095 304.384 42.0203 299.306 48.2761C294.216 54.5436 295.229 59.7394 295.241 59.7976L295.299 60.0656L295.124 60.2869C295.089 60.3335 291.188 65.2263 292.306 73.5558C293.412 81.8038 301.484 84.856 301.565 84.8793L301.903 85.0074L301.95 85.3686C301.961 85.4851 302.334 88.3509 305.316 88.3509C306.399 88.3509 307.167 88.1062 307.61 87.617C308.076 87.1044 308.029 86.4753 308.029 86.452L307.971 85.788L311.244 85.9511C311.57 85.9627 311.815 86.2423 311.791 86.5685C311.78 86.8947 311.512 87.151 311.174 87.116L309.136 87.0112C309.066 87.4073 308.891 87.9315 308.472 88.3858C307.808 89.1198 306.748 89.5042 305.316 89.5042Z" fill="#21232E"/>
    <path d="M316.287 42.7309C316.287 42.7309 317.615 47.4373 311.791 47.4373C305.968 47.4373 307.179 42.4163 307.179 42.4163C307.179 42.4163 312.665 40.9252 316.287 42.7309Z" fill="#FFC980"/>
    <path d="M311.791 48.0198C309.765 48.0198 308.286 47.449 307.389 46.3073C306.061 44.6181 306.585 42.3698 306.608 42.2766L306.69 41.9387L307.028 41.8455C307.261 41.7873 312.781 40.3311 316.555 42.2067L316.788 42.3232L316.858 42.5678C316.881 42.661 317.44 44.7113 316.24 46.3073C315.367 47.449 313.876 48.0198 311.791 48.0198ZM307.68 42.8823C307.61 43.4648 307.587 44.6764 308.309 45.5967C308.973 46.4355 310.137 46.8549 311.791 46.8549C313.492 46.8549 314.668 46.4355 315.297 45.62C315.949 44.7579 315.856 43.6279 315.775 43.1386C312.921 41.8688 308.903 42.6144 307.68 42.8823Z" fill="#21232E"/>
    <path d="M305.529 56.3458C305.573 55.6073 305.094 54.9775 304.458 54.9393C303.822 54.9011 303.271 55.4689 303.227 56.2074C303.182 56.946 303.662 57.5757 304.297 57.6139C304.933 57.6522 305.484 57.0844 305.529 56.3458Z" fill="#21232E"/>
    <path d="M312.29 58.5075C312.312 58.135 311.815 57.802 311.179 57.7638C310.544 57.7256 310.01 57.9966 309.988 58.3691C309.965 58.7416 310.462 59.0745 311.098 59.1127C311.734 59.151 312.267 58.88 312.29 58.5075Z" fill="#21232E"/>
    <path d="M318.651 56.3421C318.696 55.6035 318.216 54.9738 317.581 54.9356C316.945 54.8974 316.394 55.4651 316.349 56.2037C316.305 56.9422 316.784 57.5719 317.42 57.6102C318.055 57.6484 318.607 57.0806 318.651 56.3421Z" fill="#21232E"/>
    <path d="M300.133 77.7148C297.792 77.7148 295.462 74.9771 295.346 74.8373C295.136 74.5927 295.171 74.2199 295.416 74.0218C295.66 73.8121 296.033 73.8471 296.231 74.0917C296.266 74.1267 299.189 77.5167 301.041 76.2702C301.414 76.0139 301.612 75.6994 301.658 75.2683C301.833 73.5092 299.399 70.6667 298.455 69.7231C298.222 69.5018 298.222 69.129 298.455 68.896C298.688 68.663 299.049 68.663 299.282 68.896C299.667 69.2804 303.068 72.7637 302.823 75.3848C302.753 76.1537 302.357 76.7944 301.705 77.2371C301.181 77.575 300.657 77.7148 300.133 77.7148Z" fill="#21232E"/>
    <path d="M307.4 63.4323C307.237 63.4323 307.074 63.4323 306.911 63.4207C306.061 63.3741 305.385 63.0712 304.908 62.512C304.104 61.58 304.209 60.2869 304.221 60.2287C304.256 59.9025 304.535 59.6811 304.85 59.7044C305.176 59.7394 305.409 60.019 305.374 60.3335C305.374 60.3335 305.304 61.1956 305.793 61.7548C306.061 62.0576 306.445 62.2207 306.981 62.2557C309.66 62.3955 310.452 61.1373 310.487 61.0907C310.58 60.9393 310.743 60.8228 310.918 60.8111C311.092 60.7995 311.279 60.8461 311.407 60.9742C311.419 60.9859 312.758 62.3489 314.715 62.244C316.508 62.1741 316.928 60.1937 316.928 60.1821C316.986 59.8675 317.3 59.6578 317.615 59.7277C317.929 59.786 318.139 60.1005 318.069 60.4151C317.871 61.4169 316.928 63.3275 314.761 63.4207C313.038 63.4789 311.71 62.7217 311.046 62.2207C310.498 62.7217 309.392 63.4323 307.4 63.4323Z" fill="#21232E"/>
    <path d="M325.477 56.9668H325.314V69.6882H325.477V56.9668Z" fill="white"/>
    <path d="M326 58.5C325.2 60.1 326 61.5 326.5 62L329.5 69.5C330.333 67.3333 332 62.6 332 61C332 59 330.5 57.5 330 57.5C329.5 57.5 327 56.5 326 58.5Z" fill="white"/>
    <path d="M329.472 70.2706C329.402 70.2706 329.332 70.259 329.262 70.2357C328.959 70.1192 328.808 69.7814 328.924 69.4785L331.219 63.4789C331.219 63.4789 331.917 61.1956 331.23 59.6229C330.625 58.2482 329.6 57.5492 328.19 57.5492C327.014 57.5492 326.304 58.6094 326.129 59.2734C325.954 59.9491 326.047 60.4151 327.037 61.0791C327.305 61.2538 327.375 61.615 327.2 61.8829C327.026 62.1508 326.665 62.2207 326.397 62.046C325.104 61.1956 324.685 60.252 325.011 58.9821C325.279 57.9337 326.362 56.3843 328.202 56.3843C330.066 56.3843 331.521 57.3745 332.313 59.1569C333.175 61.1373 332.372 63.7585 332.337 63.8633L330.019 69.8979C329.926 70.1309 329.705 70.2706 329.472 70.2706Z" fill="#21232E"/>
    <path d="M317.953 53.3787C317.626 53.3787 317.37 53.1224 317.37 52.7962V52.004C317.37 51.6778 317.626 51.4215 317.953 51.4215C318.279 51.4215 318.535 51.6778 318.535 52.004V52.7962C318.535 53.1224 318.279 53.3787 317.953 53.3787Z" fill="#21232E"/>
    <path d="M319.548 53.7631C319.49 53.7631 319.42 53.7514 319.35 53.7281C319.047 53.6233 318.884 53.2855 318.989 52.9826L319.257 52.2253C319.362 51.9225 319.688 51.7594 320.002 51.8642C320.305 51.969 320.468 52.3069 320.364 52.6098L320.096 53.367C320.014 53.6116 319.781 53.7631 319.548 53.7631Z" fill="#21232E"/>
    <path d="M316.415 53.7631C316.171 53.7631 315.949 53.6117 315.868 53.3787L315.6 52.6214C315.495 52.3185 315.658 51.9807 315.961 51.8759C316.275 51.771 316.602 51.9341 316.706 52.237L316.974 52.9942C317.079 53.2971 316.916 53.635 316.613 53.7398C316.543 53.7515 316.473 53.7631 316.415 53.7631Z" fill="#21232E"/>
    <path d="M304.349 53.3787C304.023 53.3787 303.766 53.1224 303.766 52.7962V52.004C303.766 51.6778 304.023 51.4215 304.349 51.4215C304.675 51.4215 304.931 51.6778 304.931 52.004V52.7962C304.931 53.1224 304.675 53.3787 304.349 53.3787Z" fill="#21232E"/>
    <path d="M305.944 53.7631C305.886 53.7631 305.816 53.7514 305.746 53.7281C305.444 53.6233 305.281 53.2855 305.385 52.9826L305.653 52.2253C305.758 51.9225 306.084 51.7594 306.399 51.8642C306.702 51.969 306.865 52.3069 306.76 52.6098L306.492 53.367C306.41 53.6116 306.177 53.7631 305.944 53.7631Z" fill="#21232E"/>
    <path d="M302.811 53.7631C302.567 53.7631 302.346 53.6117 302.264 53.3787L301.996 52.6214C301.891 52.3185 302.054 51.9807 302.357 51.8759C302.672 51.771 302.998 51.9341 303.103 52.237L303.37 52.9942C303.475 53.2971 303.312 53.635 303.009 53.7398C302.94 53.7515 302.87 53.7631 302.811 53.7631Z" fill="#21232E"/>
    <path d="M311.349 74.4878C313.163 74.4878 314.633 73.017 314.633 71.2026C314.633 69.3883 313.163 67.9174 311.349 67.9174C309.535 67.9174 308.064 69.3883 308.064 71.2026C308.064 73.017 309.535 74.4878 311.349 74.4878Z" fill="#FFC980"/>
    <path d="M311.349 75.0703C309.217 75.0703 307.482 73.3345 307.482 71.2026C307.482 69.0707 309.217 67.3349 311.349 67.3349C313.48 67.3349 315.216 69.0707 315.216 71.2026C315.227 73.3345 313.492 75.0703 311.349 75.0703ZM311.349 68.4999C309.858 68.4999 308.647 69.7115 308.647 71.2026C308.647 72.6938 309.858 73.9053 311.349 73.9053C312.84 73.9053 314.051 72.6938 314.051 71.2026C314.051 69.7115 312.84 68.4999 311.349 68.4999Z" fill="#21232E"/>
    <path d="M311.372 72.2278C310.801 72.2278 310.347 71.7618 310.347 71.2026C310.347 70.6434 310.813 70.1774 311.372 70.1774C311.931 70.1774 312.397 70.6318 312.397 71.2026C312.397 71.7734 311.943 72.2278 311.372 72.2278ZM311.372 71.0628C311.29 71.0628 311.232 71.1211 311.232 71.2026C311.232 71.3541 311.512 71.3541 311.512 71.2026C311.512 71.1211 311.454 71.0628 311.372 71.0628Z" fill="#21232E"/>
    <path d="M311.954 71.3657H310.79V74.6742H311.954V71.3657Z" fill="#21232E"/>
    <path d="M311.349 68.4999C302.124 68.4999 296.068 64.306 294.146 60.1471C294.006 59.8559 294.134 59.5064 294.426 59.3782C294.717 59.2384 295.066 59.3666 295.194 59.6578C296.895 63.3508 302.683 67.3349 311.337 67.3349C320.713 67.3349 323.974 64.9817 324.009 64.9584C324.265 64.772 324.626 64.8186 324.824 65.0749C325.022 65.3312 324.964 65.6923 324.72 65.8904C324.591 65.9836 321.202 68.4999 311.349 68.4999Z" fill="#21232E"/>
    <path d="M303.79 44.3385C303.755 44.3385 303.72 44.3385 303.685 44.3269C303.371 44.2686 303.161 43.9774 303.207 43.6512C303.242 43.4648 303.429 41.7756 300.971 41.2747C300.657 41.2048 300.447 40.9019 300.517 40.5874C300.587 40.2728 300.89 40.0631 301.204 40.133C304.116 40.7272 304.535 42.8241 304.361 43.8493C304.314 44.1405 304.069 44.3385 303.79 44.3385Z" fill="#21232E"/>
    <path d="M318.873 44.3385C318.593 44.3385 318.349 44.1405 318.302 43.8609C318.116 42.8357 318.547 40.7388 321.458 40.1447C321.773 40.0748 322.076 40.2845 322.145 40.599C322.204 40.9135 322.006 41.2164 321.691 41.2863C319.152 41.7989 319.443 43.5813 319.455 43.6512C319.513 43.9657 319.304 44.2686 318.989 44.3269C318.943 44.3385 318.908 44.3385 318.873 44.3385Z" fill="#21232E"/>
    <path d="M31.9128 150.886C31.9128 150.886 38.9127 150.269 44.2587 156.851C49.6047 163.433 48.44 168.85 48.44 168.85C48.44 168.85 52.5514 173.859 51.3867 182.573C50.222 191.287 41.7546 194.374 41.7546 194.374C40.1473 195.062 29.3156 196.564 22.0711 194.374C22.0711 194.374 13.6037 191.287 12.439 182.573C11.2743 173.859 15.3857 168.85 15.3857 168.85C15.3857 168.85 14.221 163.433 19.567 156.851C24.913 150.269 31.9128 150.886 31.9128 150.886Z" fill="#21232E"/>
    <path d="M31.4004 196.098C28.1859 196.098 24.7616 195.796 21.9081 194.933C21.5237 194.794 13.068 191.613 11.8683 182.655C10.8085 174.698 13.9881 169.782 14.7801 168.71C14.6054 167.487 14.2793 162.454 19.1245 156.49C24.4239 149.966 31.2141 150.257 31.9246 150.304C32.635 150.257 39.4253 149.966 44.7247 156.49C49.5698 162.454 49.2437 167.487 49.069 168.71C49.861 169.782 53.0406 174.698 51.9808 182.655C50.7811 191.613 42.3254 194.794 41.9643 194.922C40.9161 195.365 36.4203 196.098 31.4004 196.098ZM31.4703 151.457C29.9562 151.457 24.3889 151.841 20.0213 157.224C14.9315 163.491 15.9448 168.687 15.9565 168.745L16.0147 169.013L15.84 169.234C15.8051 169.281 11.9033 174.174 13.0214 182.503C14.1279 190.775 22.1993 193.803 22.2808 193.827C29.1992 195.924 39.9494 194.526 41.5334 193.838C41.6498 193.792 49.7212 190.751 50.8161 182.503C51.9342 174.139 48.0324 169.281 47.9975 169.234L47.8228 169.025L47.881 168.745C47.8927 168.698 48.9059 163.491 43.8162 157.224C38.7148 150.956 32.041 151.457 31.9711 151.469H31.9246H31.878C31.8547 151.457 31.7149 151.457 31.4703 151.457Z" fill="#21232E"/>
    <path d="M34.5218 195.33C34.5218 195.33 34.2423 197.869 37.8179 197.869C41.3936 197.869 41.7663 194.374 41.7663 194.374" fill="white"/>
    <path d="M37.8063 198.452C36.3737 198.452 35.3022 198.067 34.6383 197.322C33.823 196.413 33.9278 195.318 33.9395 195.271C33.9744 194.957 34.2539 194.712 34.58 194.759C34.8945 194.794 35.1275 195.073 35.0925 195.399C35.0925 195.434 35.0459 196.063 35.5118 196.564C35.9544 197.054 36.7231 197.298 37.8063 197.298C40.8112 197.298 41.1606 194.444 41.1723 194.316C41.2072 194.002 41.4984 193.757 41.8129 193.803C42.1273 193.838 42.3603 194.13 42.3253 194.444C42.1856 195.83 41.0442 198.452 37.8063 198.452Z" fill="#21232E"/>
    <path d="M35.0575 151.154C35.0575 151.154 39.7629 145.912 43.2687 148.463C46.7628 151.014 44.8876 157.666 44.8876 157.666" fill="#21232E"/>
    <path d="M45.4467 157.818L44.3286 157.503C44.3519 157.445 46.0523 151.201 42.9193 148.929C39.8794 146.716 35.5351 151.492 35.4885 151.55L34.6266 150.77C34.8362 150.537 39.728 145.166 43.6065 147.985C47.3917 150.735 45.5282 157.538 45.4467 157.818Z" fill="#21232E"/>
    <path d="M28.4769 151.154C28.4769 151.154 23.7715 145.912 20.2658 148.463C16.7717 151.014 18.6468 157.666 18.6468 157.666" fill="#21232E"/>
    <path d="M18.0878 157.818C18.0063 157.526 16.1428 150.735 19.928 147.985C23.8065 145.166 28.7099 150.537 28.9079 150.77L28.046 151.55C27.9994 151.504 23.6435 146.727 20.6152 148.929C17.4822 151.201 19.1943 157.445 19.2059 157.503L18.0878 157.818Z" fill="#21232E"/>
    <path d="M20.9996 155.861C20.8482 155.861 20.6968 155.802 20.5803 155.686C20.359 155.453 20.359 155.08 20.592 154.859C21.6053 153.88 22.7234 153.041 23.8997 152.366C24.1793 152.203 24.5287 152.307 24.6917 152.587C24.8548 152.867 24.75 153.228 24.4704 153.379C23.364 154.008 22.3274 154.789 21.384 155.697C21.2908 155.814 21.151 155.861 20.9996 155.861Z" fill="white"/>
    <path d="M43.1522 156.198C43.0008 156.198 42.8494 156.14 42.7329 156.024C41.6265 154.894 40.3919 153.95 39.0408 153.228C38.7613 153.076 38.6565 152.715 38.8079 152.436C38.9593 152.156 39.3204 152.051 39.5999 152.203C41.0441 152.983 42.3719 153.997 43.5599 155.208C43.7812 155.441 43.7812 155.802 43.5482 156.035C43.4434 156.14 43.3037 156.198 43.1522 156.198Z" fill="white"/>
    <path d="M42.9892 186.662C42.4651 186.662 41.9293 186.522 41.4285 186.185C40.7646 185.742 40.3803 185.101 40.2988 184.332C40.0425 181.711 43.4551 178.24 43.8395 177.855C44.0724 177.622 44.4335 177.622 44.6664 177.855C44.8877 178.088 44.8877 178.449 44.6664 178.682C43.723 179.626 41.2888 182.468 41.4635 184.227C41.51 184.658 41.6964 184.973 42.0808 185.229C43.9326 186.476 46.856 183.086 46.891 183.051C47.1006 182.806 47.4617 182.771 47.7063 182.981C47.9509 183.191 47.9858 183.552 47.7762 183.796C47.6597 183.936 45.3419 186.662 42.9892 186.662Z" fill="white"/>
    <path d="M22.0712 194.374C22.0712 194.374 22.4439 197.869 26.0195 197.869C29.5952 197.869 29.3156 195.33 29.3156 195.33" fill="white"/>
    <path d="M26.0195 198.452C22.7816 198.452 21.6518 195.819 21.5004 194.433C21.4655 194.118 21.6984 193.827 22.0129 193.792C22.3274 193.757 22.6185 193.99 22.6535 194.304C22.6651 194.421 23.0378 197.287 26.0195 197.287C27.1026 197.287 27.883 197.042 28.3256 196.541C28.7915 196.029 28.7332 195.399 28.7332 195.388C28.6983 195.073 28.9312 194.782 29.2457 194.747C29.5718 194.712 29.8514 194.945 29.8863 195.26C29.8863 195.306 30.0028 196.413 29.1875 197.31C28.5119 198.079 27.4404 198.452 26.0195 198.452Z" fill="#21232E"/>
    <path d="M41.4751 181.979C40.753 183.389 40.4967 184.857 41.7546 185.707C42.7679 186.383 43.9442 186.056 44.9459 185.462" fill="white"/>
    <path d="M43.0009 186.662C42.3254 186.662 41.8129 186.441 41.4285 186.185C40.4968 185.556 39.6582 184.274 40.951 181.711C41.0908 181.42 41.4402 181.315 41.7314 181.455C42.0225 181.595 42.1274 181.956 41.9876 182.235C40.8811 184.414 41.7779 185.02 42.0691 185.218C42.7214 185.66 43.5949 185.567 44.6431 184.95C44.9227 184.787 45.2721 184.88 45.4468 185.159C45.6098 185.439 45.5166 185.788 45.2371 185.952C44.3636 186.476 43.6182 186.662 43.0009 186.662Z" fill="white"/>
    <path d="M25.6234 169.246C25.6234 170.236 26.1009 171.681 28.3721 171.774C30.6433 171.867 32.1225 170.318 32.1225 170.318C32.1225 170.318 33.0309 171.96 36.1756 171.786C37.7247 171.797 38.3187 170.574 38.3187 169.234C38.3187 168.093 37.5616 166.66 36.1756 166.671C33.0426 166.508 32.1225 168.139 32.1225 168.139C32.1225 168.139 30.6433 166.602 28.3721 166.695C26.1009 166.8 25.6351 168.664 25.6234 169.246Z" fill="white"/>
    <path d="M35.6865 172.38C33.7181 172.38 32.6233 171.669 32.0759 171.145C31.412 171.646 30.0843 172.403 28.3605 172.356C25.2857 172.217 25.0527 169.933 25.0527 169.246C25.0644 168.477 25.6817 166.24 28.3605 166.136C30.0843 166.054 31.412 166.835 32.0759 167.335C32.6699 166.776 33.9278 165.972 36.2222 166.112C36.8395 166.124 37.4685 166.357 37.946 166.835C38.54 167.429 38.9127 168.349 38.9127 169.246C38.9127 170.26 38.6099 171.122 38.0508 171.669C37.5733 172.135 36.9327 172.356 36.1757 172.38C36.0126 172.38 35.8379 172.38 35.6865 172.38ZM32.2623 169.351L32.6466 170.038C32.6699 170.085 33.4619 171.355 36.1524 171.203C36.6299 171.226 36.9793 171.087 37.2355 170.83C37.5733 170.504 37.748 169.933 37.748 169.234C37.748 168.652 37.5034 168.023 37.1191 167.65C36.8512 167.382 36.56 167.277 36.1873 167.254C33.4735 167.114 32.6699 168.372 32.635 168.431L32.2506 169.071L31.7148 168.535C31.7032 168.524 30.3638 167.207 28.4071 167.277C26.3106 167.359 26.2174 169.176 26.2058 169.234C26.2058 170.073 26.5901 171.098 28.4071 171.18C30.3871 171.215 31.7032 169.922 31.7148 169.91L32.2623 169.351Z" fill="white"/>
    <path d="M13.6503 178.647L11.3558 172.648C11.3558 172.648 10.5638 170.155 11.3558 168.349C12.1012 166.636 13.4173 165.926 14.9314 165.926C16.4455 165.926 17.3307 167.231 17.552 168.093C17.8082 169.083 17.5404 169.782 16.4106 170.527" fill="#21232E"/>
    <path d="M13.6503 179.23C13.4174 179.23 13.1961 179.09 13.1029 178.857L10.8084 172.857C10.7618 172.718 9.94654 170.096 10.8201 168.116C11.6004 166.322 13.068 165.343 14.9315 165.343C16.7717 165.343 17.8432 166.893 18.1228 167.941C18.4489 169.211 18.0296 170.155 16.7368 171.005C16.4689 171.18 16.1078 171.11 15.9331 170.842C15.7584 170.574 15.8283 170.213 16.0962 170.038C17.0862 169.386 17.1794 168.92 16.993 168.232C16.8183 167.568 16.1078 166.508 14.9315 166.508C13.5222 166.508 12.4972 167.207 11.8916 168.582C11.1928 170.166 11.9032 172.45 11.9149 172.473L14.1977 178.438C14.3142 178.74 14.1628 179.078 13.86 179.195C13.7901 179.218 13.7202 179.23 13.6503 179.23Z" fill="#21232E"/>
    <path d="M32.0218 168.069C32.6575 168.03 33.1546 167.697 33.1323 167.325C33.1099 166.952 32.5764 166.681 31.9408 166.72C31.3051 166.758 30.8079 167.091 30.8303 167.463C30.8527 167.836 31.3861 168.107 32.0218 168.069Z" fill="#21232E"/>
    <path d="M31.9012 168.64C31.4004 168.64 30.9229 168.489 30.6201 168.221C30.3988 168.023 30.2707 167.766 30.2474 167.487C30.2241 167.102 30.4337 166.73 30.8181 166.473C31.1092 166.275 31.4936 166.159 31.9012 166.136C32.4603 166.101 32.9961 166.252 33.3338 166.555C33.5551 166.753 33.6832 167.009 33.7065 167.289C33.7298 167.673 33.5202 168.046 33.1358 168.302C32.8447 168.5 32.4603 168.617 32.0527 168.64C32.0061 168.64 31.9478 168.64 31.9012 168.64ZM31.5169 167.417C31.6217 167.452 31.7731 167.499 31.9828 167.475C32.1924 167.464 32.3438 167.405 32.437 167.359C32.3322 167.324 32.1808 167.277 31.9711 167.301C31.7615 167.312 31.6101 167.37 31.5169 167.417Z" fill="#21232E"/>
    <path d="M31.7731 177.447C21.9197 177.447 18.5304 174.943 18.4023 174.826C18.146 174.628 18.0994 174.267 18.2974 174.011C18.4954 173.754 18.8565 173.708 19.1127 173.906C19.1477 173.929 22.4088 176.282 31.7847 176.282C40.4385 176.282 46.2271 172.31 47.9275 168.605C48.0673 168.314 48.4051 168.186 48.6962 168.326C48.9874 168.465 49.1155 168.803 48.9758 169.095C47.054 173.253 40.9859 177.447 31.7731 177.447Z" fill="white"/>
    <path d="M31.7731 183.447C33.5871 183.447 35.0576 181.976 35.0576 180.162C35.0576 178.347 33.5871 176.877 31.7731 176.877C29.9592 176.877 28.4886 178.347 28.4886 180.162C28.4886 181.976 29.9592 183.447 31.7731 183.447Z" fill="#21232E"/>
    <path d="M31.7731 184.029C29.6417 184.029 27.9062 182.294 27.9062 180.162C27.9062 178.03 29.6417 176.294 31.7731 176.294C33.9045 176.294 35.6399 178.03 35.6399 180.162C35.6399 182.294 33.9045 184.029 31.7731 184.029ZM31.7731 177.447C30.2822 177.447 29.071 178.659 29.071 180.15C29.071 181.641 30.2822 182.853 31.7731 182.853C33.2639 182.853 34.4752 181.641 34.4752 180.15C34.4752 178.659 33.2639 177.447 31.7731 177.447Z" fill="white"/>
    <path d="M31.7498 181.187C31.1791 181.187 30.7249 180.733 30.7249 180.162C30.7249 179.591 31.1907 179.137 31.7498 179.137C32.3089 179.137 32.7747 179.591 32.7747 180.162C32.7747 180.733 32.3089 181.187 31.7498 181.187Z" fill="white"/>
    <path d="M32.3322 180.325H31.1675V183.633H32.3322V180.325Z" fill="white"/>
    <path d="M39.3204 153.286C39.0409 153.286 38.7963 153.088 38.7497 152.808C38.5634 151.783 38.9943 149.686 41.9061 149.092C42.2205 149.022 42.5234 149.232 42.5932 149.546C42.6631 149.861 42.4535 150.164 42.139 150.234C39.6815 150.735 39.8678 152.424 39.9028 152.61C39.9494 152.925 39.7397 153.228 39.4252 153.274C39.3903 153.286 39.3554 153.286 39.3204 153.286Z" fill="white"/>
    <path d="M24.2492 153.298C24.2142 153.298 24.1793 153.298 24.1444 153.286C23.8299 153.228 23.6202 152.925 23.6668 152.61C23.7018 152.412 23.8881 150.735 21.4306 150.234C21.1161 150.164 20.9065 149.861 20.9764 149.546C21.0346 149.232 21.3491 149.022 21.6635 149.092C24.5753 149.686 24.9946 151.783 24.8199 152.808C24.7733 153.1 24.5287 153.298 24.2492 153.298Z" fill="white"/>
    <path d="M15 166C13.4 165.6 12.3333 166.833 12 167.5L16.5 170.5C16.8333 170.167 17.5 169.3 17.5 168.5C17.5 167.5 17 166.5 15 166Z" fill="white"/>
    <path d="M16.4106 171.098C16.2243 171.098 16.0379 171.005 15.9214 170.842C15.7467 170.574 15.8166 170.213 16.0845 170.038C17.0745 169.386 17.1677 168.92 16.9813 168.232C16.8066 167.568 16.0961 166.508 14.9198 166.508C13.8366 166.508 12.9747 166.928 12.3691 167.743C12.1711 167.999 11.81 168.058 11.5538 167.86C11.2976 167.662 11.2393 167.301 11.4373 167.044C12.2759 165.938 13.4756 165.343 14.9198 165.343C16.76 165.343 17.8315 166.893 18.1111 167.941C18.4372 169.211 18.0179 170.155 16.7251 171.005C16.6319 171.075 16.5154 171.098 16.4106 171.098Z" fill="#21232E"/>
    <path d="M28.477 163.2H21.547C21.547 163.2 22.4205 164.54 25.0062 164.54C27.5918 164.54 28.477 163.2 28.477 163.2Z" fill="white"/>
    <path d="M25.0179 165.122C22.141 165.122 21.1045 163.584 21.0695 163.514C20.953 163.34 20.9414 163.107 21.0462 162.92C21.151 162.734 21.349 162.617 21.5587 162.617H28.4887C28.6983 162.617 28.8963 162.734 29.0011 162.92C29.106 163.107 29.0943 163.34 28.9779 163.514C28.9196 163.584 27.8947 165.122 25.0179 165.122ZM23.5736 163.782C24.354 163.992 25.6701 163.992 26.4504 163.782H23.5736Z" fill="white"/>
    <path d="M25.0619 163.99C25.6976 163.952 26.1769 163.322 26.1325 162.584C26.0881 161.845 25.5368 161.277 24.9011 161.316C24.2654 161.354 23.7861 161.983 23.8305 162.722C23.8749 163.461 24.4262 164.028 25.0619 163.99Z" fill="#21232E"/>
    <path d="M42.2088 163.2H35.2788C35.2788 163.2 36.1523 164.54 38.738 164.54C41.3236 164.54 42.2088 163.2 42.2088 163.2Z" fill="white"/>
    <path d="M38.7497 165.122C35.8729 165.122 34.8363 163.584 34.8013 163.514C34.6849 163.34 34.6732 163.107 34.778 162.92C34.8829 162.734 35.0809 162.617 35.2905 162.617H42.2205C42.4301 162.617 42.6281 162.734 42.733 162.92C42.8378 163.107 42.8261 163.34 42.7097 163.514C42.6514 163.584 41.6265 165.122 38.7497 165.122ZM37.3054 163.782C38.0858 163.992 39.4019 163.992 40.1823 163.782H37.3054Z" fill="white"/>
    <path d="M38.7939 163.99C39.4295 163.952 39.9088 163.322 39.8644 162.584C39.82 161.845 39.2687 161.277 38.633 161.316C37.9974 161.354 37.5181 161.983 37.5625 162.722C37.6069 163.461 38.1582 164.028 38.7939 163.99Z" fill="#21232E"/>
    <path d="M115.178 150.968H69.2068V163.351H115.178V150.968Z" fill="#FFC980"/>
    <path d="M115.178 163.934H69.2067C68.8806 163.934 68.6244 163.677 68.6244 163.351V150.968C68.6244 150.642 68.8806 150.385 69.2067 150.385H115.178C115.504 150.385 115.76 150.642 115.76 150.968V163.351C115.76 163.677 115.504 163.934 115.178 163.934ZM69.7891 162.769H114.595V151.55H69.7891V162.769Z" fill="#21232E"/>
    <path d="M105.86 191.578H79.6891L73.3997 163.351H110.985L105.86 191.578Z" fill="#FFC980"/>
    <path d="M105.86 192.161H79.6891C79.4212 192.161 79.1766 191.974 79.1184 191.707L72.829 163.479C72.794 163.305 72.829 163.13 72.9454 162.99C73.0619 162.85 73.225 162.769 73.3997 162.769H110.985C111.159 162.769 111.322 162.85 111.427 162.978C111.544 163.107 111.579 163.281 111.555 163.456L106.431 191.683C106.384 191.963 106.14 192.161 105.86 192.161ZM80.155 190.996H105.371L110.286 163.934H74.1218L80.155 190.996Z" fill="#21232E"/>
    <path d="M108.189 197.753H76.1949L73.3997 191.578H110.985L108.189 197.753Z" fill="#E8B679"/>
    <path d="M108.189 198.335H76.1949C75.962 198.335 75.764 198.195 75.6591 197.997L72.8638 191.835C72.7823 191.66 72.794 191.45 72.9104 191.275C73.0153 191.112 73.2016 191.008 73.3996 191.008H110.985C111.183 191.008 111.369 191.112 111.474 191.275C111.579 191.439 111.59 191.648 111.52 191.835L108.725 197.997C108.62 198.195 108.411 198.335 108.189 198.335ZM76.5676 197.17H107.817L110.088 192.173H74.2964L76.5676 197.17Z" fill="#21232E"/>
    <path d="M165.237 193.314H145.961L141.325 163.41H169.01L165.237 193.314Z" fill="#FFC980"/>
    <path d="M165.237 193.897H145.961C145.67 193.897 145.425 193.687 145.39 193.407L140.755 163.503C140.731 163.34 140.778 163.165 140.883 163.037C140.999 162.909 141.151 162.839 141.325 162.839H168.999C169.162 162.839 169.325 162.909 169.441 163.037C169.546 163.165 169.604 163.328 169.581 163.491L165.807 193.384C165.772 193.675 165.528 193.897 165.237 193.897ZM146.462 192.732H164.724L168.346 163.992H142.012L146.462 192.732Z" fill="#21232E"/>
    <path d="M167.332 197.858H143.425L141.334 193.314H169.424L167.332 197.858Z" fill="#E8B679"/>
    <path d="M167.332 198.44H143.425C143.189 198.44 142.988 198.3 142.882 198.102L140.79 193.559C140.707 193.384 140.719 193.174 140.837 193C140.944 192.837 141.133 192.732 141.334 192.732H169.412C169.613 192.732 169.802 192.837 169.908 193C170.014 193.163 170.026 193.372 169.955 193.559L167.864 198.102C167.769 198.3 167.568 198.44 167.332 198.44ZM143.804 197.275H166.942L168.49 193.897H142.244L143.804 197.275Z" fill="#21232E"/>
    <path d="M148.15 163.316C148.15 163.316 144.761 127.552 153.892 127.552C161.381 127.552 158.551 163.41 158.551 163.41L148.15 163.316Z" fill="#14AABA"/>
    <path d="M158.551 163.992C158.54 163.992 158.54 163.992 158.551 163.992L148.15 163.91C147.848 163.91 147.603 163.677 147.58 163.386C147.475 162.221 144.947 134.903 150.841 128.437C151.714 127.47 152.751 126.981 153.904 126.981C154.754 126.981 155.523 127.342 156.187 128.064C161.428 133.738 159.238 162.256 159.145 163.468C159.099 163.759 158.854 163.992 158.551 163.992ZM148.674 162.745L158.004 162.827C158.283 158.808 159.832 133.75 155.313 128.845C154.871 128.367 154.405 128.134 153.892 128.134C153.065 128.134 152.343 128.484 151.691 129.206C146.566 134.833 148.36 158.878 148.674 162.745Z" fill="#21232E"/>
    <path d="M157.445 163.351C157.445 163.351 155.372 141.473 160.962 141.473C165.539 141.473 163.816 163.41 163.816 163.41L157.445 163.351Z" fill="#14AABA"/>
    <path d="M163.804 163.992C163.804 163.992 163.792 163.992 163.804 163.992L157.433 163.945C157.13 163.945 156.886 163.712 156.862 163.421C156.793 162.711 155.243 145.9 158.912 141.869C159.495 141.229 160.182 140.902 160.951 140.902C161.533 140.902 162.057 141.147 162.511 141.636C165.726 145.12 164.526 161.592 164.375 163.456C164.363 163.759 164.107 163.992 163.804 163.992ZM157.969 162.78L163.257 162.827C163.629 157.526 164.002 144.968 161.649 142.429C161.347 142.102 161.102 142.067 160.939 142.067C160.496 142.067 160.112 142.254 159.763 142.65C157.107 145.562 157.538 157.69 157.969 162.78Z" fill="#21232E"/>
    <path d="M157.689 133.004C157.538 133.004 157.386 132.946 157.282 132.829C157.049 132.596 157.049 132.235 157.282 132.002L159.495 129.789C159.728 129.556 160.089 129.556 160.322 129.789C160.554 130.022 160.554 130.383 160.322 130.616L158.109 132.829C157.98 132.946 157.829 133.004 157.689 133.004Z" fill="#21232E"/>
    <path d="M161.183 151.853C161.032 151.853 160.881 151.795 160.776 151.678C160.543 151.445 160.543 151.084 160.776 150.851L162.989 148.638C163.222 148.405 163.583 148.405 163.816 148.638C164.049 148.871 164.049 149.232 163.816 149.465L161.603 151.678C161.486 151.795 161.335 151.853 161.183 151.853Z" fill="#21232E"/>
    <path d="M154.405 130.231C154.253 130.231 154.102 130.173 153.997 130.057C153.764 129.824 153.764 129.462 153.997 129.229L156.21 127.016C156.443 126.783 156.804 126.783 157.037 127.016C157.27 127.249 157.27 127.61 157.037 127.843L154.824 130.057C154.708 130.173 154.556 130.231 154.405 130.231Z" fill="#21232E"/>
    <path d="M161.917 143.78C161.766 143.78 161.614 143.722 161.51 143.605C161.277 143.372 161.277 143.011 161.51 142.778L163.722 140.565C163.955 140.332 164.316 140.332 164.549 140.565C164.782 140.798 164.782 141.159 164.549 141.392L162.336 143.605C162.208 143.733 162.057 143.78 161.917 143.78Z" fill="#21232E"/>
    <path d="M163.012 154.882C162.861 154.882 162.709 154.824 162.604 154.707C162.371 154.474 162.371 154.113 162.604 153.88L164.817 151.667C165.05 151.434 165.411 151.434 165.644 151.667C165.877 151.9 165.877 152.261 165.644 152.494L163.431 154.707C163.315 154.824 163.163 154.882 163.012 154.882Z" fill="#21232E"/>
    <path d="M162.546 147.17C162.395 147.17 162.243 147.112 162.139 146.995C161.906 146.762 161.906 146.401 162.139 146.168L164.352 143.955C164.584 143.722 164.946 143.722 165.178 143.955C165.411 144.188 165.411 144.549 165.178 144.782L162.966 146.995C162.837 147.112 162.686 147.17 162.546 147.17Z" fill="#21232E"/>
    <path d="M155.511 143.78C155.36 143.78 155.208 143.722 155.104 143.605C154.871 143.372 154.871 143.011 155.104 142.778L157.317 140.565C157.55 140.332 157.911 140.332 158.144 140.565C158.376 140.798 158.376 141.159 158.144 141.392L155.931 143.605C155.814 143.733 155.663 143.78 155.511 143.78Z" fill="#21232E"/>
    <path d="M149.373 136.732C149.222 136.732 149.07 136.674 148.966 136.557L146.753 134.344C146.52 134.111 146.52 133.75 146.753 133.517C146.986 133.284 147.347 133.284 147.58 133.517L149.793 135.73C150.026 135.963 150.026 136.324 149.793 136.557C149.676 136.685 149.525 136.732 149.373 136.732Z" fill="#21232E"/>
    <path d="M150.841 142.545C150.689 142.545 150.538 142.487 150.433 142.37L148.22 140.157C147.987 139.924 147.987 139.563 148.22 139.33C148.453 139.097 148.814 139.097 149.047 139.33L151.26 141.543C151.493 141.776 151.493 142.137 151.26 142.37C151.144 142.487 150.992 142.545 150.841 142.545Z" fill="#21232E"/>
    <path d="M147.172 150.746C147.021 150.746 146.869 150.688 146.764 150.572L144.551 148.358C144.318 148.125 144.318 147.764 144.551 147.531C144.784 147.298 145.145 147.298 145.378 147.531L147.591 149.744C147.824 149.977 147.824 150.339 147.591 150.572C147.463 150.688 147.312 150.746 147.172 150.746Z" fill="#21232E"/>
    <path d="M148.267 145.481C148.115 145.481 147.964 145.422 147.859 145.306L145.646 143.093C145.413 142.86 145.413 142.498 145.646 142.265C145.879 142.032 146.24 142.032 146.473 142.265L148.686 144.479C148.919 144.712 148.919 145.073 148.686 145.306C148.57 145.434 148.418 145.481 148.267 145.481Z" fill="#21232E"/>
    <path d="M158.167 150.746C158.015 150.746 157.864 150.688 157.759 150.572L155.546 148.358C155.313 148.125 155.313 147.764 155.546 147.531C155.779 147.298 156.14 147.298 156.373 147.531L158.586 149.744C158.819 149.977 158.819 150.339 158.586 150.572C158.47 150.688 158.318 150.746 158.167 150.746Z" fill="#21232E"/>
    <path d="M157.41 138.118C157.258 138.118 157.107 138.06 157.002 137.943C156.769 137.71 156.769 137.349 157.002 137.116L159.774 134.344C160.007 134.111 160.368 134.111 160.601 134.344C160.834 134.577 160.834 134.938 160.601 135.171L157.829 137.943C157.701 138.06 157.549 138.118 157.41 138.118Z" fill="#21232E"/>
    <path d="M153.031 138.118C152.879 138.118 152.728 138.06 152.623 137.943C152.39 137.71 152.39 137.349 152.623 137.116L155.395 134.344C155.628 134.111 155.989 134.111 156.222 134.344C156.455 134.577 156.455 134.938 156.222 135.171L153.45 137.943C153.322 138.06 153.17 138.118 153.031 138.118Z" fill="#21232E"/>
    <path d="M151.039 132.585C150.888 132.585 150.736 132.526 150.631 132.41L147.859 129.637C147.626 129.404 147.626 129.043 147.859 128.81C148.092 128.577 148.453 128.577 148.686 128.81L151.458 131.583C151.691 131.816 151.691 132.177 151.458 132.41C151.342 132.526 151.19 132.585 151.039 132.585Z" fill="#21232E"/>
    <path d="M158.004 160.381C157.852 160.381 157.701 160.322 157.596 160.206L154.824 157.433C154.591 157.2 154.591 156.839 154.824 156.606C155.057 156.373 155.418 156.373 155.651 156.606L158.423 159.379C158.656 159.612 158.656 159.973 158.423 160.206C158.307 160.322 158.155 160.381 158.004 160.381Z" fill="#21232E"/>
    <path d="M160.03 156.268C159.879 156.268 159.728 156.21 159.623 156.094L156.851 153.321C156.618 153.088 156.618 152.727 156.851 152.494C157.084 152.261 157.445 152.261 157.678 152.494L160.45 155.266C160.683 155.499 160.683 155.861 160.45 156.094C160.322 156.21 160.17 156.268 160.03 156.268Z" fill="#21232E"/>
    <path d="M163.012 158.994C162.861 158.994 162.709 158.936 162.604 158.82C162.371 158.587 162.371 158.225 162.604 157.992L165.376 155.22C165.609 154.987 165.97 154.987 166.203 155.22C166.436 155.453 166.436 155.814 166.203 156.047L163.431 158.82C163.315 158.936 163.163 158.994 163.012 158.994Z" fill="#21232E"/>
    <path d="M95.6805 151.55C95.6455 151.55 95.6222 151.55 95.5873 151.539C95.2728 151.492 95.0515 151.189 95.0981 150.875C95.1913 150.245 97.5789 135.474 108.038 130.639C108.329 130.499 108.679 130.627 108.807 130.919C108.946 131.21 108.818 131.559 108.527 131.688C98.6388 136.254 96.2745 150.898 96.2512 151.038C96.2162 151.34 95.9716 151.55 95.6805 151.55Z" fill="#21232E"/>
    <path d="M108.178 131.385C108.178 131.385 113.675 126.364 116.354 130.453C119.033 134.542 111.101 134.192 108.178 131.385Z" fill="#14AABA"/>
    <path d="M114.083 134.087C111.928 134.087 109.261 133.225 107.77 131.792C107.654 131.676 107.584 131.524 107.595 131.361C107.595 131.198 107.665 131.047 107.782 130.942C107.921 130.814 111.124 127.925 114.048 128.286C115.201 128.426 116.144 129.043 116.843 130.126C118.019 131.921 117.332 132.911 116.808 133.353C116.191 133.854 115.201 134.087 114.083 134.087ZM109.086 131.385C111.171 132.887 114.956 133.377 116.063 132.456C116.214 132.34 116.657 131.967 115.865 130.767C115.352 129.987 114.7 129.556 113.896 129.451C112.114 129.229 110.03 130.639 109.086 131.385Z" fill="#21232E"/>
    <path d="M107.968 131.012C107.968 131.012 108.166 123.568 103.309 124.22C98.464 124.861 103.938 130.639 107.968 131.012Z" fill="#14AABA"/>
    <path d="M107.968 131.594C107.945 131.594 107.933 131.594 107.91 131.594C104.777 131.303 100.875 128.099 100.817 125.781C100.805 125.106 101.096 123.929 103.228 123.649C104.497 123.475 105.58 123.789 106.442 124.558C108.632 126.527 108.539 130.849 108.539 131.035C108.539 131.198 108.469 131.35 108.341 131.455C108.248 131.536 108.119 131.594 107.968 131.594ZM103.903 124.756C103.74 124.756 103.565 124.768 103.391 124.791C101.97 124.977 101.981 125.56 101.993 125.746C102.028 127.191 104.87 129.73 107.374 130.313C107.316 129.113 107.013 126.608 105.685 125.408C105.184 124.977 104.602 124.756 103.903 124.756Z" fill="#21232E"/>
    <path d="M103.845 134.239C103.845 134.239 108.073 133.26 107.968 136.72C107.875 140.192 103.822 138.503 103.845 134.239Z" fill="#14AABA"/>
    <path d="M106.64 139.167C106.629 139.167 106.617 139.167 106.617 139.167C104.987 139.143 103.251 137.151 103.263 134.239C103.263 133.971 103.449 133.738 103.717 133.68C103.81 133.656 106.175 133.132 107.572 134.274C108.259 134.833 108.597 135.672 108.562 136.743C108.504 138.538 107.502 139.167 106.64 139.167ZM104.439 134.728C104.602 136.86 105.907 137.99 106.629 138.002H106.64C107.281 138.002 107.374 137.093 107.386 136.709C107.409 135.998 107.223 135.497 106.827 135.171C106.209 134.658 105.126 134.647 104.439 134.728Z" fill="#21232E"/>
    <path d="M91.7437 151.55C91.7088 151.55 91.6622 151.55 91.6272 151.539C91.3128 151.469 91.1148 151.166 91.173 150.851C91.2312 150.583 96.7054 124.034 90.4276 113.502C90.2645 113.223 90.3577 112.873 90.6256 112.699C90.9051 112.536 91.2545 112.629 91.4292 112.897C97.9399 123.812 92.5474 149.978 92.3144 151.084C92.2562 151.364 92.0116 151.55 91.7437 151.55Z" fill="#21232E"/>
    <path d="M90.1947 112.629C90.1947 112.629 87.085 109.437 90.8237 104.975C94.5624 100.513 96.2046 108.167 93.3744 111.359C90.5441 114.551 90.1947 112.629 90.1947 112.629Z" fill="#14AABA"/>
    <path d="M90.8702 113.782C90.7537 113.782 90.6373 113.77 90.5208 113.735C90.0433 113.596 89.787 113.211 89.6822 112.908C89.1348 112.244 86.7821 108.913 90.3927 104.59C91.3943 103.402 92.361 102.866 93.2811 103.053C94.0731 103.193 94.7137 103.857 95.0748 104.917C95.7387 106.839 95.4475 109.903 93.8286 111.732C92.594 113.118 91.6389 113.782 90.8702 113.782ZM90.7654 112.512C90.777 112.547 90.812 112.605 90.8236 112.617C90.8236 112.617 91.3827 112.734 92.9434 110.974C94.2595 109.483 94.4924 106.874 93.9567 105.313C93.7354 104.684 93.4093 104.276 93.0599 104.206C92.6173 104.125 91.9534 104.544 91.2779 105.348C87.9119 109.367 90.5092 112.116 90.614 112.221C90.6955 112.303 90.7421 112.407 90.7654 112.512Z" fill="#21232E"/>
    <path d="M90.7886 112.92C90.7886 112.92 90.7187 108.47 84.9069 107.969C79.095 107.468 83.3811 114.038 87.6323 114.283C91.8951 114.516 90.7886 112.92 90.7886 112.92Z" fill="#14AABA"/>
    <path d="M88.4709 114.877C88.203 114.877 87.9119 114.865 87.609 114.854C85.1748 114.714 82.7872 112.745 81.902 110.928C81.4128 109.926 81.3895 109.006 81.8438 108.342C82.3679 107.573 83.4278 107.258 84.9768 107.386C90.579 107.864 91.2895 111.883 91.371 112.745C91.5108 113.036 91.604 113.491 91.3594 113.922C90.9867 114.574 90.0666 114.877 88.4709 114.877ZM84.3362 108.528C83.5675 108.528 83.0201 108.691 82.7988 109.006C82.6008 109.309 82.6474 109.821 82.9386 110.427C83.6723 111.918 85.6873 113.584 87.6673 113.701C90.0083 113.829 90.3228 113.363 90.3228 113.363C90.3345 113.339 90.3112 113.281 90.2879 113.246C90.2296 113.153 90.1947 113.036 90.1947 112.943C90.1947 112.78 90.02 109.006 84.8487 108.563C84.674 108.528 84.4993 108.528 84.3362 108.528Z" fill="#21232E"/>
    <path d="M86.5143 151.445C86.5026 151.445 86.4793 151.445 86.4677 151.445C86.1532 151.422 85.9086 151.142 85.9319 150.816C85.9319 150.781 86.2114 147.147 84.9885 143.349C83.3812 138.351 80.0734 135.439 75.1467 134.682C74.8323 134.635 74.611 134.332 74.6576 134.017C74.7042 133.703 75.007 133.482 75.3214 133.528C88.1914 135.509 87.1083 150.758 87.0966 150.909C87.0617 151.224 86.8054 151.445 86.5143 151.445Z" fill="#21232E"/>
    <path d="M392.855 402.568C392.855 402.568 401.753 395.182 410.128 397.896C418.49 400.611 424.314 404.222 424.314 404.222L445.663 419.902L417.815 429.805L382 425.063L392.855 402.568Z" fill="white"/>
    <path d="M538.723 266.442C525.492 265.218 525.061 248.99 525.061 248.99C524.397 240.789 524.828 231.912 525.596 224.212L477.378 244.296C477.972 248.513 478.973 253.021 478.333 256.737C478.333 256.737 477.378 266.442 469.691 266.442V267.443C469.691 267.443 468.654 286.514 499.274 286.514C529.894 286.514 538.711 267.443 538.711 267.443V266.442H538.723Z" fill="white"/>
    <path d="M524.746 247.534C524.746 247.534 538.292 251.6 548.075 247.534C559.361 242.851 556.053 248.921 568.469 242.851C568.469 242.851 576.331 236.525 578.439 229.524C580.547 222.522 575.667 209.486 575.667 209.486C575.667 209.486 569.634 198.92 567.293 194.773C564.952 190.626 563.042 181.597 562.739 179.151C562.436 176.704 565.08 151.53 551.441 138.575C551.441 138.575 530.115 109.125 499.728 119.924C499.728 119.924 483.085 111.129 467.85 118.212C452.616 125.295 439.327 136.117 434.4 142.664C429.473 149.211 420.785 161.863 423.021 184.778C425.257 207.681 426.631 199.421 424.477 216.267C422.322 233.112 421.414 237.236 434.598 247.534C447.771 257.821 464.577 248.746 464.577 248.746C464.577 248.746 473.208 251.856 478.356 250.726L477.413 244.307C477.413 244.307 463.855 242.944 456.401 233.322C448.947 223.699 442.856 202.637 442.669 194.715L451.044 184.789L467.338 176.937C467.338 176.937 488.163 179.384 500.078 156.166C500.078 156.166 506.181 178.755 525.049 184.079C525.049 184.079 529.568 176.844 537.861 180.141C546.165 183.438 545.268 191.301 544.371 194.773C543.463 198.245 538.874 208.508 537.861 208.566C536.859 208.624 531.536 209.999 531.536 209.999C531.536 209.999 530.907 216.406 528.264 220.321C525.62 224.235 525.62 224.235 525.62 224.235L524.746 247.534Z" fill="white"/>
    <path d="M442.646 194.703C442.646 194.703 445.197 218.492 454.584 231.027C461.969 240.906 469.83 245.193 487.15 243.993C504.609 242.793 525.969 230.689 531.187 213.739C531.187 213.739 531.618 212.434 531.525 209.976C531.525 209.976 533.796 209.789 536.836 208.601C540.54 207.145 551.651 186.35 539.142 180.642C528.182 175.644 524.094 185.733 524.094 185.733L525.841 181.854L501.184 153.743L444.358 184.754L442.646 194.703Z" fill="white"/>
    <path d="M481.92 244.773C467.187 244.773 460.373 239.764 454.107 231.376C444.743 218.853 442.087 194.994 442.064 194.761C442.064 194.703 442.064 194.657 442.064 194.598L443.776 184.673C443.811 184.498 443.916 184.347 444.067 184.265L500.893 153.254C501.126 153.126 501.429 153.172 501.615 153.382L526.272 181.492C526.295 181.516 526.319 181.551 526.33 181.574C527.215 180.735 528.322 179.931 529.696 179.384C532.55 178.254 535.799 178.498 539.375 180.129C543.521 182.017 545.641 185.745 545.501 190.882C545.28 199.002 539.689 208.112 537.045 209.149C534.809 210.022 532.981 210.372 532.119 210.488C532.13 212.679 531.758 213.867 531.734 213.925C526.377 231.33 504.434 243.387 487.184 244.575C485.321 244.715 483.574 244.773 481.92 244.773ZM443.229 194.726C443.403 196.253 446.129 218.783 455.039 230.689C461.771 239.694 469.178 244.668 487.103 243.434C503.98 242.269 525.41 230.526 530.628 213.587C530.628 213.564 531.024 212.317 530.942 210.011C530.931 209.696 531.164 209.44 531.478 209.405C531.501 209.405 533.714 209.207 536.626 208.065C538.629 207.285 544.139 198.687 544.348 190.847C544.476 186.141 542.648 182.89 538.909 181.178C535.636 179.687 532.689 179.442 530.139 180.456C526.819 181.772 525.154 184.859 524.735 185.733L524.618 185.978C524.49 186.269 524.152 186.397 523.861 186.269C523.57 186.141 523.43 185.803 523.547 185.512C523.558 185.488 523.605 185.372 523.698 185.174L525.154 181.947L501.044 154.477L444.871 185.127L443.229 194.726Z" fill="#534D56"/>
    <path d="M524.746 247.534C524.746 247.534 538.292 251.6 548.075 247.534C559.361 242.851 556.053 248.921 568.469 242.851C568.469 242.851 576.331 236.525 578.439 229.524C580.547 222.522 575.667 209.486 575.667 209.486C575.667 209.486 569.634 198.92 567.293 194.773C564.952 190.626 563.042 181.597 562.739 179.151C562.436 176.704 565.08 151.53 551.441 138.575C551.441 138.575 530.115 109.125 499.728 119.924C499.728 119.924 483.085 111.129 467.85 118.212C452.616 125.295 439.327 136.117 434.4 142.664C429.473 149.211 420.785 161.863 423.021 184.778C425.257 207.681 426.631 199.421 424.477 216.267C422.322 233.112 421.414 237.236 434.598 247.534C447.771 257.821 464.577 248.746 464.577 248.746C464.577 248.746 473.208 251.856 478.356 250.726L477.413 244.307C477.413 244.307 464.904 243.632 456.401 233.322C447.48 222.499 442.856 202.637 442.669 194.715L451.044 184.789L467.338 176.937C467.338 176.937 488.163 179.384 500.078 156.166C500.078 156.166 506.181 178.755 525.049 184.079C525.049 184.079 529.568 176.844 537.861 180.141C546.165 183.438 545.268 191.301 544.371 194.773C543.463 198.245 538.874 208.508 537.861 208.566C536.859 208.624 531.536 209.999 531.536 209.999C531.536 209.999 530.907 216.406 528.264 220.321C525.62 224.235 525.62 224.235 525.62 224.235L524.746 247.534Z" fill="#21232E"/>
    <path d="M475.072 212.213C475.037 212.213 475.013 212.213 474.978 212.201C474.582 212.143 471.135 211.548 470.343 209.533C469.982 208.613 470.226 207.599 471.077 206.528C474.804 201.798 473.045 187.375 473.022 187.236C472.987 186.921 473.208 186.63 473.522 186.583C473.837 186.537 474.128 186.77 474.175 187.084C474.256 187.702 476.015 202.124 471.985 207.25C471.414 207.972 471.228 208.601 471.426 209.102C471.892 210.29 474.28 210.908 475.165 211.048C475.479 211.094 475.7 211.397 475.654 211.712C475.607 212.014 475.351 212.213 475.072 212.213Z" fill="#21232E"/>
    <path d="M477.296 225.202C475.502 225.202 473.837 224.957 472.614 224.491C472.311 224.375 472.16 224.037 472.276 223.734C472.393 223.431 472.73 223.28 473.022 223.396C476.085 224.561 482.083 224.212 485.531 221.998C485.798 221.823 486.159 221.905 486.334 222.173C486.509 222.441 486.427 222.802 486.159 222.977C483.807 224.491 480.359 225.202 477.296 225.202Z" fill="#21232E"/>
    <path d="M436.741 249.328C436.648 249.328 436.555 249.305 436.473 249.258C420.587 240.859 421.88 231.19 423.522 218.958C424.477 211.863 425.548 203.825 423.79 194.237C416.638 155.094 430.51 142.489 453.746 125.19C470.704 112.561 488.71 113.062 499.041 119.178C499.321 119.342 499.414 119.703 499.251 119.982C499.088 120.262 498.727 120.343 498.447 120.192C488.454 114.274 470.96 113.831 454.445 126.145C431.57 143.188 417.908 155.584 424.943 194.051C426.725 203.825 425.642 211.956 424.675 219.132C423.033 231.388 421.845 240.242 437.009 248.257C437.289 248.408 437.405 248.757 437.254 249.049C437.149 249.212 436.951 249.328 436.741 249.328Z" fill="#21232E"/>
    <path d="M467.769 176.926C467.454 176.926 467.198 176.681 467.186 176.367C467.175 176.04 467.419 175.772 467.734 175.761C489.036 174.712 498.517 157.82 499.53 155.898C499.682 155.607 500.031 155.502 500.311 155.653C500.602 155.805 500.707 156.154 500.555 156.434C499.507 158.414 489.723 175.842 467.78 176.926C467.792 176.926 467.78 176.926 467.769 176.926Z" fill="#21232E"/>
    <path d="M458.38 197.021C459.94 196.927 461.117 195.378 461.008 193.56C460.898 191.743 459.545 190.346 457.985 190.439C456.424 190.533 455.248 192.083 455.357 193.9C455.467 195.718 456.82 197.115 458.38 197.021Z" fill="#21232E"/>
    <path d="M458.242 197.604C456.448 197.604 454.911 195.996 454.782 193.923C454.654 191.791 456.075 189.962 457.95 189.845C459.814 189.74 461.456 191.383 461.584 193.515C461.712 195.647 460.291 197.487 458.416 197.592C458.358 197.604 458.3 197.604 458.242 197.604ZM458.137 191.01C458.102 191.01 458.067 191.01 458.02 191.01C456.786 191.08 455.854 192.362 455.947 193.853C456.04 195.344 457.123 196.52 458.346 196.427C459.581 196.357 460.513 195.076 460.42 193.585C460.338 192.14 459.325 191.01 458.137 191.01Z" fill="#21232E"/>
    <path d="M496.757 194.715C498.318 194.621 499.494 193.072 499.385 191.254C499.275 189.437 497.922 188.039 496.362 188.133C494.802 188.227 493.625 189.776 493.734 191.594C493.844 193.411 495.197 194.809 496.757 194.715Z" fill="#21232E"/>
    <path d="M496.619 195.297C494.825 195.297 493.288 193.69 493.171 191.616C493.113 190.602 493.392 189.612 493.975 188.855C494.569 188.063 495.419 187.597 496.339 187.539C498.238 187.445 499.845 189.076 499.973 191.208C500.031 192.233 499.752 193.212 499.169 193.969C498.575 194.761 497.725 195.227 496.805 195.286C496.735 195.297 496.677 195.297 496.619 195.297ZM496.514 188.704C496.479 188.704 496.432 188.704 496.397 188.704C495.815 188.738 495.279 189.041 494.895 189.554C494.487 190.101 494.278 190.8 494.324 191.546C494.417 193.037 495.477 194.179 496.723 194.121C497.306 194.086 497.842 193.783 498.226 193.27C498.634 192.723 498.843 192.024 498.797 191.278C498.715 189.834 497.702 188.704 496.514 188.704Z" fill="#21232E"/>
    <path d="M510.979 220.495C517.065 220.495 521.998 215.561 521.998 209.475C521.998 203.388 517.065 198.454 510.979 198.454C504.894 198.454 499.961 203.388 499.961 209.475C499.961 215.561 504.894 220.495 510.979 220.495Z" fill="#FCCFC6"/>
    <path d="M460.454 213.645C460.792 219.319 456.797 224.223 451.323 225.167C448.05 218.981 445.744 210.628 444.358 204.535C445.698 203.836 447.2 203.405 448.784 203.312C454.864 202.951 460.093 207.576 460.454 213.645Z" fill="#FCCFC6"/>
    <path d="M488.838 178.009C488.838 178.009 493.124 175.12 499.193 175.306C505.261 175.505 508.033 176.611 508.964 177.427C509.885 178.242 503.91 176.343 499.763 176.949C494.837 177.66 487.744 180.84 488.14 179.372C488.384 178.464 488.396 178.475 488.838 178.009Z" fill="#21232E"/>
    <path d="M488.605 180.339C488.221 180.339 487.965 180.246 487.778 180.071C487.557 179.861 487.487 179.547 487.569 179.232C487.825 178.289 487.883 178.172 488.372 177.66L488.512 177.532C488.699 177.415 493.031 174.561 499.204 174.736C506.297 174.957 508.65 176.402 509.337 177.007C509.733 177.357 509.628 177.718 509.57 177.846C509.314 178.37 508.825 178.289 507.008 177.998C505.074 177.683 502.151 177.205 499.833 177.532C497.748 177.834 495.268 178.58 493.09 179.244C490.714 179.966 489.397 180.339 488.605 180.339ZM489.211 178.464C488.955 178.731 488.908 178.778 488.792 179.174C489.549 179.104 491.307 178.568 492.752 178.126C494.976 177.45 497.492 176.681 499.67 176.367C501.359 176.122 503.281 176.273 504.981 176.495C503.595 176.203 501.708 175.97 499.169 175.889C493.73 175.714 489.7 178.149 489.211 178.464Z" fill="#21232E"/>
    <path d="M459.977 180.514C463.075 181.061 465.521 181.527 465.183 180.689C464.834 179.815 464.822 179.827 464.321 179.419C464.321 179.419 463.704 179.104 462.632 178.755" fill="#21232E"/>
    <path d="M464.426 181.725C463.599 181.725 462.318 181.516 460.257 181.155L459.884 181.085L460.082 179.943L460.455 180.013C461.945 180.281 463.774 180.607 464.519 180.572C464.356 180.199 464.298 180.153 464.019 179.92C463.972 179.896 463.401 179.617 462.469 179.314L462.83 178.207C463.937 178.568 464.578 178.895 464.601 178.906L464.706 178.976C465.3 179.465 465.37 179.57 465.742 180.479C465.87 180.793 465.835 181.108 465.637 181.341C465.404 181.597 465.055 181.725 464.426 181.725Z" fill="#21232E"/>
    <path d="M437.545 185.011C437.277 185.011 437.032 184.824 436.974 184.545C436.939 184.382 433.596 167.688 441.738 152.555C441.889 152.275 442.25 152.17 442.53 152.322C442.809 152.473 442.914 152.823 442.763 153.114C434.819 167.874 438.081 184.149 438.115 184.312C438.185 184.626 437.976 184.941 437.661 184.999C437.626 184.999 437.58 185.011 437.545 185.011Z" fill="white"/>
    <path d="M525.026 184.649C524.968 184.649 524.909 184.638 524.851 184.626C504.865 178.277 499.542 156.516 499.484 156.294C499.414 155.98 499.6 155.665 499.915 155.595C500.229 155.514 500.544 155.712 500.614 156.026C500.66 156.236 505.855 177.368 525.2 183.519C525.503 183.613 525.678 183.95 525.585 184.253C525.503 184.498 525.27 184.649 525.026 184.649Z" fill="#21232E"/>
    <path d="M455.423 253.021C455.4 253.021 455.365 253.021 455.341 253.021C438.185 250.54 433.783 233.625 433.736 233.461C433.655 233.147 433.853 232.832 434.155 232.751C434.458 232.669 434.784 232.867 434.866 233.17C434.913 233.333 439.14 249.491 455.505 251.868C455.819 251.915 456.04 252.206 455.994 252.532C455.947 252.812 455.703 253.021 455.423 253.021Z" fill="white"/>
    <path d="M429.205 400.016C412.236 382.169 392.89 396.021 392.89 396.021L418.746 318.842C418.746 318.842 426.305 289.52 432.595 282.029C438.884 274.538 469.702 265.288 469.702 265.288V266.453C469.702 266.453 468.666 285.524 499.286 285.524C529.906 285.524 538.723 266.453 538.723 266.453V265.288L569.215 273.653C569.215 273.653 585.113 277.684 591.099 295.484C594.861 306.656 603.585 332.309 603.585 332.309C603.585 332.309 633.763 388.693 603.585 406.342C575.388 422.826 528.194 422.861 521.136 419.902C521.136 419.902 517.409 422.978 512.796 420.38C508.184 417.77 429.205 400.016 429.205 400.016Z" fill="#FFC980"/>
    <path d="M466.825 250.563C466.79 250.563 466.744 250.563 466.709 250.551C447.258 246.649 441.272 220.88 441.213 220.624C441.144 220.309 441.342 219.994 441.656 219.925C441.971 219.855 442.285 220.053 442.355 220.367C442.413 220.624 448.225 245.659 466.942 249.41C467.256 249.468 467.466 249.783 467.396 250.097C467.338 250.377 467.093 250.563 466.825 250.563Z" fill="white"/>
    <path d="M529.568 201.355C529.242 201.355 528.986 201.087 528.986 200.761C528.986 200.446 529.254 200.19 529.568 200.19C529.568 200.19 529.568 200.19 529.58 200.19C529.58 200.19 529.836 200.178 530.034 199.934C530.325 199.573 530.395 198.874 530.232 197.942C530.139 197.417 529.941 196.742 529.498 196.544C529.056 196.334 528.485 196.66 528.473 196.672C528.299 196.777 528.089 196.777 527.914 196.695C527.74 196.602 527.611 196.439 527.6 196.241C527.588 196.136 526.575 186.094 535.042 182.925C535.345 182.809 535.683 182.96 535.788 183.263C535.904 183.566 535.741 183.904 535.45 184.009C529.021 186.409 528.648 193.095 528.706 195.355C529.079 195.286 529.522 195.274 529.964 195.484C530.686 195.81 531.164 196.579 531.362 197.744C531.595 199.072 531.432 200.074 530.896 200.703C530.372 201.332 529.673 201.355 529.568 201.355Z" fill="#21232E"/>
    <path d="M521.136 420.485C520.868 420.485 520.623 420.298 520.565 420.03L515.743 398.094C515.627 397.826 515.405 397.092 515.836 395.997C516.873 393.364 521.45 389.182 537.372 384.185C539.084 383.649 541.262 382.915 543.777 382.053C551.837 379.315 564.02 375.179 577.216 372.185C577.531 372.115 577.845 372.314 577.915 372.628C577.985 372.943 577.787 373.257 577.472 373.327C564.335 376.309 552.187 380.433 544.15 383.159C541.623 384.021 539.433 384.755 537.709 385.303C521.636 390.347 517.805 394.366 516.954 396.312C516.582 397.162 516.791 397.617 516.803 397.64C516.826 397.675 516.849 397.745 516.861 397.78L521.695 419.786C521.765 420.1 521.567 420.415 521.252 420.485C521.217 420.473 521.171 420.485 521.136 420.485Z" fill="#21232E"/>
    <path d="M536.754 421.941C528.811 421.941 522.976 421.3 520.914 420.438C520.623 420.31 520.483 419.972 520.6 419.681C520.716 419.39 521.066 419.25 521.357 419.366C527.984 422.139 574.642 422.593 603.294 405.841C632.644 388.681 603.375 333.147 603.073 332.588C603.038 332.495 594.314 306.854 590.552 295.671C584.74 278.371 569.238 274.258 569.075 274.212L538.571 265.847C538.257 265.766 538.082 265.44 538.164 265.137C538.245 264.822 538.571 264.648 538.874 264.729L569.366 273.094C569.517 273.128 585.625 277.416 591.647 295.309C595.409 306.481 604.132 332.134 604.132 332.134C604.4 332.612 634.182 389.136 603.876 406.855C583.773 418.598 554.819 421.941 536.754 421.941Z" fill="#21232E"/>
    <path d="M538.734 267.024C538.711 267.024 538.699 267.024 538.676 267.024C533.039 266.5 528.788 263.203 526.4 257.483C524.618 253.219 524.49 249.177 524.49 249.014C523.908 241.861 524.094 233.485 525.037 224.165C525.072 223.839 525.375 223.606 525.678 223.641C526.004 223.676 526.237 223.955 526.202 224.282C525.27 233.531 525.084 241.838 525.666 248.955C525.666 249.025 525.794 253.01 527.507 257.075C529.754 262.422 533.551 265.381 538.804 265.871C539.13 265.906 539.363 266.185 539.328 266.5C539.282 266.803 539.025 267.024 538.734 267.024Z" fill="#21232E"/>
    <path d="M429.205 400.599C429.054 400.599 428.903 400.541 428.786 400.412C412.352 383.124 393.414 396.347 393.228 396.487C393.018 396.638 392.75 396.626 392.541 396.487C392.343 396.335 392.249 396.067 392.331 395.834L418.187 318.655C418.49 317.49 425.839 289.158 432.141 281.656C438.465 274.13 468.27 265.114 469.527 264.729C469.83 264.636 470.156 264.811 470.25 265.114C470.343 265.416 470.168 265.743 469.865 265.836C469.562 265.929 439.14 275.132 433.037 282.39C426.911 289.694 419.387 318.679 419.305 318.97L393.95 394.658C398.772 391.897 415.136 384.371 429.625 399.597C429.846 399.83 429.834 400.203 429.601 400.424C429.497 400.541 429.357 400.599 429.205 400.599Z" fill="#21232E"/>
    <path d="M469.702 267.024C469.376 267.024 469.12 266.768 469.12 266.442C469.12 266.115 469.376 265.859 469.702 265.859C476.772 265.859 477.727 257.052 477.762 256.679C478.263 253.72 477.715 250.19 477.18 246.777C477.051 245.973 476.923 245.169 476.819 244.377C476.772 244.063 476.993 243.76 477.308 243.713C477.622 243.678 477.925 243.888 477.972 244.202C478.088 244.983 478.205 245.787 478.333 246.579C478.88 250.085 479.451 253.709 478.927 256.819C478.915 256.901 477.82 267.024 469.702 267.024Z" fill="#21232E"/>
    <path d="M522.615 174.409C522.487 174.409 522.347 174.363 522.242 174.27C511.795 165.428 510.898 152.275 510.886 152.147C510.863 151.821 511.107 151.553 511.434 151.53C511.783 151.506 512.028 151.751 512.051 152.077C512.063 152.205 512.948 164.868 522.999 173.384C523.244 173.594 523.279 173.955 523.069 174.211C522.941 174.34 522.778 174.409 522.615 174.409Z" fill="white"/>
    <path d="M559.303 247.732C559.152 247.732 559.012 247.674 558.895 247.569C558.662 247.348 558.662 246.975 558.895 246.742C558.977 246.661 567.281 238.028 566.664 221.905C566.047 205.724 554.621 192.152 554.504 192.024C554.295 191.779 554.33 191.406 554.574 191.197C554.819 190.987 555.192 191.022 555.39 191.255C555.506 191.395 567.188 205.246 567.829 221.847C568.469 238.494 560.072 247.185 559.722 247.546C559.606 247.674 559.454 247.732 559.303 247.732Z" fill="white"/>
    <path d="M445.115 149.083C445.022 149.083 444.917 149.06 444.824 149.013C444.545 148.862 444.44 148.501 444.603 148.221C444.708 148.035 447.188 143.654 451.579 140.194C451.836 139.996 452.197 140.043 452.395 140.288C452.593 140.544 452.546 140.905 452.302 141.103C448.097 144.423 445.639 148.745 445.616 148.78C445.511 148.978 445.313 149.083 445.115 149.083Z" fill="white"/>
    <path d="M433.235 203.615C433.002 203.615 432.781 203.475 432.688 203.231C425.921 184.917 429.508 166.581 429.543 166.394C429.601 166.08 429.916 165.87 430.23 165.94C430.545 165.998 430.755 166.313 430.685 166.627C430.65 166.802 427.144 184.836 433.783 202.835C433.899 203.137 433.736 203.475 433.433 203.58C433.375 203.603 433.305 203.615 433.235 203.615Z" fill="#21232E"/>
    <path d="M503.898 124.596C503.735 124.596 503.572 124.526 503.455 124.398C503.246 124.153 503.269 123.792 503.514 123.582C503.618 123.489 506.157 121.322 511.038 121.823C511.352 121.858 511.585 122.137 511.562 122.464C511.527 122.778 511.259 123.023 510.921 122.988C506.577 122.569 504.294 124.456 504.271 124.467C504.166 124.549 504.026 124.596 503.898 124.596Z" fill="white"/>
    <path d="M538.991 139.717C538.839 139.717 538.699 139.659 538.583 139.554C521.683 123.046 506.519 128.801 506.367 128.871C506.064 128.987 505.727 128.848 505.61 128.545C505.494 128.242 505.633 127.904 505.936 127.788C506.099 127.718 521.939 121.66 539.398 138.727C539.631 138.948 539.631 139.321 539.41 139.554C539.293 139.659 539.142 139.717 538.991 139.717Z" fill="white"/>
    <path d="M499.286 286.095C487.569 286.095 479.032 283.357 473.907 277.94C468.84 272.593 469.097 266.651 469.108 266.395L470.273 266.453C470.273 266.512 470.04 272.173 474.769 277.148C479.66 282.297 487.907 284.918 499.274 284.918C529.125 284.918 538.094 266.372 538.187 266.185L539.247 266.675C539.165 266.884 529.929 286.095 499.286 286.095Z" fill="#21232E"/>
    <path d="M551.418 247.732C551.29 247.732 551.173 247.697 551.068 247.616C550.812 247.418 550.766 247.057 550.952 246.8C558.802 236.397 556.577 220.554 556.554 220.402C556.508 220.088 556.729 219.785 557.043 219.738C557.358 219.692 557.661 219.913 557.707 220.227C557.812 220.891 560.037 236.7 551.884 247.499C551.767 247.651 551.593 247.732 551.418 247.732Z" fill="white"/>
    <path d="M528.648 249.596C528.497 249.596 528.345 249.538 528.229 249.421C528.007 249.188 528.007 248.827 528.229 248.594C536.917 239.974 534.588 225.971 534.565 225.831C534.506 225.516 534.716 225.214 535.042 225.155C535.345 225.097 535.66 225.307 535.718 225.633C535.823 226.227 538.187 240.37 529.067 249.421C528.951 249.538 528.799 249.596 528.648 249.596Z" fill="white"/>
    <path d="M535.764 251.483C535.671 251.483 535.578 251.46 535.485 251.414C535.205 251.262 535.089 250.913 535.24 250.621L541.168 239.484C541.32 239.205 541.669 239.1 541.96 239.24C542.24 239.391 542.356 239.741 542.205 240.032L536.277 251.169C536.172 251.367 535.974 251.483 535.764 251.483Z" fill="white"/>
    <path d="M456.891 183.333C456.669 183.333 456.46 183.205 456.366 182.995C456.227 182.704 456.355 182.354 456.646 182.215C482.281 170.134 487.848 139.868 487.895 139.565C487.953 139.251 488.256 139.029 488.57 139.088C488.885 139.146 489.095 139.449 489.048 139.763C488.99 140.078 483.341 170.926 457.147 183.263C457.054 183.31 456.972 183.333 456.891 183.333Z" fill="white"/>
    <path d="M450.659 186.735C450.543 186.735 450.426 186.7 450.322 186.63C450.065 186.444 449.995 186.082 450.182 185.814L455.866 177.869C456.052 177.601 456.413 177.543 456.681 177.73C456.937 177.916 457.007 178.277 456.821 178.545L451.137 186.49C451.009 186.642 450.834 186.735 450.659 186.735Z" fill="white"/>
    <path d="M442.646 195.286C442.53 195.286 442.413 195.251 442.308 195.181C442.052 194.994 441.982 194.633 442.169 194.365C453.641 178.324 459.325 156.026 459.383 155.805C459.465 155.49 459.767 155.304 460.093 155.386C460.408 155.467 460.594 155.782 460.513 156.096C460.455 156.318 454.724 178.836 443.112 195.053C443.007 195.204 442.821 195.286 442.646 195.286Z" fill="#21232E"/>
    <path d="M500.928 299.154C494.662 299.154 488.233 298.373 481.885 296.777C460.606 291.418 457.508 272.849 457.473 272.663C457.426 272.348 457.636 272.045 457.962 271.998C458.277 271.952 458.579 272.173 458.626 272.488C458.638 272.534 459.36 277.043 462.621 282.134C465.626 286.817 471.449 292.956 482.165 295.659C499.88 300.121 518.305 298.152 531.432 290.393C544.604 282.623 548.704 272.464 548.739 272.371C548.856 272.068 549.193 271.929 549.496 272.045C549.799 272.162 549.939 272.499 549.822 272.802C549.659 273.233 545.559 283.415 532.014 291.407C523.36 296.509 512.435 299.154 500.928 299.154Z" fill="#21232E"/>
    <path d="M569.634 319.413C569.564 319.413 569.494 319.401 569.424 319.378C569.121 319.261 568.982 318.923 569.098 318.62C576.878 298.723 589.236 298.012 589.76 297.989C590.074 297.989 590.354 298.222 590.366 298.548C590.377 298.874 590.133 299.142 589.807 299.154C589.69 299.154 577.659 299.911 570.181 319.051C570.088 319.273 569.867 319.413 569.634 319.413Z" fill="#21232E"/>
    <path d="M521.136 419.902C515.848 423.292 512.796 420.38 512.796 420.38C512.796 420.38 509.291 404.35 509.291 401.31C509.291 398.269 516.29 397.908 516.29 397.908L521.136 419.902Z" fill="#E8B679"/>
    <path d="M516.244 422.139C513.833 422.139 512.482 420.881 512.4 420.799C512.319 420.718 512.261 420.613 512.237 420.508C512.097 419.856 508.72 404.385 508.72 401.31C508.72 397.815 515.498 397.36 516.279 397.325C516.558 397.302 516.815 397.5 516.873 397.78L521.706 419.786C521.753 420.019 521.66 420.275 521.45 420.403C519.389 421.708 517.641 422.139 516.244 422.139ZM513.32 420.054C513.891 420.497 516.384 422.069 520.472 419.623L515.836 398.514C513.868 398.7 509.873 399.446 509.873 401.298C509.873 404.071 512.924 418.236 513.32 420.054Z" fill="#21232E"/>
    <path d="M437.871 417.689C427.54 421.65 421.204 424.248 422.59 427.114C423.988 429.979 444.964 422.512 449.506 424.632C456.902 428.08 470.238 424.446 470.238 424.446L512.796 420.38L509.29 401.31C509.29 401.31 480.848 408.113 475.258 407.053C469.667 405.993 448.947 401.496 448.19 401.403C447.433 401.31 437.871 399.143 430.836 400.401C427.703 400.96 417.558 409.546 417.558 409.546" fill="white"/>
    <path d="M424.733 428.348C423.3 428.348 422.404 428.057 422.066 427.358C421.763 426.729 421.728 426.088 421.984 425.459C422.998 422.873 428.6 420.613 437.661 417.141C437.964 417.025 438.302 417.176 438.418 417.479C438.535 417.782 438.383 418.12 438.08 418.236C431.139 420.904 423.953 423.654 423.079 425.89C422.951 426.216 422.963 426.531 423.126 426.857C423.626 427.882 430.405 426.484 434.878 425.552C441.004 424.283 447.328 422.966 449.762 424.096C456.89 427.416 469.958 423.91 470.098 423.875L512.121 419.856L508.848 402.009C504.608 403.01 480.429 408.626 475.165 407.612C471.95 406.995 463.774 405.27 457.205 403.872C452.709 402.917 448.458 402.02 448.132 401.974C448.039 401.962 447.794 401.915 447.445 401.857C440.526 400.552 434.982 400.249 430.952 400.972C428.507 401.414 420.738 407.635 417.943 409.989C417.698 410.198 417.325 410.163 417.116 409.919C416.906 409.674 416.941 409.301 417.186 409.092C418.234 408.206 427.54 400.389 430.743 399.818C434.912 399.073 440.596 399.376 447.654 400.704C447.969 400.762 448.178 400.809 448.272 400.82C448.598 400.855 451.812 401.543 457.45 402.742C464.007 404.14 472.183 405.865 475.386 406.482C480.779 407.495 508.895 400.809 509.174 400.739C509.325 400.704 509.489 400.727 509.628 400.82C509.768 400.913 509.85 401.042 509.885 401.205L513.39 420.275C513.425 420.438 513.379 420.601 513.285 420.729C513.192 420.858 513.041 420.939 512.878 420.962L470.32 425.028C469.865 425.156 456.797 428.663 449.285 425.168C447.2 424.201 440.783 425.529 435.134 426.706C430.417 427.661 426.946 428.348 424.733 428.348Z" fill="#21232E"/>
    <path d="M440.317 405.026C440.317 405.026 435.25 404.443 430.335 405.166C425.42 405.888 412.585 411.293 409.871 413.716C407.158 416.14 410.745 417.235 412.48 416.699C413.4 416.419 426.503 413.344 426.503 413.344" fill="white"/>
    <path d="M411.49 417.409C410.349 417.409 409.033 417.025 408.509 416.105C408.229 415.615 407.996 414.602 409.475 413.274C412.306 410.746 425.304 405.305 430.242 404.571C435.169 403.849 440.165 404.408 440.375 404.432C440.689 404.467 440.922 404.758 440.887 405.072C440.852 405.399 440.55 405.62 440.247 405.585C440.2 405.585 435.192 405.014 430.417 405.725C425.735 406.412 412.923 411.759 410.256 414.136C409.953 414.404 409.277 415.079 409.522 415.522C409.848 416.093 411.351 416.431 412.306 416.128C413.237 415.848 425.828 412.889 426.364 412.761C426.678 412.68 426.992 412.878 427.062 413.192C427.132 413.507 426.946 413.821 426.631 413.891C422.112 414.951 413.365 417.013 412.643 417.235C412.329 417.363 411.921 417.409 411.49 417.409Z" fill="#21232E"/>
    <path d="M444.51 417.363C444.51 417.363 433.387 417.339 428.879 418.924C424.372 420.508 416.941 423.246 414.553 423.106C412.166 422.966 413.284 421.032 413.924 420.415C414.565 419.798 420.668 416.687 426.503 413.344C432.338 410 441.633 411.084 441.633 411.084" fill="white"/>
    <path d="M414.728 423.689C414.658 423.689 414.588 423.689 414.518 423.689C413.249 423.619 412.771 423.059 412.608 422.605C412.224 421.557 413.132 420.368 413.517 419.996C413.913 419.611 415.508 418.737 418.793 416.943C420.948 415.778 423.626 414.322 426.2 412.843C432.129 409.441 441.295 410.466 441.679 410.513C441.994 410.548 442.227 410.839 442.192 411.153C442.157 411.468 441.854 411.689 441.551 411.666C441.458 411.654 432.373 410.641 426.783 413.856C424.186 415.347 421.507 416.804 419.352 417.98C416.918 419.297 414.623 420.555 414.32 420.834C413.936 421.207 413.575 421.894 413.692 422.209C413.761 422.384 414.088 422.5 414.577 422.535C416.603 422.64 423.009 420.392 427.249 418.889L428.681 418.388C433.224 416.792 444.044 416.815 444.498 416.804C444.824 416.804 445.08 417.06 445.08 417.386C445.08 417.712 444.824 417.969 444.498 417.969C444.323 417.98 433.422 417.969 429.066 419.495L427.645 419.996C422.951 421.638 417.139 423.689 414.728 423.689Z" fill="#21232E"/>
    <path d="M572.208 374.62C572.022 374.62 571.835 374.527 571.73 374.364C571.614 374.201 560.631 357.798 563.158 339.124C563.205 338.809 563.496 338.576 563.81 338.623C564.125 338.669 564.346 338.961 564.311 339.275C561.83 357.507 572.581 373.537 572.685 373.7C572.872 373.968 572.802 374.329 572.534 374.504C572.441 374.585 572.324 374.62 572.208 374.62Z" fill="#21232E"/>
    <path d="M442.483 400.983C442.262 400.983 442.041 400.855 441.947 400.634C437.661 390.825 435.483 375.564 435.483 355.293C435.483 344.855 436.159 336.421 436.695 329.641C437.137 324.014 437.533 319.156 437.405 314.881C437.137 305.759 427.109 299.119 427.004 299.061C426.736 298.886 426.655 298.525 426.83 298.257C427.004 297.989 427.365 297.919 427.633 298.082C428.064 298.362 438.279 305.118 438.57 314.846C438.698 319.191 438.302 324.084 437.859 329.734C437.323 336.491 436.648 344.89 436.648 355.293C436.648 375.401 438.791 390.499 443.007 400.168C443.135 400.459 443.007 400.809 442.704 400.937C442.646 400.96 442.565 400.983 442.483 400.983Z" fill="#21232E"/>
    <path d="M392.89 396.009C392.89 396.009 388.208 400.436 392.855 402.568C392.855 402.568 397.502 396.883 407.169 397.453C416.836 398.024 424.314 404.222 424.314 404.222C424.314 404.222 427.424 401.519 429.462 400.902C429.462 400.902 425.921 394.541 415.881 391.722C405.853 388.891 392.89 396.009 392.89 396.009Z" fill="#E8B679"/>
    <path d="M424.314 404.804C424.186 404.804 424.046 404.758 423.941 404.665C423.871 404.606 416.487 398.584 407.134 398.024C397.852 397.488 393.356 402.871 393.309 402.929C393.146 403.139 392.855 403.197 392.622 403.092C391.248 402.463 390.456 401.566 390.269 400.436C389.885 398.083 392.389 395.683 392.506 395.578C392.541 395.543 392.587 395.52 392.622 395.485C393.158 395.193 405.9 388.285 416.056 391.139C426.201 393.994 429.834 400.331 429.986 400.599C430.067 400.75 430.079 400.937 430.021 401.1C429.951 401.263 429.823 401.391 429.648 401.438C427.75 402.009 424.745 404.606 424.721 404.641C424.582 404.758 424.454 404.804 424.314 404.804ZM405.807 396.836C406.261 396.836 406.727 396.848 407.204 396.883C415.823 397.395 422.637 402.195 424.302 403.476C425.082 402.824 426.958 401.344 428.577 400.622C427.447 399.026 423.638 394.518 415.73 392.281C406.412 389.648 394.253 395.951 393.239 396.487C392.599 397.116 391.178 398.851 391.411 400.261C391.516 400.89 391.958 401.426 392.727 401.857C393.88 400.645 398.143 396.836 405.807 396.836Z" fill="#21232E"/>
    <path d="M481.92 244.773C467.186 244.773 460.373 239.764 454.107 231.376C444.743 218.853 442.087 194.994 442.064 194.761C442.029 194.447 442.262 194.156 442.576 194.121C442.902 194.097 443.182 194.319 443.217 194.633C443.24 194.866 445.861 218.41 455.039 230.677C461.771 239.682 469.178 244.657 487.103 243.422C503.979 242.257 525.41 230.514 530.628 213.576C530.628 213.552 531.024 212.306 530.942 209.999C530.931 209.685 531.164 209.428 531.478 209.393C531.501 209.393 533.714 209.195 536.626 208.054C538.629 207.273 544.138 198.676 544.348 190.835C544.476 186.129 542.648 182.879 538.909 181.166C535.636 179.675 532.689 179.43 530.139 180.444C526.284 181.982 524.653 185.908 524.641 185.943C524.525 186.234 524.187 186.385 523.884 186.257C523.581 186.141 523.442 185.791 523.57 185.5C523.64 185.325 525.41 181.073 529.719 179.361C532.573 178.231 535.822 178.475 539.398 180.106C543.544 181.993 545.664 185.721 545.524 190.859C545.303 198.979 539.713 208.089 537.069 209.125C534.832 209.999 533.004 210.349 532.142 210.465C532.154 212.655 531.781 213.843 531.758 213.902C526.4 231.306 504.457 243.364 487.208 244.552C485.321 244.715 483.574 244.773 481.92 244.773Z" fill="#21232E"/>
    <path d="M570.263 241.581C570.088 241.581 569.925 241.511 569.809 241.36C569.611 241.104 569.646 240.742 569.902 240.544C585.649 228.009 576.692 211.828 570.146 200.015C568.83 197.627 567.572 195.367 566.734 193.457C561.807 182.273 561.528 177.695 561.446 166.115C561.353 151.553 553.27 138.086 537.442 126.087C519.179 112.247 499.169 120.134 498.971 120.215C498.668 120.332 498.331 120.192 498.214 119.901C498.098 119.598 498.238 119.26 498.529 119.144C498.738 119.062 519.365 110.931 538.14 125.166C554.271 137.399 562.506 151.18 562.611 166.115C562.692 177.776 562.949 181.993 567.794 192.991C568.621 194.855 569.855 197.091 571.16 199.456C577.519 210.943 587.139 228.312 570.624 241.453C570.519 241.535 570.391 241.581 570.263 241.581Z" fill="#21232E"/>
    <path d="M502.477 151.984C502.384 151.984 502.302 151.961 502.221 151.926C501.93 151.786 501.813 151.436 501.965 151.145C503.956 147.161 508.301 136.956 505.529 128.184C504.667 125.446 502.582 122.906 499.507 120.844C499.239 120.67 499.169 120.308 499.344 120.041C499.519 119.773 499.891 119.703 500.148 119.877C503.444 122.079 505.68 124.829 506.623 127.834C509.419 136.688 505.54 146.567 502.99 151.669C502.896 151.867 502.687 151.984 502.477 151.984Z" fill="white"/>
    <path d="M75.0537 134.076C75.0537 134.076 68.8691 124.907 76.5678 123.649C81.611 122.822 75.0537 134.076 75.0537 134.076Z" fill="#14AABA"/>
    <path d="M75.0536 134.658C74.8556 134.658 74.6809 134.565 74.5761 134.402C74.4363 134.192 71.0354 129.09 72.4913 125.723C73.1086 124.302 74.448 123.416 76.4862 123.078C77.7557 122.869 78.3847 123.346 78.6875 123.789C80.2598 126.072 76.3581 133.004 75.5661 134.367C75.4613 134.542 75.2866 134.647 75.0769 134.658C75.0653 134.658 75.0536 134.658 75.0536 134.658ZM77.0686 124.185C76.9521 124.185 76.824 124.197 76.6609 124.22C75.042 124.488 73.9937 125.14 73.5511 126.177C72.7126 128.123 74.052 131.21 75.0303 132.922C76.7308 129.812 78.4895 125.571 77.7208 124.441C77.6626 124.372 77.5344 124.185 77.0686 124.185Z" fill="#21232E"/>
    <path d="M75.2282 134.099C75.2282 134.099 70.8955 131.979 69.4745 134.6C68.042 137.221 68.8223 139.038 69.7774 139.038C70.7324 139.038 75.2282 134.099 75.2282 134.099Z" fill="#14AABA"/>
    <path d="M69.7774 139.621C69.2649 139.621 68.7874 139.33 68.4846 138.805C67.844 137.734 68.0304 136.056 68.9621 134.32C70.6393 131.245 75.2865 133.482 75.4845 133.575C75.6475 133.656 75.764 133.808 75.7989 133.994C75.8339 134.169 75.7756 134.355 75.6592 134.495C73.5278 136.837 70.7791 139.621 69.7774 139.621ZM71.9787 133.878C71.1634 133.878 70.3947 134.122 69.9871 134.88C69.1135 136.487 69.1718 137.675 69.4862 138.211C69.5794 138.363 69.6842 138.456 69.7774 138.456C70.2666 138.328 72.3747 136.312 74.2266 134.332C73.6442 134.111 72.794 133.878 71.9787 133.878Z" fill="#21232E"/>
    <path d="M79.6193 135.555C79.6193 135.555 79.0253 131.117 83.0668 132.084C87.0967 133.051 79.6193 135.555 79.6193 135.555Z" fill="#14AABA"/>
    <path d="M79.6193 136.138C79.5144 136.138 79.4096 136.103 79.3164 136.045C79.165 135.951 79.0718 135.8 79.0486 135.625C79.0369 135.532 78.7457 133.237 80.0735 132.037C80.8189 131.361 81.8671 131.187 83.2065 131.501C83.6025 131.594 84.8138 131.886 84.8488 132.806C84.907 134.111 82.1467 135.311 79.8173 136.091C79.7474 136.138 79.6775 136.138 79.6193 136.138ZM82.0069 132.526C81.5177 132.526 81.1217 132.654 80.8422 132.911C80.3414 133.365 80.2016 134.157 80.1783 134.74C81.8788 134.099 83.358 133.33 83.6375 132.911C83.5559 132.853 83.3463 132.748 82.927 132.654C82.5892 132.573 82.2748 132.526 82.0069 132.526Z" fill="#21232E"/>
    <path d="M721.418 424.723H717.97V427.227H721.418V424.723Z" fill="#21232E"/>
    <path d="M722 427.81H717.388V424.14H722V427.81ZM718.553 426.645H720.835V425.305H718.553V426.645Z" fill="#21232E"/>
    <path d="M879.293 482.202H759.841C758.118 482.202 756.079 481.317 755.299 480.222L718.273 428.59C717.493 427.495 718.25 426.61 719.985 426.61H839.437C841.161 426.61 843.199 427.495 843.98 428.59L880.994 480.222C881.774 481.317 881.017 482.202 879.293 482.202Z" fill="#21232E"/>
    <path d="M879.293 482.784H759.841C757.92 482.784 755.718 481.806 754.833 480.559L717.819 428.928C717.213 428.089 717.4 427.425 717.563 427.111C717.912 426.424 718.797 426.027 719.997 426.027H839.449C841.371 426.027 843.572 427.006 844.457 428.252L881.471 479.884C882.077 480.722 881.891 481.387 881.728 481.701C881.378 482.388 880.481 482.784 879.293 482.784ZM719.985 427.192C719.182 427.192 718.704 427.414 718.587 427.635C718.494 427.821 718.646 428.101 718.751 428.241L755.765 479.872C756.44 480.816 758.304 481.608 759.83 481.608H879.282C880.085 481.608 880.563 481.387 880.679 481.165C880.773 480.979 880.621 480.699 880.516 480.559L843.502 428.928C842.827 427.985 840.963 427.192 839.437 427.192H719.985Z" fill="#21232E"/>
    <path d="M881.297 477.985H877.849V480.489H881.297V477.985Z" fill="#21232E"/>
    <path d="M881.879 481.072H877.267V477.402H881.879V481.072ZM878.432 479.907H880.714V478.567H878.432V479.907Z" fill="#21232E"/>
    <path d="M879.294 478.684H759.841C758.118 478.684 756.079 477.798 755.299 476.703L718.285 425.072C717.504 423.977 718.261 423.092 719.997 423.092H839.449C841.173 423.092 843.211 423.977 843.991 425.072L881.006 476.703C881.774 477.798 881.017 478.684 879.294 478.684Z" fill="white"/>
    <path d="M879.292 479.266H759.84C757.919 479.266 755.717 478.288 754.832 477.041L717.818 425.41C717.212 424.571 717.399 423.907 717.562 423.593C717.911 422.905 718.796 422.509 719.996 422.509H839.448C841.37 422.509 843.571 423.488 844.456 424.734L881.47 476.366C882.076 477.204 881.89 477.868 881.727 478.183C881.377 478.87 880.48 479.266 879.292 479.266ZM719.984 423.686C719.181 423.686 718.703 423.907 718.587 424.129C718.493 424.315 718.645 424.595 718.75 424.734L755.764 476.366C756.439 477.309 758.303 478.101 759.829 478.101H879.281C880.084 478.101 880.562 477.88 880.678 477.659C880.772 477.472 880.62 477.193 880.515 477.053L843.501 425.422C842.826 424.478 840.962 423.686 839.436 423.686H719.984Z" fill="#21232E"/>
    <path d="M866.144 473.115H765.711C764.116 473.115 762.229 472.3 761.495 471.286L732.226 430.676C731.504 429.662 732.203 428.847 733.799 428.847H834.231C835.827 428.847 837.713 429.662 838.447 430.676L867.716 471.286C868.45 472.3 867.739 473.115 866.144 473.115Z" fill="#5368E0"/>
    <path d="M866.144 473.698H765.711C763.918 473.698 761.868 472.789 761.029 471.624L731.76 431.013C731.19 430.221 731.364 429.592 731.516 429.289C731.853 428.637 732.68 428.264 733.81 428.264H834.243C836.036 428.264 838.086 429.173 838.925 430.338L868.194 470.948C868.764 471.741 868.59 472.37 868.438 472.673C868.101 473.325 867.274 473.698 866.144 473.698ZM733.81 429.429C732.972 429.429 732.622 429.674 732.552 429.814C732.471 429.977 732.634 430.233 732.704 430.326L761.973 470.937C762.59 471.799 764.302 472.521 765.711 472.521H866.144C866.982 472.521 867.332 472.276 867.402 472.137C867.483 471.974 867.32 471.717 867.25 471.624L837.981 431.013C837.364 430.151 835.652 429.429 834.243 429.429H733.81Z" fill="#21232E"/>
    <path d="M858.02 450.545C858.643 449.859 858.477 448.693 857.648 447.94C856.82 447.187 855.643 447.133 855.02 447.818C854.398 448.504 854.564 449.67 855.392 450.423C856.221 451.176 857.397 451.23 858.02 450.545Z" fill="#21232E"/>
    <path d="M856.848 451.562C855.544 451.562 854.333 450.549 854.076 449.244C853.948 448.58 854.1 447.928 854.496 447.45C854.892 446.972 855.474 446.716 856.138 446.716C857.442 446.716 858.654 447.73 858.91 449.034C859.038 449.698 858.887 450.351 858.491 450.828C858.095 451.294 857.512 451.562 856.848 451.562ZM856.15 447.881C855.835 447.881 855.579 447.998 855.404 448.196C855.23 448.405 855.171 448.708 855.23 449.034C855.369 449.78 856.115 450.409 856.848 450.409C857.163 450.409 857.419 450.292 857.594 450.094C857.769 449.885 857.827 449.582 857.769 449.256C857.629 448.498 856.883 447.881 856.15 447.881Z" fill="#21232E"/>
    <path d="M742.922 451.543C743.203 451.233 743.126 450.705 742.75 450.364C742.374 450.022 741.841 449.996 741.56 450.305C741.278 450.615 741.355 451.143 741.732 451.484C742.108 451.826 742.64 451.852 742.922 451.543Z" fill="#21232E"/>
    <path d="M742.383 452.309C741.649 452.309 740.962 451.738 740.822 451.004C740.752 450.608 740.845 450.224 741.078 449.932C741.311 449.641 741.672 449.478 742.068 449.478C742.802 449.478 743.489 450.049 743.629 450.783C743.699 451.179 743.605 451.563 743.372 451.855C743.14 452.146 742.779 452.309 742.383 452.309ZM741.963 450.783C741.998 450.969 742.208 451.144 742.383 451.144L742.487 451.004C742.452 450.818 742.243 450.643 742.068 450.643L741.392 450.899L741.963 450.783Z" fill="#21232E"/>
    <path d="M691.403 473.407H662.402C661.121 473.407 659.689 472.498 659.211 471.379L641.135 428.765C640.657 427.647 641.321 426.738 642.602 426.738H671.603C672.885 426.738 674.317 427.647 674.795 428.765L692.871 471.379C693.349 472.498 692.685 473.407 691.403 473.407Z" fill="#21232E"/>
    <path d="M691.403 473.989H662.402C660.877 473.989 659.246 472.941 658.675 471.601L640.599 428.986C640.296 428.276 640.331 427.588 640.692 427.041C641.065 426.47 641.764 426.144 642.602 426.144H671.604C673.129 426.144 674.76 427.192 675.331 428.532L693.407 471.146C693.71 471.857 693.675 472.544 693.314 473.092C692.929 473.663 692.242 473.989 691.403 473.989ZM642.602 427.309C642.16 427.309 641.822 427.449 641.671 427.682C641.531 427.891 641.531 428.194 641.671 428.52L659.747 471.135C660.131 472.044 661.354 472.812 662.402 472.812H691.403C691.846 472.812 692.184 472.673 692.335 472.44C692.475 472.23 692.475 471.927 692.335 471.589L674.259 428.975C673.875 428.066 672.663 427.297 671.604 427.297H642.602V427.309Z" fill="#21232E"/>
    <path d="M644.431 424.839H640.984V427.344H644.431V424.839Z" fill="#21232E"/>
    <path d="M645.013 427.926H640.401V424.257H645.013V427.926ZM641.566 426.761H643.849V425.422H641.566V426.761Z" fill="#21232E"/>
    <path d="M693.023 468.945H689.575V471.543H693.023V468.945Z" fill="#21232E"/>
    <path d="M693.605 472.137H688.993V468.374H693.605V472.137ZM690.157 470.972H692.44V469.539H690.157V470.972Z" fill="#21232E"/>
    <path d="M691.403 469.772H662.402C661.121 469.772 659.689 468.863 659.211 467.745L641.135 425.13C640.657 424.012 641.321 423.103 642.602 423.103H671.603C672.885 423.103 674.317 424.012 674.795 425.13L692.871 467.745C693.349 468.863 692.685 469.772 691.403 469.772Z" fill="white"/>
    <path d="M691.403 470.354H662.402C660.877 470.354 659.246 469.306 658.675 467.966L640.599 425.352C640.296 424.641 640.331 423.954 640.692 423.406C641.065 422.835 641.764 422.509 642.602 422.509H671.604C673.129 422.509 674.76 423.558 675.331 424.897L693.407 467.512C693.71 468.222 693.675 468.91 693.314 469.457C692.929 470.028 692.242 470.354 691.403 470.354ZM642.602 423.686C642.16 423.686 641.822 423.826 641.671 424.059C641.531 424.268 641.531 424.571 641.671 424.897L659.747 467.512C660.131 468.42 661.354 469.189 662.402 469.189H691.403C691.846 469.189 692.184 469.05 692.335 468.817C692.475 468.607 692.475 468.304 692.335 467.966L674.259 425.352C673.875 424.443 672.663 423.674 671.604 423.674H642.602V423.686Z" fill="#21232E"/>
    <path d="M685.685 462.7H662.111C661.063 462.7 659.945 462.071 659.619 461.291L647.04 431.584C646.714 430.804 647.284 430.175 648.333 430.175H671.906C672.954 430.175 674.073 430.804 674.399 431.584L686.978 461.291C687.304 462.071 686.721 462.7 685.685 462.7Z" fill="#4899EC"/>
    <path d="M685.685 463.283H662.111C660.83 463.283 659.502 462.502 659.083 461.512L646.504 431.806C646.283 431.293 646.318 430.78 646.597 430.361C646.923 429.86 647.564 429.581 648.333 429.581H671.906C673.187 429.581 674.515 430.361 674.934 431.351L687.513 461.058C687.735 461.57 687.7 462.083 687.42 462.502C687.082 463.003 686.453 463.283 685.685 463.283ZM648.321 430.757C647.89 430.757 647.645 430.897 647.552 431.025C647.529 431.06 647.471 431.153 647.552 431.363L660.131 461.07C660.376 461.64 661.284 462.13 662.088 462.13H685.661C686.092 462.13 686.337 461.99 686.43 461.862C686.453 461.827 686.512 461.734 686.43 461.524L673.851 431.817C673.642 431.316 672.78 430.757 671.895 430.757H648.321Z" fill="#21232E"/>
    <path d="M681.713 466.848H671.988V466.859H681.713V466.848Z" fill="#5368E0"/>
    <path d="M681.725 467.442H671.999C671.673 467.442 671.417 467.186 671.417 466.859C671.417 466.533 671.673 466.265 671.999 466.265H681.725C682.051 466.265 682.307 466.522 682.307 466.848V466.859C682.307 467.174 682.039 467.442 681.725 467.442Z" fill="#21232E"/>
    <path d="M662.037 426.87C662.193 426.313 661.381 425.597 660.222 425.273C659.064 424.948 657.999 425.137 657.842 425.694C657.686 426.252 658.498 426.967 659.657 427.292C660.815 427.617 661.88 427.428 662.037 426.87Z" fill="#21232E"/>
    <path d="M660.725 428.008C659.432 428.008 658.046 427.402 657.476 426.598C657.184 426.179 657.126 425.701 657.324 425.305C657.592 424.804 658.233 424.513 659.083 424.513C660.364 424.513 661.762 425.119 662.332 425.923C662.635 426.354 662.682 426.82 662.484 427.216C662.228 427.717 661.587 428.008 660.725 428.008ZM658.372 425.841C658.384 425.841 658.396 425.876 658.431 425.923C658.733 426.354 659.747 426.843 660.725 426.843C661.191 426.843 661.401 426.726 661.447 426.68C661.436 426.68 661.424 426.645 661.389 426.587C661.086 426.156 660.073 425.666 659.095 425.666C658.629 425.678 658.419 425.794 658.372 425.841Z" fill="#21232E"/>
    <path d="M878.269 499.781L797.706 508.018L788.179 506.398L797.182 502.892L877.745 494.655C879.154 494.516 880.423 495.541 880.563 496.95C880.714 498.372 879.678 499.63 878.269 499.781Z" fill="white"/>
    <path d="M797.706 508.588C797.671 508.588 797.636 508.588 797.613 508.577L788.086 506.957C787.829 506.911 787.631 506.701 787.608 506.445C787.585 506.189 787.736 505.944 787.981 505.839L796.984 502.333C797.031 502.309 797.089 502.298 797.135 502.298L877.698 494.061C878.537 493.98 879.364 494.224 880.016 494.749C880.668 495.284 881.076 496.042 881.157 496.88C881.332 498.616 880.074 500.166 878.339 500.34L797.776 508.577C797.753 508.588 797.729 508.588 797.706 508.588ZM790.357 506.177L797.729 507.423L878.21 499.199L878.269 499.781L878.21 499.199C879.305 499.082 880.097 498.104 879.992 497.009C879.934 496.473 879.678 495.995 879.27 495.669C878.863 495.331 878.339 495.18 877.814 495.226L797.333 503.451L790.357 506.177Z" fill="#21232E"/>
    <path d="M868.583 495.606L867.431 495.777L868.188 500.882L869.34 500.711L868.583 495.606Z" fill="#21232E"/>
    <path d="M202.507 38.805H205.908C206.549 38.805 207.073 39.3292 207.073 39.9699V81.3844C207.073 82.0251 206.549 82.5494 205.908 82.5494H202.507C201.867 82.5494 201.342 82.0251 201.342 81.3844V39.9699C201.342 39.3292 201.855 38.805 202.507 38.805Z" fill="white"/>
    <path d="M235.957 5.99957H237.6C238.24 5.99957 238.764 6.52381 238.764 7.16454V48.579C238.764 49.2197 238.24 49.744 237.6 49.744H235.957C235.317 49.744 234.793 49.2197 234.793 48.579V7.16454C234.793 6.52381 235.317 5.99957 235.957 5.99957Z" fill="white"/>
    <path d="M251.203 39.702H252.345C252.985 39.702 253.51 40.2262 253.51 40.8669V82.2814C253.51 82.9221 252.985 83.4464 252.345 83.4464H251.203C250.563 83.4464 250.039 82.9221 250.039 82.2814V40.8669C250.039 40.2145 250.563 39.702 251.203 39.702Z" fill="white"/>
    <path d="M221.107 5.99957H223.251C223.891 5.99957 224.415 6.52381 224.415 7.16454V48.579C224.415 49.2197 223.891 49.744 223.251 49.744H221.107C220.467 49.744 219.943 49.2197 219.943 48.579V7.16454C219.943 6.52381 220.467 5.99957 221.107 5.99957Z" fill="white"/>
    <path d="M267.102 13.8631L268.103 13.6883C268.732 13.5835 269.338 14.0029 269.454 14.6436L277.805 62.9663C277.91 63.5954 277.491 64.2012 276.85 64.3177L275.849 64.4924C275.22 64.5973 274.614 64.1779 274.498 63.5372L266.147 15.2144C266.042 14.5737 266.473 13.9679 267.102 13.8631Z" fill="white"/>
    <path d="M511.084 435.603H240.092C238.811 435.603 237.763 434.555 237.763 433.274V427.064H513.413V433.274C513.413 434.567 512.377 435.603 511.084 435.603Z" fill="#4899EC"/>
    <path d="M511.084 436.186H240.092C238.485 436.186 237.18 434.881 237.18 433.274V427.064C237.18 426.738 237.437 426.482 237.763 426.482H513.413C513.739 426.482 513.996 426.738 513.996 427.064V433.274C513.996 434.881 512.691 436.186 511.084 436.186ZM238.345 427.647V433.274C238.345 434.24 239.125 435.021 240.092 435.021H511.084C512.051 435.021 512.831 434.24 512.831 433.274V427.647H238.345Z" fill="#21232E"/>
    <path d="M405.166 427.064H240.558L212.908 321.192C212.151 317.581 214.911 314.179 218.603 314.179H371.145C373.905 314.179 376.281 316.113 376.84 318.816L405.166 427.064Z" fill="#21232E"/>
    <path d="M405.923 427.647H240.115L212.349 321.344C211.953 319.422 212.419 317.464 213.642 315.962C214.865 314.459 216.67 313.597 218.615 313.597H371.156C374.173 313.597 376.817 315.74 377.422 318.699L405.923 427.647ZM241.012 426.482H404.42L376.293 318.967C375.78 316.521 373.626 314.762 371.156 314.762H218.603C217.019 314.762 215.54 315.472 214.539 316.696C213.537 317.93 213.153 319.515 213.479 321.076L241.012 426.482Z" fill="#21232E"/>
    <path d="M402.196 427.064H237.751L210.101 323.534C209.344 319.911 212.104 316.521 215.796 316.521H368.338C371.098 316.521 373.474 318.455 374.033 321.157L402.196 427.064Z" fill="#4899EC"/>
    <path d="M402.953 427.647H237.309L237.192 427.216L209.542 323.685C209.134 321.751 209.612 319.806 210.835 318.303C212.058 316.8 213.863 315.938 215.808 315.938H368.349C371.366 315.938 374.01 318.082 374.616 321.041L402.953 427.647ZM238.205 426.482H401.439L373.486 321.309C372.973 318.862 370.819 317.103 368.349 317.103H215.796C214.212 317.103 212.733 317.814 211.732 319.037C210.73 320.26 210.346 321.856 210.672 323.417L238.205 426.482Z" fill="#21232E"/>
    <path d="M423.079 430.175H411.245V432.866H423.079V430.175Z" fill="#21232E"/>
    <path d="M423.673 433.448H410.675V429.592H423.673V433.448ZM411.828 432.283H422.497V430.757H411.828V432.283Z" fill="#21232E"/>
    <path d="M312.502 375.759C312.432 375.025 312.257 374.082 311.943 372.847L309.159 362.455C308.414 360.021 305.991 358.157 303.755 358.273C301.519 358.39 300.307 360.452 301.053 362.886L301.589 364.89C300.82 364.727 300.04 364.622 299.282 364.622C299.003 364.622 298.747 364.645 298.479 364.669L297.827 362.199C297.081 359.764 294.694 357.9 292.492 358.017C290.291 358.133 289.103 360.195 289.848 362.63L292.422 372.509C292.504 373.08 292.644 373.674 292.842 374.28C292.877 374.396 292.935 374.513 292.981 374.629L293.005 374.722C293.016 374.746 293.028 374.757 293.04 374.781C294.996 379.802 300.54 382.761 305.7 382.761C310.499 382.772 313.306 380.186 312.502 375.759Z" fill="white"/>
    <path d="M305.677 383.355C299.818 383.355 294.391 379.918 292.481 375.002L292.364 374.711C292.329 374.629 292.294 374.548 292.271 374.466C292.073 373.86 291.922 373.231 291.828 372.59L289.266 362.77C288.823 361.349 288.986 359.927 289.709 358.891C290.326 358.005 291.293 357.481 292.446 357.423C294.892 357.283 297.559 359.357 298.374 362.024L298.91 364.051C299.504 364.028 300.133 364.063 300.785 364.156L300.482 363.038C300.051 361.628 300.203 360.207 300.925 359.182C301.554 358.285 302.544 357.761 303.708 357.691C306.201 357.528 308.88 359.613 309.707 362.281L312.49 372.684C312.805 373.895 312.991 374.862 313.073 375.666C313.445 377.786 313.061 379.615 311.931 380.955C310.638 382.528 308.472 383.355 305.677 383.355ZM293.54 374.524L293.575 374.583C295.322 379.068 300.307 382.201 305.688 382.201C308.134 382.201 309.986 381.526 311.058 380.244C311.954 379.173 312.257 377.658 311.943 375.876L311.931 375.829C311.861 375.095 311.687 374.175 311.384 373.01L308.612 362.63C307.948 360.463 305.805 358.809 303.802 358.879C302.986 358.925 302.322 359.263 301.903 359.869C301.391 360.603 301.286 361.651 301.624 362.735L302.416 365.682L301.484 365.473C300.412 365.24 299.434 365.181 298.549 365.263L298.06 365.298L297.279 362.362C296.615 360.195 294.496 358.506 292.539 358.611C291.747 358.658 291.106 358.984 290.699 359.578C290.186 360.312 290.081 361.372 290.419 362.467L293.005 372.369C293.098 373.01 293.238 373.569 293.412 374.105C293.436 374.163 293.459 374.221 293.482 374.268L293.54 374.524Z" fill="#21232E"/>
    <path d="M301.996 378.147C301.938 378.147 301.88 378.136 301.821 378.124C301.519 378.031 301.344 377.693 301.437 377.39L301.915 375.876C301.973 375.678 302.136 375.538 302.334 375.491C302.532 375.445 302.742 375.503 302.881 375.654L304.372 377.169C304.593 377.402 304.593 377.763 304.361 377.996C304.128 378.217 303.766 378.217 303.534 377.984L302.718 377.157L302.532 377.751C302.474 377.984 302.241 378.147 301.996 378.147Z" fill="#21232E"/>
    <path d="M307.925 375.192C308.551 375.075 308.949 374.391 308.813 373.663C308.678 372.936 308.06 372.441 307.434 372.558C306.808 372.674 306.41 373.359 306.546 374.086C306.682 374.814 307.299 375.309 307.925 375.192Z" fill="#21232E"/>
    <path d="M297.408 375.193C298.034 375.076 298.431 374.392 298.296 373.665C298.16 372.937 297.543 372.442 296.917 372.559C296.291 372.676 295.893 373.36 296.029 374.088C296.164 374.815 296.782 375.31 297.408 375.193Z" fill="#21232E"/>
</svg>
