<svg width="237" height="315" viewBox="0 0 237 315" fill="none" xmlns="http://www.w3.org/2000/svg">
    <path d="M41.3435 311.176C41.0989 311.817 41.1222 312.458 41.425 313.076C41.5648 313.368 41.8094 313.589 42.1471 313.741L37.1738 314.067H0.893311L11.9697 288.791H11.9813C12.2142 288.908 12.5054 288.838 12.6685 288.628C12.7151 288.581 17.2691 283.183 26.4935 283.719C34.3087 284.186 40.7495 288.476 42.6945 289.91C39.8294 292.032 37.1971 294.236 36.5915 294.76C36.5798 294.76 36.5798 294.772 36.5798 294.772C36.5682 294.772 36.5566 294.784 36.5449 294.795C33.0741 296.323 30.0575 297.908 28.8462 298.981C27.367 300.31 27.6 301.324 27.8795 301.814C28.392 302.723 29.7081 303.12 30.8612 303.12C31.2804 303.12 31.6881 303.061 32.0142 302.968C32.55 302.805 37.5698 301.604 41.9608 300.566C40.6097 301.313 39.3169 302.024 38.1638 302.653C34.8794 304.437 33.2721 305.323 32.8877 305.696C32.5034 306.081 31.5833 307.27 31.9793 308.319C32.1423 308.774 32.6082 309.322 33.8894 309.392C33.9476 309.404 34.0175 309.404 34.099 309.404C36.4983 309.404 42.3102 307.34 47.0039 305.685L48.4365 305.183C49.7061 304.74 51.5579 304.425 53.5263 304.204C46.5381 306.944 42.2287 308.937 41.3435 311.176Z" fill="white"/>
    <path d="M157.173 152.5C155.182 155.939 145.13 170.536 118.645 170.536C107.277 170.536 99.0313 167.924 94.1395 162.759C90.2378 158.655 89.7136 154.097 89.6554 152.581C97.2376 152.103 98.2742 142.473 98.2859 142.415C98.81 139.302 98.2393 135.676 97.6919 132.167C97.5871 131.514 97.4822 130.861 97.4007 130.22C98.6353 130.301 99.9281 130.348 101.291 130.348C102.933 130.348 104.692 130.29 106.544 130.161C119.449 129.264 134.974 122.292 144.222 111.542C143.43 120.135 143.302 127.888 143.849 134.58C143.849 134.755 143.977 138.8 145.759 143.068C148.019 148.489 151.955 151.742 157.173 152.5Z" fill="white"/>
    <path d="M62.1219 38.6047C54.1902 53.3648 57.4398 69.6638 57.4747 69.827C57.5446 70.1418 57.3466 70.4449 57.0321 70.5149C56.9855 70.5265 56.9506 70.5265 56.904 70.5265C56.6361 70.5265 56.3915 70.34 56.3333 70.0602C56.2984 69.8969 52.9673 53.1899 61.0969 38.0451C61.2484 37.7653 61.6094 37.6604 61.8889 37.8119C62.1685 37.9635 62.2733 38.3133 62.1219 38.6047Z" fill="white"/>
    <path d="M71.6724 26.5845C67.4679 29.9073 65.0104 34.2327 64.9871 34.2793C64.8822 34.4659 64.6842 34.5708 64.4746 34.5708C64.3814 34.5708 64.2766 34.5475 64.1951 34.5008C63.9156 34.3376 63.8107 33.9879 63.9738 33.708C64.0786 33.5215 66.5594 29.1378 70.9503 25.6751C71.1949 25.4769 71.5676 25.5236 71.7656 25.7684C71.9636 26.0249 71.917 26.3863 71.6724 26.5845Z" fill="white"/>
    <path d="M80.1631 65.5832L79.674 65.8047L80.035 65.5599C80.0467 65.5599 80.0583 65.5715 80.07 65.5715C80.0933 65.5715 80.1282 65.5832 80.1631 65.5832Z" fill="white"/>
    <path d="M82.0966 64.3007C82.05 64.3357 82.0034 64.3707 81.9568 64.394L81.9917 64.2774L82.0034 64.2657C82.0384 64.2774 82.0733 64.2891 82.0966 64.3007Z" fill="white"/>
    <path d="M76.1683 64.0559L76.0401 64.2308L72.4063 69.314L70.3797 70.2933L69.7507 71.0395L73.6991 65.5132L74.4911 64.4173L75.2248 63.3797C75.2365 63.368 75.2482 63.3447 75.2714 63.333L75.5976 63.1581C75.749 63.1232 75.9004 63.1581 76.0401 63.2514C76.11 63.3097 76.1799 63.3797 76.2149 63.4613C76.2149 63.4729 76.2149 63.4729 76.2149 63.4729C76.308 63.6595 76.308 63.881 76.1683 64.0559Z" fill="white"/>
    <path d="M75.5976 63.1581L75.2715 63.333C75.353 63.2398 75.4695 63.1698 75.5976 63.1581Z" fill="white"/>
    <path d="M142.417 59.7189C142.3 59.8471 142.137 59.9171 141.974 59.9171C141.834 59.9171 141.706 59.8704 141.59 59.7772C131.154 50.9281 130.245 37.7653 130.234 37.6371C130.222 37.3223 130.467 37.0425 130.781 37.0192C131.107 37.0192 131.375 37.2523 131.399 37.5671C131.41 37.6954 132.295 50.3685 142.347 58.8911C142.591 59.1009 142.626 59.4624 142.417 59.7189Z" fill="white"/>
    <path d="M119.414 5.29554C119.111 5.40047 118.855 5.48208 118.68 5.55203C118.575 5.58701 118.482 5.62199 118.424 5.63364C118.494 5.58701 118.563 5.51706 118.61 5.43545C118.657 5.3655 118.68 5.28388 118.68 5.20227C118.785 5.23725 118.866 5.28388 118.925 5.31886C119.029 5.36549 119.076 5.38881 119.076 5.38881C119.181 5.35384 119.286 5.31886 119.39 5.28388C119.402 5.28388 119.414 5.29554 119.414 5.29554Z" fill="white"/>
    <path d="M125.004 14.0513C124.993 14.0396 124.981 14.028 124.981 14.0163C124.958 13.958 124.934 13.8881 124.934 13.8298C124.969 13.8997 124.981 13.9813 125.004 14.0513Z" fill="white"/>
    <path d="M182.098 58.3547C182.052 57.3754 182.028 56.3494 182.017 55.2535C182.063 56.3494 182.098 57.3987 182.098 58.3547Z" fill="white"/>
    <path d="M95.013 97.2602C94.9664 97.5517 94.7218 97.7615 94.4306 97.7615C94.4074 97.7615 94.3724 97.7499 94.3491 97.7499C93.9531 97.6916 90.494 97.097 89.702 95.08C89.3409 94.1589 89.5855 93.1446 90.4357 92.072C94.1628 87.3269 92.4041 72.9049 92.3808 72.7534C92.3458 72.4386 92.5671 72.1471 92.8932 72.1122C93.2077 72.0772 93.4989 72.2987 93.5338 72.6135C93.6154 73.2314 95.3741 87.665 91.3442 92.7949C90.7735 93.5177 90.5871 94.1473 90.7851 94.6486C91.251 95.8378 93.7086 96.4674 94.5238 96.5956C94.8383 96.6539 95.0596 96.9454 95.013 97.2602Z" fill="white"/>
    <path d="M105.53 108.534C103.178 110.05 99.7184 110.761 96.6553 110.761C94.8616 110.761 93.2078 110.516 91.9732 110.05C91.682 109.933 91.5306 109.595 91.6354 109.292C91.7519 108.989 92.0896 108.837 92.3925 108.954C95.4556 110.12 101.454 109.77 104.901 107.555C105.169 107.38 105.53 107.462 105.705 107.73C105.88 107.998 105.798 108.359 105.53 108.534Z" fill="white"/>
    <path d="M119.332 76.7407C119.46 78.8742 118.039 80.7047 116.164 80.8212H115.978C114.184 80.8212 112.647 79.2123 112.53 77.1487C112.402 75.0035 113.823 73.1731 115.698 73.0681C117.562 72.9399 119.204 74.5954 119.332 76.7407Z" fill="#21232E"/>
    <path d="M130.991 106.028C124.923 106.389 119.705 101.76 119.332 95.6746C118.971 89.6003 123.595 84.3655 129.675 84.0041C135.743 83.6427 140.972 88.2712 141.333 94.3571C141.694 100.431 137.071 105.655 130.991 106.028Z" fill="white"/>
    <path d="M154.809 69.5239C148.38 71.9256 148.007 78.6177 148.065 80.8795C148.438 80.8096 148.881 80.7979 149.335 81.0078C150.057 81.3342 150.523 82.0921 150.732 83.2696C150.965 84.5987 150.802 85.6014 150.267 86.2426C149.731 86.8722 149.032 86.8955 148.927 86.8955C148.601 86.8838 148.345 86.6273 148.345 86.3009C148.345 85.9744 148.613 85.6946 148.939 85.7296C148.939 85.7296 149.195 85.7179 149.393 85.4614C149.673 85.1117 149.742 84.4005 149.579 83.4678C149.486 82.9431 149.288 82.2669 148.846 82.0687C148.415 81.8589 147.832 82.1853 147.832 82.197C147.658 82.2903 147.448 82.3019 147.273 82.2086C147.099 82.127 146.97 81.9521 146.947 81.7539C146.947 81.649 145.922 71.5991 154.401 68.4279C154.704 68.3114 155.042 68.4746 155.147 68.7777C155.263 69.0692 155.112 69.4073 154.809 69.5239Z" fill="white"/>
    <path d="M79.3478 65.9679V66.0146L79.4759 65.9213L79.3478 65.9679ZM80.0699 65.5715C80.0582 65.5715 80.0466 65.5599 80.0349 65.5599L79.6739 65.8047L80.163 65.5832C80.1281 65.5832 80.0932 65.5715 80.0699 65.5715ZM82.0033 64.2657L81.9916 64.2774L81.9567 64.394C82.0033 64.3707 82.0499 64.3357 82.0964 64.3007C82.0731 64.2891 82.0382 64.2774 82.0033 64.2657ZM62.5993 80.215L62.5876 80.25C62.5876 80.2849 62.5993 80.3316 62.6109 80.3899C62.5993 80.3083 62.5993 80.25 62.5993 80.215ZM143.453 69.8736L143.15 70.5382C143.243 70.3633 143.36 70.1418 143.5 69.897C143.488 69.897 143.465 69.897 143.453 69.8736ZM79.8253 99.1955C79.4525 93.1213 74.2347 88.4811 68.1549 88.8425C66.7456 88.9358 65.4179 89.2855 64.2066 89.8452C64.3231 90.4281 64.4512 91.0227 64.5909 91.6406C64.5909 91.6523 64.591 91.6639 64.6026 91.6756C64.6958 92.107 64.8006 92.55 64.9054 92.993C65.4295 95.2548 66.0701 97.6566 66.8272 100.093C66.967 100.548 67.1183 101.003 67.2697 101.469C67.4212 101.959 67.5842 102.437 67.7589 102.926C67.9336 103.416 68.1084 103.894 68.2831 104.372C69.0867 106.529 69.9835 108.651 71.0085 110.656C76.3195 109.595 80.1514 104.757 79.8253 99.1955Z" fill="white"/>
    <path d="M143.453 69.8737L143.15 70.5382C143.243 70.3633 143.36 70.1418 143.5 69.897C143.488 69.897 143.465 69.897 143.453 69.8737Z" fill="#534D56"/>
    <path d="M62.1219 38.6047C54.1902 53.3648 57.4398 69.6638 57.4747 69.827C57.5446 70.1418 57.3466 70.4449 57.0321 70.5149C56.9855 70.5265 56.9506 70.5265 56.904 70.5265C56.6361 70.5265 56.3915 70.34 56.3333 70.0602C56.2984 69.8969 52.9673 53.1899 61.0969 38.0451C61.2484 37.7653 61.6094 37.6604 61.8889 37.8119C62.1685 37.9635 62.2733 38.3133 62.1219 38.6047Z" fill="#21232E"/>
    <path d="M71.6724 26.5845C67.4679 29.9073 65.0104 34.2327 64.9871 34.2793C64.8822 34.4659 64.6842 34.5708 64.4746 34.5708C64.3814 34.5708 64.2766 34.5475 64.1951 34.5008C63.9156 34.3376 63.8107 33.9879 63.9738 33.708C64.0786 33.5215 66.5594 29.1378 70.9503 25.6751C71.1949 25.4769 71.5676 25.5236 71.7656 25.7684C71.9636 26.0249 71.917 26.3863 71.6724 26.5845Z" fill="#21232E"/>
    <path d="M80.1631 65.5832L79.674 65.8047L80.035 65.5599C80.0467 65.5599 80.0583 65.5715 80.07 65.5715C80.0933 65.5715 80.1282 65.5832 80.1631 65.5832Z" fill="#21232E"/>
    <path d="M82.0966 64.3007C82.05 64.3357 82.0034 64.3707 81.9568 64.394L81.9917 64.2774L82.0034 64.2657C82.0384 64.2774 82.0733 64.2891 82.0966 64.3007Z" fill="#21232E"/>
    <path d="M75.5976 63.1581L75.2715 63.333C75.353 63.2398 75.4695 63.1698 75.5976 63.1581Z" fill="#21232E"/>
    <path d="M142.417 59.7189C142.3 59.8471 142.137 59.9171 141.974 59.9171C141.834 59.9171 141.706 59.8704 141.59 59.7772C131.154 50.9281 130.245 37.7653 130.234 37.6371C130.222 37.3223 130.467 37.0425 130.781 37.0192C131.107 37.0192 131.375 37.2523 131.399 37.5671C131.41 37.6954 132.295 50.3685 142.347 58.8911C142.591 59.1009 142.626 59.4624 142.417 59.7189Z" fill="#21232E"/>
    <path d="M119.414 5.29554C119.111 5.40047 118.855 5.48208 118.68 5.55203C118.575 5.58701 118.482 5.62199 118.424 5.63364C118.494 5.58701 118.563 5.51706 118.61 5.43545C118.657 5.3655 118.68 5.28388 118.68 5.20227C118.785 5.23725 118.866 5.28388 118.925 5.31886C119.029 5.36549 119.076 5.38881 119.076 5.38881C119.181 5.35384 119.286 5.31886 119.39 5.28388C119.402 5.28388 119.414 5.29554 119.414 5.29554Z" fill="#21232E"/>
    <path d="M125.004 14.0513C124.993 14.0396 124.981 14.028 124.981 14.0163C124.958 13.958 124.934 13.8881 124.934 13.8298C124.969 13.8997 124.981 13.9813 125.004 14.0513Z" fill="#21232E"/>
    <path d="M182.098 58.3547C182.052 57.3754 182.028 56.3494 182.017 55.2535C182.063 56.3494 182.098 57.3987 182.098 58.3547Z" fill="#21232E"/>
    <path d="M95.013 97.2601C94.9664 97.5516 94.7218 97.7615 94.4306 97.7615C94.4074 97.7615 94.3724 97.7498 94.3491 97.7498C93.9531 97.6915 90.494 97.0969 89.702 95.0799C89.3409 94.1589 89.5855 93.1446 90.4357 92.072C94.1628 87.3268 92.4041 72.9049 92.3808 72.7533C92.3458 72.4385 92.5671 72.1471 92.8932 72.1121C93.2077 72.0771 93.4989 72.2986 93.5338 72.6134C93.6154 73.2313 95.3741 87.6649 91.3442 92.7948C90.7735 93.5176 90.5871 94.1472 90.7851 94.6486C91.251 95.8378 93.7086 96.4673 94.5238 96.5956C94.8383 96.6539 95.0596 96.9453 95.013 97.2601Z" fill="#21232E"/>
    <path d="M105.53 108.534C103.178 110.05 99.7184 110.761 96.6553 110.761C94.8616 110.761 93.2078 110.516 91.9732 110.05C91.682 109.933 91.5306 109.595 91.6354 109.292C91.7519 108.989 92.0896 108.837 92.3925 108.954C95.4556 110.12 101.454 109.77 104.901 107.555C105.169 107.38 105.53 107.462 105.705 107.73C105.88 107.998 105.798 108.359 105.53 108.534Z" fill="#21232E"/>
    <path d="M80.9667 79.3172C80.9667 81.3342 79.5807 83.0131 77.787 83.1297H77.6007C76.7388 83.1297 75.9235 82.7799 75.2713 82.1037C74.6074 81.4158 74.2114 80.4715 74.1532 79.4571C74.0833 78.4428 74.3744 77.4518 74.9452 76.694C75.5508 75.9012 76.3894 75.4349 77.3095 75.3766C79.1964 75.26 80.8269 76.9039 80.955 79.0491C80.955 79.1424 80.9667 79.224 80.9667 79.3172Z" fill="#21232E"/>
    <path d="M130.991 106.028C124.923 106.389 119.705 101.76 119.332 95.6746C118.971 89.6003 123.595 84.3655 129.675 84.0041C135.743 83.6427 140.972 88.2712 141.333 94.3571C141.694 100.431 137.071 105.655 130.991 106.028Z" fill="#FCCFC6"/>
    <path d="M71.0085 110.656C69.9836 108.651 69.0868 106.529 68.2831 104.372C68.1084 103.894 67.9337 103.416 67.759 102.926C67.5843 102.437 67.4212 101.959 67.2698 101.469C67.1184 101.003 66.967 100.548 66.8272 100.093C66.0702 97.6566 65.4296 95.2548 64.9055 92.993C64.8006 92.55 64.6958 92.107 64.6027 91.6756C64.591 91.664 64.591 91.6523 64.591 91.6406C64.4512 91.0227 64.3231 90.4281 64.2067 89.8452C65.418 89.2855 66.7457 88.9358 68.155 88.8425C74.2347 88.4811 79.4526 93.1213 79.8253 99.1955C80.1514 104.757 76.3196 109.595 71.0085 110.656Z" fill="#FCCFC6"/>
    <path d="M128.941 63.3564C128.685 63.881 128.195 63.7994 126.379 63.5079C124.445 63.1815 121.522 62.7035 119.204 63.0416C117.119 63.3447 114.638 64.0909 112.46 64.7554C110.073 65.4783 108.757 65.8513 107.976 65.8513C107.592 65.8513 107.336 65.7697 107.138 65.5832C106.928 65.3733 106.846 65.0586 106.94 64.7321C107.196 63.7877 107.254 63.6712 107.732 63.1698L107.871 63.0416C108.058 62.9133 112.402 60.0453 118.575 60.2435C125.668 60.465 128.021 61.899 128.708 62.5053C129.104 62.8667 128.999 63.2165 128.941 63.3564Z" fill="#21232E"/>
    <path d="M82.0964 64.3007C82.0498 64.3357 82.0032 64.3707 81.9567 64.394L81.9916 64.2774L82.0033 64.2657C82.0382 64.2774 82.0731 64.2891 82.0964 64.3007Z" fill="#21232E"/>
    <path d="M80.163 65.5832L79.6738 65.8047L80.0349 65.5599C80.0465 65.5599 80.0582 65.5715 80.0698 65.5715C80.0931 65.5715 80.1281 65.5832 80.163 65.5832Z" fill="#21232E"/>
    <path d="M84.9849 66.854C84.7636 67.1221 84.4142 67.2387 83.7853 67.2387C83.0632 67.2387 81.98 67.0755 80.3145 66.784C80.5823 66.6441 80.8386 66.4809 81.0948 66.3294C81.3394 66.1778 81.584 66.0262 81.8286 65.863C82.178 65.6531 82.5157 65.4316 82.8535 65.1984C83.0515 65.0702 83.2495 64.9419 83.4359 64.8137C83.6222 64.6855 83.7969 64.5572 83.9716 64.429L84.0531 64.4873C84.6471 64.9653 84.717 65.0819 85.0898 65.9913C85.2179 66.2944 85.1829 66.6092 84.9849 66.854Z" fill="#21232E"/>
    <path d="M79.4759 65.9213L79.3478 66.0145V65.9679L79.4759 65.9213Z" fill="#21232E"/>
    <path d="M80.163 65.5832L79.6738 65.8047L80.0349 65.5599C80.0465 65.5599 80.0582 65.5715 80.0698 65.5715C80.0931 65.5715 80.1281 65.5832 80.163 65.5832Z" fill="#21232E"/>
    <path d="M82.0964 64.3007C82.0498 64.3357 82.0032 64.3707 81.9567 64.394L81.9916 64.2774L82.0033 64.2657C82.0382 64.2774 82.0731 64.2891 82.0964 64.3007Z" fill="#21232E"/>
    <path d="M62.1219 38.6047C54.1902 53.3648 57.4398 69.6638 57.4747 69.827C57.5446 70.1418 57.3466 70.4449 57.0321 70.5149C56.9855 70.5265 56.9506 70.5265 56.904 70.5265C56.6361 70.5265 56.3915 70.34 56.3333 70.0602C56.2984 69.8969 52.9673 53.1899 61.0969 38.0451C61.2484 37.7653 61.6094 37.6604 61.8889 37.8119C62.1685 37.9635 62.2733 38.3133 62.1219 38.6047Z" fill="white"/>
    <path d="M74.7355 137.413C73.6873 137.623 72.5575 137.786 71.3928 137.891C56.9621 133.892 53.1302 119.179 53.0953 119.015C53.0138 118.701 53.2001 118.386 53.5146 118.304C53.8291 118.234 54.1435 118.421 54.2251 118.736C54.26 118.899 58.4762 134.988 74.7355 137.413Z" fill="white"/>
    <path d="M222.432 218.22C222.397 218.127 213.673 192.454 209.911 181.274C204.111 163.984 188.597 159.845 188.446 159.798L158.431 151.567C158.594 151.672 158.687 151.87 158.664 152.08C158.664 152.15 158.641 152.208 158.618 152.266C158.618 152.266 158.618 152.278 158.606 152.29C158.548 152.43 158.187 153.129 157.453 154.202C157.395 154.307 157.325 154.412 157.243 154.528C157.138 154.691 157.022 154.866 156.894 155.053C153.015 160.428 142.102 171.702 118.645 171.702C106.928 171.702 98.4023 168.962 93.2776 163.54C92.7419 162.969 92.2643 162.398 91.8334 161.815C91.8101 161.792 91.7984 161.757 91.7752 161.733C88.3626 157.07 88.4558 152.488 88.4791 152.022C88.4791 152.01 88.4791 151.998 88.4791 151.998C88.4907 151.835 88.5722 151.683 88.6887 151.59C84.5307 152.873 58.0453 161.255 52.3965 167.994C46.2702 175.293 38.7462 204.311 38.6763 204.603L13.3207 280.35C16.314 278.636 23.7681 275.08 32.4684 276.281C32.515 276.281 32.5616 276.293 32.6082 276.304C33.5516 276.409 34.4833 276.584 35.4035 276.841C35.9742 277.004 36.5216 277.167 37.0457 277.365C37.5698 277.54 38.0706 277.727 38.5481 277.925C42.1704 279.371 44.7328 281.248 46.4449 282.868C46.4798 282.892 46.5264 282.927 46.5613 282.962C47.3766 283.673 48.1919 284.454 48.9955 285.305C49.1353 285.445 49.1819 285.643 49.147 285.818C49.508 285.666 49.8225 285.561 50.102 285.515C52.9905 284.99 56.636 284.979 60.9571 285.468C56.9039 275.628 54.854 260.647 54.854 240.943C54.854 230.497 55.5295 222.056 56.0653 215.282C56.5195 209.651 56.9039 204.789 56.7758 200.499C56.5196 191.37 46.4798 184.736 46.375 184.666C46.1071 184.491 46.0372 184.13 46.2119 183.862C46.3866 183.594 46.7477 183.512 47.0156 183.687C47.4465 183.967 57.661 190.729 57.9405 200.464C58.0686 204.824 57.6842 209.709 57.23 215.376C56.6943 222.138 56.0187 230.544 56.0187 240.943C56.0187 260.938 58.1268 275.966 62.2848 285.643C63.7873 285.83 65.3596 286.086 67.0135 286.401C67.328 286.459 67.5376 286.494 67.6308 286.506C67.9569 286.552 71.1599 287.229 76.8087 288.43C83.366 289.829 91.5306 291.554 94.7335 292.172C99.7883 293.128 124.725 287.322 128.137 286.518C128.626 283.918 133.145 283.23 134.951 283.055C134.939 282.693 134.986 282.227 135.207 281.679C136.244 279.044 140.821 274.847 156.742 269.857C158.454 269.321 160.632 268.575 163.148 267.724C169.985 265.403 179.769 262.081 190.624 259.294C188.539 255.902 180.281 241.211 182.517 224.772C182.564 224.446 182.855 224.213 183.181 224.271C183.496 224.318 183.717 224.609 183.67 224.924C181.411 241.608 190.204 256.461 191.8 258.991C193.372 258.595 194.98 258.21 196.587 257.849C196.901 257.779 197.216 257.977 197.286 258.292C197.356 258.606 197.158 258.909 196.843 258.979C195.189 259.352 193.547 259.749 191.928 260.157C191.765 260.204 191.614 260.239 191.462 260.274C180.432 263.083 170.463 266.464 163.533 268.819C160.994 269.682 158.816 270.428 157.092 270.965C141.007 276.013 137.187 280.035 136.337 281.994C136.011 282.728 136.127 283.171 136.162 283.276C136.197 283.323 136.22 283.393 136.232 283.463L140.996 305.172C148.555 307.853 194.374 308.075 222.653 291.531C252.004 274.357 222.735 218.78 222.432 218.22ZM169.193 158.376C169.03 158.807 164.93 168.997 151.396 176.995C142.719 182.125 131.794 184.771 120.287 184.771C114.021 184.771 107.592 183.99 101.244 182.393C79.9651 177.03 76.867 158.434 76.832 158.247C76.7854 157.933 77.0067 157.641 77.3212 157.583C77.6356 157.536 77.9385 157.758 77.9851 158.073C77.9967 158.119 78.7188 162.631 81.98 167.726C84.9849 172.413 90.8084 178.557 101.524 181.262C119.239 185.716 137.664 183.745 150.802 175.992C163.964 168.216 168.075 158.049 168.11 157.944C168.226 157.653 168.564 157.501 168.867 157.618C169.17 157.734 169.31 158.073 169.193 158.376ZM209.166 184.759C209.049 184.759 197.018 185.517 189.54 204.673C189.447 204.906 189.238 205.046 189.005 205.046C188.935 205.046 188.853 205.034 188.783 204.999C188.492 204.883 188.341 204.544 188.457 204.241C196.238 184.34 208.595 183.617 209.119 183.594C209.457 183.605 209.713 183.827 209.725 184.153C209.736 184.468 209.492 184.748 209.166 184.759Z" fill="#FFC980"/>
    <path d="M169.193 158.376C169.03 158.807 164.93 168.997 151.396 176.995C142.719 182.125 131.794 184.771 120.287 184.771C114.021 184.771 107.592 183.99 101.244 182.393C79.965 177.03 76.8669 158.434 76.832 158.247C76.7854 157.933 77.0067 157.641 77.3212 157.583C77.6356 157.536 77.9385 157.758 77.985 158.072C77.9967 158.119 78.7188 162.631 81.98 167.726C84.9849 172.413 90.8084 178.557 101.524 181.262C119.239 185.716 137.664 183.745 150.802 175.992C163.964 168.216 168.075 158.049 168.11 157.944C168.226 157.653 168.564 157.501 168.867 157.618C169.17 157.734 169.31 158.072 169.193 158.376Z" fill="#FFC980"/>
    <path d="M209.725 184.153C209.736 184.468 209.492 184.748 209.166 184.759C209.049 184.759 197.018 185.517 189.54 204.673C189.447 204.906 189.238 205.046 189.005 205.046C188.935 205.046 188.853 205.034 188.783 204.999C188.492 204.883 188.341 204.544 188.457 204.241C196.237 184.34 208.595 183.617 209.119 183.594C209.457 183.605 209.713 183.827 209.725 184.153Z" fill="#FFC980"/>
    <path d="M49.147 285.818C49.147 285.818 49.147 285.818 49.147 285.83H49.1121C49.1237 285.83 49.1354 285.818 49.147 285.818Z" fill="#FFC980"/>
    <path d="M131.468 305.556H131.457C130.839 302.723 128.452 291.519 128.114 287.73C128.149 287.718 128.172 287.718 128.196 287.707L131.468 305.556Z" fill="#FFC980"/>
    <path d="M139.842 305.323H139.831C135.766 307.771 133.285 306.221 132.703 305.778L129.244 286.995V286.961C129.29 285.13 133.239 284.384 135.195 284.209H135.207L139.842 305.323Z" fill="#FFC980"/>
    <path d="M83.8552 134.358C83.6921 134.44 83.1564 134.708 82.3411 135.07C65.8372 128.891 60.631 106.412 60.5727 106.167C60.5029 105.853 60.7009 105.55 61.0153 105.48C61.3298 105.41 61.6443 105.608 61.7142 105.923C61.7608 106.156 67.0718 129.042 83.8552 134.358Z" fill="white"/>
    <path d="M154.809 69.5239C148.38 71.9256 148.007 78.6177 148.065 80.8795C148.438 80.8096 148.881 80.7979 149.335 81.0078C150.057 81.3342 150.523 82.0921 150.732 83.2696C150.965 84.5987 150.802 85.6014 150.267 86.2426C149.731 86.8722 149.032 86.8955 148.927 86.8955C148.601 86.8838 148.345 86.6273 148.345 86.3009C148.345 85.9744 148.613 85.6946 148.939 85.7296C148.939 85.7296 149.195 85.7179 149.393 85.4614C149.673 85.1117 149.742 84.4005 149.579 83.4678C149.486 82.9431 149.288 82.2669 148.846 82.0687C148.415 81.8589 147.832 82.1853 147.832 82.197C147.658 82.2903 147.448 82.3019 147.273 82.2086C147.099 82.127 146.97 81.9521 146.947 81.7539C146.947 81.649 145.922 71.5991 154.401 68.4279C154.704 68.3114 155.042 68.4746 155.147 68.7777C155.263 69.0692 155.112 69.4073 154.809 69.5239Z" fill="#21232E"/>
    <path d="M139.842 305.323H139.831L135.195 284.209H135.207L139.842 305.323Z" fill="#21232E"/>
    <path d="M140.041 305.964C140.029 305.953 140.017 305.941 140.006 305.929H140.017C140.029 305.941 140.029 305.953 140.041 305.964Z" fill="#21232E"/>
    <path d="M140.716 306.151C140.658 306.186 140.6 306.221 140.553 306.244C140.46 306.221 140.402 306.186 140.332 306.163C140.39 306.174 140.437 306.186 140.495 306.186C140.541 306.186 140.576 306.186 140.623 306.174C140.658 306.163 140.693 306.163 140.716 306.151Z" fill="#21232E"/>
    <path d="M158.093 151.45V151.474L157.93 151.427C157.977 151.439 158.035 151.439 158.093 151.45Z" fill="#21232E"/>
    <path d="M158.093 151.45V151.474L157.93 151.427C157.977 151.439 158.035 151.439 158.093 151.45Z" fill="#21232E"/>
    <path d="M44.989 283.148C43.5914 282.017 42.2053 281.061 40.8193 280.28C42.5315 281.201 43.9058 282.204 44.989 283.148Z" fill="#21232E"/>
    <path d="M49.147 285.818C49.147 285.818 49.147 285.818 49.147 285.83H49.1121C49.1237 285.83 49.1354 285.818 49.147 285.818Z" fill="#21232E"/>
    <path d="M142.417 59.7188C142.3 59.847 142.137 59.917 141.974 59.917C141.834 59.917 141.706 59.8704 141.59 59.7771C131.154 50.9281 130.245 37.7653 130.234 37.637C130.222 37.3222 130.467 37.0424 130.781 37.0191C131.107 37.0191 131.375 37.2523 131.398 37.5671C131.41 37.6953 132.295 50.3684 142.347 58.891C142.591 59.1009 142.626 59.4623 142.417 59.7188Z" fill="white"/>
    <path d="M180.724 131.106C180.106 131.234 179.571 131.292 179.093 131.315C181.19 128.634 186.524 120.484 186.023 107.45C185.406 91.2558 173.98 77.685 173.864 77.5451C173.654 77.3003 173.689 76.9388 173.933 76.729C174.178 76.5191 174.539 76.5424 174.749 76.7873C174.865 76.9272 186.547 90.8011 187.188 107.403C187.665 119.68 183.228 127.631 180.724 131.106Z" fill="white"/>
    <path d="M71.6724 26.5845C67.4678 29.9072 65.0102 34.2326 64.987 34.2793C64.8821 34.4658 64.6841 34.5707 64.4745 34.5707C64.3813 34.5707 64.2765 34.5474 64.195 34.5008C63.9154 34.3376 63.8106 33.9878 63.9737 33.708C64.0785 33.5214 66.5593 29.1377 70.9502 25.6751C71.1948 25.4769 71.5675 25.5235 71.7655 25.7683C71.9635 26.0248 71.9169 26.3863 71.6724 26.5845Z" fill="white"/>
    <path d="M125.004 14.0513C124.993 14.0396 124.981 14.028 124.981 14.0163C124.958 13.958 124.934 13.8881 124.934 13.8298C124.969 13.8997 124.981 13.9813 125.004 14.0513Z" fill="white"/>
    <path d="M172.349 131.467C171.825 131.584 171.266 131.735 170.637 131.922C178.115 121.499 175.937 106.097 175.913 105.934C175.867 105.619 176.076 105.328 176.403 105.281C176.717 105.235 177.02 105.445 177.066 105.771C177.16 106.401 179.186 120.764 172.349 131.467Z" fill="white"/>
    <path d="M149.16 134.219C148.671 134.137 148.217 134.044 147.786 133.962C156.253 125.335 153.959 111.519 153.935 111.379C153.877 111.064 154.087 110.761 154.413 110.714C154.727 110.644 155.03 110.866 155.077 111.181C155.182 111.764 157.418 125.16 149.16 134.219Z" fill="white"/>
    <path d="M161.564 125.603L156.626 134.895H156.614C156.172 134.895 155.741 134.883 155.321 134.871L160.539 125.055C160.691 124.763 161.04 124.658 161.32 124.81C161.611 124.961 161.716 125.311 161.564 125.603Z" fill="white"/>
    <path d="M79.4759 65.9213L79.3478 66.0145V65.9912C79.3827 65.9796 79.4293 65.9562 79.4759 65.9213Z" fill="white"/>
    <path d="M80.163 65.5832L79.6738 65.8047C79.8019 65.7348 79.9417 65.6531 80.0698 65.5715C80.0931 65.5715 80.1281 65.5832 80.163 65.5832Z" fill="white"/>
    <path d="M75.5975 63.1581L75.2714 63.333C75.3529 63.2398 75.4694 63.1698 75.5975 63.1581Z" fill="white"/>
    <path d="M62.6109 80.3898C62.5993 80.3316 62.5876 80.2849 62.5876 80.2499L62.5993 80.215C62.5993 80.2499 62.5993 80.3082 62.6109 80.3898Z" fill="#21232E"/>
    <path d="M169.193 158.376C169.03 158.807 164.93 168.997 151.396 176.995C142.719 182.125 131.795 184.771 120.287 184.771C114.021 184.771 107.592 183.99 101.244 182.393C79.9652 177.03 76.8671 158.434 76.8321 158.247C76.7855 157.933 77.0068 157.641 77.3213 157.583C77.6358 157.536 77.9386 157.758 77.9852 158.072C77.9968 158.119 78.7189 162.631 81.9801 167.726C84.985 172.413 90.8086 178.557 101.524 181.262C119.239 185.716 137.665 183.745 150.802 175.992C163.964 168.216 168.075 158.049 168.11 157.944C168.226 157.653 168.564 157.501 168.867 157.618C169.17 157.734 169.31 158.072 169.193 158.376Z" fill="#21232E"/>
    <path d="M209.725 184.153C209.736 184.468 209.492 184.748 209.166 184.759C209.049 184.759 197.018 185.517 189.54 204.673C189.447 204.906 189.238 205.046 189.005 205.046C188.935 205.046 188.853 205.034 188.783 204.999C188.492 204.883 188.341 204.544 188.457 204.241C196.237 184.34 208.595 183.617 209.119 183.594C209.457 183.605 209.713 183.827 209.725 184.153Z" fill="#21232E"/>
    <path d="M139.843 305.323H139.831C135.766 307.771 133.285 306.221 132.703 305.778L129.244 286.995V286.961C129.29 285.13 133.239 284.384 135.195 284.209H135.207L139.843 305.323Z" fill="#E8B679"/>
    <path d="M140.623 306.174C140.576 306.186 140.541 306.186 140.495 306.186C140.437 306.186 140.39 306.174 140.332 306.163C140.402 306.186 140.46 306.221 140.553 306.244C140.6 306.221 140.658 306.186 140.716 306.151C140.693 306.163 140.658 306.163 140.623 306.174ZM140.017 305.929H140.006C140.017 305.941 140.029 305.953 140.041 305.964C140.029 305.953 140.029 305.941 140.017 305.929ZM128.196 287.707C128.172 287.718 128.149 287.718 128.114 287.73C128.452 291.519 130.839 302.723 131.457 305.556H131.468L128.196 287.707Z" fill="#21232E"/>
    <path d="M128.196 287.707C128.172 287.718 128.149 287.718 128.114 287.73C128.452 291.519 130.839 302.723 131.457 305.556H131.468L128.196 287.707Z" fill="white"/>
    <path d="M49.147 285.818C49.147 285.818 49.147 285.818 49.147 285.83H49.1121C49.1237 285.83 49.1354 285.818 49.147 285.818Z" fill="#21232E"/>
    <path d="M223.503 217.754C223.503 217.754 214.78 192.081 211.018 180.9C204.996 162.992 188.888 158.714 188.737 158.667L158.245 150.296C157.93 150.214 157.616 150.401 157.523 150.704C157.441 151.019 157.628 151.334 157.93 151.427C157.977 151.439 158.035 151.439 158.093 151.45V151.474L157.93 151.427C152.794 150.879 149.055 147.929 146.842 142.648C145.142 138.579 145.014 134.592 145.014 134.522C144.979 134.125 144.956 133.729 144.921 133.321C145.55 133.484 146.54 133.729 147.786 133.962C156.253 125.335 153.959 111.519 153.935 111.379C153.877 111.064 154.087 110.761 154.413 110.714C154.727 110.644 155.03 110.866 155.077 111.181C155.182 111.764 157.418 125.16 149.16 134.219C150.931 134.51 153.05 134.778 155.321 134.871L160.539 125.055C160.691 124.763 161.04 124.658 161.32 124.81C161.611 124.961 161.716 125.311 161.564 125.603L156.626 134.895C160.202 134.941 164.045 134.51 167.434 133.099C168.657 132.586 169.706 132.213 170.626 131.922H170.637C178.115 121.499 175.937 106.098 175.913 105.934C175.867 105.62 176.076 105.328 176.403 105.281C176.717 105.235 177.02 105.445 177.066 105.771C177.16 106.401 179.186 120.764 172.349 131.467C175.506 130.779 176.81 131.444 179.081 131.316H179.093C181.19 128.634 186.524 120.484 186.023 107.45C185.406 91.2559 173.98 77.685 173.864 77.5451C173.654 77.3003 173.689 76.9389 173.933 76.729C174.178 76.5191 174.539 76.5425 174.749 76.7873C174.865 76.9272 186.547 90.8012 187.188 107.403C187.665 119.68 183.228 127.631 180.724 131.106C182.366 130.779 184.544 130.01 187.828 128.412C187.828 128.412 188.434 127.923 189.354 127.072C189.436 127.118 189.529 127.142 189.622 127.142C189.75 127.142 189.878 127.107 189.983 127.013C206.499 113.862 196.878 96.479 190.519 84.9834C189.214 82.6167 187.98 80.3782 187.153 78.5128C183.391 69.9669 182.401 65.5132 182.098 58.483V58.3547C182.051 57.3754 182.028 56.3494 182.016 55.2535C182.005 55.1136 182.005 54.9853 182.005 54.8454C181.982 53.8311 181.982 52.7585 181.97 51.6159C181.865 36.6577 173.642 22.877 157.499 10.6352C139.877 -2.7374 120.637 3.59332 118.156 4.50271C107.79 -1.47826 89.935 -1.88631 73.105 10.6586C49.8808 27.9835 35.9975 40.5867 43.1488 79.7719C44.9075 89.3671 43.836 97.4117 42.8809 104.5C41.2387 116.754 39.9459 126.43 55.8325 134.836C55.914 134.883 56.0071 134.906 56.1003 134.906C56.2168 134.906 56.3333 134.871 56.4264 134.801C61.4347 137.763 66.769 138.311 71.3929 137.891C56.9622 133.892 53.1303 119.179 53.0954 119.015C53.0139 118.701 53.2002 118.386 53.5147 118.304C53.8291 118.234 54.1436 118.421 54.2252 118.736C54.2601 118.899 58.4763 134.988 74.7356 137.413C78.0433 136.772 80.7455 135.758 82.3411 135.07C65.8372 128.89 60.631 106.412 60.5728 106.167C60.5029 105.853 60.7009 105.55 61.0154 105.48C61.3298 105.41 61.6443 105.608 61.7142 105.923C61.7608 106.156 67.0718 129.042 83.8552 134.358C83.8902 134.335 83.9135 134.323 83.9135 134.323C83.9135 134.323 84.2046 134.428 84.7171 134.603C84.787 134.638 84.8685 134.65 84.9501 134.673C84.9733 134.685 85.0083 134.697 85.0316 134.697C85.4625 134.836 85.9983 135 86.6156 135.175C89.4109 135.944 93.8251 136.912 97.1096 136.399C97.3542 138.462 97.4357 140.468 97.1329 142.263C97.1212 142.345 96.1545 151.334 89.1779 151.439C89.2128 151.427 89.2245 151.415 89.2362 151.415C89.539 151.322 89.7137 151.007 89.6205 150.692C89.5273 150.389 89.2012 150.214 88.8984 150.308C87.6289 150.681 57.8357 159.705 51.4998 167.248C45.2104 174.745 37.8494 203.11 37.5582 204.276L11.7484 281.364V281.376C11.2709 281.866 9.26756 284.022 9.61697 286.133C9.80332 287.264 10.5953 288.161 11.9697 288.791H11.9813C12.2143 288.908 12.5055 288.838 12.6685 288.628C12.7151 288.581 17.2691 283.183 26.4936 283.719C34.3087 284.186 40.7495 288.476 42.6946 289.91C39.8294 292.032 37.1972 294.236 36.5915 294.76C36.5799 294.76 36.5799 294.772 36.5799 294.772C36.5682 294.772 36.5566 294.784 36.545 294.795C33.0741 296.323 30.0575 297.908 28.8462 298.981C27.3671 300.31 27.6 301.324 27.8796 301.814C28.392 302.723 29.7081 303.12 30.8612 303.12C31.2805 303.12 31.6881 303.061 32.0142 302.968C32.55 302.805 37.5699 301.604 41.9608 300.566C40.6098 301.313 39.3169 302.024 38.1639 302.653C34.8794 304.437 33.2721 305.323 32.8878 305.696C32.5034 306.081 31.5833 307.27 31.9793 308.319C32.1424 308.774 32.6082 309.322 33.8894 309.392C33.9476 309.404 34.0175 309.404 34.0991 309.404C36.4984 309.404 42.3102 307.34 47.004 305.685L48.4366 305.183C49.7061 304.74 51.558 304.425 53.5263 304.204C46.5381 306.944 42.2287 308.937 41.3435 311.176C41.0989 311.817 41.1222 312.458 41.425 313.076C41.5648 313.368 41.8094 313.589 42.1472 313.741C42.6131 313.974 43.2653 314.067 44.1039 314.067C46.3052 314.067 49.776 313.379 54.4697 312.4C60.1302 311.223 66.5361 309.893 68.6209 310.861C76.1332 314.37 89.2012 310.861 89.6554 310.733L131.981 306.687C132.458 307.06 133.705 307.841 135.603 307.841C136.942 307.841 138.596 307.457 140.553 306.244C140.46 306.221 140.402 306.186 140.332 306.163C140.39 306.174 140.437 306.186 140.495 306.186C140.541 306.186 140.576 306.186 140.623 306.174C140.658 306.163 140.693 306.163 140.716 306.151C140.658 306.186 140.6 306.221 140.553 306.244C142.824 307.06 148.508 307.655 156.113 307.655C174.178 307.655 203.133 304.309 223.235 292.533C253.553 274.8 223.759 218.232 223.503 217.754ZM118.61 5.43542C118.657 5.36547 118.68 5.28385 118.68 5.20224C118.785 5.23721 118.866 5.28385 118.924 5.31882C119.064 5.23721 119.239 5.22555 119.39 5.28385C119.402 5.28385 119.414 5.29551 119.414 5.29551C119.449 5.30717 119.484 5.31883 119.518 5.34215C121.033 6.3448 122.314 7.48736 123.362 8.69988C124.329 8.08196 126.681 6.91608 130.397 7.28916C130.711 7.31248 130.944 7.60395 130.921 7.91874C130.886 8.24519 130.606 8.47836 130.28 8.44338C127.042 8.11694 124.946 9.09628 124.084 9.62092C124.888 10.7169 125.505 11.8594 125.901 13.0486C128.953 12.1392 143.209 8.99135 158.769 24.1944C158.99 24.4276 159.002 24.789 158.769 25.0222C158.664 25.1388 158.513 25.1971 158.361 25.1971C158.21 25.1971 158.059 25.1505 157.954 25.0339C142.766 10.1922 129.034 13.3168 126.25 14.1679C128.545 22.7954 124.83 32.2157 122.36 37.159C122.256 37.3572 122.046 37.4738 121.836 37.4738C121.743 37.4738 121.662 37.4621 121.58 37.4155C121.289 37.2756 121.172 36.9258 121.312 36.6344C123.28 32.7054 127.52 22.7371 125.004 14.0513C124.993 14.0396 124.981 14.028 124.981 14.0163C124.958 13.958 124.934 13.888 124.934 13.8298V13.7948C124.911 13.7481 124.899 13.7015 124.888 13.6549C124.457 12.3258 123.77 11.055 122.815 9.86576C121.79 8.57163 120.462 7.38244 118.866 6.30983C118.61 6.14661 118.54 5.8085 118.68 5.55201C118.575 5.58698 118.482 5.62196 118.424 5.63362C118.494 5.58698 118.563 5.51703 118.61 5.43542ZM142.417 59.7188C142.3 59.847 142.137 59.917 141.974 59.917C141.834 59.917 141.706 59.8704 141.59 59.7771C131.154 50.9281 130.245 37.7653 130.234 37.637C130.222 37.3222 130.467 37.0424 130.781 37.0191C131.107 37.0191 131.375 37.2523 131.398 37.5671C131.41 37.6953 132.295 50.3684 142.347 58.891C142.591 59.1009 142.626 59.4623 142.417 59.7188ZM63.9737 33.708C64.0785 33.5215 66.5594 29.1378 70.9503 25.6751C71.1949 25.4769 71.5676 25.5235 71.7656 25.7684C71.9636 26.0249 71.917 26.3863 71.6724 26.5845C67.4678 29.9072 65.0103 34.2327 64.987 34.2793C64.8822 34.4658 64.6842 34.5708 64.4745 34.5708C64.3814 34.5708 64.2766 34.5474 64.195 34.5008C63.9155 34.3376 63.8107 33.9878 63.9737 33.708ZM62.1218 38.6047C54.1902 53.3648 57.4397 69.6638 57.4747 69.827C57.5445 70.1418 57.3466 70.4449 57.0321 70.5148C56.9855 70.5265 56.9506 70.5265 56.904 70.5265C56.6361 70.5265 56.3915 70.34 56.3333 70.0602C56.2983 69.8969 52.9673 53.1899 61.0969 38.0451C61.2483 37.7653 61.6094 37.6604 61.8889 37.8119C62.1684 37.9635 62.2733 38.3132 62.1218 38.6047ZM74.4095 116.241C73.5476 115.086 72.7439 113.839 71.9985 112.522C71.6491 111.915 71.323 111.297 71.0085 110.656C69.9836 108.651 69.0868 106.529 68.2831 104.372C68.1084 103.894 67.9337 103.416 67.759 102.926C67.5843 102.437 67.4212 101.959 67.2698 101.469C67.1184 101.003 66.967 100.548 66.8273 100.093C66.0702 97.6566 65.4296 95.2548 64.9055 92.993C64.8007 92.55 64.6959 92.107 64.6027 91.6756C64.591 91.6639 64.591 91.6523 64.591 91.6406C64.4513 91.0227 64.3232 90.4281 64.2067 89.8451C64.1484 89.577 64.0902 89.3205 64.0436 89.064C63.9737 88.7026 63.9038 88.3412 63.834 87.9914C63.8223 87.9448 63.8106 87.8981 63.8106 87.8515C63.7408 87.5134 63.6826 87.1869 63.6243 86.8721C63.5777 86.639 63.5311 86.3941 63.4962 86.1726C63.4613 85.9861 63.4263 85.8112 63.403 85.648C63.3215 85.205 63.2516 84.7736 63.1817 84.3772C63.1468 84.1556 63.1118 83.9458 63.0885 83.7359C63.0536 83.5261 63.0187 83.3162 62.9837 83.118C62.9604 82.9082 62.9255 82.7216 62.9022 82.5351C62.7857 81.7773 62.7158 81.1827 62.6576 80.7746C62.646 80.7046 62.6343 80.658 62.6343 80.5997C62.6343 80.5531 62.6227 80.5181 62.6227 80.4831C62.6227 80.4482 62.6227 80.4248 62.611 80.4015V80.3899C62.5994 80.3316 62.5877 80.2849 62.5877 80.25L62.5994 80.215C62.5994 80.25 62.5994 80.3082 62.611 80.3899C63.5544 79.0724 64.4512 77.7083 65.3131 76.3093C65.3131 76.3093 65.3248 76.3093 65.3248 76.2976L69.739 71.0512L69.7506 71.0395L73.699 65.5132L74.491 64.4173L75.2248 63.3797C75.2364 63.368 75.2481 63.3447 75.2714 63.333C75.3529 63.2398 75.4694 63.1698 75.5975 63.1581C75.7489 63.1232 75.9003 63.1581 76.04 63.2514C76.1099 63.3097 76.1798 63.3797 76.2148 63.4613C76.2148 63.4729 76.2148 63.4729 76.2148 63.4729C76.308 63.6595 76.3079 63.881 76.1682 64.0559L76.04 64.2308L72.4062 69.314L79.3478 65.9679L79.4759 65.9213C79.4876 65.9096 79.5109 65.898 79.5342 65.8863C79.5807 65.863 79.6274 65.8397 79.674 65.8047L80.035 65.5599C80.0467 65.5599 80.0583 65.5715 80.0699 65.5715C80.7105 65.1984 81.3395 64.802 81.9568 64.394L81.9917 64.2774L82.0034 64.2657C82.0383 64.2774 82.0732 64.289 82.0965 64.3007C82.3062 64.1725 82.5042 64.0326 82.7021 63.8927C86.3943 61.3627 89.5623 58.448 92.276 55.3701C92.6371 54.9504 92.9981 54.5306 93.3476 54.1109C93.6737 53.7262 93.9881 53.3298 94.291 52.945C104.529 39.9455 107.219 25.267 107.254 25.0572C107.301 24.7424 107.604 24.5325 107.93 24.5908C108.244 24.6375 108.454 24.9406 108.396 25.2554C108.361 25.4652 105.903 38.9195 96.7485 51.6043C96.4922 51.9657 96.2244 52.3271 95.9565 52.6885C95.6537 53.0849 95.3508 53.4697 95.0364 53.8661C93.0214 56.4194 90.7153 58.891 88.0831 61.1995C87.6638 61.5609 87.2212 61.934 86.7786 62.2954C86.6854 62.377 86.5923 62.4586 86.4874 62.5402L86.6738 62.447C86.6738 62.447 101.838 64.2191 113.683 50.3101C116.479 47.4188 118.296 44.7256 119.239 43.1516C120.741 47.9667 126.949 64.2191 143.453 69.8736C143.465 69.8969 143.488 69.8969 143.5 69.8969C143.36 70.1418 143.243 70.3633 143.15 70.5382C143.115 70.6081 143.092 70.6781 143.069 70.7247C143.045 70.7714 143.022 70.818 143.011 70.853C142.952 70.9696 142.929 71.0278 142.917 71.0512C142.801 71.3543 142.941 71.6924 143.243 71.809C143.535 71.9372 143.872 71.7857 144.001 71.4942C144.001 71.4825 144.152 71.1095 144.478 70.5615C144.513 70.4915 144.548 70.4332 144.595 70.3516C144.676 70.2234 144.758 70.0951 144.862 69.9436C144.862 69.9436 144.862 69.9319 144.874 69.9203C144.944 69.8037 145.025 69.6871 145.119 69.5588C145.585 68.9059 146.225 68.1598 147.029 67.4836C147.203 67.3437 147.378 67.2038 147.565 67.0639C147.751 66.924 147.937 66.7957 148.135 66.6908C148.555 66.4226 149.009 66.1894 149.498 65.9912C152.037 64.9769 154.984 65.2218 158.268 66.7141C162.007 68.4163 163.835 71.6691 163.707 76.3792C163.498 84.2256 158 92.8298 155.985 93.6109C153.074 94.7535 150.861 94.9517 150.837 94.9517C150.535 94.975 150.29 95.2432 150.302 95.5463C150.383 97.8547 149.999 99.1022 149.987 99.1256C148.753 103.16 146.586 106.89 143.803 110.26C134.834 121.067 119.332 128.109 106.462 128.995C103.562 129.194 100.941 129.229 98.5654 129.112C86.173 128.517 80.0466 123.796 74.4095 116.241ZM98.2859 142.415C98.81 139.302 98.2393 135.676 97.6919 132.167C97.5871 131.514 97.4823 130.861 97.4007 130.22C98.6353 130.301 99.9281 130.348 101.291 130.348C102.933 130.348 104.692 130.29 106.544 130.161C119.449 129.264 134.974 122.292 144.222 111.542C143.43 120.135 143.302 127.888 143.849 134.58C143.849 134.755 143.977 138.8 145.759 143.068C148.019 148.489 151.955 151.742 157.173 152.5C155.182 155.939 145.13 170.536 118.645 170.536C107.277 170.536 99.0313 167.924 94.1395 162.759C90.2378 158.655 89.7137 154.097 89.6554 152.581C97.2377 152.103 98.2742 142.473 98.2859 142.415ZM26.5634 282.565C26.0859 282.53 25.62 282.519 25.1658 282.519C17.502 282.519 13.2392 286.343 12.0862 287.543C11.3175 287.112 10.8749 286.576 10.77 285.946C10.5371 284.547 11.958 282.798 12.5986 282.169C12.6219 282.157 12.6452 282.145 12.6685 282.122C13.9148 281.236 26.3654 273.005 39.7129 279.709C40.0973 279.895 40.4583 280.082 40.8194 280.28C42.5315 281.201 43.9059 282.204 44.9891 283.148C45.1521 283.288 45.3152 283.428 45.4549 283.556C46.7012 284.71 47.5048 285.713 47.9358 286.308C46.3285 287.03 44.4416 288.511 43.6613 289.164C41.9958 287.882 35.1822 283.066 26.5634 282.565ZM131.457 305.556L131.002 305.603L89.4458 309.59C89.3177 309.625 76.238 313.123 69.1217 309.812C66.6875 308.669 60.3515 309.987 54.2368 311.257C51.1503 311.899 46.9807 312.761 44.5115 312.901C43.4051 312.971 42.6364 312.89 42.4733 312.563C42.3219 312.237 42.2986 311.934 42.4267 311.607C43.3119 309.369 50.4981 306.606 57.4397 303.936C57.498 303.912 57.5445 303.889 57.5911 303.854C59.5012 303.749 61.2367 303.691 62.4014 303.679C63.2283 303.656 63.7641 303.656 63.8572 303.656C63.8689 303.656 63.8689 303.656 63.8689 303.656C64.195 303.656 64.4513 303.399 64.4513 303.073C64.4513 302.747 64.195 302.49 63.8689 302.49H63.601C63.1351 302.49 62.1451 302.502 60.8523 302.537C59.4081 302.583 57.6028 302.653 55.7509 302.805C52.8974 303.026 49.9274 303.411 48.0522 304.076L46.6196 304.589C42.3801 306.081 35.9509 308.308 33.9477 308.238C33.4585 308.203 33.1323 308.086 33.0625 307.911C32.9576 307.597 33.3187 306.909 33.6914 306.536C33.9942 306.244 36.2887 304.997 38.7229 303.679C40.8776 302.502 43.5681 301.044 46.1538 299.552C46.1654 299.54 46.1771 299.54 46.1887 299.529C46.3867 299.424 46.5963 299.307 46.7943 299.202C46.806 299.202 46.806 299.202 46.806 299.202C48.9607 298.141 51.5114 297.617 53.8408 297.383C57.6377 296.999 60.8756 297.36 60.9222 297.372C61.0387 297.384 61.1435 297.36 61.2367 297.314C61.423 297.232 61.5511 297.069 61.5744 296.859C61.6094 296.532 61.3764 296.241 61.062 296.206C60.8174 296.171 56.8341 295.74 52.4548 296.369C51.3716 296.521 50.2535 296.754 49.1587 297.057C47.9357 297.418 46.7361 297.885 45.6529 298.503C45.6413 298.503 45.618 298.514 45.6064 298.514C45.5248 298.526 45.42 298.549 45.2802 298.584C45.2802 298.584 45.2686 298.584 45.2569 298.584C42.8576 299.156 32.5151 301.581 31.6765 301.849C30.7214 302.14 29.219 301.814 28.8928 301.243C28.6483 300.799 29.3238 300.123 29.6266 299.855C30.8263 298.783 34.0641 297.115 37.698 295.553C40.7612 294.212 44.1155 292.953 46.7477 292.172C47.9357 291.811 48.984 291.554 49.7876 291.438C53.4332 290.89 57.2184 291.099 58.8257 291.228C59.3149 291.263 59.6061 291.298 59.6177 291.298C59.9439 291.333 60.2234 291.111 60.2583 290.785C60.2933 290.47 60.072 290.178 59.7458 290.143C59.5362 290.12 54.5396 289.549 49.6129 290.283C48.5763 290.435 47.1671 290.796 45.5714 291.309C43.9758 291.811 42.1938 292.452 40.3885 293.163C41.5648 292.23 42.8693 291.228 44.1738 290.283C45.9557 288.978 47.7028 287.812 48.984 287.159C49.0422 287.135 49.1005 287.112 49.1587 287.077C49.6129 286.856 49.9973 286.716 50.3001 286.657C50.8009 286.564 51.325 286.494 51.8724 286.448C55.7393 286.039 60.7475 286.401 66.8039 287.543C67.1534 287.613 67.3863 287.66 67.4795 287.672C67.8056 287.707 72.0684 288.616 76.5642 289.572C83.1331 290.971 91.2977 292.697 94.5123 293.315C99.7301 294.306 123.676 288.779 128.114 287.73C128.149 287.718 128.172 287.718 128.195 287.707L131.468 305.556H131.457ZM139.831 305.323C135.766 307.771 133.285 306.221 132.703 305.778L129.244 286.995V286.961C129.29 285.13 133.239 284.384 135.195 284.209H135.207L139.843 305.323H139.831ZM140.006 305.929H140.017C140.029 305.941 140.029 305.953 140.041 305.964C140.029 305.953 140.017 305.941 140.006 305.929ZM222.653 291.531C194.374 308.075 148.555 307.853 140.996 305.172L136.232 283.463C136.22 283.393 136.197 283.323 136.162 283.276C136.127 283.171 136.011 282.728 136.337 281.994C137.187 280.035 141.007 276.013 157.092 270.965C158.816 270.428 160.994 269.682 163.533 268.819C170.463 266.464 180.432 263.083 191.462 260.274C191.614 260.239 191.765 260.204 191.928 260.157C193.547 259.749 195.189 259.352 196.843 258.979C197.158 258.909 197.356 258.606 197.286 258.292C197.216 257.977 196.901 257.779 196.587 257.848C194.98 258.21 193.372 258.595 191.8 258.991C190.204 256.461 181.411 241.608 183.67 224.924C183.717 224.609 183.496 224.318 183.181 224.271C182.855 224.213 182.564 224.446 182.517 224.772C180.281 241.211 188.539 255.901 190.624 259.294C179.769 262.081 169.985 265.403 163.148 267.723C160.633 268.575 158.455 269.321 156.742 269.857C140.821 274.847 136.244 279.044 135.207 281.679C134.986 282.227 134.939 282.693 134.951 283.055C133.146 283.23 128.626 283.918 128.137 286.518C124.725 287.322 99.7884 293.128 94.7336 292.172C91.5306 291.554 83.366 289.829 76.8088 288.43C71.1599 287.229 67.957 286.552 67.6309 286.506C67.5377 286.494 67.3281 286.459 67.0136 286.401C65.3597 286.086 63.7874 285.83 62.2849 285.643C58.1269 275.966 56.0188 260.938 56.0188 240.943C56.0188 230.544 56.6943 222.138 57.2301 215.375C57.6843 209.709 58.0687 204.824 57.9406 200.464C57.661 190.729 47.4466 183.967 47.0156 183.687C46.7478 183.512 46.3867 183.594 46.212 183.862C46.0373 184.13 46.1071 184.491 46.375 184.666C46.4798 184.736 56.5196 191.37 56.7759 200.499C56.904 204.789 56.5196 209.651 56.0654 215.282C55.5296 222.056 54.8541 230.497 54.8541 240.943C54.8541 260.647 56.904 275.628 60.9571 285.468C56.6361 284.979 52.9906 284.99 50.1021 285.515C49.8226 285.561 49.5081 285.666 49.147 285.818C49.147 285.818 49.147 285.818 49.147 285.83H49.1121C49.1237 285.83 49.1354 285.818 49.147 285.818C49.182 285.643 49.1354 285.445 48.9956 285.305C48.192 284.454 47.3767 283.673 46.5614 282.962C46.5264 282.927 46.4799 282.892 46.4449 282.868C44.7328 281.248 42.1704 279.371 38.5482 277.925C38.0707 277.727 37.5699 277.54 37.0458 277.365C36.5217 277.167 35.9742 277.004 35.4035 276.841C34.4834 276.584 33.5517 276.409 32.6082 276.304C32.5617 276.293 32.5151 276.281 32.4685 276.281C23.7682 275.08 16.314 278.636 13.3208 280.35L38.6763 204.603C38.7462 204.311 46.2702 175.293 52.3966 167.994C58.0454 161.255 84.5307 152.873 88.6887 151.59C88.5723 151.683 88.4908 151.835 88.4791 151.998C88.4791 151.998 88.4791 152.01 88.4791 152.022C88.4558 152.488 88.3626 157.07 91.7752 161.733C91.7985 161.757 91.8101 161.792 91.8334 161.815C92.2644 162.398 92.7419 162.969 93.2777 163.54C98.4024 168.962 106.928 171.702 118.645 171.702C142.102 171.702 153.015 160.428 156.894 155.053C157.022 154.866 157.138 154.691 157.243 154.528C157.325 154.412 157.395 154.307 157.453 154.202C158.187 153.129 158.548 152.43 158.606 152.29C158.618 152.278 158.618 152.266 158.618 152.266C158.641 152.208 158.664 152.15 158.664 152.08C158.687 151.87 158.594 151.672 158.431 151.567L188.446 159.798C188.597 159.845 204.111 163.983 209.911 181.273C213.673 192.454 222.397 218.127 222.432 218.22C222.735 218.78 252.004 274.357 222.653 291.531Z" fill="#21232E"/>
    <path d="M131.457 305.556L131.003 305.603L89.4459 309.59C89.3178 309.625 76.2381 313.123 69.1218 309.812C66.6875 308.669 60.3515 309.987 54.2368 311.257C51.1504 311.899 46.9808 312.761 44.5116 312.901C43.4051 312.971 42.6364 312.89 42.4734 312.563C42.3219 312.237 42.2986 311.934 42.4268 311.607C43.3119 309.369 50.4981 306.606 57.4398 303.936C57.498 303.912 57.5446 303.889 57.5912 303.854C59.5013 303.749 61.2367 303.691 62.4014 303.679C63.2284 303.656 63.7641 303.656 63.8573 303.656C63.869 303.656 63.869 303.656 63.869 303.656C64.1951 303.656 64.4513 303.399 64.4513 303.073C64.4513 302.747 64.1951 302.49 63.869 302.49H63.6011C63.1352 302.49 62.1452 302.502 60.8524 302.537C59.4082 302.583 57.6029 302.653 55.751 302.805C52.8975 303.026 49.9274 303.411 48.0523 304.076L46.6197 304.589C42.3802 306.081 35.951 308.308 33.9477 308.238C33.4585 308.203 33.1324 308.086 33.0625 307.911C32.9577 307.597 33.3188 306.909 33.6915 306.536C33.9943 306.244 36.2888 304.997 38.723 303.679C40.8777 302.502 43.5682 301.044 46.1538 299.552C46.1655 299.54 46.1771 299.54 46.1888 299.529C46.3868 299.424 46.5964 299.307 46.7944 299.202C46.8061 299.202 46.8061 299.202 46.8061 299.202C48.9608 298.141 51.5114 297.617 53.8409 297.383C57.6378 296.999 60.8757 297.36 60.9223 297.372C61.0387 297.384 61.1436 297.36 61.2367 297.314C61.4231 297.232 61.5512 297.069 61.5745 296.859C61.6095 296.532 61.3765 296.241 61.062 296.206C60.8174 296.171 56.8341 295.74 52.4549 296.369C51.3717 296.521 50.2536 296.754 49.1588 297.057C47.9358 297.418 46.7362 297.885 45.653 298.503C45.6413 298.503 45.6181 298.514 45.6064 298.514C45.5249 298.526 45.4201 298.549 45.2803 298.584C45.2803 298.584 45.2686 298.584 45.257 298.584C42.8577 299.156 32.5151 301.581 31.6765 301.849C30.7215 302.14 29.219 301.814 28.8929 301.243C28.6483 300.8 29.3238 300.123 29.6267 299.855C30.8263 298.783 34.0642 297.115 37.6981 295.553C40.7612 294.212 44.1156 292.953 46.7478 292.172C47.9358 291.811 48.9841 291.554 49.7877 291.437C53.4332 290.89 57.2185 291.099 58.8258 291.228C59.315 291.263 59.6062 291.298 59.6178 291.298C59.9439 291.333 60.2234 291.111 60.2584 290.785C60.2933 290.47 60.072 290.178 59.7459 290.143C59.5363 290.12 54.5397 289.549 49.613 290.283C48.5764 290.435 47.1671 290.796 45.5715 291.309C43.9758 291.811 42.1938 292.452 40.3885 293.163C41.5649 292.23 42.8694 291.228 44.1738 290.283C45.9558 288.977 47.7029 287.812 48.9841 287.159C49.0423 287.135 49.1005 287.112 49.1588 287.077C49.613 286.856 49.9974 286.716 50.3002 286.657C50.801 286.564 51.3251 286.494 51.8725 286.448C55.7393 286.039 60.7476 286.401 66.804 287.543C67.1534 287.613 67.3864 287.66 67.4796 287.672C67.8057 287.707 72.0685 288.616 76.5643 289.572C83.1332 290.971 91.2978 292.697 94.5124 293.315C99.7302 294.306 123.677 288.779 128.114 287.73C128.452 291.519 130.839 302.723 131.457 305.556Z" fill="white"/>
    <path d="M47.9358 286.308C46.3285 287.03 44.4416 288.511 43.6613 289.164C41.9958 287.882 35.1822 283.066 26.5634 282.565C26.0859 282.53 25.62 282.519 25.1658 282.519C17.502 282.519 13.2392 286.343 12.0862 287.543C11.3175 287.112 10.8749 286.576 10.77 285.946C10.5371 284.547 11.958 282.798 12.5986 282.169C12.6219 282.157 12.6452 282.145 12.6685 282.122C13.9147 281.236 26.3654 273.005 39.7129 279.709C40.0973 279.895 40.4583 280.082 40.8194 280.28C42.5315 281.201 43.9059 282.204 44.9891 283.148C45.1521 283.288 45.3152 283.428 45.4549 283.556C46.7012 284.71 47.5048 285.713 47.9358 286.308Z" fill="#E8B679"/>
    <path d="M62.6109 80.3898C62.5993 80.3316 62.5876 80.2849 62.5876 80.2499L62.5993 80.215C62.5993 80.2499 62.5993 80.3082 62.6109 80.3898Z" fill="#21232E"/>
    <path d="M108.395 25.2554C108.36 25.4653 105.903 38.9195 96.7483 51.6043C96.4921 51.9657 96.2242 52.3271 95.9564 52.6885C95.6535 53.0849 95.3507 53.4697 95.0362 53.8661C93.0213 56.4194 90.7152 58.891 88.083 61.1995C87.6637 61.5609 87.2211 61.934 86.7785 62.2954C86.6853 62.377 86.5921 62.4586 86.4873 62.5402H86.4757L83.2378 64.1025L82.5273 64.4523H82.5157L81.8285 64.7787L80.163 65.5832C80.128 65.5832 80.0931 65.5715 80.0698 65.5715C80.7104 65.1984 81.3393 64.802 81.9566 64.394C82.0032 64.3707 82.0498 64.3357 82.0964 64.3007C82.306 64.1725 82.504 64.0326 82.702 63.8927C86.3941 61.3627 89.5621 58.448 92.2759 55.3701C92.6369 54.9504 92.998 54.5306 93.3474 54.1109C93.6735 53.7262 93.988 53.3298 94.2908 52.945C104.529 39.9455 107.219 25.267 107.254 25.0572C107.301 24.7424 107.603 24.5325 107.93 24.5908C108.244 24.6375 108.454 24.9406 108.395 25.2554Z" fill="white"/>
    <path d="M158.268 66.7141C154.984 65.2217 152.037 64.9769 149.498 65.9912C149.009 66.1894 148.555 66.4226 148.135 66.6907C147.937 66.8073 147.751 66.9356 147.565 67.0638C147.378 67.2037 147.203 67.3436 147.029 67.4835C146.225 68.1598 145.585 68.9059 145.119 69.5588C145.025 69.6871 144.944 69.8036 144.874 69.9202C144.862 69.9319 144.862 69.9436 144.862 69.9436C144.758 70.0951 144.676 70.2234 144.595 70.3516C144.548 70.4332 144.513 70.4915 144.478 70.5615C144.152 71.1094 144.001 71.4825 144.001 71.4942C143.872 71.7856 143.535 71.9372 143.243 71.8089C142.941 71.6924 142.801 71.3543 142.917 71.0511C142.929 71.0278 142.952 70.9695 143.011 70.8529C143.022 70.818 143.045 70.7713 143.069 70.7247C143.092 70.6781 143.115 70.6081 143.15 70.5381L143.453 69.8736C126.949 64.2191 120.741 47.9667 119.239 43.1516C118.296 44.7255 116.479 47.4187 113.683 50.3101C101.838 64.2191 86.6738 62.4469 86.6738 62.4469L86.4874 62.5402H86.4758L83.2379 64.1025L82.5274 64.4522H82.5158L81.8286 64.7787L80.1631 65.5832L79.6739 65.8047C79.6273 65.8396 79.5807 65.863 79.5341 65.8863C79.5108 65.8979 79.4875 65.9096 79.4759 65.9212L79.3478 66.0145V65.9679L72.4061 69.314L70.3796 70.2933L69.7506 71.0395L69.739 71.0511L65.3247 76.2976C65.3247 76.3093 65.3131 76.3092 65.3131 76.3092C64.4512 77.7083 63.5544 79.0724 62.611 80.3898V80.4015C62.6226 80.4248 62.6226 80.4481 62.6226 80.4831C62.6226 80.5181 62.6343 80.5531 62.6343 80.5997C62.6343 80.658 62.6459 80.7046 62.6576 80.7746C62.7158 81.1826 62.7857 81.7772 62.9021 82.535C62.9254 82.7216 62.9604 82.9081 62.9837 83.118C63.0186 83.3162 63.0536 83.5261 63.0885 83.7359C63.1118 83.9458 63.1468 84.1556 63.1817 84.3771C63.2516 84.7735 63.3215 85.2049 63.403 85.648C63.4263 85.8112 63.4612 85.9861 63.4961 86.1726C63.5311 86.3941 63.5777 86.6389 63.6243 86.8721C63.6825 87.1869 63.7407 87.5134 63.8106 87.8515C63.8106 87.8981 63.8223 87.9447 63.8339 87.9914C63.9038 88.3411 63.9737 88.7026 64.0436 89.064C64.0901 89.3205 64.1484 89.577 64.2066 89.8451C65.4179 89.2855 66.7457 88.9357 68.155 88.8425C74.2347 88.481 79.4526 93.1212 79.8253 99.1955C80.1514 104.757 76.3196 109.595 71.0085 110.656C71.323 111.286 71.6607 111.915 71.9985 112.521C72.7439 113.839 73.5475 115.086 74.4094 116.241C80.0466 123.796 86.173 128.517 98.5654 129.112C100.941 129.229 103.562 129.194 106.462 128.995C119.332 128.109 134.834 121.067 143.803 110.26C146.586 106.89 148.753 103.159 149.987 99.1255C149.999 99.1022 150.383 97.8547 150.302 95.5463C150.29 95.2431 150.535 94.975 150.837 94.9517C150.861 94.9517 153.074 94.7535 155.985 93.6109C158 92.8298 163.498 84.2256 163.707 76.3792C163.835 71.669 162.007 68.4162 158.268 66.7141ZM77.7871 83.1297H77.6007C76.7389 83.1297 75.9236 82.7799 75.2713 82.1037C74.6074 81.4158 74.2114 80.4714 74.1532 79.4571C74.0833 78.4428 74.3745 77.4518 74.9452 76.694C75.5508 75.9012 76.3894 75.4348 77.3096 75.3765C79.1964 75.26 80.8269 76.9039 80.9551 79.0491C80.9551 79.1423 80.9667 79.2239 80.9667 79.3172C80.9667 81.3342 79.5807 83.0131 77.7871 83.1297ZM84.985 66.854C84.7637 67.1221 84.4143 67.2387 83.7853 67.2387C83.0632 67.2387 81.98 67.0755 80.3145 66.784C80.5824 66.6441 80.8386 66.4809 81.0949 66.3293C81.3394 66.1778 81.584 66.0262 81.8286 65.863C82.178 65.6531 82.5158 65.4316 82.8535 65.1984C83.0515 65.0702 83.2495 64.9419 83.4359 64.8137C83.6222 64.6854 83.7969 64.5572 83.9716 64.4289L84.0532 64.4872C84.6472 64.9652 84.7171 65.0818 85.0898 65.9912C85.2179 66.2943 85.183 66.6091 84.985 66.854ZM89.702 95.0799C89.3409 94.1589 89.5855 93.1446 90.4358 92.072C94.1628 87.3268 92.4041 72.9049 92.3808 72.7533C92.3459 72.4385 92.5672 72.1471 92.8933 72.1121C93.2077 72.0771 93.4989 72.2986 93.5339 72.6134C93.6154 73.2313 95.3741 87.6649 91.3442 92.7948C90.7735 93.5176 90.5872 94.1472 90.7852 94.6486C91.251 95.8378 93.7086 96.4673 94.5239 96.5956C94.8384 96.6539 95.0596 96.9453 95.013 97.2601C94.9665 97.5516 94.7219 97.7615 94.4307 97.7615C94.4074 97.7615 94.3725 97.7498 94.3492 97.7498C93.9532 97.6915 90.494 97.0969 89.702 95.0799ZM105.53 108.534C103.178 110.05 99.7185 110.761 96.6553 110.761C94.8616 110.761 93.2078 110.516 91.9732 110.05C91.682 109.933 91.5306 109.595 91.6354 109.292C91.7519 108.989 92.0896 108.837 92.3925 108.954C95.4556 110.12 101.454 109.77 104.901 107.555C105.169 107.38 105.53 107.462 105.705 107.73C105.88 107.998 105.798 108.359 105.53 108.534ZM107.976 65.8513C107.592 65.8513 107.336 65.7697 107.138 65.5832C106.928 65.3733 106.846 65.0585 106.94 64.7321C107.196 63.7877 107.254 63.6711 107.732 63.1698L107.871 63.0415C108.058 62.9133 112.402 60.0452 118.575 60.2434C125.668 60.4649 128.021 61.899 128.708 62.5052C129.104 62.8667 128.999 63.2164 128.941 63.3563C128.685 63.881 128.195 63.7994 126.379 63.5079C124.445 63.1814 121.522 62.7034 119.204 63.0415C117.119 63.3447 114.638 64.0908 112.46 64.7554C110.073 65.4782 108.757 65.8513 107.976 65.8513ZM116.164 80.8212H115.978C114.184 80.8212 112.647 79.2123 112.53 77.1487C112.402 75.0035 113.823 73.173 115.698 73.0681C117.562 72.9399 119.204 74.5954 119.332 76.7406C119.46 78.8742 118.039 80.7046 116.164 80.8212ZM130.991 106.028C124.923 106.389 119.705 101.76 119.332 95.6745C118.971 89.6003 123.595 84.3655 129.675 84.0041C135.743 83.6426 140.972 88.2712 141.333 94.3571C141.694 100.431 137.071 105.654 130.991 106.028ZM154.809 69.5238C148.38 71.9255 148.007 78.6177 148.065 80.8795C148.438 80.8095 148.881 80.7979 149.335 81.0077C150.057 81.3342 150.523 82.092 150.733 83.2696C150.965 84.5987 150.802 85.6013 150.267 86.2425C149.731 86.8721 149.032 86.8954 148.927 86.8954C148.601 86.8838 148.345 86.6273 148.345 86.3008C148.345 85.9744 148.613 85.6946 148.939 85.7296C148.939 85.7296 149.195 85.7179 149.393 85.4614C149.673 85.1116 149.743 84.4005 149.579 83.4678C149.486 82.9431 149.288 82.2669 148.846 82.0687C148.415 81.8588 147.832 82.1853 147.832 82.1969C147.658 82.2902 147.448 82.3019 147.273 82.2086C147.099 82.127 146.971 81.9521 146.947 81.7539C146.947 81.649 145.922 71.5991 154.401 68.4279C154.704 68.3113 155.042 68.4745 155.147 68.7777C155.263 69.0691 155.112 69.4072 154.809 69.5238Z" fill="white"/>
    <path d="M119.414 5.29554C119.111 5.40047 118.855 5.48208 118.68 5.55203C118.575 5.58701 118.482 5.62199 118.424 5.63364C118.493 5.58701 118.563 5.51706 118.61 5.43545C118.657 5.3655 118.68 5.28388 118.68 5.20227C118.785 5.23725 118.866 5.28388 118.924 5.31886C119.064 5.23724 119.239 5.22559 119.39 5.28388C119.402 5.28388 119.414 5.29554 119.414 5.29554Z" fill="#21232E"/>
    <path d="M158.769 25.0222C158.664 25.1388 158.513 25.1971 158.361 25.1971C158.21 25.1971 158.059 25.1505 157.954 25.0339C142.766 10.1922 129.034 13.3168 126.25 14.1679C128.545 22.7954 124.83 32.2157 122.36 37.159C122.256 37.3572 122.046 37.4738 121.836 37.4738C121.743 37.4738 121.662 37.4622 121.58 37.4155C121.289 37.2756 121.172 36.9259 121.312 36.6344C123.28 32.7054 127.52 22.7371 125.004 14.0513C124.981 13.9813 124.969 13.8997 124.934 13.8298V13.7948C124.911 13.7482 124.899 13.7015 124.888 13.6549C124.457 12.3258 123.77 11.055 122.815 9.86578C121.79 8.57165 120.462 7.38246 118.866 6.30985C118.61 6.14663 118.54 5.80852 118.68 5.55203C118.855 5.48207 119.111 5.40046 119.414 5.29553C119.449 5.30719 119.484 5.31885 119.518 5.34217C121.033 6.34483 122.314 7.48739 123.362 8.6999C124.329 8.08198 126.681 6.91611 130.397 7.28919C130.711 7.3125 130.944 7.60398 130.921 7.91876C130.886 8.24521 130.606 8.47838 130.28 8.44341C127.042 8.11696 124.946 9.0963 124.084 9.62095C124.888 10.7169 125.505 11.8594 125.901 13.0486C128.953 12.1393 143.209 8.99137 158.769 24.1945C158.99 24.4276 159.002 24.7891 158.769 25.0222Z" fill="white"/>
    <path d="M119.414 5.29553C119.111 5.40046 118.855 5.48207 118.68 5.55202C118.68 5.54037 118.692 5.51705 118.703 5.50539C118.761 5.42378 118.831 5.36548 118.925 5.31885C119.064 5.23723 119.239 5.22558 119.39 5.28387C119.402 5.28387 119.414 5.29553 119.414 5.29553Z" fill="white"/>
</svg>
