<svg width="35" height="35" viewBox="0 0 35 35" fill="none" xmlns="http://www.w3.org/2000/svg">
<path opacity="0.8" d="M11.8234 35C15.0322 35 17.6468 32.3854 17.6468 29.1766V23.3334H11.8234C8.6146 23.3334 6 25.948 6 29.1568C6 32.3656 8.6146 35 11.8234 35Z" fill="#5368E0"/>
<path opacity="0.8" d="M6 17.4901C6 14.2813 8.6146 11.6667 11.8234 11.6667H17.6667V23.3333H11.8234C8.6146 23.3333 6 20.7187 6 17.4901Z" fill="#5368E0"/>
<path opacity="0.8" d="M6 5.82342C6 2.6146 8.6146 0 11.8234 0H17.6667V11.6667H11.8234C8.6146 11.6667 6 9.05206 6 5.82342Z" fill="#5368E0"/>
<path opacity="0.6" d="M17.667 0H23.4904C26.6992 0 29.3336 2.6146 29.3336 5.82342C29.3336 9.03225 26.719 11.6667 23.4904 11.6667H17.667V0Z" fill="#5368E0"/>
<path opacity="0.8" d="M29.3336 17.4901C29.3336 20.6989 26.719 23.3135 23.5102 23.3135C20.2816 23.3135 17.667 20.6989 17.667 17.4901C17.667 14.2813 20.2816 11.6667 23.5102 11.6667C26.719 11.6667 29.3336 14.2813 29.3336 17.4901Z" fill="#5368E0"/>
</svg>
