<svg width="36" height="35" viewBox="0 0 36 35" fill="none" xmlns="http://www.w3.org/2000/svg">
<path d="M35.7082 12.513C35.7082 12.4401 35.6718 12.3854 35.6535 12.2943C34.7603 9.86977 32.3358 8.21092 28.8358 7.62759C26.8853 7.29946 24.7343 7.35415 22.5103 7.7005C21.6353 5.14842 20.6509 3.90884 19.5207 3.99998C18.2811 4.09113 17.552 5.78644 17.1509 8.08332C15.1093 6.36977 13.5962 5.8229 12.6666 6.49738C11.6275 7.22655 11.9009 9.10415 12.7577 11.2916C10.8801 12.4583 9.2577 13.8073 8.01812 15.2838C7.59885 15.7578 7.25249 16.25 6.9426 16.7422L1.43739 18.9114C1.23687 18.9844 1.0728 19.1666 1.01812 19.3854C0.963429 19.6041 1.01812 19.8229 1.16395 20.0052L4.49989 23.8151L4.37228 28.7187C4.37228 28.9557 4.48166 29.1745 4.66395 29.3021C4.77332 29.375 4.91916 29.4297 5.04676 29.4297C5.13791 29.4297 5.22905 29.4114 5.3202 29.375L10.2603 27.2969C10.9895 27.5703 11.7733 27.7708 12.6483 27.9166C13.578 28.0807 14.5624 28.1536 15.565 28.1536C16.5494 28.1536 17.5702 28.0625 18.591 27.9166C19.4478 30.5234 20.3957 31.7995 21.5259 31.7995C21.5624 31.7995 21.5988 31.7995 21.6353 31.7995C22.8567 31.7083 23.677 30.1041 24.1145 27.0599C25.5181 28.2083 26.6483 28.8099 27.5051 28.8099C27.8514 28.8099 28.1613 28.7187 28.4166 28.5182C29.2733 27.8984 29.2916 26.513 28.5624 24.362C30.5129 23.1771 32.19 21.7916 33.4843 20.2786C35.69 17.6354 36.4738 14.901 35.7082 12.513ZM21.5806 22.6302C20.7056 21.6276 19.8306 20.4974 18.9556 19.3307C19.6119 19.0937 20.2863 18.8385 21.0155 18.5833C29.0363 15.6302 32.7369 14.2812 34.4139 13.5338C34.2863 14.5729 33.3567 15.9036 31.7343 17.2708C29.4556 19.2031 26.1561 21.0078 22.4009 22.3932C22.1457 22.4661 21.8723 22.539 21.5806 22.6302ZM22.4921 25.6015C21.5077 25.9114 20.5233 26.1666 19.5572 26.3489C19.4296 25.8568 19.2837 25.3463 19.1744 24.7995C19.8306 24.6172 20.5051 24.4349 21.1796 24.2161C21.6171 24.7083 22.0546 25.164 22.4921 25.6015ZM18.9009 23.4505C18.7733 22.6849 18.6457 21.8646 18.5363 21.026C19.0832 21.7552 19.6483 22.4297 20.1952 23.0859C19.7577 23.2318 19.3384 23.3411 18.9009 23.4505ZM16.7317 12.6588C16.203 12.8776 15.6926 13.0963 15.2004 13.3333C14.927 12.8047 14.69 12.3125 14.4895 11.8568C15.2369 11.4375 16.0207 11.0729 16.8228 10.7265C16.7863 11.3646 16.7499 12.0026 16.7317 12.6588ZM16.7134 14.1354C16.7134 14.7916 16.7317 15.4297 16.7499 16.0312C16.4218 15.5208 16.1119 15.0104 15.8384 14.5364C16.1301 14.4088 16.4218 14.2812 16.7134 14.1354ZM33.9218 12.1666C32.3541 12.6588 28.8176 13.9166 20.4322 16.9791C19.6483 17.2708 18.9009 17.5443 18.19 17.7995C18.0988 16.25 18.0624 14.8646 18.0806 13.5885C18.4087 13.4609 18.7186 13.3151 19.0468 13.1875C23.0754 11.7109 26.7212 11.0547 29.4556 11.0547C31.6067 11.0547 33.1744 11.4557 33.9218 12.1666ZM16.6223 18.3828C11.19 20.388 8.41916 21.4088 7.03374 22.0469C7.17957 21.0078 8.10926 19.6771 9.73166 18.3099C11.0442 17.1979 12.7395 16.1224 14.6353 15.1562C15.2733 16.2864 15.966 17.3984 16.6223 18.3828ZM7.54416 23.3958C8.83843 22.9948 11.4817 22.0651 17.0416 20.0234C17.1874 21.3359 17.3697 22.5937 17.5702 23.7786C15.5832 24.2344 13.6692 24.4896 11.9921 24.4896C9.87749 24.4896 8.30978 24.0885 7.54416 23.3958ZM28.5988 8.97655C29.6379 9.15884 30.5494 9.43227 31.3332 9.79686C28.1431 9.37759 23.5676 10.0703 18.5728 11.9114C18.427 11.9661 18.2629 12.039 18.1171 12.0937C18.1353 11.4193 18.1718 10.763 18.2447 10.1797C20.8514 9.24998 23.4947 8.7578 25.9192 8.7578C26.8488 8.7578 27.7421 8.83071 28.5988 8.97655ZM19.6301 5.36717C19.7759 5.36717 20.4139 5.84113 21.1431 7.95571C20.2317 8.15623 19.3384 8.39321 18.427 8.70311C18.7551 6.53384 19.2655 5.40363 19.6301 5.36717ZM13.4686 7.60936C13.5962 7.51821 14.5259 7.60936 16.5494 9.37759C15.6561 9.74217 14.7811 10.1614 13.9608 10.5989C13.3046 8.86717 13.1952 7.79165 13.4686 7.60936ZM9.05718 16.1588C10.1692 14.8281 11.6275 13.625 13.3046 12.5677C13.5051 13.0234 13.7421 13.4791 13.9791 13.9531C12.0103 14.9739 10.2238 16.0859 8.83843 17.2526C8.30978 17.7083 7.87228 18.1458 7.47124 18.5833C7.83582 17.7812 8.36447 16.9791 9.05718 16.1588ZM5.99468 18.5833C5.46603 19.987 5.33843 21.3541 5.64832 22.612L5.39312 22.7213L2.84103 19.8047L5.99468 18.5833ZM5.77593 27.6979L5.8853 24.0156L6.14051 23.9062C6.66916 24.9453 7.52593 25.8203 8.65614 26.4948L5.77593 27.6979ZM12.8671 26.5677C11.8098 26.3854 10.8983 26.112 10.0962 25.7291C10.6796 25.8021 11.2994 25.8568 11.9921 25.8568C11.9921 25.8568 11.9921 25.8568 12.0103 25.8568C13.7603 25.8568 15.7655 25.5833 17.8619 25.1094C17.9712 25.6198 18.0988 26.112 18.2264 26.5859C16.3306 26.8411 14.5077 26.8594 12.8671 26.5677ZM21.5259 30.4323C21.3801 30.4323 20.7238 29.9583 19.9582 27.6979C20.8879 27.5156 21.8176 27.2604 22.7473 26.9687C22.328 29.7213 21.69 30.4323 21.5259 30.4323ZM27.6145 27.4062C27.5051 27.4791 26.7577 27.4427 25.0988 26.112C25.8827 25.7838 26.6301 25.4193 27.3593 25.0364C27.9061 26.7318 27.7238 27.3333 27.6145 27.4062ZM32.427 19.4036C30.4582 21.737 27.4686 23.7422 23.9686 25.1094C23.5311 24.6901 23.0754 24.2526 22.6014 23.7422C22.6926 23.7057 22.802 23.6875 22.8931 23.651C26.7759 22.2291 30.2395 20.3151 32.6275 18.2916C33.1561 17.8541 33.5936 17.3984 33.9947 16.9609C33.6301 17.763 33.1014 18.5833 32.427 19.4036Z" fill="#5368E0" fill-opacity="0.8"/>
</svg>
