<svg width="35" height="35" viewBox="0 0 35 35" fill="none" xmlns="http://www.w3.org/2000/svg">
<path d="M31.8272 0H3.17283C1.42051 0 0 1.42051 0 3.17283V31.8272C0 33.5795 1.42051 35 3.17283 35H31.8272C33.5795 35 35 33.5795 35 31.8272V3.17283C35 1.42051 33.5795 0 31.8272 0Z" fill="#5368E0" fill-opacity="0.8"/>
<path d="M11.6969 11.012C12.8604 11.012 13.835 10.1001 13.835 8.90492C13.835 7.71054 12.8604 6.79877 11.6969 6.79877C10.5334 6.79877 9.559 7.71054 9.559 8.90492C9.559 10.1 10.5334 11.012 11.6969 11.012ZM7.26363 22.2941C7.13799 22.8286 7.07496 23.4059 7.07496 23.8767C7.07496 25.7321 8.08107 26.9638 10.2192 26.9638C11.9925 26.9638 13.4301 25.9108 14.4652 24.2104L13.8331 26.747H17.3543L19.3668 18.6753C19.8699 16.6316 20.8446 15.5708 22.3225 15.5708C23.4859 15.5708 24.209 16.2943 24.209 17.4887C24.209 17.8347 24.1775 18.2116 24.0517 18.6206L23.014 22.3307C22.8568 22.8653 22.7942 23.4001 22.7942 23.9028C22.7942 25.6642 23.8315 26.9525 26.0011 26.9525C27.8562 26.9525 29.3339 25.7582 30.1514 22.8969L28.7681 22.3628C28.0763 24.2798 27.4789 24.6263 27.0072 24.6263C26.5355 24.6263 26.2839 24.3122 26.2839 23.6837C26.2839 23.4007 26.3471 23.0866 26.4412 22.7085L27.4476 19.0939C27.699 18.2451 27.7935 17.4925 27.7935 16.801C27.7935 14.097 26.1583 12.6857 24.1775 12.6857C22.3225 12.6857 20.4358 14.359 19.4927 16.1201L20.1842 12.9592H14.8079L14.0532 15.7433H16.5687L15.0197 21.9449C13.8033 24.6489 11.5689 24.6928 11.2885 24.63C10.828 24.5261 10.5335 24.3513 10.5335 23.753C10.5335 23.4078 10.5964 22.9119 10.7537 22.314L13.1121 12.9592H7.13799L6.3833 15.7433H8.86707L7.26377 22.2941" fill="white"/>
</svg>
