<svg width="35" height="35" viewBox="0 0 35 35" fill="none" xmlns="http://www.w3.org/2000/svg">
<path opacity="0.6" d="M30.1005 15.9313C30.1005 22.8587 24.4852 28.4932 17.5386 28.4932C10.6112 28.4932 4.97673 22.878 4.97673 15.9313H0.5C0.5 25.3286 8.12202 32.9313 17.5 32.9313C26.8973 32.9313 34.5 25.3093 34.5 15.9313H30.1005Z" fill="#5368E0" stroke="#5368E0" stroke-linecap="round" stroke-linejoin="round"/>
<path opacity="0.4" d="M30.4712 15.9313C30.4712 8.78036 24.6908 3 17.5597 3C10.4286 3 4.62842 8.78036 4.62842 15.9313H30.4712Z" fill="#5368E0" stroke="#5368E0" stroke-linecap="round" stroke-linejoin="round"/>
<path d="M17.5597 28.8428C24.6908 28.8428 30.4911 23.0624 30.4911 15.9114H4.62842C4.62842 23.0624 10.4088 28.8428 17.5597 28.8428Z" fill="#5368E0" stroke="#5368E0" stroke-linecap="round" stroke-linejoin="round"/>
</svg>
