<svg width="37" height="35" viewBox="0 0 37 35" fill="none" xmlns="http://www.w3.org/2000/svg">
<g opacity="0.8">
<path opacity="0.8" d="M1.60028 12.2995C1.43227 12.2995 1.33913 12.4941 1.44453 12.625L15.805 30.4532C15.9469 30.6294 16.2262 30.4716 16.1486 30.2592L9.63855 12.4309C9.60973 12.352 9.53468 12.2995 9.45068 12.2995H1.60028Z" fill="#5368E0" stroke="#5368E0" stroke-width="0.5" stroke-linecap="round" stroke-linejoin="round"/>
<path opacity="0.8" d="M11.2437 12.2995C11.1048 12.2995 11.0082 12.4376 11.0558 12.5681L18.2003 32.1386C18.264 32.3132 18.5106 32.314 18.5755 32.1399L25.8734 12.5694C25.9221 12.4387 25.8255 12.2995 25.686 12.2995H11.2437Z" fill="#5368E0" stroke="#5368E0" stroke-width="0.5" stroke-linecap="round" stroke-linejoin="round"/>
<path opacity="0.8" d="M20.4801 30.7173C20.4009 30.93 20.6809 31.0893 20.8233 30.9126L35.5556 12.625C35.661 12.4941 35.5678 12.2995 35.3998 12.2995H27.4801C27.3966 12.2995 27.3219 12.3514 27.2927 12.4297L20.4801 30.7173Z" fill="#5368E0" stroke="#5368E0" stroke-width="0.5" stroke-linecap="round" stroke-linejoin="round"/>
<path opacity="0.8" d="M29.7012 2.27006C29.75 2.13933 29.6534 2 29.5138 2H20.264C20.0957 2 20.0026 2.19516 20.1086 2.32591L26.4374 10.1364C26.5348 10.2566 26.726 10.2255 26.7801 10.0806L29.7012 2.27006Z" fill="#5368E0" stroke="#5368E0" stroke-width="0.5" stroke-linecap="round" stroke-linejoin="round"/>
<path opacity="0.8" d="M25.0974 11.0007C25.266 11.0007 25.3589 10.805 25.2525 10.6743L18.6552 2.57768C18.5752 2.47945 18.4251 2.47945 18.3451 2.57768L11.7478 10.6743C11.6414 10.805 11.7343 11.0007 11.9029 11.0007H25.0974Z" fill="#5368E0" stroke="#5368E0" stroke-width="0.5" stroke-linecap="round" stroke-linejoin="round"/>
<path opacity="0.8" d="M16.8912 2.32601C16.9972 2.19528 16.9042 2 16.7359 2H7.48433C7.34532 2 7.2487 2.13832 7.29655 2.26884L10.1757 10.1231C10.2292 10.2689 10.421 10.3008 10.5188 10.1803L16.8912 2.32601Z" fill="#5368E0" stroke="#5368E0" stroke-width="0.5" stroke-linecap="round" stroke-linejoin="round"/>
<path opacity="0.8" d="M6.26713 3.20447C6.21008 3.04812 5.99816 3.02579 5.90978 3.16682L1.19192 10.6944C1.10843 10.8276 1.20418 11.0006 1.36138 11.0006H8.82609C8.96498 11.0006 9.06158 10.8626 9.01397 10.7321L6.26713 3.20447Z" fill="#5368E0" stroke="#5368E0" stroke-width="0.5" stroke-linecap="round" stroke-linejoin="round"/>
<path opacity="0.8" d="M35.6391 11.0007C35.7961 11.0007 35.8919 10.8279 35.8087 10.6947L31.0883 3.14205C31.0003 3.00133 30.7891 3.02276 30.7312 3.17829L27.92 10.7309C27.8714 10.8616 27.968 11.0007 28.1074 11.0007H35.6391Z" fill="#5368E0" stroke="#5368E0" stroke-width="0.5" stroke-linecap="round" stroke-linejoin="round"/>
</g>
</svg>
