<svg width="35" height="35" viewBox="0 0 35 35" fill="none" xmlns="http://www.w3.org/2000/svg">
<path d="M35 16.3315V17.4838C34.9891 17.5463 34.9752 17.6077 34.968 17.6699C34.9084 18.1711 34.8698 18.6755 34.7874 19.173C34.5184 20.7899 33.9367 22.2928 33.0726 23.6824C31.7601 25.7922 29.9859 27.401 27.7563 28.4997C26.4694 29.1368 25.082 29.5463 23.6554 29.7099C23.3385 29.7465 23.0219 29.7793 22.7051 29.8142H10.4093C10.3473 29.8026 10.2857 29.7842 10.2232 29.7805C8.98333 29.7024 7.79045 29.4198 6.65346 28.9223C4.17811 27.8392 2.33247 26.0837 1.12432 23.6674C0.590461 22.6016 0.244971 21.4515 0.103128 20.2679C0.0682716 19.9802 0.0342798 19.6927 0 19.4052V18.2872C0.0118107 18.2253 0.0299588 18.1633 0.0337037 18.1011C0.0979424 17.0269 0.318313 15.9838 0.706337 14.9814C1.75058 12.2839 3.57086 10.2833 6.1577 8.98844C7.49979 8.31638 8.93033 7.96321 10.4265 7.88486C11.1591 7.84683 11.8911 7.88774 12.6193 7.98539C12.6853 7.99432 12.7803 7.96494 12.8261 7.91798C13.8733 6.8484 15.0656 5.97959 16.41 5.32107C17.714 4.68243 19.0864 4.27078 20.531 4.10601C20.8709 4.06712 21.2117 4.03514 21.5522 4H22.6005C22.6691 4.01066 22.7379 4.02276 22.8065 4.03082C23.3258 4.09132 23.8481 4.12934 24.3626 4.21547C25.9677 4.48481 27.4619 5.06095 28.8446 5.91679C30.9648 7.22922 32.5805 9.00572 33.6844 11.2423C34.3228 12.5297 34.7327 13.9183 34.8957 15.346C34.9332 15.6747 34.9651 16.0034 35 16.3315ZM15.4302 8.87551C15.4513 8.90317 15.4565 8.91613 15.4654 8.92045C16.1853 9.27528 16.8733 9.69134 17.5219 10.164C17.5628 10.1937 17.6642 10.1813 17.7137 10.1502C19.4963 9.0207 21.4286 8.63095 23.5044 8.99909C25.5385 9.35975 27.1937 10.376 28.4583 11.9993C29.8903 13.8363 30.4362 15.9135 30.0409 18.2247C29.7759 19.7736 29.1554 21.1633 28.1008 22.3273C26.1765 24.4495 23.7669 25.3272 20.9303 24.9556C19.184 24.7269 17.6766 23.9736 16.429 22.7128C14.8276 21.0953 13.2159 19.4884 11.6099 17.8753C11.3959 17.6604 11.1577 17.4875 10.8494 17.4498C10.311 17.3838 9.82247 17.6526 9.59 18.1363C9.38259 18.5681 9.40938 19.0549 9.85934 19.4974C11.6497 21.2549 13.4242 23.0285 15.2125 24.7877C15.5185 25.0903 15.8468 25.3697 16.1945 25.6234C17.5009 26.572 18.9737 27.0965 20.5688 27.3077C21.8207 27.473 23.0628 27.4376 24.2955 27.1605C26.6467 26.6325 28.5943 25.4324 30.1282 23.5807C31.3949 22.0505 32.1608 20.2921 32.4279 18.318C32.5826 17.1923 32.5503 16.0487 32.3322 14.9335C31.9765 13.1101 31.205 11.4785 29.9689 10.0897C27.6105 7.44152 24.6435 6.2593 21.1126 6.52317C19.7544 6.62457 18.4696 7.02354 17.2606 7.65642C16.6082 7.99539 15.9945 8.40415 15.4302 8.87551ZM14.5663 27.3624C14.5177 27.3174 14.4694 27.2722 14.4212 27.2267C13.6892 26.5357 12.9532 25.8489 12.2298 25.1489C12.0898 25.0135 11.9611 24.9476 11.7629 24.9522C11.0303 24.97 10.2972 24.9732 9.57531 24.8102C5.98601 23.9984 3.90185 20.096 5.22465 16.6622C6.26802 13.9547 9.15646 12.3058 12.0049 12.8142C13.2816 13.0421 14.4021 13.5825 15.3219 14.5311C16.4437 15.6891 17.5988 16.814 18.7326 17.9602C18.9907 18.2212 19.2872 18.3402 19.6447 18.2892C20.1067 18.2233 20.4746 18.0032 20.6416 17.55C20.8053 17.1041 20.726 16.6818 20.3884 16.3399C19.1984 15.1343 18.0367 13.8985 16.7986 12.7442C14.3972 10.5045 11.5656 9.83852 8.4337 10.7909C4.22132 12.0707 1.75605 16.4205 2.71848 20.7127C3.59564 24.6235 7.01584 27.3682 11.0179 27.3716C12.1354 27.3728 13.253 27.3722 14.3705 27.3716C14.4258 27.3716 14.4811 27.3667 14.5663 27.3624Z" fill="#5368E0" fill-opacity="0.8"/>
</svg>
