<svg width="166" height="48" viewBox="0 0 166 48" fill="none" xmlns="http://www.w3.org/2000/svg">
    <rect width="48" height="48" fill="#5368E0"/>
    <path d="M66.8091 30.643L65.7606 28.0309H60.5372L59.5459 30.643H56L61.6619 17.3383H64.8265L70.4312 30.643H66.8091ZM63.187 20.8899L61.4713 25.4564H64.8646L63.187 20.8899Z" fill="#21232E"/>
    <path d="M86.0814 25.6255C86.0814 26.4273 85.9416 27.1602 85.662 27.8242C85.3951 28.4756 85.0075 29.0394 84.4991 29.5154C83.9907 29.979 83.3743 30.3423 82.6499 30.6054C81.9382 30.8685 81.1439 31 80.2669 31C79.3773 31 78.5766 30.8685 77.8649 30.6054C77.1532 30.3423 76.5495 29.979 76.0539 29.5154C75.5582 29.0394 75.1769 28.4756 74.91 27.8242C74.6431 27.1602 74.5097 26.4273 74.5097 25.6255V17.3383H77.7505V25.3624C77.7505 25.7257 77.795 26.0702 77.884 26.396C77.9856 26.7217 78.1318 27.0161 78.3224 27.2792C78.5258 27.5298 78.7863 27.7302 79.1041 27.8805C79.4345 28.0309 79.8285 28.106 80.286 28.106C80.7435 28.106 81.1312 28.0309 81.4489 27.8805C81.7793 27.7302 82.0462 27.5298 82.2496 27.2792C82.4529 27.0161 82.5991 26.7217 82.688 26.396C82.777 26.0702 82.8215 25.7257 82.8215 25.3624V17.3383H86.0814V25.6255Z" fill="#21232E"/>
    <path d="M104.75 23.953C104.75 25.1181 104.528 26.1266 104.083 26.9785C103.651 27.8179 103.073 28.5132 102.348 29.0644C101.636 29.6031 100.829 30.004 99.927 30.2671C99.0247 30.5177 98.1096 30.643 97.1818 30.643H92.149V17.3383H97.0293C97.9825 17.3383 98.923 17.451 99.8508 17.6765C100.779 17.8895 101.605 18.2528 102.329 18.7664C103.053 19.2676 103.638 19.9441 104.083 20.796C104.528 21.6479 104.75 22.7002 104.75 23.953ZM101.357 23.953C101.357 23.2013 101.23 22.5812 100.976 22.0926C100.734 21.5915 100.404 21.1969 99.9842 20.9087C99.5775 20.6081 99.1073 20.3951 98.5735 20.2698C98.0524 20.1445 97.5123 20.0819 96.9531 20.0819H95.3327V27.8617H96.8768C97.4614 27.8617 98.0207 27.7991 98.5544 27.6738C99.1009 27.536 99.5775 27.3168 99.9842 27.0161C100.404 26.7154 100.734 26.3145 100.976 25.8134C101.23 25.3123 101.357 24.6922 101.357 23.953Z" fill="#21232E"/>
    <path d="M110.344 30.643V17.3383H119.418V20.0631H113.489V22.5624H119.094V25.1369H113.489V27.8993H119.761V30.643H110.344Z" fill="#21232E"/>
    <path d="M132.046 30.643H128.786L123.677 17.3383H127.338L130.464 26.7718H130.54L133.648 17.3383H137.251L132.046 30.643Z" fill="#21232E"/>
    <path d="M141.781 30.643V17.3383H150.855V20.0631H144.927V22.5624H150.531V25.1369H144.927V27.8993H151.199V30.643H141.781Z" fill="#21232E"/>
    <path d="M163.922 20.796C163.642 20.4452 163.274 20.1696 162.816 19.9691C162.372 19.7562 161.939 19.6497 161.52 19.6497C161.304 19.6497 161.082 19.6685 160.853 19.706C160.637 19.7436 160.44 19.8188 160.262 19.9315C160.084 20.0318 159.931 20.1696 159.804 20.345C159.69 20.5078 159.633 20.7208 159.633 20.9839C159.633 21.2094 159.677 21.3973 159.766 21.5477C159.868 21.698 160.008 21.8295 160.186 21.9423C160.376 22.055 160.599 22.1615 160.853 22.2617C161.107 22.3494 161.393 22.4434 161.711 22.5436C162.168 22.694 162.645 22.8631 163.14 23.051C163.636 23.2264 164.087 23.4644 164.494 23.7651C164.901 24.0658 165.237 24.4416 165.504 24.8926C165.771 25.3311 165.905 25.8823 165.905 26.5463C165.905 27.3105 165.759 27.9745 165.466 28.5383C165.187 29.0895 164.805 29.5468 164.322 29.9101C163.839 30.2734 163.287 30.5427 162.664 30.7181C162.041 30.8935 161.399 30.9812 160.738 30.9812C159.773 30.9812 158.838 30.8183 157.936 30.4926C157.034 30.1544 156.284 29.6783 155.687 29.0644L157.822 26.9221C158.152 27.323 158.584 27.6613 159.118 27.9369C159.664 28.2 160.205 28.3315 160.738 28.3315C160.98 28.3315 161.215 28.3065 161.444 28.2564C161.673 28.2063 161.87 28.1248 162.035 28.0121C162.213 27.8993 162.352 27.749 162.454 27.5611C162.556 27.3732 162.607 27.1477 162.607 26.8846C162.607 26.634 162.543 26.421 162.416 26.2456C162.289 26.0702 162.105 25.9136 161.863 25.7758C161.634 25.6255 161.342 25.494 160.986 25.3812C160.643 25.2559 160.249 25.1244 159.804 24.9866C159.372 24.8488 158.946 24.6859 158.527 24.498C158.12 24.3101 157.752 24.072 157.421 23.7839C157.104 23.4832 156.843 23.1262 156.64 22.7128C156.449 22.2868 156.354 21.7732 156.354 21.1718C156.354 20.4327 156.506 19.8 156.811 19.2738C157.116 18.7477 157.517 18.3154 158.012 17.9772C158.508 17.6389 159.067 17.3946 159.69 17.2443C160.313 17.0814 160.942 17 161.577 17C162.34 17 163.115 17.1378 163.903 17.4134C164.704 17.689 165.403 18.0962 166 18.6349L163.922 20.796Z" fill="#21232E"/>
    <path d="M11.1802 19.887V22.774H16.3362V25.5621H11.1802V31H8V17H16.769V19.887H11.1802Z" fill="white"/>
    <path d="M22.2294 31V17H25.466V31H22.2294Z" fill="white"/>
    <path d="M31.6073 31V17H34.844V28.0537H40V31H31.6073Z" fill="white"/>
</svg>
