<svg width="37" height="32" viewBox="0 0 37 32" fill="none" xmlns="http://www.w3.org/2000/svg">
    <path opacity="0.6" d="M31.4711 13.9313C31.4711 21.0624 25.6907 26.8627 18.5397 26.8627C11.4086 26.8627 5.6084 21.0823 5.6084 13.9313H1C1 23.605 8.8462 31.4313 18.5 31.4313C28.1737 31.4313 36 23.5851 36 13.9313H31.4711Z" fill="#5368E0" stroke="#5368E0" stroke-linecap="round" stroke-linejoin="round"/>
    <path opacity="0.4" d="M31.4712 13.9313C31.4712 6.78036 25.6908 1 18.5597 1C11.4286 1 5.62842 6.78036 5.62842 13.9313H31.4712Z" fill="#5368E0" stroke="#5368E0" stroke-linecap="round" stroke-linejoin="round"/>
    <path d="M18.5597 26.8428C25.6908 26.8428 31.4911 21.0624 31.4911 13.9114H5.62842C5.62842 21.0624 11.4088 26.8428 18.5597 26.8428Z" fill="#5368E0" stroke="#5368E0" stroke-linecap="round" stroke-linejoin="round"/>
</svg>
