<svg width="37" height="32" viewBox="0 0 37 32" fill="none" xmlns="http://www.w3.org/2000/svg">
    <g opacity="0.8">
        <path opacity="0.8" d="M1.60028 11.2995C1.43227 11.2995 1.33913 11.4941 1.44453 11.625L15.805 29.4532C15.9469 29.6294 16.2262 29.4716 16.1486 29.2592L9.63855 11.4309C9.60973 11.352 9.53468 11.2995 9.45068 11.2995H1.60028Z" fill="#5368E0" stroke="#5368E0" stroke-width="0.5" stroke-linecap="round" stroke-linejoin="round"/>
        <path opacity="0.8" d="M11.2437 11.2995C11.1048 11.2995 11.0082 11.4376 11.0558 11.5681L18.2003 31.1386C18.264 31.3132 18.5106 31.314 18.5755 31.1399L25.8734 11.5694C25.9221 11.4387 25.8255 11.2995 25.686 11.2995H11.2437Z" fill="#5368E0" stroke="#5368E0" stroke-width="0.5" stroke-linecap="round" stroke-linejoin="round"/>
        <path opacity="0.8" d="M20.4801 29.7173C20.4009 29.93 20.6809 30.0893 20.8233 29.9126L35.5556 11.625C35.661 11.4941 35.5678 11.2995 35.3998 11.2995H27.4801C27.3966 11.2995 27.3219 11.3514 27.2927 11.4297L20.4801 29.7173Z" fill="#5368E0" stroke="#5368E0" stroke-width="0.5" stroke-linecap="round" stroke-linejoin="round"/>
        <path opacity="0.8" d="M29.7012 1.27006C29.75 1.13933 29.6534 1 29.5138 1H20.264C20.0957 1 20.0026 1.19516 20.1086 1.32591L26.4374 9.13644C26.5348 9.25664 26.726 9.22549 26.7801 9.08059L29.7012 1.27006Z" fill="#5368E0" stroke="#5368E0" stroke-width="0.5" stroke-linecap="round" stroke-linejoin="round"/>
        <path opacity="0.8" d="M25.0974 10.0007C25.266 10.0007 25.3589 9.80498 25.2525 9.67433L18.6552 1.57768C18.5752 1.47945 18.4251 1.47945 18.3451 1.57768L11.7478 9.67433C11.6414 9.80498 11.7343 10.0007 11.9029 10.0007H25.0974Z" fill="#5368E0" stroke="#5368E0" stroke-width="0.5" stroke-linecap="round" stroke-linejoin="round"/>
        <path opacity="0.8" d="M16.8912 1.32601C16.9972 1.19528 16.9042 1 16.7359 1H7.48433C7.34532 1 7.2487 1.13832 7.29655 1.26884L10.1757 9.12311C10.2292 9.26885 10.421 9.30083 10.5188 9.18028L16.8912 1.32601Z" fill="#5368E0" stroke="#5368E0" stroke-width="0.5" stroke-linecap="round" stroke-linejoin="round"/>
        <path opacity="0.8" d="M6.26713 2.20447C6.21008 2.04812 5.99816 2.02579 5.90978 2.16682L1.19192 9.69443C1.10843 9.82763 1.20418 10.0006 1.36138 10.0006H8.82609C8.96498 10.0006 9.06158 9.86256 9.01397 9.73208L6.26713 2.20447Z" fill="#5368E0" stroke="#5368E0" stroke-width="0.5" stroke-linecap="round" stroke-linejoin="round"/>
        <path opacity="0.8" d="M35.6391 10.0007C35.7961 10.0007 35.8919 9.82787 35.8087 9.69466L31.0883 2.14205C31.0003 2.00133 30.7891 2.02276 30.7312 2.17829L27.92 9.73089C27.8714 9.86157 27.968 10.0007 28.1074 10.0007H35.6391Z" fill="#5368E0" stroke="#5368E0" stroke-width="0.5" stroke-linecap="round" stroke-linejoin="round"/>
    </g>
</svg>
