<svg width="35" height="28" viewBox="0 0 35 28" fill="none" xmlns="http://www.w3.org/2000/svg">
    <g clip-path="url(#clip0)">
        <path d="M34.7082 8.513C34.7082 8.44009 34.6718 8.3854 34.6535 8.29425C33.7603 5.86977 31.3358 4.21092 27.8358 3.62759C25.8853 3.29946 23.7343 3.35415 21.5103 3.7005C20.6353 1.14842 19.6509 -0.0911627 18.5207 -1.68257e-05C17.2811 0.091129 16.552 1.78644 16.1509 4.08332C14.1093 2.36977 12.5962 1.8229 11.6666 2.49738C10.6275 3.22655 10.9009 5.10415 11.7577 7.29165C9.8801 8.45832 8.2577 9.80727 7.01812 11.2838C6.59885 11.7578 6.25249 12.25 5.9426 12.7422L0.437387 14.9114C0.236866 14.9844 0.0728039 15.1666 0.0181164 15.3854C-0.0365711 15.6041 0.0181164 15.8229 0.16395 16.0052L3.49989 19.8151L3.37228 24.7187C3.37228 24.9557 3.48166 25.1745 3.66395 25.3021C3.77332 25.375 3.91916 25.4297 4.04676 25.4297C4.13791 25.4297 4.22905 25.4114 4.3202 25.375L9.2603 23.2969C9.98947 23.5703 10.7733 23.7708 11.6483 23.9166C12.578 24.0807 13.5624 24.1536 14.565 24.1536C15.5494 24.1536 16.5702 24.0625 17.591 23.9166C18.4478 26.5234 19.3957 27.7995 20.5259 27.7995C20.5624 27.7995 20.5988 27.7995 20.6353 27.7995C21.8567 27.7083 22.677 26.1041 23.1145 23.0599C24.5181 24.2083 25.6483 24.8099 26.5051 24.8099C26.8514 24.8099 27.1613 24.7187 27.4166 24.5182C28.2733 23.8984 28.2916 22.513 27.5624 20.362C29.5129 19.1771 31.19 17.7916 32.4843 16.2786C34.69 13.6354 35.4738 10.901 34.7082 8.513ZM20.5806 18.6302C19.7056 17.6276 18.8306 16.4974 17.9556 15.3307C18.6119 15.0937 19.2863 14.8385 20.0155 14.5833C28.0363 11.6302 31.7369 10.2812 33.4139 9.53384C33.2863 10.5729 32.3567 11.9036 30.7343 13.2708C28.4556 15.2031 25.1561 17.0078 21.4009 18.3932C21.1457 18.4661 20.8723 18.539 20.5806 18.6302ZM21.4921 21.6015C20.5077 21.9114 19.5233 22.1666 18.5572 22.3489C18.4296 21.8568 18.2837 21.3463 18.1744 20.7995C18.8306 20.6172 19.5051 20.4349 20.1796 20.2161C20.6171 20.7083 21.0546 21.164 21.4921 21.6015ZM17.9009 19.4505C17.7733 18.6849 17.6457 17.8646 17.5363 17.026C18.0832 17.7552 18.6483 18.4297 19.1952 19.0859C18.7577 19.2318 18.3384 19.3411 17.9009 19.4505ZM15.7317 8.65884C15.203 8.87759 14.6926 9.09634 14.2004 9.33331C13.927 8.80467 13.69 8.31248 13.4895 7.85675C14.2369 7.43748 15.0207 7.0729 15.8228 6.72655C15.7863 7.36457 15.7499 8.00259 15.7317 8.65884ZM15.7134 10.1354C15.7134 10.7916 15.7317 11.4297 15.7499 12.0312C15.4218 11.5208 15.1119 11.0104 14.8384 10.5364C15.1301 10.4088 15.4218 10.2812 15.7134 10.1354ZM32.9218 8.16665C31.3541 8.65884 27.8176 9.91665 19.4322 12.9791C18.6483 13.2708 17.9009 13.5443 17.19 13.7995C17.0988 12.25 17.0624 10.8646 17.0806 9.58852C17.4087 9.46092 17.7186 9.31509 18.0468 9.18748C22.0754 7.71092 25.7212 7.05467 28.4556 7.05467C30.6067 7.05467 32.1744 7.45571 32.9218 8.16665ZM15.6223 14.3828C10.19 16.388 7.41916 17.4088 6.03374 18.0469C6.17957 17.0078 7.10926 15.6771 8.73166 14.3099C10.0442 13.1979 11.7395 12.1224 13.6353 11.1562C14.2733 12.2864 14.966 13.3984 15.6223 14.3828ZM6.54416 19.3958C7.83843 18.9948 10.4817 18.0651 16.0416 16.0234C16.1874 17.3359 16.3697 18.5937 16.5702 19.7786C14.5832 20.2344 12.6692 20.4896 10.9921 20.4896C8.87749 20.4896 7.30978 20.0885 6.54416 19.3958ZM27.5988 4.97655C28.6379 5.15884 29.5494 5.43227 30.3332 5.79686C27.1431 5.37759 22.5676 6.0703 17.5728 7.91144C17.427 7.96613 17.2629 8.03904 17.1171 8.09373C17.1353 7.41925 17.1718 6.763 17.2447 6.17967C19.8514 5.24998 22.4947 4.7578 24.9192 4.7578C25.8488 4.7578 26.7421 4.83071 27.5988 4.97655ZM18.6301 1.36717C18.7759 1.36717 19.4139 1.84113 20.1431 3.95571C19.2317 4.15623 18.3384 4.39321 17.427 4.70311C17.7551 2.53384 18.2655 1.40363 18.6301 1.36717ZM12.4686 3.60936C12.5962 3.51821 13.5259 3.60936 15.5494 5.37759C14.6561 5.74217 13.7811 6.16144 12.9608 6.59894C12.3046 4.86717 12.1952 3.79165 12.4686 3.60936ZM8.05718 12.1588C9.16916 10.8281 10.6275 9.62498 12.3046 8.56769C12.5051 9.02342 12.7421 9.47915 12.9791 9.95311C11.0103 10.9739 9.22385 12.0859 7.83843 13.2526C7.30978 13.7083 6.87228 14.1458 6.47124 14.5833C6.83582 13.7812 7.36447 12.9791 8.05718 12.1588ZM4.99468 14.5833C4.46603 15.987 4.33843 17.3541 4.64832 18.612L4.39312 18.7213L1.84103 15.8047L4.99468 14.5833ZM4.77593 23.6979L4.8853 20.0156L5.14051 19.9062C5.66916 20.9453 6.52593 21.8203 7.65614 22.4948L4.77593 23.6979ZM11.8671 22.5677C10.8098 22.3854 9.89832 22.112 9.09624 21.7291C9.67957 21.8021 10.2994 21.8568 10.9921 21.8568C10.9921 21.8568 10.9921 21.8568 11.0103 21.8568C12.7603 21.8568 14.7655 21.5833 16.8619 21.1094C16.9712 21.6198 17.0988 22.112 17.2264 22.5859C15.3306 22.8411 13.5077 22.8594 11.8671 22.5677ZM20.5259 26.4323C20.3801 26.4323 19.7238 25.9583 18.9582 23.6979C19.8879 23.5156 20.8176 23.2604 21.7473 22.9687C21.328 25.7213 20.69 26.4323 20.5259 26.4323ZM26.6145 23.4062C26.5051 23.4791 25.7577 23.4427 24.0988 22.112C24.8827 21.7838 25.6301 21.4193 26.3593 21.0364C26.9061 22.7318 26.7238 23.3333 26.6145 23.4062ZM31.427 15.4036C29.4582 17.737 26.4686 19.7422 22.9686 21.1094C22.5311 20.6901 22.0754 20.2526 21.6014 19.7422C21.6926 19.7057 21.802 19.6875 21.8931 19.651C25.7759 18.2291 29.2395 16.3151 31.6275 14.2916C32.1561 13.8541 32.5936 13.3984 32.9947 12.9609C32.6301 13.763 32.1014 14.5833 31.427 15.4036Z" fill="#5368E0" fill-opacity="0.8"/>
    </g>
    <defs>
        <clipPath id="clip0">
            <rect width="35" height="27.7995" fill="white"/>
        </clipPath>
    </defs>
</svg>
